M48
; DRILL file KiCad 10.0.0 date 2026-07-03T14:39:13
; FORMAT={-:-/ absolute / metric / decimal}
; #@! TF.CreationDate,2026-07-03T14:39:13-04:00
; #@! TF.GenerationSoftware,Kicad,Pcbnew,10.0.0
; #@! TF.FileFunction,Plated,1,6,PTH
FMAT,2
METRIC
; #@! TA.AperFunction,Plated,PTH,ComponentDrill
T1C0.200
; #@! TA.AperFunction,Plated,PTH,ComponentDrill
T2C0.203
; #@! TA.AperFunction,Plated,PTH,ComponentDrill
T3C0.250
; #@! TA.AperFunction,Plated,PTH,ViaDrill
T4C0.300
; #@! TA.AperFunction,Plated,PTH,ComponentDrill
T5C0.914
; #@! TA.AperFunction,Plated,PTH,ComponentDrill
T6C1.000
; #@! TA.AperFunction,Plated,PTH,ComponentDrill
T7C1.500
; #@! TA.AperFunction,Plated,PTH,ComponentDrill
T8C1.900
; #@! TA.AperFunction,Plated,PTH,ComponentDrill
T9C2.200
; #@! TA.AperFunction,Plated,PTH,ComponentDrill
T10C3.200
%
G90
G05
T1
X-21.4Y9.8
X-21.4Y8.5
X-20.1Y9.8
X-20.1Y8.5
X-18.8Y9.8
X-18.8Y8.5
X-17.5Y9.8
X-17.5Y8.5
T2
X-1.775Y7.806
X-1.775Y6.194
X-0.969Y7.0
X-0.806Y8.775
X-0.806Y5.225
X0.0Y7.969
X0.0Y6.031
X0.806Y8.775
X0.806Y5.225
X0.969Y7.0
X1.775Y7.806
X1.775Y6.194
T3
X-17.45Y-21.05
X-17.45Y-22.98
X-17.45Y-23.49
X-17.45Y-24.0
X-17.45Y-24.51
X-17.45Y-25.02
X-17.45Y-26.95
X-17.0Y-23.235
X-17.0Y-23.745
X-17.0Y-24.255
X-17.0Y-24.765
X-16.55Y-22.98
X-16.55Y-23.49
X-16.55Y-24.0
X-16.55Y-24.51
X-16.55Y-25.02
X-15.52Y-21.05
X-15.52Y-21.95
X-15.52Y-26.05
X-15.52Y-26.95
X-15.265Y-21.5
X-15.265Y-26.5
X-15.01Y-21.05
X-15.01Y-21.95
X-15.01Y-26.05
X-15.01Y-26.95
X-14.755Y-21.5
X-14.755Y-26.5
X-14.5Y-21.05
X-14.5Y-21.95
X-14.5Y-26.05
X-14.5Y-26.95
X-14.245Y-21.5
X-14.245Y-26.5
X-13.99Y-21.05
X-13.99Y-21.95
X-13.99Y-26.05
X-13.99Y-26.95
X-13.735Y-21.5
X-13.735Y-26.5
X-13.48Y-21.05
X-13.48Y-21.95
X-13.48Y-26.05
X-13.48Y-26.95
X-12.45Y-22.98
X-12.45Y-23.49
X-12.45Y-24.0
X-12.45Y-24.51
X-12.45Y-25.02
X-12.0Y-23.235
X-12.0Y-23.745
X-12.0Y-24.255
X-12.0Y-24.765
X-11.55Y-21.05
X-11.55Y-22.98
X-11.55Y-23.49
X-11.55Y-24.0
X-11.55Y-24.51
X-11.55Y-25.02
X-11.55Y-26.95
X-2.95Y-21.05
X-2.95Y-22.98
X-2.95Y-23.49
X-2.95Y-24.0
X-2.95Y-24.51
X-2.95Y-25.02
X-2.95Y-26.95
X-2.5Y-23.235
X-2.5Y-23.745
X-2.5Y-24.255
X-2.5Y-24.765
X-2.05Y-22.98
X-2.05Y-23.49
X-2.05Y-24.0
X-2.05Y-24.51
X-2.05Y-25.02
X-1.02Y-21.05
X-1.02Y-21.95
X-1.02Y-26.05
X-1.02Y-26.95
X-0.765Y-21.5
X-0.765Y-26.5
X-0.51Y-21.05
X-0.51Y-21.95
X-0.51Y-26.05
X-0.51Y-26.95
X-0.255Y-21.5
X-0.255Y-26.5
X0.0Y-21.05
X0.0Y-21.95
X0.0Y-26.05
X0.0Y-26.95
X0.255Y-21.5
X0.255Y-26.5
X0.51Y-21.05
X0.51Y-21.95
X0.51Y-26.05
X0.51Y-26.95
X0.765Y-21.5
X0.765Y-26.5
X1.02Y-21.05
X1.02Y-21.95
X1.02Y-26.05
X1.02Y-26.95
X2.05Y-22.98
X2.05Y-23.49
X2.05Y-24.0
X2.05Y-24.51
X2.05Y-25.02
X2.5Y-23.235
X2.5Y-23.745
X2.5Y-24.255
X2.5Y-24.765
X2.95Y-21.05
X2.95Y-22.98
X2.95Y-23.49
X2.95Y-24.0
X2.95Y-24.51
X2.95Y-25.02
X2.95Y-26.95
X11.55Y-21.05
X11.55Y-22.98
X11.55Y-23.49
X11.55Y-24.0
X11.55Y-24.51
X11.55Y-25.02
X11.55Y-26.95
X12.0Y-23.235
X12.0Y-23.745
X12.0Y-24.255
X12.0Y-24.765
X12.45Y-22.98
X12.45Y-23.49
X12.45Y-24.0
X12.45Y-24.51
X12.45Y-25.02
X13.48Y-21.05
X13.48Y-21.95
X13.48Y-26.05
X13.48Y-26.95
X13.735Y-21.5
X13.735Y-26.5
X13.99Y-21.05
X13.99Y-21.95
X13.99Y-26.05
X13.99Y-26.95
X14.245Y-21.5
X14.245Y-26.5
X14.5Y-21.05
X14.5Y-21.95
X14.5Y-26.05
X14.5Y-26.95
X14.755Y-21.5
X14.755Y-26.5
X15.01Y-21.05
X15.01Y-21.95
X15.01Y-26.05
X15.01Y-26.95
X15.265Y-21.5
X15.265Y-26.5
X15.52Y-21.05
X15.52Y-21.95
X15.52Y-26.05
X15.52Y-26.95
X16.55Y-22.98
X16.55Y-23.49
X16.55Y-24.0
X16.55Y-24.51
X16.55Y-25.02
X17.0Y-23.235
X17.0Y-23.745
X17.0Y-24.255
X17.0Y-24.765
X17.45Y-21.05
X17.45Y-22.98
X17.45Y-23.49
X17.45Y-24.0
X17.45Y-24.51
X17.45Y-25.02
X17.45Y-26.95
T4
X-33.6Y2.0
X-33.6Y1.3
X-33.6Y0.6
X-33.6Y-0.1
X-33.6Y-0.8
X-33.6Y-3.1
X-33.6Y-3.8
X-33.6Y-4.5
X-33.6Y-5.2
X-33.6Y-5.9
X-32.8Y2.0
X-32.8Y-0.8
X-32.8Y-3.1
X-32.8Y-5.9
X-32.0Y2.0
X-32.0Y-0.8
X-32.0Y-3.1
X-32.0Y-5.9
X-31.2Y2.0
X-31.2Y-0.8
X-31.2Y-3.1
X-31.2Y-5.9
X-30.4Y2.0
X-30.4Y1.3
X-30.4Y0.6
X-30.4Y-0.1
X-30.4Y-0.8
X-30.4Y-3.1
X-30.4Y-3.8
X-30.4Y-4.5
X-30.4Y-5.2
X-30.4Y-5.9
X-27.5Y-2.75
X-27.5Y-3.4
X-27.5Y-4.05
X-27.5Y-4.7
X-27.5Y-5.35
X-27.5Y-6.0
X-27.1Y9.2
X-26.85Y-2.75
X-26.85Y-3.4
X-26.85Y-4.05
X-26.85Y-4.7
X-26.85Y-5.35
X-26.85Y-6.0
X-26.2Y-2.75
X-26.2Y-3.4
X-26.2Y-4.05
X-26.2Y-4.7
X-26.2Y-5.35
X-26.2Y-6.0
X-25.7Y-9.1
X-25.7Y-9.8
X-25.55Y-2.75
X-25.55Y-3.4
X-25.55Y-4.05
X-25.55Y-4.7
X-25.55Y-5.35
X-25.55Y-6.0
X-25.0Y-9.1
X-25.0Y-9.8
X-24.9Y-2.75
X-24.9Y-3.4
X-24.9Y-4.05
X-24.9Y-4.7
X-24.9Y-5.35
X-24.9Y-6.0
X-24.3Y-9.1
X-24.3Y-9.8
X-24.25Y-2.75
X-24.25Y-3.4
X-24.25Y-4.05
X-24.25Y-4.7
X-24.25Y-5.35
X-24.25Y-6.0
X-24.15Y9.85
X-24.15Y9.15
X-24.15Y8.5
X-24.15Y7.85
X-23.6Y-2.75
X-23.6Y-3.4
X-23.6Y-4.05
X-23.6Y-4.7
X-23.6Y-5.35
X-23.6Y-6.0
X-23.6Y-9.1
X-23.6Y-9.8
X-23.45Y9.85
X-23.45Y9.15
X-23.45Y8.5
X-23.45Y7.85
X-22.95Y-2.75
X-22.95Y-3.4
X-22.95Y-4.05
X-22.95Y-4.7
X-22.95Y-5.35
X-22.95Y-6.0
X-22.9Y-9.1
X-22.9Y-9.8
X-22.75Y9.85
X-22.75Y9.15
X-22.75Y8.5
X-22.75Y7.85
X-22.3Y-2.75
X-22.3Y-3.4
X-22.3Y-4.05
X-22.3Y-4.7
X-22.3Y-5.35
X-22.3Y-6.0
X-22.2Y-9.1
X-22.2Y-9.8
X-22.05Y9.85
X-22.05Y9.15
X-22.05Y8.5
X-22.05Y7.85
X-21.65Y-2.75
X-21.65Y-3.4
X-21.65Y-4.05
X-21.65Y-4.7
X-21.65Y-5.35
X-21.65Y-6.0
X-21.5Y-9.1
X-21.5Y-9.8
X-21.4Y10.45
X-21.4Y9.15
X-21.4Y7.85
X-20.75Y10.45
X-20.75Y9.8
X-20.75Y9.15
X-20.75Y8.5
X-20.75Y7.85
X-20.1Y10.45
X-20.1Y9.15
X-20.1Y7.85
X-19.8Y3.8
X-19.8Y3.1
X-19.8Y2.4
X-19.8Y1.7
X-19.8Y1.0
X-19.8Y0.3
X-19.45Y10.45
X-19.45Y9.8
X-19.45Y9.15
X-19.45Y8.5
X-19.45Y7.85
X-19.0Y3.8
X-19.0Y3.1
X-19.0Y2.4
X-19.0Y1.7
X-19.0Y1.0
X-19.0Y0.3
X-18.8Y10.45
X-18.8Y9.15
X-18.8Y7.85
X-18.15Y10.45
X-18.15Y9.8
X-18.15Y9.15
X-18.1Y8.5
X-18.1Y7.85
X-17.65Y-11.25
X-17.65Y-11.9
X-17.65Y-12.55
X-17.65Y-13.2
X-17.65Y-13.85
X-17.65Y-14.5
X-17.5Y10.45
X-17.5Y9.15
X-17.5Y7.85
X-17.0Y-11.25
X-17.0Y-11.9
X-17.0Y-12.55
X-17.0Y-13.2
X-17.0Y-13.85
X-17.0Y-14.5
X-16.8Y10.45
X-16.8Y9.8
X-16.8Y9.15
X-16.8Y8.5
X-16.8Y7.85
X-16.475Y27.1
X-16.35Y-11.25
X-16.35Y-11.9
X-16.35Y-12.55
X-16.35Y-13.2
X-16.35Y-13.85
X-16.35Y-14.5
X-15.7Y-11.25
X-15.7Y-11.9
X-15.7Y-12.55
X-15.7Y-13.2
X-15.7Y-13.85
X-15.7Y-14.5
X-15.2Y24.15
X-15.05Y-11.25
X-15.05Y-11.9
X-15.05Y-12.55
X-15.05Y-13.2
X-15.05Y-13.85
X-15.05Y-14.5
X-14.7Y21.1
X-14.7Y20.4
X-14.4Y-11.25
X-14.4Y-11.9
X-14.4Y-12.55
X-14.4Y-13.2
X-14.4Y-13.85
X-14.4Y-14.5
X-14.175Y16.1
X-13.75Y-11.25
X-13.75Y-11.9
X-13.75Y-12.55
X-13.75Y-13.2
X-13.75Y-13.85
X-13.75Y-14.5
X-13.725Y25.075
X-13.1Y-11.25
X-13.1Y-11.9
X-13.1Y-12.55
X-13.1Y-13.2
X-13.1Y-13.85
X-13.1Y-14.5
X-12.7Y16.105
X-12.625Y25.575
X-12.45Y-11.25
X-12.45Y-11.9
X-12.45Y-12.55
X-12.45Y-13.2
X-12.45Y-13.85
X-12.45Y-14.5
X-11.8Y-11.25
X-11.8Y-11.9
X-11.8Y-12.55
X-11.8Y-13.2
X-11.8Y-13.85
X-11.8Y-14.5
X-11.1Y8.0
X-11.1Y7.32
X-10.43Y8.0
X-10.42Y7.32
X-10.025Y-0.95
X-10.025Y-1.65
X-10.025Y-2.35
X-10.025Y-3.05
X-10.025Y-3.75
X-9.65Y24.325
X-9.325Y-0.925
X-9.325Y-1.625
X-9.325Y-2.325
X-9.325Y-3.025
X-9.325Y-3.725
X-8.7Y20.425
X-8.6Y-0.925
X-8.6Y-1.625
X-8.6Y-2.325
X-8.6Y-3.025
X-8.6Y-3.725
X-8.23Y30.9
X-8.01Y32.425
X-7.9Y-15.35
X-7.9Y-16.0
X-7.9Y-16.65
X-7.9Y-17.3
X-7.9Y-17.95
X-7.9Y-18.6
X-7.85Y24.325
X-7.55Y20.225
X-7.25Y-15.35
X-7.25Y-16.0
X-7.25Y-16.65
X-7.25Y-17.3
X-7.25Y-17.95
X-7.25Y-18.6
X-6.67Y29.73
X-6.6Y-15.35
X-6.6Y-16.0
X-6.6Y-16.65
X-6.6Y-17.3
X-6.6Y-17.95
X-6.6Y-18.6
X-5.95Y-15.35
X-5.95Y-16.0
X-5.95Y-16.65
X-5.95Y-17.3
X-5.95Y-17.95
X-5.95Y-18.6
X-5.605Y26.77
X-5.3Y-15.35
X-5.3Y-16.0
X-5.3Y-16.65
X-5.3Y-17.3
X-5.3Y-17.95
X-5.3Y-18.6
X-4.65Y-15.35
X-4.65Y-16.0
X-4.65Y-16.65
X-4.65Y-17.3
X-4.65Y-17.95
X-4.65Y-18.6
X-4.0Y-15.35
X-4.0Y-16.0
X-4.0Y-16.65
X-4.0Y-17.3
X-4.0Y-17.95
X-4.0Y-18.6
X-3.69Y19.04
X-3.65Y22.63
X-3.53Y15.45
X-3.35Y-15.35
X-3.35Y-16.0
X-3.35Y-16.65
X-3.35Y-17.3
X-3.35Y-17.95
X-3.35Y-18.6
X-3.25Y19.95
X-2.9Y20.86
X-2.7Y-15.35
X-2.7Y-16.0
X-2.7Y-16.65
X-2.7Y-17.3
X-2.7Y-17.95
X-2.7Y-18.6
X-2.47Y17.75
X-2.15Y26.7
X-2.05Y-15.35
X-2.05Y-16.0
X-2.05Y-16.65
X-2.05Y-17.3
X-2.05Y-17.95
X-2.05Y-18.6
X-1.97Y22.01
X-1.16Y23.34
X-0.93Y16.97
X-0.91Y15.45
X-0.48Y22.92
X-0.4Y0.4
X-0.4Y-0.3
X0.0Y7.0
X0.3Y0.4
X0.3Y-0.3
X0.34Y22.5
X1.07Y26.79
X1.84Y22.59
X2.05Y-12.7
X2.05Y-13.35
X2.05Y-14.0
X2.05Y-14.65
X2.05Y-15.3
X2.05Y-15.95
X2.15Y11.775
X2.6Y20.5
X2.7Y-12.7
X2.7Y-13.35
X2.7Y-14.0
X2.7Y-14.65
X2.7Y-15.3
X2.7Y-15.95
X2.8Y-5.6
X2.8Y-6.3
X2.8Y-7.0
X2.925Y11.75
X3.04Y26.8
X3.35Y-12.7
X3.35Y-13.35
X3.35Y-14.0
X3.35Y-14.65
X3.35Y-15.3
X3.35Y-15.95
X3.5Y-5.6
X3.5Y-6.3
X3.5Y-7.0
X3.775Y11.775
X3.9Y-18.7
X3.9Y-19.4
X4.0Y-12.7
X4.0Y-13.35
X4.0Y-14.0
X4.0Y-14.65
X4.0Y-15.3
X4.0Y-15.95
X4.18Y22.58
X4.2Y-5.6
X4.2Y-6.3
X4.2Y-7.0
X4.58Y26.83
X4.6Y-18.7
X4.6Y-19.4
X4.65Y11.8
X4.65Y-12.7
X4.65Y-13.35
X4.65Y-14.0
X4.65Y-14.65
X4.65Y-15.3
X4.65Y-15.95
X4.9Y-5.6
X4.9Y-6.3
X4.9Y-7.0
X5.3Y-12.7
X5.3Y-13.35
X5.3Y-14.0
X5.3Y-14.65
X5.3Y-15.3
X5.3Y-15.95
X5.3Y-18.7
X5.3Y-19.4
X5.36Y8.99
X5.6Y-5.6
X5.6Y-6.3
X5.6Y-7.0
X5.95Y-12.7
X5.95Y-13.35
X5.95Y-14.0
X5.95Y-14.65
X5.95Y-15.3
X5.95Y-15.95
X6.0Y-18.7
X6.0Y-19.4
X6.09Y8.57
X6.6Y-12.7
X6.6Y-13.35
X6.6Y-14.0
X6.6Y-14.65
X6.6Y-15.3
X6.6Y-15.95
X6.7Y-18.7
X6.7Y-19.4
X6.86Y7.8
X7.25Y-12.7
X7.25Y-13.35
X7.25Y-14.0
X7.25Y-14.65
X7.25Y-15.3
X7.25Y-15.95
X7.4Y-18.7
X7.4Y-19.4
X7.5Y20.7
X7.5Y6.175
X7.51Y15.79
X7.9Y-12.7
X7.9Y-13.35
X7.9Y-14.0
X7.9Y-14.65
X7.9Y-15.3
X7.9Y-15.95
X8.1Y-18.7
X8.1Y-19.4
X8.2Y18.7
X8.25Y24.74
X8.25Y23.18
X8.45Y7.6
X8.95Y6.725
X9.0Y19.9
X9.175Y-1.175
X9.175Y-1.85
X9.175Y-2.5
X9.175Y-3.175
X9.175Y-3.85
X9.9Y-1.19
X9.9Y-2.5
X9.9Y-3.15
X9.91Y-1.86
X9.91Y-3.84
X10.0Y26.9
X10.0Y17.8
X10.6Y-1.19
X10.6Y-2.5
X10.6Y-3.15
X10.61Y-1.86
X10.61Y-3.84
X11.05Y5.6
X11.17Y25.2
X11.65Y-8.7
X11.65Y-9.35
X11.65Y-10.0
X11.65Y-10.65
X11.65Y-11.3
X11.65Y-11.95
X11.96Y16.02
X12.3Y-8.7
X12.3Y-9.35
X12.3Y-10.0
X12.3Y-10.65
X12.3Y-11.3
X12.3Y-11.95
X12.4Y5.65
X12.58Y25.1
X12.95Y13.25
X12.95Y-8.7
X12.95Y-9.35
X12.95Y-10.0
X12.95Y-10.65
X12.95Y-11.3
X12.95Y-11.95
X13.49Y24.4
X13.5Y-14.7
X13.5Y-15.4
X13.6Y-8.7
X13.6Y-9.35
X13.6Y-10.0
X13.6Y-10.65
X13.6Y-11.3
X13.6Y-11.95
X13.875Y17.2
X13.875Y16.5
X14.2Y-14.7
X14.2Y-15.4
X14.25Y-8.7
X14.25Y-9.35
X14.25Y-10.0
X14.25Y-10.65
X14.25Y-11.3
X14.25Y-11.95
X14.41Y24.2
X14.475Y6.1
X14.575Y17.2
X14.575Y16.5
X14.9Y-8.7
X14.9Y-9.35
X14.9Y-10.0
X14.9Y-10.65
X14.9Y-11.3
X14.9Y-11.95
X14.9Y-14.7
X14.9Y-15.4
X15.225Y19.2
X15.3Y17.2
X15.3Y16.5
X15.55Y-8.7
X15.55Y-9.35
X15.55Y-10.0
X15.55Y-10.65
X15.55Y-11.3
X15.55Y-11.95
X15.6Y-14.7
X15.6Y-15.4
X16.2Y-8.7
X16.2Y-9.35
X16.2Y-10.0
X16.2Y-10.65
X16.2Y-11.3
X16.2Y-11.95
X16.3Y-14.7
X16.3Y-15.4
X16.49Y21.1
X16.85Y-8.7
X16.85Y-9.35
X16.85Y-10.0
X16.85Y-10.65
X16.85Y-11.3
X16.85Y-11.95
X17.0Y-14.7
X17.0Y-15.4
X17.2Y21.1
X17.5Y-8.7
X17.5Y-9.35
X17.5Y-10.0
X17.5Y-10.65
X17.5Y-11.3
X17.5Y-11.95
X17.7Y-14.7
X17.7Y-15.4
X17.9Y14.95
X18.2Y12.45
X18.2Y11.8
X18.2Y11.15
X18.2Y10.5
X18.2Y9.85
X18.2Y9.2
X18.2Y8.55
X18.2Y7.9
X18.2Y7.25
X18.2Y6.6
X18.6Y15.35
X18.85Y12.45
X18.85Y11.8
X18.85Y11.15
X18.85Y10.5
X18.85Y9.85
X18.85Y9.2
X18.85Y8.55
X18.85Y7.9
X18.85Y7.25
X18.85Y6.6
X19.05Y4.0
X19.05Y3.35
X19.05Y2.7
X19.05Y2.05
X19.05Y1.4
X19.05Y0.75
X19.5Y12.45
X19.5Y11.8
X19.5Y11.15
X19.5Y10.5
X19.5Y9.85
X19.5Y9.2
X19.5Y8.55
X19.5Y7.9
X19.5Y7.25
X19.5Y6.6
X19.7Y4.0
X19.7Y3.35
X19.7Y2.7
X19.7Y2.05
X19.7Y1.4
X19.7Y0.75
X20.15Y12.45
X20.15Y11.8
X20.15Y11.15
X20.15Y10.5
X20.15Y9.85
X20.15Y9.2
X20.15Y8.55
X20.15Y7.9
X20.15Y7.25
X20.15Y6.6
X20.35Y4.0
X20.35Y3.35
X20.35Y2.7
X20.35Y2.05
X20.35Y1.4
X20.35Y0.75
X20.8Y12.45
X20.8Y11.8
X20.8Y11.15
X20.8Y10.5
X20.8Y9.85
X20.8Y9.2
X20.8Y8.55
X20.8Y7.9
X20.8Y7.25
X20.8Y6.6
X21.0Y4.0
X21.0Y3.35
X21.0Y2.7
X21.0Y2.05
X21.0Y1.4
X21.0Y0.75
X21.025Y19.85
X21.5Y-5.9
X21.5Y-6.55
X21.5Y-7.2
X21.5Y-7.85
X21.5Y-8.5
X21.5Y-9.15
X21.65Y4.0
X21.65Y3.35
X21.65Y2.7
X21.65Y2.05
X21.65Y1.4
X21.65Y0.75
X22.15Y-5.9
X22.15Y-6.55
X22.15Y-7.2
X22.15Y-7.85
X22.15Y-8.5
X22.15Y-9.15
X22.3Y4.0
X22.3Y3.35
X22.3Y2.7
X22.3Y2.05
X22.3Y1.4
X22.3Y0.75
X22.8Y-5.9
X22.8Y-6.55
X22.8Y-7.2
X22.8Y-7.85
X22.8Y-8.5
X22.8Y-9.15
X23.45Y-5.9
X23.45Y-6.55
X23.45Y-7.2
X23.45Y-7.85
X23.45Y-8.5
X23.45Y-9.15
X24.1Y-5.9
X24.1Y-6.55
X24.1Y-7.2
X24.1Y-7.85
X24.1Y-8.5
X24.1Y-9.15
X24.75Y-5.9
X24.75Y-6.55
X24.75Y-7.2
X24.75Y-7.85
X24.75Y-8.5
X24.75Y-9.15
X25.4Y-5.9
X25.4Y-6.55
X25.4Y-7.2
X25.4Y-7.85
X25.4Y-8.5
X25.4Y-9.15
X26.05Y-5.9
X26.05Y-6.55
X26.05Y-7.2
X26.05Y-7.85
X26.05Y-8.5
X26.05Y-9.15
X26.7Y-5.9
X26.7Y-6.55
X26.7Y-7.2
X26.7Y-7.85
X26.7Y-8.5
X26.7Y-9.15
X27.35Y-5.9
X27.35Y-6.55
X27.35Y-7.2
X27.35Y-7.85
X27.35Y-8.5
X27.35Y-9.15
X30.4Y1.9
X30.4Y1.2
X30.4Y0.5
X30.4Y-0.2
X30.4Y-0.9
X30.4Y-3.1
X30.4Y-3.8
X30.4Y-4.5
X30.4Y-5.2
X30.4Y-5.9
X31.2Y1.9
X31.2Y-0.9
X31.2Y-3.1
X31.2Y-5.9
X32.0Y1.9
X32.0Y-0.9
X32.0Y-3.1
X32.0Y-5.9
X32.8Y1.9
X32.8Y-0.9
X32.8Y-3.1
X32.8Y-5.9
X33.6Y1.9
X33.6Y1.2
X33.6Y0.5
X33.6Y-0.2
X33.6Y-0.9
X33.6Y-3.1
X33.6Y-3.8
X33.6Y-4.5
X33.6Y-5.2
X33.6Y-5.9
T5
X-33.0Y4.425
X-31.0Y4.425
X31.0Y4.425
X33.0Y4.425
T6
X-20.55Y19.115
X-20.55Y16.575
T7
X-16.65Y-21.85
X-16.65Y-26.15
X-12.35Y-21.85
X-12.35Y-26.15
X-2.15Y-21.85
X-2.15Y-26.15
X2.15Y-21.85
X2.15Y-26.15
X12.35Y-21.85
X12.35Y-26.15
X16.65Y-21.85
X16.65Y-26.15
T8
X-32.0Y0.575
X-32.0Y-4.425
X32.0Y0.575
X32.0Y-4.425
T9
X-23.0Y23.5
X-23.0Y-23.5
X23.0Y23.5
X23.0Y-23.5
T10
X-14.5Y-24.0
X0.0Y-24.0
X14.5Y-24.0
M30
