%TF.GenerationSoftware,KiCad,Pcbnew,10.0.0*%
%TF.CreationDate,2026-07-03T14:39:15-04:00*%
%TF.ProjectId,DashMotor48V,44617368-4d6f-4746-9f72-3438562e6b69,rev?*%
%TF.SameCoordinates,Original*%
%TF.FileFunction,Copper,L3,Inr*%
%TF.FilePolarity,Positive*%
%FSLAX46Y46*%
G04 Gerber Fmt 4.6, Leading zero omitted, Abs format (unit mm)*
G04 Created by KiCad (PCBNEW 10.0.0) date 2026-07-03 14:39:15*
%MOMM*%
%LPD*%
G01*
G04 APERTURE LIST*
G04 Aperture macros list*
%AMRoundRect*
0 Rectangle with rounded corners*
0 $1 Rounding radius*
0 $2 $3 $4 $5 $6 $7 $8 $9 X,Y pos of 4 corners*
0 Add a 4 corners polygon primitive as box body*
4,1,4,$2,$3,$4,$5,$6,$7,$8,$9,$2,$3,0*
0 Add four circle primitives for the rounded corners*
1,1,$1+$1,$2,$3*
1,1,$1+$1,$4,$5*
1,1,$1+$1,$6,$7*
1,1,$1+$1,$8,$9*
0 Add four rect primitives between the rounded corners*
20,1,$1+$1,$2,$3,$4,$5,0*
20,1,$1+$1,$4,$5,$6,$7,0*
20,1,$1+$1,$6,$7,$8,$9,0*
20,1,$1+$1,$8,$9,$2,$3,0*%
G04 Aperture macros list end*
%TA.AperFunction,ComponentPad*%
%ADD10R,1.700000X1.700000*%
%TD*%
%TA.AperFunction,ComponentPad*%
%ADD11C,1.700000*%
%TD*%
%TA.AperFunction,ComponentPad*%
%ADD12C,4.400000*%
%TD*%
%TA.AperFunction,ComponentPad*%
%ADD13C,0.550000*%
%TD*%
%TA.AperFunction,ComponentPad*%
%ADD14C,2.000000*%
%TD*%
%TA.AperFunction,ComponentPad*%
%ADD15RoundRect,0.325000X-2.925000X-2.925000X2.925000X-2.925000X2.925000X2.925000X-2.925000X2.925000X0*%
%TD*%
%TA.AperFunction,ComponentPad*%
%ADD16C,1.524000*%
%TD*%
%TA.AperFunction,ComponentPad*%
%ADD17C,2.700000*%
%TD*%
%TA.AperFunction,ComponentPad*%
%ADD18C,0.499999*%
%TD*%
%TA.AperFunction,ComponentPad*%
%ADD19C,0.300000*%
%TD*%
%TA.AperFunction,ViaPad*%
%ADD20C,0.600000*%
%TD*%
%TA.AperFunction,Conductor*%
%ADD21C,0.200000*%
%TD*%
G04 APERTURE END LIST*
D10*
%TO.N,/VMOT_TEMP*%
%TO.C,J3*%
X-20550000Y19115000D03*
D11*
%TO.N,+3.3V*%
X-20550000Y16575000D03*
%TD*%
D12*
%TO.N,N/C*%
%TO.C,H7*%
X-23000000Y-23500000D03*
%TD*%
D13*
%TO.N,/PHASC*%
%TO.C,H3*%
X11550000Y-21050000D03*
X11550000Y-22980000D03*
X11550000Y-23490000D03*
X11550000Y-24000000D03*
X11550000Y-24510000D03*
X11550000Y-25020000D03*
X11550000Y-26950000D03*
X12000000Y-23235000D03*
X12000000Y-23745000D03*
X12000000Y-24255000D03*
X12000000Y-24765000D03*
D14*
X12350000Y-21850000D03*
X12350000Y-26150000D03*
D13*
X12450000Y-22980000D03*
X12450000Y-23490000D03*
X12450000Y-24000000D03*
X12450000Y-24510000D03*
X12450000Y-25020000D03*
X13480000Y-21050000D03*
X13480000Y-21950000D03*
X13480000Y-26050000D03*
X13480000Y-26950000D03*
X13735000Y-21500000D03*
X13735000Y-26500000D03*
X13990000Y-21050000D03*
X13990000Y-21950000D03*
X13990000Y-26050000D03*
X13990000Y-26950000D03*
X14245000Y-21500000D03*
X14245000Y-26500000D03*
X14500000Y-21050000D03*
X14500000Y-21950000D03*
D15*
X14500000Y-24000000D03*
D13*
X14500000Y-26050000D03*
X14500000Y-26950000D03*
X14755000Y-21500000D03*
X14755000Y-26500000D03*
X15010000Y-21050000D03*
X15010000Y-21950000D03*
X15010000Y-26050000D03*
X15010000Y-26950000D03*
X15265000Y-21500000D03*
X15265000Y-26500000D03*
X15520000Y-21050000D03*
X15520000Y-21950000D03*
X15520000Y-26050000D03*
X15520000Y-26950000D03*
X16550000Y-22980000D03*
X16550000Y-23490000D03*
X16550000Y-24000000D03*
X16550000Y-24510000D03*
X16550000Y-25020000D03*
D14*
X16650000Y-21850000D03*
X16650000Y-26150000D03*
D13*
X17000000Y-23235000D03*
X17000000Y-23745000D03*
X17000000Y-24255000D03*
X17000000Y-24765000D03*
X17450000Y-21050000D03*
X17450000Y-22980000D03*
X17450000Y-23490000D03*
X17450000Y-24000000D03*
X17450000Y-24510000D03*
X17450000Y-25020000D03*
X17450000Y-26950000D03*
%TD*%
D16*
%TO.N,/CAN-*%
%TO.C,CN3(OUT)1*%
X-33000000Y4425000D03*
%TO.N,/CAN+*%
X-31000000Y4424999D03*
D17*
%TO.N,GND*%
X-32000000Y574999D03*
%TO.N,+48V*%
X-32000000Y-4424999D03*
%TD*%
D18*
%TO.N,GND*%
%TO.C,U2*%
X-1774838Y6193898D03*
X-806102Y5225162D03*
X-1774838Y7806102D03*
X-968736Y7000000D03*
X0Y6031264D03*
X806102Y5225162D03*
X-806102Y8774838D03*
X0Y7968736D03*
X968736Y7000000D03*
X1774838Y6193898D03*
X806102Y8774838D03*
X1774838Y7806102D03*
%TD*%
D12*
%TO.N,N/C*%
%TO.C,H5*%
X-23000000Y23500000D03*
%TD*%
D13*
%TO.N,/PHASB*%
%TO.C,H2*%
X-2950000Y-21050000D03*
X-2950000Y-22980000D03*
X-2950000Y-23490000D03*
X-2950000Y-24000000D03*
X-2950000Y-24510000D03*
X-2950000Y-25020000D03*
X-2950000Y-26950000D03*
X-2500000Y-23235000D03*
X-2500000Y-23745000D03*
X-2500000Y-24255000D03*
X-2500000Y-24765000D03*
D14*
X-2150000Y-21850000D03*
X-2150000Y-26150000D03*
D13*
X-2050000Y-22980000D03*
X-2050000Y-23490000D03*
X-2050000Y-24000000D03*
X-2050000Y-24510000D03*
X-2050000Y-25020000D03*
X-1020000Y-21050000D03*
X-1020000Y-21950000D03*
X-1020000Y-26050000D03*
X-1020000Y-26950000D03*
X-765000Y-21500000D03*
X-765000Y-26500000D03*
X-510000Y-21050000D03*
X-510000Y-21950000D03*
X-510000Y-26050000D03*
X-510000Y-26950000D03*
X-255000Y-21500000D03*
X-255000Y-26500000D03*
X0Y-21050000D03*
X0Y-21950000D03*
D15*
X0Y-24000000D03*
D13*
X0Y-26050000D03*
X0Y-26950000D03*
X255000Y-21500000D03*
X255000Y-26500000D03*
X510000Y-21050000D03*
X510000Y-21950000D03*
X510000Y-26050000D03*
X510000Y-26950000D03*
X765000Y-21500000D03*
X765000Y-26500000D03*
X1020000Y-21050000D03*
X1020000Y-21950000D03*
X1020000Y-26050000D03*
X1020000Y-26950000D03*
X2050000Y-22980000D03*
X2050000Y-23490000D03*
X2050000Y-24000000D03*
X2050000Y-24510000D03*
X2050000Y-25020000D03*
D14*
X2150000Y-21850000D03*
X2150000Y-26150000D03*
D13*
X2500000Y-23235000D03*
X2500000Y-23745000D03*
X2500000Y-24255000D03*
X2500000Y-24765000D03*
X2950000Y-21050000D03*
X2950000Y-22980000D03*
X2950000Y-23490000D03*
X2950000Y-24000000D03*
X2950000Y-24510000D03*
X2950000Y-25020000D03*
X2950000Y-26950000D03*
%TD*%
D12*
%TO.N,N/C*%
%TO.C,H4*%
X23000000Y23500000D03*
%TD*%
%TO.N,N/C*%
%TO.C,H6*%
X23000000Y-23500000D03*
%TD*%
D16*
%TO.N,/CAN-*%
%TO.C,CN3(OUT)2*%
X31000001Y4424998D03*
%TO.N,/CAN+*%
X33000000Y4424999D03*
D17*
%TO.N,GND*%
X32000000Y575000D03*
%TO.N,+48V*%
X32000000Y-4425000D03*
%TD*%
D13*
%TO.N,/PHASA*%
%TO.C,H1*%
X-17450000Y-21050000D03*
X-17450000Y-22980000D03*
X-17450000Y-23490000D03*
X-17450000Y-24000000D03*
X-17450000Y-24510000D03*
X-17450000Y-25020000D03*
X-17450000Y-26950000D03*
X-17000000Y-23235000D03*
X-17000000Y-23745000D03*
X-17000000Y-24255000D03*
X-17000000Y-24765000D03*
D14*
X-16650000Y-21850000D03*
X-16650000Y-26150000D03*
D13*
X-16550000Y-22980000D03*
X-16550000Y-23490000D03*
X-16550000Y-24000000D03*
X-16550000Y-24510000D03*
X-16550000Y-25020000D03*
X-15520000Y-21050000D03*
X-15520000Y-21950000D03*
X-15520000Y-26050000D03*
X-15520000Y-26950000D03*
X-15265000Y-21500000D03*
X-15265000Y-26500000D03*
X-15010000Y-21050000D03*
X-15010000Y-21950000D03*
X-15010000Y-26050000D03*
X-15010000Y-26950000D03*
X-14755000Y-21500000D03*
X-14755000Y-26500000D03*
X-14500000Y-21050000D03*
X-14500000Y-21950000D03*
D15*
X-14500000Y-24000000D03*
D13*
X-14500000Y-26050000D03*
X-14500000Y-26950000D03*
X-14245000Y-21500000D03*
X-14245000Y-26500000D03*
X-13990000Y-21050000D03*
X-13990000Y-21950000D03*
X-13990000Y-26050000D03*
X-13990000Y-26950000D03*
X-13735000Y-21500000D03*
X-13735000Y-26500000D03*
X-13480000Y-21050000D03*
X-13480000Y-21950000D03*
X-13480000Y-26050000D03*
X-13480000Y-26950000D03*
X-12450000Y-22980000D03*
X-12450000Y-23490000D03*
X-12450000Y-24000000D03*
X-12450000Y-24510000D03*
X-12450000Y-25020000D03*
D14*
X-12350000Y-21850000D03*
X-12350000Y-26150000D03*
D13*
X-12000000Y-23235000D03*
X-12000000Y-23745000D03*
X-12000000Y-24255000D03*
X-12000000Y-24765000D03*
X-11550000Y-21050000D03*
X-11550000Y-22980000D03*
X-11550000Y-23490000D03*
X-11550000Y-24000000D03*
X-11550000Y-24510000D03*
X-11550000Y-25020000D03*
X-11550000Y-26950000D03*
%TD*%
D19*
%TO.N,GND*%
%TO.C,VR1*%
X-21400000Y8500000D03*
X-20100000Y8500000D03*
X-18800000Y8500000D03*
X-17500000Y8500000D03*
X-21400000Y9800000D03*
X-20100000Y9800000D03*
X-18800000Y9800000D03*
X-17500000Y9800000D03*
%TD*%
D20*
%TO.N,+3.3V*%
X14475000Y6100000D03*
X13875000Y16500000D03*
X14575000Y17200000D03*
X15300000Y17200000D03*
X-910000Y15450000D03*
X14575000Y16500000D03*
X13875000Y17200000D03*
X-14700000Y20400000D03*
X15300000Y16500000D03*
X-3530000Y15450000D03*
X-14700000Y21100000D03*
X-5605000Y26770000D03*
X4580000Y26830000D03*
X8250000Y24740000D03*
X-9650000Y24325000D03*
%TO.N,GND*%
X18200000Y9200000D03*
X-8010000Y32425000D03*
X18200000Y11800000D03*
X-22050000Y8500000D03*
X-10025000Y-3050000D03*
X-10025000Y-3750000D03*
X-23450000Y8500000D03*
X19500000Y7250000D03*
X30400000Y-200000D03*
X18200000Y12450000D03*
X-32000000Y-800000D03*
X-8600000Y-2325000D03*
X-31200000Y2000000D03*
X20150000Y10500000D03*
X20800000Y12450000D03*
X-22050000Y7850000D03*
X1070000Y26790000D03*
X-33600000Y2000000D03*
X33600000Y500000D03*
X-10025000Y-950000D03*
X31200000Y-900000D03*
X18850000Y7250000D03*
X20150000Y8550000D03*
X4200000Y-5600000D03*
X-8230000Y30900000D03*
X18850000Y11150000D03*
X32000000Y-900000D03*
X19500000Y11800000D03*
X-8600000Y-1625000D03*
X18850000Y9200000D03*
X10610000Y-1860000D03*
X18200000Y7900000D03*
X-33600000Y600000D03*
X9900000Y-3150000D03*
X10600000Y-1190000D03*
X3500000Y-5600000D03*
X-31200000Y-800000D03*
X-18150000Y10450000D03*
X20150000Y7250000D03*
X-23450000Y7850000D03*
X20800000Y7250000D03*
X-8600000Y-925000D03*
X31200000Y1900000D03*
X18850000Y12450000D03*
X9175000Y-3850000D03*
X15225000Y19200000D03*
X2600000Y20500000D03*
X4200000Y-6300000D03*
X3040000Y26800000D03*
X-22750000Y9150000D03*
X-20750000Y7850000D03*
X-10025000Y-2350000D03*
X-9325000Y-925000D03*
X-33600000Y-100000D03*
X32800000Y-900000D03*
X20800000Y11800000D03*
X2800000Y-7000000D03*
X-20750000Y9800000D03*
X20150000Y6600000D03*
X30400000Y1200000D03*
X-400000Y400000D03*
X9175000Y-1175000D03*
X20800000Y7900000D03*
X-23450000Y9150000D03*
X8250000Y23180000D03*
X20150000Y11150000D03*
X-21400000Y7850000D03*
X10600000Y-3150000D03*
X-18100000Y8500000D03*
X300000Y400000D03*
X18200000Y10500000D03*
X-9325000Y-3725000D03*
X19500000Y6600000D03*
X3500000Y-6300000D03*
X33600000Y1900000D03*
X33600000Y1200000D03*
X-19450000Y8500000D03*
X7500000Y20700000D03*
X-20100000Y10450000D03*
X-18150000Y9150000D03*
X-20750000Y10450000D03*
X-30400000Y600000D03*
X-10025000Y-1650000D03*
X20800000Y9850000D03*
X19500000Y10500000D03*
X19500000Y11150000D03*
X-9325000Y-2325000D03*
X-16800000Y8500000D03*
X30400000Y-900000D03*
X20150000Y7900000D03*
X9175000Y-3175000D03*
X-930000Y16970000D03*
X-16800000Y9150000D03*
X0Y7000000D03*
X18200000Y11150000D03*
X33600000Y-900000D03*
X18850000Y8550000D03*
X20150000Y12450000D03*
X-24150000Y9150000D03*
X-8600000Y-3725000D03*
X8450000Y7600000D03*
X-30400000Y-100000D03*
X19500000Y9200000D03*
X-18100000Y7850000D03*
X-18800000Y7850000D03*
X-18150000Y9800000D03*
X5600000Y-6300000D03*
X-18800000Y9150000D03*
X2800000Y-6300000D03*
X10600000Y-2500000D03*
X-16800000Y9800000D03*
X20800000Y9200000D03*
X-17500000Y9150000D03*
X30400000Y1900000D03*
X9910000Y-1860000D03*
X-17500000Y7850000D03*
X-32800000Y-800000D03*
X-8600000Y-3025000D03*
X-33600000Y-800000D03*
X20150000Y11800000D03*
X-400000Y-300000D03*
X10000000Y26900000D03*
X300000Y-300000D03*
X18850000Y6600000D03*
X-20100000Y7850000D03*
X-23450000Y9850000D03*
X18850000Y11800000D03*
X-19450000Y9150000D03*
X20800000Y6600000D03*
X20800000Y10500000D03*
X20800000Y11150000D03*
X32000000Y1900000D03*
X19500000Y8550000D03*
X-9325000Y-1625000D03*
X4900000Y-6300000D03*
X-33600000Y1300000D03*
X-20100000Y9150000D03*
X3500000Y-7000000D03*
X-18800000Y10450000D03*
X-16475000Y27100000D03*
X-7850000Y24325000D03*
X-20750000Y9150000D03*
X4900000Y-5600000D03*
X20150000Y9850000D03*
X19500000Y7900000D03*
X18850000Y7900000D03*
X-30400000Y2000000D03*
X19500000Y9850000D03*
X5600000Y-5600000D03*
X18850000Y9850000D03*
X-16800000Y7850000D03*
X-17500000Y10450000D03*
X9175000Y-2500000D03*
X-19450000Y10450000D03*
X32800000Y1900000D03*
X-22750000Y7850000D03*
X-16800000Y10450000D03*
X-30400000Y-800000D03*
X-19450000Y9800000D03*
X18200000Y7250000D03*
X5600000Y-7000000D03*
X18200000Y8550000D03*
X-32000000Y2000000D03*
X20150000Y9200000D03*
X-19450000Y7850000D03*
X2800000Y-5600000D03*
X-22050000Y9850000D03*
X-22750000Y8500000D03*
X9900000Y-1190000D03*
X19500000Y12450000D03*
X-22750000Y9850000D03*
X4900000Y-7000000D03*
X-24150000Y7850000D03*
X18200000Y9850000D03*
X18200000Y6600000D03*
X12950000Y13250000D03*
X-21400000Y9150000D03*
X33600000Y-200000D03*
X-21400000Y10450000D03*
X20800000Y8550000D03*
X-24150000Y8500000D03*
X9900000Y-2500000D03*
X10610000Y-3840000D03*
X-9325000Y-3025000D03*
X9175000Y-1850000D03*
X-20750000Y8500000D03*
X-30400000Y1300000D03*
X-32800000Y2000000D03*
X9910000Y-3840000D03*
X-24150000Y9850000D03*
X4200000Y-7000000D03*
X18850000Y10500000D03*
X30400000Y500000D03*
X-22050000Y9150000D03*
%TO.N,/VMOT_TEMP*%
X-6670000Y29730000D03*
%TO.N,/PHASA*%
X-15700000Y-14500000D03*
X-11800000Y-11900000D03*
X-13100000Y-12550000D03*
X-17650000Y-14500000D03*
X-22900000Y-9800000D03*
X-11800000Y-13200000D03*
X-16350000Y-11900000D03*
X-22200000Y-9100000D03*
X-15050000Y-11250000D03*
X-11800000Y-14500000D03*
X-14400000Y-13200000D03*
X-17000000Y-12550000D03*
X-17000000Y-13200000D03*
X-21500000Y-9800000D03*
X-25000000Y-9800000D03*
X-14400000Y-11250000D03*
X-12450000Y-11900000D03*
X-15700000Y-13200000D03*
X-13100000Y-14500000D03*
X-13100000Y-11900000D03*
X-11800000Y-11250000D03*
X-14400000Y-12550000D03*
X-23600000Y-9800000D03*
X-25000000Y-9100000D03*
X-12450000Y-13850000D03*
X-17000000Y-13850000D03*
X-15050000Y-13200000D03*
X-15050000Y-14500000D03*
X-15050000Y-12550000D03*
X-15050000Y-11900000D03*
X-22200000Y-9800000D03*
X-17650000Y-13850000D03*
X-25700000Y-9100000D03*
X-17650000Y-12550000D03*
X-13100000Y-13200000D03*
X-15700000Y-11900000D03*
X-13750000Y-13850000D03*
X-23600000Y-9100000D03*
X-13750000Y-11250000D03*
X-16350000Y-14500000D03*
X-17000000Y-11900000D03*
X-13750000Y-14500000D03*
X-13750000Y-13200000D03*
X-17000000Y-11250000D03*
X-17650000Y-11900000D03*
X-11800000Y-12550000D03*
X-16350000Y-13200000D03*
X-14400000Y-14500000D03*
X-12450000Y-13200000D03*
X-14400000Y-13850000D03*
X-24300000Y-9800000D03*
X-16350000Y-11250000D03*
X-16350000Y-12550000D03*
X-15700000Y-13850000D03*
X-13750000Y-12550000D03*
X-17000000Y-14500000D03*
X-14400000Y-11900000D03*
X-12450000Y-14500000D03*
X-12450000Y-11250000D03*
X-25700000Y-9800000D03*
X-17650000Y-13200000D03*
X-13100000Y-13850000D03*
X-12450000Y-12550000D03*
X-13100000Y-11250000D03*
X-11800000Y-13850000D03*
X-17650000Y-11250000D03*
X-15050000Y-13850000D03*
X-21500000Y-9100000D03*
X-15700000Y-11250000D03*
X-22900000Y-9100000D03*
X-15700000Y-12550000D03*
X-24300000Y-9100000D03*
X-13750000Y-11900000D03*
X-16350000Y-13850000D03*
%TO.N,+48V*%
X-23600000Y-5350000D03*
X14900000Y-11950000D03*
X19700000Y750000D03*
X-26850000Y-5350000D03*
X-22300000Y-2750000D03*
X2050000Y-13350000D03*
X21000000Y2700000D03*
X15550000Y-10000000D03*
X-22950000Y-4050000D03*
X14900000Y-10650000D03*
X16850000Y-9350000D03*
X-19800000Y300000D03*
X21000000Y750000D03*
X16850000Y-8700000D03*
X-24900000Y-4050000D03*
X-21650000Y-2750000D03*
X30400000Y-3800000D03*
X-30400000Y-5200000D03*
X2700000Y-15950000D03*
X4650000Y-15950000D03*
X-32800000Y-3100000D03*
X17500000Y-11300000D03*
X-26850000Y-6000000D03*
X-24250000Y-4700000D03*
X-24250000Y-5350000D03*
X-23600000Y-3400000D03*
X19700000Y1400000D03*
X19050000Y3350000D03*
X22300000Y2050000D03*
X-19000000Y3100000D03*
X21000000Y1400000D03*
X21650000Y4000000D03*
X-22950000Y-3400000D03*
X-19800000Y1700000D03*
X-33600000Y-3800000D03*
X20350000Y4000000D03*
X21650000Y2700000D03*
X33600000Y-5200000D03*
X-25550000Y-2750000D03*
X12950000Y-10650000D03*
X33600000Y-3100000D03*
X12300000Y-10650000D03*
X14250000Y-10000000D03*
X21650000Y2050000D03*
X-21650000Y-4700000D03*
X-19000000Y3800000D03*
X-27500000Y-5350000D03*
X33600000Y-4500000D03*
X17500000Y-8700000D03*
X11650000Y-11950000D03*
X4650000Y-15300000D03*
X2050000Y-12700000D03*
X-26200000Y-3400000D03*
X-30400000Y-3100000D03*
X-22950000Y-4700000D03*
X19050000Y1400000D03*
X-24900000Y-4700000D03*
X-24250000Y-4050000D03*
X-30400000Y-3800000D03*
X-30400000Y-4500000D03*
X3350000Y-13350000D03*
X12300000Y-8700000D03*
X14250000Y-11300000D03*
X-33600000Y-3100000D03*
X14900000Y-10000000D03*
X4000000Y-13350000D03*
X-24900000Y-2750000D03*
X-22300000Y-3400000D03*
X22300000Y1400000D03*
X6600000Y-14650000D03*
X12300000Y-11950000D03*
X19050000Y2050000D03*
X-21650000Y-6000000D03*
X12950000Y-11950000D03*
X22300000Y750000D03*
X19050000Y4000000D03*
X-30400000Y-5900000D03*
X2700000Y-12700000D03*
X2700000Y-13350000D03*
X7900000Y-15950000D03*
X-33600000Y-4500000D03*
X21650000Y750000D03*
X5300000Y-12700000D03*
X7250000Y-15300000D03*
X31200000Y-3100000D03*
X-19000000Y2400000D03*
X3350000Y-14000000D03*
X31200000Y-5900000D03*
X20350000Y2050000D03*
X-26200000Y-4700000D03*
X13600000Y-10650000D03*
X16850000Y-11300000D03*
X-19000000Y1000000D03*
X20350000Y3350000D03*
X7250000Y-14650000D03*
X7900000Y-15300000D03*
X32800000Y-5900000D03*
X-32800000Y-5900000D03*
X-31200000Y-3100000D03*
X-25550000Y-6000000D03*
X5950000Y-13350000D03*
X11650000Y-11300000D03*
X14900000Y-9350000D03*
X-26850000Y-3400000D03*
X2700000Y-15300000D03*
X-26850000Y-2750000D03*
X5300000Y-13350000D03*
X16850000Y-11950000D03*
X5950000Y-14000000D03*
X-25550000Y-4700000D03*
X15550000Y-11950000D03*
X7900000Y-14650000D03*
X7900000Y-13350000D03*
X3350000Y-15300000D03*
X-21650000Y-3400000D03*
X-25550000Y-3400000D03*
X-27500000Y-2750000D03*
X-24250000Y-6000000D03*
X13600000Y-8700000D03*
X4000000Y-15300000D03*
X16200000Y-11300000D03*
X-24900000Y-6000000D03*
X22300000Y2700000D03*
X-26200000Y-2750000D03*
X17500000Y-10650000D03*
X4650000Y-12700000D03*
X17500000Y-11950000D03*
X32000000Y-5900000D03*
X-33600000Y-5200000D03*
X-22950000Y-2750000D03*
X14900000Y-8700000D03*
X16200000Y-11950000D03*
X12950000Y-10000000D03*
X4650000Y-14000000D03*
X15550000Y-10650000D03*
X-22950000Y-6000000D03*
X-22300000Y-4050000D03*
X14250000Y-8700000D03*
X6600000Y-14000000D03*
X-21650000Y-4050000D03*
X7900000Y-12700000D03*
X5950000Y-15300000D03*
X2050000Y-14650000D03*
X5300000Y-14650000D03*
X-23600000Y-4700000D03*
X21650000Y1400000D03*
X-26850000Y-4050000D03*
X-22950000Y-5350000D03*
X-23600000Y-6000000D03*
X-24250000Y-3400000D03*
X-25550000Y-4050000D03*
X5300000Y-14000000D03*
X-23600000Y-2750000D03*
X6600000Y-15300000D03*
X14900000Y-11300000D03*
X-22300000Y-4700000D03*
X4000000Y-14000000D03*
X20350000Y750000D03*
X-21650000Y-5350000D03*
X22300000Y4000000D03*
X-24900000Y-3400000D03*
X-27500000Y-3400000D03*
X-19000000Y300000D03*
X-19800000Y3800000D03*
X3350000Y-12700000D03*
X30400000Y-5200000D03*
X-22300000Y-6000000D03*
X11650000Y-8700000D03*
X13600000Y-11950000D03*
X21000000Y4000000D03*
X4000000Y-15950000D03*
X32800000Y-3100000D03*
X6600000Y-12700000D03*
X16200000Y-8700000D03*
X14250000Y-11950000D03*
X30400000Y-3100000D03*
X16850000Y-10000000D03*
X-26200000Y-5350000D03*
X4000000Y-12700000D03*
X13600000Y-10000000D03*
X5950000Y-14650000D03*
X17500000Y-9350000D03*
X12950000Y-8700000D03*
X12300000Y-10000000D03*
X-33600000Y-5900000D03*
X4650000Y-14650000D03*
X19700000Y3350000D03*
X-31200000Y-5900000D03*
X15550000Y-11300000D03*
X15550000Y-9350000D03*
X21000000Y2050000D03*
X20350000Y1400000D03*
X15550000Y-8700000D03*
X21650000Y3350000D03*
X7900000Y-14000000D03*
X-27500000Y-6000000D03*
X2050000Y-15300000D03*
X22300000Y3350000D03*
X14250000Y-9350000D03*
X17500000Y-10000000D03*
X19050000Y2700000D03*
X12950000Y-9350000D03*
X19700000Y4000000D03*
X32000000Y-3100000D03*
X4000000Y-14650000D03*
X2700000Y-14650000D03*
X-26200000Y-4050000D03*
X-25550000Y-5350000D03*
X19700000Y2700000D03*
X-26200000Y-6000000D03*
X16200000Y-9350000D03*
X-23600000Y-4050000D03*
X6600000Y-15950000D03*
X16200000Y-10000000D03*
X4650000Y-13350000D03*
X12300000Y-9350000D03*
X5950000Y-15950000D03*
X12950000Y-11300000D03*
X5300000Y-15950000D03*
X16850000Y-10650000D03*
X3350000Y-15950000D03*
X-32000000Y-3100000D03*
X14250000Y-10650000D03*
X-19800000Y1000000D03*
X33600000Y-5900000D03*
X20350000Y2700000D03*
X5950000Y-12700000D03*
X-22300000Y-5350000D03*
X5300000Y-15300000D03*
X12300000Y-11300000D03*
X6600000Y-13350000D03*
X21000000Y3350000D03*
X-26850000Y-4700000D03*
X-19800000Y3100000D03*
X13600000Y-11300000D03*
X-24250000Y-2750000D03*
X7250000Y-14000000D03*
X-19000000Y1700000D03*
X7250000Y-13350000D03*
X33600000Y-3800000D03*
X16200000Y-10650000D03*
X7250000Y-15950000D03*
X11650000Y-10650000D03*
X30400000Y-4500000D03*
X2050000Y-15950000D03*
X13600000Y-9350000D03*
X3350000Y-14650000D03*
X30400000Y-5900000D03*
X-24900000Y-5350000D03*
X2700000Y-14000000D03*
X2050000Y-14000000D03*
X-27500000Y-4050000D03*
X-32000000Y-5900000D03*
X-19800000Y2400000D03*
X7250000Y-12700000D03*
X-27500000Y-4700000D03*
X11650000Y-9350000D03*
X19050000Y750000D03*
X19700000Y2050000D03*
X11650000Y-10000000D03*
%TO.N,/PHASC*%
X26700000Y-5900000D03*
X21500000Y-6550000D03*
X23450000Y-5900000D03*
X26700000Y-7850000D03*
X26050000Y-6550000D03*
X25400000Y-6550000D03*
X17000000Y-14700000D03*
X22150000Y-7850000D03*
X14200000Y-14700000D03*
X22150000Y-9150000D03*
X23450000Y-9150000D03*
X24750000Y-5900000D03*
X22150000Y-7200000D03*
X24750000Y-8500000D03*
X25400000Y-7850000D03*
X26050000Y-8500000D03*
X24100000Y-7200000D03*
X14900000Y-15400000D03*
X23450000Y-7850000D03*
X22150000Y-5900000D03*
X24750000Y-7200000D03*
X24100000Y-7850000D03*
X24100000Y-8500000D03*
X16300000Y-14700000D03*
X14200000Y-15400000D03*
X26050000Y-7200000D03*
X24100000Y-9150000D03*
X27350000Y-7850000D03*
X26050000Y-9150000D03*
X13500000Y-15400000D03*
X26700000Y-6550000D03*
X14900000Y-14700000D03*
X26700000Y-8500000D03*
X15600000Y-14700000D03*
X21500000Y-9150000D03*
X22800000Y-9150000D03*
X23450000Y-7200000D03*
X24750000Y-6550000D03*
X24100000Y-5900000D03*
X17700000Y-15400000D03*
X26050000Y-7850000D03*
X21500000Y-7200000D03*
X21500000Y-5900000D03*
X27350000Y-9150000D03*
X27350000Y-7200000D03*
X24100000Y-6550000D03*
X27350000Y-6550000D03*
X24750000Y-9150000D03*
X27350000Y-8500000D03*
X23450000Y-8500000D03*
X22800000Y-8500000D03*
X22150000Y-8500000D03*
X26050000Y-5900000D03*
X22800000Y-7850000D03*
X25400000Y-9150000D03*
X16300000Y-15400000D03*
X13500000Y-14700000D03*
X17700000Y-14700000D03*
X17000000Y-15400000D03*
X22150000Y-6550000D03*
X21500000Y-8500000D03*
X22800000Y-6550000D03*
X24750000Y-7850000D03*
X26700000Y-7200000D03*
X25400000Y-8500000D03*
X15600000Y-15400000D03*
X25400000Y-7200000D03*
X26700000Y-9150000D03*
X25400000Y-5900000D03*
X23450000Y-6550000D03*
X21500000Y-7850000D03*
X22800000Y-5900000D03*
X27350000Y-5900000D03*
X22800000Y-7200000D03*
%TO.N,/VBAT*%
X-27100000Y9199700D03*
X-12700000Y16105000D03*
X-14175000Y16100000D03*
X-3650000Y22630000D03*
%TO.N,/CAN-*%
X17900000Y14950000D03*
%TO.N,/CAN+*%
X18600000Y15350000D03*
%TO.N,+5V*%
X16490000Y21100000D03*
X17200000Y21100000D03*
X21025000Y19850000D03*
%TO.N,+12V*%
X-11100000Y7320000D03*
X-11100000Y8000000D03*
X-10420000Y7320000D03*
X-10430000Y8000000D03*
%TO.N,/PHASB*%
X-7250000Y-16650000D03*
X-7900000Y-16000000D03*
X-5300000Y-15350000D03*
X-2700000Y-17300000D03*
X-5950000Y-16000000D03*
X-4000000Y-17300000D03*
X-2050000Y-16000000D03*
X6700000Y-18700000D03*
X-5950000Y-18600000D03*
X-6600000Y-16650000D03*
X-5300000Y-16000000D03*
X6700000Y-19400000D03*
X-7900000Y-17950000D03*
X4600000Y-19400000D03*
X3900000Y-19400000D03*
X-3350000Y-17950000D03*
X-2050000Y-16650000D03*
X-5300000Y-18600000D03*
X-6600000Y-15350000D03*
X-5950000Y-16650000D03*
X-7900000Y-16650000D03*
X8100000Y-19400000D03*
X-4000000Y-16650000D03*
X4600000Y-18700000D03*
X-4650000Y-16000000D03*
X-7250000Y-15350000D03*
X-7900000Y-17300000D03*
X-3350000Y-15350000D03*
X5300000Y-18700000D03*
X-2700000Y-16650000D03*
X-4000000Y-18600000D03*
X-2700000Y-15350000D03*
X7400000Y-18700000D03*
X-4000000Y-15350000D03*
X-5300000Y-16650000D03*
X-6600000Y-17300000D03*
X-6600000Y-16000000D03*
X-7250000Y-17950000D03*
X7400000Y-19400000D03*
X-2050000Y-17950000D03*
X8100000Y-18700000D03*
X5300000Y-19400000D03*
X-7250000Y-18600000D03*
X-5300000Y-17300000D03*
X-2050000Y-18600000D03*
X-5950000Y-15350000D03*
X-6600000Y-18600000D03*
X-4650000Y-15350000D03*
X-3350000Y-18600000D03*
X-4000000Y-16000000D03*
X-4650000Y-17300000D03*
X-7250000Y-17300000D03*
X-5950000Y-17950000D03*
X6000000Y-19400000D03*
X-3350000Y-16000000D03*
X3900000Y-18700000D03*
X6000000Y-18700000D03*
X-3350000Y-16650000D03*
X-7900000Y-15350000D03*
X-4650000Y-16650000D03*
X-2700000Y-16000000D03*
X-2050000Y-15350000D03*
X-2050000Y-17300000D03*
X-4000000Y-17950000D03*
X-2700000Y-18600000D03*
X-2700000Y-17950000D03*
X-7900000Y-18600000D03*
X-4650000Y-18600000D03*
X-5300000Y-17950000D03*
X-6600000Y-17950000D03*
X-4650000Y-17950000D03*
X-5950000Y-17300000D03*
X-3350000Y-17300000D03*
X-7250000Y-16000000D03*
%TO.N,/I_C*%
X6860000Y7800000D03*
X340000Y22500000D03*
%TO.N,/I_B*%
X-480000Y22920000D03*
X6090000Y8570000D03*
%TO.N,/I_A*%
X5360000Y8990000D03*
X-1160000Y23340000D03*
%TO.N,/SPI-MISO*%
X-2900000Y20860000D03*
X4650000Y11800000D03*
%TO.N,/SPI-MOSI*%
X3775000Y11775000D03*
X-3250000Y19950000D03*
%TO.N,/SPI-SCK*%
X-7550000Y20225000D03*
X2925000Y11750000D03*
%TO.N,/SPI-NSS-DRV*%
X2150000Y11775000D03*
X-8700000Y20425000D03*
%TO.N,Net-(U1-PH0-OSC_IN)*%
X4180000Y22580000D03*
%TO.N,Net-(U1-PH1-OSC_OUT)*%
X1840000Y22590000D03*
%TO.N,/NRST*%
X-1970000Y22010000D03*
X-12625000Y25575000D03*
%TO.N,Net-(U1-VDDA{slash}VREF+)*%
X-2150000Y26700000D03*
%TO.N,/TMS*%
X-13725000Y25075000D03*
X-3690000Y19040000D03*
%TO.N,/TCK*%
X-2470000Y17750000D03*
X-15200000Y24150000D03*
%TO.N,/CS*%
X7510000Y15790000D03*
X7500000Y6175000D03*
%TO.N,/SCK*%
X11960000Y16020000D03*
X12400000Y5650000D03*
X14410000Y24200000D03*
%TO.N,/MISO*%
X10000000Y17800000D03*
X11050000Y5600000D03*
X13490000Y24400000D03*
%TO.N,/MOSI*%
X8950000Y6725000D03*
X12580000Y25100000D03*
X8200000Y18700000D03*
%TO.N,/AUX_CS*%
X11170000Y25200000D03*
X9000000Y19900000D03*
%TD*%
%TO.N,/CAN-*%
D21*
X14750000Y11050000D02*
X-5040000Y11050000D01*
X-30875000Y6575000D02*
X-33000000Y4450000D01*
X-5040000Y11050000D02*
X-9515000Y6575000D01*
X17910000Y14210000D02*
X14750000Y11050000D01*
X17910000Y14940000D02*
X17910000Y14210000D01*
X17900000Y14950000D02*
X17910000Y14940000D01*
X-33000000Y4450000D02*
X-33000000Y4425000D01*
X-9515000Y6575000D02*
X-30875000Y6575000D01*
%TO.N,/CAN+*%
X-9385000Y6125000D02*
X-29595000Y6125000D01*
X-4880000Y10630000D02*
X-9385000Y6125000D01*
X18600000Y14300000D02*
X14930000Y10630000D01*
X14930000Y10630000D02*
X-4880000Y10630000D01*
X18600000Y15350000D02*
X18600000Y14300000D01*
X-29595000Y6125000D02*
X-31000000Y4720000D01*
X-31000000Y4720000D02*
X-31000000Y4424999D01*
%TD*%
%TA.AperFunction,Conductor*%
%TO.N,/PHASA*%
G36*
X-21328151Y-8663411D02*
G01*
X-21307359Y-8680140D01*
X-20930255Y-9057244D01*
X-20896772Y-9118565D01*
X-20893939Y-9145375D01*
X-20898438Y-10373438D01*
X-20473435Y-10800000D01*
X-11651364Y-10800000D01*
X-11584325Y-10819685D01*
X-11563683Y-10836319D01*
X-10686319Y-11713683D01*
X-10652834Y-11775006D01*
X-10650000Y-11801364D01*
X-10650000Y-26698638D01*
X-10669685Y-26765677D01*
X-10686319Y-26786319D01*
X-11363681Y-27463681D01*
X-11425004Y-27497166D01*
X-11451362Y-27500000D01*
X-18098638Y-27500000D01*
X-18165677Y-27480315D01*
X-18186319Y-27463681D01*
X-18200000Y-27450000D01*
X-22463283Y-27450000D01*
X-22530322Y-27430315D01*
X-22543260Y-27420761D01*
X-23137461Y-26919260D01*
X-23175997Y-26860979D01*
X-23176905Y-26791115D01*
X-23139898Y-26731851D01*
X-23076726Y-26702002D01*
X-23057484Y-26700500D01*
X-22820261Y-26700500D01*
X-22820260Y-26700499D01*
X-22463052Y-26660252D01*
X-22112592Y-26580262D01*
X-22112580Y-26580258D01*
X-22028119Y-26550703D01*
X-21773292Y-26461536D01*
X-21449418Y-26305566D01*
X-21145044Y-26114315D01*
X-20863997Y-25890188D01*
X-20609812Y-25636003D01*
X-20385685Y-25354956D01*
X-20194434Y-25050582D01*
X-20194432Y-25050579D01*
X-20038465Y-24726711D01*
X-19919741Y-24387419D01*
X-19919737Y-24387407D01*
X-19839748Y-24036951D01*
X-19839746Y-24036935D01*
X-19799500Y-23679740D01*
X-19799500Y-23320259D01*
X-19839746Y-22963064D01*
X-19839748Y-22963048D01*
X-19919737Y-22612592D01*
X-19919741Y-22612580D01*
X-20038465Y-22273288D01*
X-20194432Y-21949420D01*
X-20385684Y-21645045D01*
X-20609811Y-21363997D01*
X-20863997Y-21109811D01*
X-21145045Y-20885684D01*
X-21449420Y-20694432D01*
X-21773288Y-20538465D01*
X-22112580Y-20419741D01*
X-22112592Y-20419737D01*
X-22463048Y-20339748D01*
X-22463064Y-20339746D01*
X-22820259Y-20299500D01*
X-22820264Y-20299500D01*
X-23077216Y-20299500D01*
X-23144255Y-20279815D01*
X-23190010Y-20227011D01*
X-23199954Y-20157853D01*
X-23170929Y-20094297D01*
X-23165856Y-20088788D01*
X-22941641Y-19859590D01*
X-22726225Y-19591096D01*
X-22633868Y-19449479D01*
X-22538193Y-19302774D01*
X-22538187Y-19302764D01*
X-22401138Y-19039280D01*
X-22379342Y-18997377D01*
X-22379339Y-18997370D01*
X-22379337Y-18997366D01*
X-22251221Y-18677882D01*
X-22155063Y-18347363D01*
X-22155061Y-18347357D01*
X-22091788Y-18008987D01*
X-22091787Y-18008981D01*
X-22062016Y-17666062D01*
X-22066029Y-17321842D01*
X-22103788Y-16979701D01*
X-22122827Y-16889570D01*
X-22174932Y-16642898D01*
X-22174932Y-16642896D01*
X-22278769Y-16314710D01*
X-22414307Y-15998277D01*
X-22414311Y-15998269D01*
X-22580219Y-15696693D01*
X-22580237Y-15696665D01*
X-22637083Y-15613779D01*
X-22637084Y-15613780D01*
X-22640302Y-15609088D01*
X-22640306Y-15609079D01*
X-22667628Y-15569245D01*
X-22677033Y-15555533D01*
X-22678106Y-15553942D01*
X-23148375Y-14844986D01*
X-23150453Y-14841745D01*
X-23597977Y-14119362D01*
X-23599953Y-14116059D01*
X-24024837Y-13380139D01*
X-24026710Y-13376776D01*
X-24428564Y-12627989D01*
X-24430331Y-12624570D01*
X-24809164Y-11862842D01*
X-24810006Y-11861115D01*
X-24813807Y-11853164D01*
X-24838011Y-11802541D01*
X-24838018Y-11802532D01*
X-24840902Y-11796500D01*
X-24840902Y-11796499D01*
X-24883833Y-11706717D01*
X-24883838Y-11706708D01*
X-25062057Y-11412237D01*
X-25062070Y-11412218D01*
X-25268329Y-11136635D01*
X-25268345Y-11136617D01*
X-25500623Y-10882618D01*
X-25500632Y-10882610D01*
X-25511848Y-10872537D01*
X-25746132Y-10662122D01*
X-25756734Y-10652600D01*
X-26034175Y-10448816D01*
X-26039249Y-10445808D01*
X-26086871Y-10394681D01*
X-26100000Y-10339151D01*
X-26100000Y-9251362D01*
X-26080315Y-9184323D01*
X-26063681Y-9163681D01*
X-25586242Y-8686242D01*
X-25524919Y-8652757D01*
X-25498752Y-8649923D01*
X-21395217Y-8643826D01*
X-21328151Y-8663411D01*
G37*
%TD.AperFunction*%
%TD*%
%TA.AperFunction,Conductor*%
%TO.N,/PHASB*%
G36*
X-2184323Y-14119685D02*
G01*
X-2163681Y-14136319D01*
X-1536319Y-14763681D01*
X-1502834Y-14825004D01*
X-1500000Y-14851362D01*
X-1500000Y-19450002D01*
X-900002Y-20050000D01*
X2937500Y-20050000D01*
X3500000Y-19487500D01*
X3500000Y-19001362D01*
X3519685Y-18934323D01*
X3536319Y-18913681D01*
X4013681Y-18436319D01*
X4075004Y-18402834D01*
X4101362Y-18400000D01*
X7948638Y-18400000D01*
X8015677Y-18419685D01*
X8036319Y-18436319D01*
X8513681Y-18913681D01*
X8547166Y-18975004D01*
X8550000Y-19001362D01*
X8550000Y-26648638D01*
X8530315Y-26715677D01*
X8513681Y-26736319D01*
X7786319Y-27463681D01*
X7724996Y-27497166D01*
X7698638Y-27500000D01*
X3223633Y-27500000D01*
X3196915Y-27497087D01*
X2989572Y-27451337D01*
X2989560Y-27451335D01*
X2647773Y-27410500D01*
X2647774Y-27410500D01*
X2513928Y-27407735D01*
X2303611Y-27403391D01*
X2303608Y-27403391D01*
X2303600Y-27403391D01*
X2203972Y-27411133D01*
X2203973Y-27411134D01*
X2197711Y-27411620D01*
X2197707Y-27411620D01*
X2167716Y-27413951D01*
X2144787Y-27415734D01*
X2132954Y-27416654D01*
X2131036Y-27416788D01*
X1281946Y-27469573D01*
X1278101Y-27469752D01*
X428747Y-27496128D01*
X424898Y-27496188D01*
X-424896Y-27496188D01*
X-428745Y-27496128D01*
X-1278099Y-27469752D01*
X-1281944Y-27469573D01*
X-2131034Y-27416788D01*
X-2132948Y-27416654D01*
X-2167475Y-27413970D01*
X-2197705Y-27411620D01*
X-2197709Y-27411620D01*
X-2203971Y-27411134D01*
X-2203971Y-27411133D01*
X-2303598Y-27403391D01*
X-2303606Y-27403391D01*
X-2303609Y-27403391D01*
X-2526297Y-27407990D01*
X-2647770Y-27410500D01*
X-2989561Y-27451334D01*
X-3196916Y-27497087D01*
X-3223634Y-27500000D01*
X-7298638Y-27500000D01*
X-7365677Y-27480315D01*
X-7386319Y-27463681D01*
X-8313681Y-26536319D01*
X-8347166Y-26474996D01*
X-8350000Y-26448638D01*
X-8350000Y-14801362D01*
X-8330315Y-14734323D01*
X-8313681Y-14713681D01*
X-7736319Y-14136319D01*
X-7674996Y-14102834D01*
X-7648638Y-14100000D01*
X-2251362Y-14100000D01*
X-2184323Y-14119685D01*
G37*
%TD.AperFunction*%
%TD*%
%TA.AperFunction,Conductor*%
%TO.N,/PHASC*%
G36*
X27100677Y-5604685D02*
G01*
X27121319Y-5621319D01*
X27663681Y-6163681D01*
X27697166Y-6225004D01*
X27700000Y-6251362D01*
X27700000Y-9766536D01*
X27680315Y-9833575D01*
X27627511Y-9879330D01*
X27593578Y-9889284D01*
X27301067Y-9931172D01*
X26966754Y-10013158D01*
X26642093Y-10127548D01*
X26330207Y-10273241D01*
X26330202Y-10273243D01*
X26034131Y-10448819D01*
X26034130Y-10448819D01*
X25756713Y-10652593D01*
X25756709Y-10652596D01*
X25756707Y-10652598D01*
X25500610Y-10882610D01*
X25464001Y-10922643D01*
X25268313Y-11136636D01*
X25268311Y-11136638D01*
X25062054Y-11412227D01*
X24883841Y-11706702D01*
X24883829Y-11706725D01*
X24838485Y-11801554D01*
X24838016Y-11802536D01*
X24838014Y-11802540D01*
X24832339Y-11814410D01*
X24809998Y-11861135D01*
X24809155Y-11862863D01*
X24430326Y-12624581D01*
X24428559Y-12628000D01*
X24026710Y-13376774D01*
X24024837Y-13380137D01*
X23599952Y-14116058D01*
X23597976Y-14119361D01*
X23150444Y-14841760D01*
X23148366Y-14845001D01*
X22678127Y-15553914D01*
X22677054Y-15555505D01*
X22669921Y-15565904D01*
X22640307Y-15609080D01*
X22640303Y-15609089D01*
X22636423Y-15614747D01*
X22636421Y-15614748D01*
X22580238Y-15696665D01*
X22580230Y-15696678D01*
X22414307Y-15998282D01*
X22278774Y-16314701D01*
X22278771Y-16314711D01*
X22174933Y-16642897D01*
X22103789Y-16979702D01*
X22066030Y-17321844D01*
X22062018Y-17666063D01*
X22091789Y-18008984D01*
X22091790Y-18008990D01*
X22155063Y-18347360D01*
X22155065Y-18347366D01*
X22251223Y-18677881D01*
X22379343Y-18997375D01*
X22379350Y-18997389D01*
X22538193Y-19302771D01*
X22538194Y-19302773D01*
X22661496Y-19491840D01*
X22726229Y-19591099D01*
X22772719Y-19649044D01*
X22799318Y-19713649D01*
X22800000Y-19726641D01*
X22800000Y-20190969D01*
X22780315Y-20258008D01*
X22727511Y-20303763D01*
X22689884Y-20314189D01*
X22463064Y-20339746D01*
X22463048Y-20339748D01*
X22112592Y-20419737D01*
X22112580Y-20419741D01*
X21773288Y-20538465D01*
X21449420Y-20694432D01*
X21145045Y-20885684D01*
X20863997Y-21109811D01*
X20609811Y-21363997D01*
X20385684Y-21645045D01*
X20194432Y-21949420D01*
X20038465Y-22273288D01*
X19919741Y-22612580D01*
X19919737Y-22612592D01*
X19839748Y-22963048D01*
X19839746Y-22963064D01*
X19799500Y-23320259D01*
X19799500Y-23679740D01*
X19839746Y-24036935D01*
X19839748Y-24036951D01*
X19919737Y-24387407D01*
X19919741Y-24387419D01*
X20038465Y-24726711D01*
X20194432Y-25050579D01*
X20194434Y-25050582D01*
X20385685Y-25354956D01*
X20609812Y-25636003D01*
X20863997Y-25890188D01*
X21145044Y-26114315D01*
X21449418Y-26305566D01*
X21773292Y-26461536D01*
X22028119Y-26550703D01*
X22112580Y-26580258D01*
X22112592Y-26580262D01*
X22463052Y-26660252D01*
X22463056Y-26660252D01*
X22463065Y-26660254D01*
X22545732Y-26669568D01*
X22610146Y-26696634D01*
X22649701Y-26754229D01*
X22651839Y-26824066D01*
X22619530Y-26880469D01*
X22036319Y-27463681D01*
X21974996Y-27497166D01*
X21948638Y-27500000D01*
X18050000Y-27500000D01*
X11761362Y-27500000D01*
X11694323Y-27480315D01*
X11673681Y-27463681D01*
X10886319Y-26676319D01*
X10852834Y-26614996D01*
X10850000Y-26588638D01*
X10850000Y-16788862D01*
X10869685Y-16721823D01*
X10886319Y-16701181D01*
X11326181Y-16261319D01*
X11387504Y-16227834D01*
X11413862Y-16225000D01*
X12515625Y-16225000D01*
X12900000Y-15840625D01*
X12900000Y-14661518D01*
X12919685Y-14594479D01*
X12936319Y-14573837D01*
X13273837Y-14236319D01*
X13335160Y-14202834D01*
X13361518Y-14200000D01*
X18322552Y-14200000D01*
X19000000Y-13522552D01*
X19000000Y-11540060D01*
X19019685Y-11473021D01*
X19034509Y-11454227D01*
X21350026Y-9040195D01*
X21350012Y-6201351D01*
X21369696Y-6134312D01*
X21386327Y-6113674D01*
X21878681Y-5621318D01*
X21940004Y-5587834D01*
X21966362Y-5585000D01*
X27033638Y-5585000D01*
X27100677Y-5604685D01*
G37*
%TD.AperFunction*%
%TD*%
%TA.AperFunction,Conductor*%
%TO.N,GND*%
G36*
X-30235663Y2654309D02*
G01*
X-30168624Y2634623D01*
X-30147982Y2617988D01*
X-29936217Y2406211D01*
X-29902734Y2344887D01*
X-29899901Y2318533D01*
X-29899988Y-798723D01*
X-29919674Y-865761D01*
X-29936340Y-886434D01*
X-30193537Y-1143435D01*
X-30254873Y-1176896D01*
X-30281276Y-1179720D01*
X-33871849Y-1177085D01*
X-33938874Y-1157351D01*
X-33959504Y-1140702D01*
X-34248743Y-851038D01*
X-34282183Y-789690D01*
X-34284997Y-763330D01*
X-34282812Y2216033D01*
X-34263078Y2283058D01*
X-34246460Y2303656D01*
X-33931754Y2618124D01*
X-33870418Y2651586D01*
X-33844103Y2654410D01*
X-30235663Y2654309D01*
G37*
%TD.AperFunction*%
%TD*%
%TA.AperFunction,Conductor*%
%TO.N,+3.3V*%
G36*
X-8720426Y34341305D02*
G01*
X-8446125Y34332746D01*
X-8438779Y34332298D01*
X-8431477Y34331635D01*
X-8430584Y34331282D01*
X-8153006Y34289801D01*
X-8145571Y34288457D01*
X-8138372Y34286928D01*
X-8131228Y34285188D01*
X-8116881Y34281239D01*
X-7866664Y34212369D01*
X-7859635Y34210208D01*
X-7852671Y34207839D01*
X-7845773Y34205262D01*
X-7718723Y34153439D01*
X-7591667Y34101613D01*
X-7584951Y34098638D01*
X-7578306Y34095455D01*
X-7571781Y34092089D01*
X-7331738Y33959077D01*
X-7325422Y33955328D01*
X-7319195Y33951377D01*
X-7313116Y33947262D01*
X-7090520Y33786765D01*
X-7084679Y33782284D01*
X-7078979Y33777636D01*
X-7073438Y33772837D01*
X-6871388Y33587085D01*
X-6866138Y33581962D01*
X-6861034Y33576678D01*
X-6856079Y33571234D01*
X-6677463Y33362878D01*
X-6672841Y33357151D01*
X-6668406Y33351309D01*
X-6664136Y33345323D01*
X-6612881Y33268771D01*
X-6511450Y33117277D01*
X-6507548Y33111059D01*
X-6503822Y33104710D01*
X-6500299Y33098277D01*
X-6417247Y32935297D01*
X-6375685Y32853737D01*
X-6372550Y32847108D01*
X-6369601Y32840359D01*
X-6366868Y32833562D01*
X-6272090Y32575986D01*
X-6269763Y32569032D01*
X-6267634Y32561981D01*
X-6265724Y32554906D01*
X-6265716Y32554872D01*
X-6200830Y32282522D01*
X-6200032Y32278939D01*
X-6199292Y32275367D01*
X-6198602Y32271768D01*
X-6027393Y31300790D01*
X-5867294Y30392825D01*
X-5873187Y30328070D01*
X-5875085Y30322964D01*
X-5876284Y30312197D01*
X-5920328Y30257957D01*
X-5986704Y30236140D01*
X-6021780Y30240043D01*
X-6024442Y30240734D01*
X-6081004Y30273083D01*
X-6159708Y30351787D01*
X-6159711Y30351789D01*
X-6290814Y30439390D01*
X-6290827Y30439397D01*
X-6436498Y30499735D01*
X-6436503Y30499737D01*
X-6497858Y30511941D01*
X-6513477Y30515048D01*
X-6591153Y30530500D01*
X-6591155Y30530500D01*
X-6591158Y30530500D01*
X-6748842Y30530500D01*
X-6748845Y30530500D01*
X-6826520Y30515048D01*
X-6903497Y30499737D01*
X-7049179Y30439394D01*
X-7180289Y30351789D01*
X-7180290Y30351788D01*
X-7180292Y30351787D01*
X-7253570Y30278508D01*
X-7291789Y30240289D01*
X-7379394Y30109179D01*
X-7439737Y29963497D01*
X-7446322Y29930392D01*
X-7470064Y29811032D01*
X-7470500Y29809025D01*
X-7470500Y29650971D01*
X-7470064Y29648966D01*
X-7439737Y29496503D01*
X-7439735Y29496498D01*
X-7379397Y29350827D01*
X-7379390Y29350814D01*
X-7379385Y29350807D01*
X-7291787Y29219708D01*
X-7291786Y29219707D01*
X-7291781Y29219701D01*
X-7180297Y29108217D01*
X-7180291Y29108212D01*
X-7180290Y29108211D01*
X-7049191Y29020613D01*
X-7049185Y29020609D01*
X-7049175Y29020603D01*
X-7049174Y29020603D01*
X-7049165Y29020598D01*
X-6903502Y28960264D01*
X-6903471Y28960257D01*
X-6748848Y28929500D01*
X-6591153Y28929500D01*
X-6591151Y28929500D01*
X-6436527Y28960257D01*
X-6436496Y28960264D01*
X-6290833Y29020598D01*
X-6290824Y29020603D01*
X-6290807Y29020613D01*
X-6159708Y29108211D01*
X-6159707Y29108212D01*
X-6159701Y29108217D01*
X-6048217Y29219701D01*
X-6048212Y29219707D01*
X-6048211Y29219708D01*
X-5960613Y29350807D01*
X-5960603Y29350824D01*
X-5960598Y29350833D01*
X-5900267Y29496488D01*
X-5900260Y29496509D01*
X-5888802Y29554118D01*
X-5865477Y29605522D01*
X-5858650Y29614399D01*
X-5857664Y29613641D01*
X-5851172Y29626052D01*
X-5790456Y29660625D01*
X-5720686Y29656884D01*
X-5689413Y29640524D01*
X-5687828Y29639381D01*
X-5644966Y29584203D01*
X-5644856Y29583924D01*
X-5603271Y29477038D01*
X-5447588Y29170026D01*
X-5262537Y28879769D01*
X-5049905Y28609064D01*
X-5049898Y28609057D01*
X-5049896Y28609054D01*
X-4863671Y28414715D01*
X-4811734Y28360517D01*
X-4809740Y28358749D01*
X-4808670Y28357891D01*
X-4550231Y28136447D01*
X-4549116Y28135687D01*
X-4390402Y28024712D01*
X-4268240Y27939294D01*
X-3968845Y27771060D01*
X-3968112Y27770648D01*
X-3967646Y27770428D01*
X-3967510Y27770363D01*
X-3966296Y27769854D01*
X-3652959Y27632295D01*
X-3652945Y27632289D01*
X-3325715Y27525506D01*
X-3325463Y27525440D01*
X-3324496Y27525237D01*
X-2989575Y27451337D01*
X-2989563Y27451335D01*
X-2989556Y27451334D01*
X-2850903Y27434769D01*
X-2816816Y27425639D01*
X-2805554Y27420818D01*
X-2751670Y27376340D01*
X-2730387Y27309790D01*
X-2746964Y27244826D01*
X-2752073Y27235977D01*
X-2768077Y27215124D01*
X-2767924Y27214999D01*
X-2771770Y27210312D01*
X-2771785Y27210293D01*
X-2771789Y27210289D01*
X-2859394Y27079179D01*
X-2919737Y26933497D01*
X-2950499Y26778846D01*
X-2950500Y26778844D01*
X-2950500Y26621155D01*
X-2950499Y26621153D01*
X-2919737Y26466503D01*
X-2919735Y26466498D01*
X-2859397Y26320827D01*
X-2859390Y26320814D01*
X-2776518Y26196789D01*
X-2771787Y26189708D01*
X-2771786Y26189707D01*
X-2771781Y26189701D01*
X-2660297Y26078217D01*
X-2660291Y26078212D01*
X-2660290Y26078211D01*
X-2573562Y26020261D01*
X-2529185Y25990609D01*
X-2529175Y25990603D01*
X-2529174Y25990603D01*
X-2529165Y25990598D01*
X-2383502Y25930264D01*
X-2383471Y25930257D01*
X-2228848Y25899500D01*
X-2071153Y25899500D01*
X-2071151Y25899500D01*
X-1916527Y25930257D01*
X-1916496Y25930264D01*
X-1770833Y25990598D01*
X-1770824Y25990603D01*
X-1770807Y25990613D01*
X-1639708Y26078211D01*
X-1639707Y26078212D01*
X-1639701Y26078217D01*
X-1528217Y26189701D01*
X-1528212Y26189707D01*
X-1528211Y26189708D01*
X-1440613Y26320807D01*
X-1440603Y26320824D01*
X-1440598Y26320833D01*
X-1380264Y26466496D01*
X-1380257Y26466527D01*
X-1349500Y26621150D01*
X-1349500Y26778848D01*
X-1349499Y26778848D01*
X-1380257Y26933471D01*
X-1380264Y26933502D01*
X-1440598Y27079165D01*
X-1440603Y27079174D01*
X-1440613Y27079191D01*
X-1528212Y27210291D01*
X-1528214Y27210293D01*
X-1533045Y27215124D01*
X-1550914Y27232993D01*
X-1572064Y27261246D01*
X-1577455Y27271118D01*
X-1577484Y27271172D01*
X-1592336Y27339445D01*
X-1567919Y27404909D01*
X-1511986Y27446781D01*
X-1511982Y27446782D01*
X-1501919Y27450535D01*
X-1466283Y27458113D01*
X-1282920Y27469512D01*
X-1280977Y27469618D01*
X-1279017Y27469709D01*
X-1277115Y27469782D01*
X-429723Y27496097D01*
X-427846Y27496141D01*
X-425897Y27496172D01*
X-423925Y27496188D01*
X329289Y27496188D01*
X364231Y27491163D01*
X377299Y27487325D01*
X436075Y27449547D01*
X465096Y27385989D01*
X458148Y27323984D01*
X455190Y27316266D01*
X442505Y27291750D01*
X390702Y27214221D01*
X360613Y27169191D01*
X360603Y27169174D01*
X360598Y27169165D01*
X300264Y27023502D01*
X300264Y27023501D01*
X300261Y27023491D01*
X300257Y27023471D01*
X269500Y26868848D01*
X269500Y26711150D01*
X269499Y26711150D01*
X300257Y26556527D01*
X300264Y26556496D01*
X360598Y26410833D01*
X360603Y26410824D01*
X360613Y26410807D01*
X448211Y26279708D01*
X448212Y26279707D01*
X448217Y26279701D01*
X559701Y26168217D01*
X559707Y26168212D01*
X559708Y26168211D01*
X690807Y26080613D01*
X690824Y26080603D01*
X690833Y26080598D01*
X836496Y26020264D01*
X836527Y26020257D01*
X991151Y25989500D01*
X1148846Y25989500D01*
X1148848Y25989500D01*
X1303471Y26020257D01*
X1303502Y26020264D01*
X1449165Y26080598D01*
X1449174Y26080603D01*
X1449175Y26080603D01*
X1449185Y26080609D01*
X1456201Y26085297D01*
X1580290Y26168211D01*
X1580291Y26168212D01*
X1580297Y26168217D01*
X1691781Y26279701D01*
X1691786Y26279707D01*
X1691787Y26279708D01*
X1735239Y26344738D01*
X1779390Y26410814D01*
X1779397Y26410827D01*
X1839735Y26556498D01*
X1839737Y26556503D01*
X1870499Y26711153D01*
X1870500Y26711155D01*
X1870500Y26868844D01*
X1870499Y26868846D01*
X1868510Y26878846D01*
X1839737Y27023497D01*
X1779394Y27169179D01*
X1772937Y27178842D01*
X1772934Y27178846D01*
X1751925Y27210288D01*
X1740547Y27227316D01*
X1725316Y27259149D01*
X1721568Y27271119D01*
X1720323Y27340976D01*
X1757043Y27400419D01*
X1816237Y27429889D01*
X1821043Y27430824D01*
X1825892Y27431767D01*
X1857252Y27433807D01*
X2130573Y27416816D01*
X2131559Y27416751D01*
X2132471Y27416687D01*
X2133398Y27416618D01*
X2167474Y27413970D01*
X2167476Y27413970D01*
X2173925Y27413468D01*
X2197707Y27411620D01*
X2197711Y27411620D01*
X2200078Y27411436D01*
X2201813Y27411301D01*
X2203973Y27411134D01*
X2210572Y27410621D01*
X2242751Y27408120D01*
X2277188Y27400407D01*
X2290162Y27395477D01*
X2345837Y27353263D01*
X2369851Y27287661D01*
X2369983Y27285644D01*
X2360223Y27228703D01*
X2358523Y27224736D01*
X2347651Y27204690D01*
X2340078Y27193356D01*
X2330609Y27179184D01*
X2330605Y27179176D01*
X2330604Y27179175D01*
X2330596Y27179160D01*
X2270264Y27033502D01*
X2270257Y27033471D01*
X2239500Y26878848D01*
X2239500Y26721150D01*
X2239499Y26721150D01*
X2270257Y26566527D01*
X2270264Y26566496D01*
X2330598Y26420833D01*
X2330603Y26420824D01*
X2330613Y26420807D01*
X2418211Y26289708D01*
X2418212Y26289707D01*
X2418217Y26289701D01*
X2529701Y26178217D01*
X2529707Y26178212D01*
X2529708Y26178211D01*
X2660807Y26090613D01*
X2660824Y26090603D01*
X2660833Y26090598D01*
X2806496Y26030264D01*
X2806527Y26030257D01*
X2961151Y25999500D01*
X3118846Y25999500D01*
X3118848Y25999500D01*
X3273471Y26030257D01*
X3273502Y26030264D01*
X3419165Y26090598D01*
X3419174Y26090603D01*
X3419175Y26090603D01*
X3419185Y26090609D01*
X3478528Y26130261D01*
X3550290Y26178211D01*
X3550291Y26178212D01*
X3550297Y26178217D01*
X3661781Y26289701D01*
X3661786Y26289707D01*
X3661787Y26289708D01*
X3682567Y26320807D01*
X3749390Y26420814D01*
X3749397Y26420827D01*
X3809735Y26566498D01*
X3809737Y26566503D01*
X3840064Y26718966D01*
X3840500Y26720971D01*
X3840500Y26821150D01*
X9199499Y26821150D01*
X9230257Y26666527D01*
X9230264Y26666496D01*
X9290598Y26520833D01*
X9290603Y26520824D01*
X9290613Y26520807D01*
X9378211Y26389708D01*
X9378212Y26389707D01*
X9378217Y26389701D01*
X9489701Y26278217D01*
X9489707Y26278212D01*
X9489708Y26278211D01*
X9620807Y26190613D01*
X9620824Y26190603D01*
X9620833Y26190598D01*
X9766496Y26130264D01*
X9766527Y26130257D01*
X9921151Y26099500D01*
X10078846Y26099500D01*
X10078848Y26099500D01*
X10233471Y26130257D01*
X10233502Y26130264D01*
X10379165Y26190598D01*
X10379174Y26190603D01*
X10379175Y26190603D01*
X10379185Y26190609D01*
X10388422Y26196781D01*
X10510290Y26278211D01*
X10510291Y26278212D01*
X10510297Y26278217D01*
X10621781Y26389701D01*
X10621786Y26389707D01*
X10621787Y26389708D01*
X10642567Y26420807D01*
X10709390Y26520814D01*
X10709397Y26520827D01*
X10769735Y26666498D01*
X10769737Y26666503D01*
X10792084Y26778848D01*
X10797681Y26806985D01*
X10797681Y26806986D01*
X10800499Y26821153D01*
X10800500Y26821155D01*
X10800500Y26978844D01*
X10800499Y26978846D01*
X10769737Y27133497D01*
X10737920Y27210312D01*
X10718992Y27256009D01*
X10712733Y27271118D01*
X10709397Y27279172D01*
X10709396Y27279172D01*
X10709394Y27279179D01*
X10709391Y27279182D01*
X10708421Y27281526D01*
X10704582Y27290792D01*
X10695697Y27299678D01*
X10621789Y27410289D01*
X10510292Y27521786D01*
X10510291Y27521787D01*
X10510289Y27521789D01*
X10379179Y27609394D01*
X10377013Y27610291D01*
X10350978Y27621075D01*
X10233497Y27669737D01*
X10189638Y27678460D01*
X10156523Y27685048D01*
X10156520Y27685048D01*
X10078845Y27700500D01*
X9921153Y27700500D01*
X9843477Y27685048D01*
X9827858Y27681941D01*
X9766503Y27669737D01*
X9766498Y27669735D01*
X9620827Y27609397D01*
X9620814Y27609390D01*
X9571775Y27576623D01*
X9489708Y27521787D01*
X9489707Y27521786D01*
X9489701Y27521781D01*
X9378217Y27410297D01*
X9378212Y27410291D01*
X9378211Y27410290D01*
X9290613Y27279191D01*
X9290603Y27279174D01*
X9290598Y27279165D01*
X9230264Y27133502D01*
X9230257Y27133471D01*
X9199500Y26978848D01*
X9199500Y26821150D01*
X9199499Y26821150D01*
X3840500Y26821150D01*
X3840500Y26878845D01*
X3838530Y26888745D01*
X3824587Y26958839D01*
X3824202Y26960780D01*
X3812191Y27021158D01*
X3809737Y27033497D01*
X3749394Y27179179D01*
X3661789Y27310289D01*
X3572317Y27399759D01*
X3551169Y27428012D01*
X3548634Y27432654D01*
X3544518Y27440191D01*
X3529668Y27508464D01*
X3554077Y27573916D01*
X3556103Y27576623D01*
X3598274Y27612391D01*
X3599368Y27612959D01*
X3599953Y27613263D01*
X3618585Y27621075D01*
X3643220Y27629114D01*
X3652945Y27632288D01*
X3652969Y27632297D01*
X3738252Y27669738D01*
X3967667Y27770456D01*
X3968097Y27770643D01*
X3968147Y27770667D01*
X4037069Y27809395D01*
X4268242Y27939293D01*
X4549119Y28135687D01*
X4550233Y28136446D01*
X4808672Y28357890D01*
X4809742Y28358748D01*
X4811736Y28360516D01*
X4863674Y28414715D01*
X5049898Y28609053D01*
X5049899Y28609053D01*
X5049908Y28609064D01*
X5262539Y28879768D01*
X5447590Y29170025D01*
X5603273Y29477037D01*
X5728088Y29797840D01*
X5820830Y30129340D01*
X5839277Y30233937D01*
X5839282Y30233947D01*
X5858344Y30342049D01*
X5859380Y30347924D01*
X5859383Y30347940D01*
X5860065Y30351806D01*
X5865467Y30382445D01*
X5865472Y30382483D01*
X5875507Y30439390D01*
X6195617Y32254823D01*
X6198605Y32271774D01*
X6199287Y32275327D01*
X6200035Y32278940D01*
X6200836Y32282540D01*
X6208537Y32314861D01*
X6215992Y32346153D01*
X6265725Y32554899D01*
X6267627Y32561947D01*
X6269766Y32569033D01*
X6272093Y32575983D01*
X6288152Y32619625D01*
X6288152Y32619626D01*
X6343638Y32770417D01*
X6366865Y32833542D01*
X6369606Y32840359D01*
X6369617Y32840384D01*
X6372548Y32847093D01*
X6375685Y32853726D01*
X6500289Y33098247D01*
X6503820Y33104696D01*
X6503841Y33104731D01*
X6507553Y33111057D01*
X6511449Y33117267D01*
X6522914Y33134390D01*
X6563709Y33195321D01*
X6664140Y33345319D01*
X6668397Y33351287D01*
X6672834Y33357133D01*
X6677465Y33362872D01*
X6856081Y33571227D01*
X6861029Y33576663D01*
X6866136Y33581951D01*
X6871387Y33587075D01*
X6876850Y33592098D01*
X6933077Y33643790D01*
X7073433Y33772826D01*
X7079001Y33777648D01*
X7084680Y33782278D01*
X7090513Y33786752D01*
X7313115Y33947254D01*
X7319200Y33951373D01*
X7325395Y33955304D01*
X7331731Y33959066D01*
X7571789Y34092087D01*
X7578326Y34095459D01*
X7584953Y34098633D01*
X7591671Y34101608D01*
X7845770Y34205255D01*
X7852669Y34207833D01*
X7859636Y34210203D01*
X7866663Y34212363D01*
X8131232Y34285184D01*
X8138374Y34286924D01*
X8145572Y34288453D01*
X8152820Y34289769D01*
X8424176Y34330750D01*
X8431479Y34331632D01*
X8438780Y34332295D01*
X8446127Y34332743D01*
X8720429Y34341302D01*
X8727793Y34341313D01*
X8735130Y34341106D01*
X8742470Y34340681D01*
X9015858Y34316696D01*
X9023165Y34315835D01*
X9030426Y34314761D01*
X9037672Y34313469D01*
X9310232Y34256452D01*
X9314804Y34255405D01*
X9319342Y34254275D01*
X9323850Y34253062D01*
X10414050Y33937569D01*
X10415973Y33936995D01*
X10417898Y33936404D01*
X10419798Y33935804D01*
X11503053Y33584085D01*
X11504926Y33583461D01*
X11506769Y33582830D01*
X11508680Y33582158D01*
X12580119Y33195657D01*
X12582028Y33194950D01*
X12583902Y33194239D01*
X12585732Y33193528D01*
X13644040Y32772720D01*
X13645859Y32771980D01*
X13647700Y32771214D01*
X13649573Y32770417D01*
X14693817Y32315674D01*
X14695644Y32314861D01*
X14697480Y32314026D01*
X14699294Y32313183D01*
X15663042Y31855976D01*
X15692456Y31836460D01*
X15704484Y31825726D01*
X15741148Y31767283D01*
X15745227Y31753005D01*
X15750000Y31718937D01*
X15750000Y21442165D01*
X15747617Y21417974D01*
X15745910Y21409390D01*
X15742944Y21394481D01*
X15735889Y21371223D01*
X15720263Y21333498D01*
X15720257Y21333471D01*
X15689500Y21178848D01*
X15689500Y21021148D01*
X15720236Y20866628D01*
X15720237Y20866624D01*
X15720260Y20866511D01*
X15720262Y20866506D01*
X15720263Y20866503D01*
X15727977Y20847878D01*
X15728288Y20847127D01*
X15728429Y20846788D01*
X15728429Y20846787D01*
X15735886Y20828784D01*
X15742942Y20805525D01*
X15747617Y20782024D01*
X15750000Y20757831D01*
X15750000Y20052401D01*
X15744975Y20017460D01*
X15741064Y20004143D01*
X15703287Y19945367D01*
X15639730Y19916345D01*
X15639726Y19916345D01*
X15639725Y19916345D01*
X15634540Y19915600D01*
X15569456Y19923776D01*
X15516011Y19945913D01*
X15458497Y19969737D01*
X15427959Y19975811D01*
X15381523Y19985048D01*
X15381520Y19985048D01*
X15303845Y20000500D01*
X15146153Y20000500D01*
X15074268Y19986200D01*
X15052858Y19981941D01*
X14991503Y19969737D01*
X14991498Y19969735D01*
X14845827Y19909397D01*
X14845814Y19909390D01*
X14779430Y19865033D01*
X14714708Y19821787D01*
X14714707Y19821786D01*
X14714701Y19821781D01*
X14603217Y19710297D01*
X14603212Y19710291D01*
X14603211Y19710290D01*
X14515613Y19579191D01*
X14515603Y19579174D01*
X14515598Y19579165D01*
X14455264Y19433502D01*
X14455257Y19433471D01*
X14424500Y19278848D01*
X14424500Y19121150D01*
X14424499Y19121150D01*
X14455257Y18966527D01*
X14455264Y18966496D01*
X14515598Y18820833D01*
X14515603Y18820824D01*
X14515607Y18820817D01*
X14515609Y18820814D01*
X14534186Y18793012D01*
X14603211Y18689708D01*
X14603212Y18689707D01*
X14603217Y18689701D01*
X14714701Y18578217D01*
X14714707Y18578212D01*
X14714708Y18578211D01*
X14845807Y18490613D01*
X14845824Y18490603D01*
X14845833Y18490598D01*
X14991496Y18430264D01*
X14991527Y18430257D01*
X15146151Y18399500D01*
X15303846Y18399500D01*
X15303848Y18399500D01*
X15458486Y18430259D01*
X15458496Y18430262D01*
X15547528Y18467140D01*
X15562078Y18473167D01*
X15596269Y18481893D01*
X15610069Y18483377D01*
X15678829Y18470973D01*
X15729962Y18423373D01*
X15732635Y18418869D01*
X15750000Y18355584D01*
X15750000Y13429191D01*
X15744976Y13394254D01*
X15737564Y13369013D01*
X15706269Y13316269D01*
X14888926Y12498926D01*
X14860672Y12477775D01*
X14855101Y12474733D01*
X14837584Y12465168D01*
X14778157Y12450000D01*
X13599271Y12450000D01*
X13564346Y12455020D01*
X13561338Y12455902D01*
X13553489Y12458207D01*
X13494711Y12495975D01*
X13465681Y12559528D01*
X13475617Y12628684D01*
X13478808Y12635672D01*
X13503918Y12671839D01*
X13571786Y12739707D01*
X13571789Y12739711D01*
X13659390Y12870814D01*
X13659397Y12870827D01*
X13719735Y13016498D01*
X13719737Y13016503D01*
X13750499Y13171153D01*
X13750500Y13171155D01*
X13750500Y13328844D01*
X13750499Y13328846D01*
X13719737Y13483497D01*
X13659394Y13629179D01*
X13571789Y13760289D01*
X13460289Y13871789D01*
X13329179Y13959394D01*
X13183497Y14019737D01*
X13139638Y14028460D01*
X13106523Y14035048D01*
X13106520Y14035048D01*
X13028845Y14050500D01*
X12871153Y14050500D01*
X12793477Y14035048D01*
X12777858Y14031941D01*
X12716503Y14019737D01*
X12716498Y14019735D01*
X12570827Y13959397D01*
X12570814Y13959390D01*
X12570807Y13959385D01*
X12439708Y13871787D01*
X12439707Y13871786D01*
X12439701Y13871781D01*
X12328217Y13760297D01*
X12328212Y13760291D01*
X12328211Y13760290D01*
X12240613Y13629191D01*
X12240603Y13629174D01*
X12240598Y13629165D01*
X12180264Y13483502D01*
X12180257Y13483471D01*
X12149500Y13328848D01*
X12149500Y13171150D01*
X12149499Y13171150D01*
X12180257Y13016527D01*
X12180264Y13016496D01*
X12240598Y12870833D01*
X12240603Y12870824D01*
X12240613Y12870807D01*
X12328207Y12739715D01*
X12328213Y12739707D01*
X12328221Y12739697D01*
X12393634Y12674285D01*
X12414785Y12646032D01*
X12420204Y12636108D01*
X12435056Y12567835D01*
X12410640Y12502370D01*
X12354706Y12460499D01*
X12350376Y12458883D01*
X12347504Y12457813D01*
X12304184Y12450000D01*
X5173513Y12450000D01*
X5138578Y12455023D01*
X5106769Y12464363D01*
X5072814Y12480237D01*
X5029179Y12509394D01*
X4883497Y12569737D01*
X4839638Y12578460D01*
X4806523Y12585048D01*
X4806520Y12585048D01*
X4728845Y12600500D01*
X4571153Y12600500D01*
X4493477Y12585048D01*
X4477858Y12581941D01*
X4416503Y12569737D01*
X4270821Y12509394D01*
X4270815Y12509390D01*
X4265447Y12506521D01*
X4265141Y12507093D01*
X4241183Y12495630D01*
X4221159Y12489360D01*
X4160997Y12485868D01*
X4158488Y12486344D01*
X4154397Y12487120D01*
X4130058Y12494384D01*
X4008497Y12544737D01*
X3964638Y12553460D01*
X3931523Y12560048D01*
X3931520Y12560048D01*
X3853845Y12575500D01*
X3696153Y12575500D01*
X3667189Y12569738D01*
X3602858Y12556941D01*
X3541503Y12544737D01*
X3541498Y12544735D01*
X3397955Y12485278D01*
X3394351Y12484039D01*
X3393867Y12484016D01*
X3389957Y12482619D01*
X3383186Y12480569D01*
X3375805Y12477042D01*
X3355729Y12470755D01*
X3295563Y12467261D01*
X3288953Y12468514D01*
X3264620Y12475779D01*
X3261571Y12477042D01*
X3158497Y12519737D01*
X3120183Y12527357D01*
X3081523Y12535048D01*
X3081520Y12535048D01*
X3003845Y12550500D01*
X2846153Y12550500D01*
X2771980Y12535744D01*
X2752858Y12531941D01*
X2691503Y12519737D01*
X2626061Y12492629D01*
X2620317Y12490878D01*
X2615553Y12490828D01*
X2597403Y12486196D01*
X2571250Y12483384D01*
X2510544Y12492111D01*
X2383497Y12544737D01*
X2345183Y12552357D01*
X2306523Y12560048D01*
X2306520Y12560048D01*
X2228845Y12575500D01*
X2071153Y12575500D01*
X1993477Y12560048D01*
X1977858Y12556941D01*
X1916503Y12544737D01*
X1916498Y12544735D01*
X1770827Y12484397D01*
X1770814Y12484390D01*
X1768164Y12482619D01*
X1765442Y12480801D01*
X1733609Y12465572D01*
X1701973Y12455666D01*
X1664920Y12450000D01*
X-18181014Y12450000D01*
X-18215950Y12455023D01*
X-18241185Y12462433D01*
X-18293955Y12493754D01*
X-19009638Y13209844D01*
X-19030779Y13238100D01*
X-19043376Y13261186D01*
X-19058529Y13320654D01*
X-19056902Y16178844D01*
X-14975500Y16178844D01*
X-14975500Y16021155D01*
X-14975499Y16021153D01*
X-14975296Y16020136D01*
X-14975298Y16020045D01*
X-14975064Y16018966D01*
X-14944737Y15866503D01*
X-14944735Y15866498D01*
X-14884397Y15720827D01*
X-14884390Y15720814D01*
X-14826674Y15634437D01*
X-14796787Y15589708D01*
X-14796786Y15589707D01*
X-14796781Y15589701D01*
X-14685297Y15478217D01*
X-14685291Y15478212D01*
X-14685290Y15478211D01*
X-14561652Y15395598D01*
X-14554185Y15390609D01*
X-14554175Y15390603D01*
X-14554174Y15390603D01*
X-14554165Y15390598D01*
X-14408502Y15330264D01*
X-14408471Y15330257D01*
X-14253848Y15299500D01*
X-14096153Y15299500D01*
X-14096151Y15299500D01*
X-13941527Y15330257D01*
X-13941496Y15330264D01*
X-13795833Y15390598D01*
X-13795824Y15390603D01*
X-13795807Y15390613D01*
X-13664708Y15478211D01*
X-13553207Y15589713D01*
X-13553206Y15589714D01*
X-13548827Y15596268D01*
X-13525247Y15622516D01*
X-13514601Y15631413D01*
X-13450538Y15659298D01*
X-13381570Y15648123D01*
X-13376844Y15645862D01*
X-13327254Y15602890D01*
X-13321794Y15594717D01*
X-13321788Y15594709D01*
X-13321784Y15594705D01*
X-13321778Y15594698D01*
X-13210297Y15483217D01*
X-13210291Y15483212D01*
X-13210290Y15483211D01*
X-13101969Y15410833D01*
X-13079185Y15395609D01*
X-13079175Y15395603D01*
X-13079174Y15395603D01*
X-13079165Y15395598D01*
X-12933502Y15335264D01*
X-12933471Y15335257D01*
X-12778848Y15304500D01*
X-12621153Y15304500D01*
X-12621151Y15304500D01*
X-12466527Y15335257D01*
X-12466496Y15335264D01*
X-12320833Y15395598D01*
X-12320824Y15395603D01*
X-12320807Y15395613D01*
X-12189708Y15483211D01*
X-12189707Y15483212D01*
X-12189701Y15483217D01*
X-12078217Y15594701D01*
X-12078212Y15594707D01*
X-12078211Y15594708D01*
X-12000407Y15711150D01*
X6709499Y15711150D01*
X6740257Y15556527D01*
X6740264Y15556496D01*
X6800598Y15410833D01*
X6800603Y15410824D01*
X6800613Y15410807D01*
X6888211Y15279708D01*
X6888212Y15279707D01*
X6888217Y15279701D01*
X6999701Y15168217D01*
X6999707Y15168212D01*
X6999708Y15168211D01*
X7130807Y15080613D01*
X7130824Y15080603D01*
X7130833Y15080598D01*
X7276496Y15020264D01*
X7276527Y15020257D01*
X7431151Y14989500D01*
X7588846Y14989500D01*
X7588848Y14989500D01*
X7743471Y15020257D01*
X7743502Y15020264D01*
X7889165Y15080598D01*
X7889174Y15080603D01*
X7889175Y15080603D01*
X7889185Y15080609D01*
X7889191Y15080613D01*
X8020290Y15168211D01*
X8020291Y15168212D01*
X8020297Y15168217D01*
X8131781Y15279701D01*
X8131786Y15279707D01*
X8131787Y15279708D01*
X8152430Y15310602D01*
X8219390Y15410814D01*
X8219397Y15410827D01*
X8279735Y15556498D01*
X8279737Y15556503D01*
X8310499Y15711153D01*
X8310500Y15711155D01*
X8310500Y15868844D01*
X8310499Y15868846D01*
X8296117Y15941150D01*
X11159499Y15941150D01*
X11190257Y15786527D01*
X11190264Y15786496D01*
X11250598Y15640833D01*
X11250603Y15640824D01*
X11250613Y15640807D01*
X11338211Y15509708D01*
X11338212Y15509707D01*
X11338217Y15509701D01*
X11449701Y15398217D01*
X11449707Y15398212D01*
X11449708Y15398211D01*
X11580807Y15310613D01*
X11580824Y15310603D01*
X11580833Y15310598D01*
X11726496Y15250264D01*
X11726527Y15250257D01*
X11881151Y15219500D01*
X12038846Y15219500D01*
X12038848Y15219500D01*
X12193471Y15250257D01*
X12193502Y15250264D01*
X12339165Y15310598D01*
X12339174Y15310603D01*
X12339175Y15310603D01*
X12339185Y15310609D01*
X12376079Y15335261D01*
X12470290Y15398211D01*
X12470291Y15398212D01*
X12470297Y15398217D01*
X12581781Y15509701D01*
X12581786Y15509707D01*
X12581787Y15509708D01*
X12638578Y15594701D01*
X12669390Y15640814D01*
X12669397Y15640827D01*
X12729735Y15786498D01*
X12729737Y15786503D01*
X12760499Y15941153D01*
X12760500Y15941155D01*
X12760500Y16098844D01*
X12760499Y16098846D01*
X12746509Y16169179D01*
X12729737Y16253497D01*
X12669394Y16399179D01*
X12581789Y16530289D01*
X12470289Y16641789D01*
X12339179Y16729394D01*
X12193497Y16789737D01*
X12149638Y16798460D01*
X12116523Y16805048D01*
X12116520Y16805048D01*
X12038845Y16820500D01*
X11881153Y16820500D01*
X11825304Y16809390D01*
X11787858Y16801941D01*
X11726503Y16789737D01*
X11726498Y16789735D01*
X11580827Y16729397D01*
X11580814Y16729390D01*
X11451532Y16643005D01*
X11449708Y16641787D01*
X11449707Y16641786D01*
X11449701Y16641781D01*
X11338217Y16530297D01*
X11338212Y16530291D01*
X11338211Y16530290D01*
X11250613Y16399191D01*
X11250603Y16399174D01*
X11250598Y16399165D01*
X11190264Y16253502D01*
X11190257Y16253471D01*
X11159500Y16098848D01*
X11159500Y15941150D01*
X11159499Y15941150D01*
X8296117Y15941150D01*
X8279737Y16023497D01*
X8219394Y16169179D01*
X8131789Y16300289D01*
X8020289Y16411789D01*
X7889179Y16499394D01*
X7743497Y16559737D01*
X7699638Y16568460D01*
X7666523Y16575048D01*
X7666520Y16575048D01*
X7588845Y16590500D01*
X7431153Y16590500D01*
X7353477Y16575048D01*
X7337858Y16571941D01*
X7276503Y16559737D01*
X7276498Y16559735D01*
X7130827Y16499397D01*
X7130814Y16499390D01*
X7100556Y16479172D01*
X6999708Y16411787D01*
X6999707Y16411786D01*
X6999701Y16411781D01*
X6888217Y16300297D01*
X6888212Y16300291D01*
X6888211Y16300290D01*
X6811182Y16185008D01*
X6800609Y16169185D01*
X6800607Y16169181D01*
X6800606Y16169179D01*
X6800598Y16169165D01*
X6740264Y16023502D01*
X6740257Y16023471D01*
X6709500Y15868848D01*
X6709500Y15711150D01*
X6709499Y15711150D01*
X-12000407Y15711150D01*
X-11990613Y15725807D01*
X-11990603Y15725824D01*
X-11990598Y15725833D01*
X-11932158Y15866922D01*
X-11932156Y15866929D01*
X-11930264Y15871498D01*
X-11930261Y15871508D01*
X-11924768Y15899126D01*
X-11924767Y15899126D01*
X-11924434Y15900799D01*
X-11924429Y15900822D01*
X-11899500Y16026148D01*
X-11899500Y16183848D01*
X-11899499Y16183848D01*
X-11930257Y16338471D01*
X-11930264Y16338502D01*
X-11990598Y16484165D01*
X-11990603Y16484174D01*
X-11990613Y16484191D01*
X-12078211Y16615290D01*
X-12078212Y16615291D01*
X-12078217Y16615297D01*
X-12189701Y16726781D01*
X-12189707Y16726786D01*
X-12189708Y16726787D01*
X-12302183Y16801941D01*
X-12320814Y16814390D01*
X-12320827Y16814397D01*
X-12466498Y16874735D01*
X-12466503Y16874737D01*
X-12549056Y16891158D01*
X-12596019Y16900500D01*
X-12621154Y16905500D01*
X-12621155Y16905500D01*
X-12621158Y16905500D01*
X-12778842Y16905500D01*
X-12778845Y16905500D01*
X-12778846Y16905500D01*
X-12793264Y16902631D01*
X-12850944Y16891158D01*
X-12933497Y16874737D01*
X-13079179Y16814394D01*
X-13079181Y16814392D01*
X-13079184Y16814391D01*
X-13116079Y16789738D01*
X-13210289Y16726789D01*
X-13321789Y16615289D01*
X-13326160Y16608745D01*
X-13349743Y16582488D01*
X-13360396Y16573585D01*
X-13424458Y16545699D01*
X-13493426Y16556873D01*
X-13498161Y16559138D01*
X-13547738Y16602100D01*
X-13553202Y16610277D01*
X-13553211Y16610290D01*
X-13553217Y16610297D01*
X-13664701Y16721781D01*
X-13664707Y16721786D01*
X-13664708Y16721787D01*
X-13686768Y16736527D01*
X-13795814Y16809390D01*
X-13795827Y16809397D01*
X-13941498Y16869735D01*
X-13941503Y16869737D01*
X-14002858Y16881941D01*
X-14025610Y16886467D01*
X-14096153Y16900500D01*
X-14096155Y16900500D01*
X-14096158Y16900500D01*
X-14253842Y16900500D01*
X-14253845Y16900500D01*
X-14331520Y16885048D01*
X-14408497Y16869737D01*
X-14521166Y16823067D01*
X-14540415Y16815094D01*
X-14542115Y16814391D01*
X-14544185Y16813533D01*
X-14554179Y16809394D01*
X-14685289Y16721789D01*
X-14796789Y16610289D01*
X-14884394Y16479179D01*
X-14944737Y16333497D01*
X-14944737Y16333492D01*
X-14944739Y16333489D01*
X-14951343Y16300288D01*
X-14974505Y16183842D01*
X-14975499Y16178846D01*
X-14975500Y16178844D01*
X-19056902Y16178844D01*
X-19056898Y16185005D01*
X-19056898Y16185008D01*
X-19056893Y16193356D01*
X-19056892Y16193356D01*
X-19055228Y19118844D01*
X-4490500Y19118844D01*
X-4490500Y18961155D01*
X-4490499Y18961153D01*
X-4459737Y18806503D01*
X-4459735Y18806498D01*
X-4399397Y18660827D01*
X-4399390Y18660814D01*
X-4399385Y18660807D01*
X-4311787Y18529708D01*
X-4311786Y18529707D01*
X-4311781Y18529701D01*
X-4200297Y18418217D01*
X-4200291Y18418212D01*
X-4200290Y18418211D01*
X-4074257Y18333998D01*
X-4069185Y18330609D01*
X-4069175Y18330603D01*
X-4069174Y18330603D01*
X-4069165Y18330598D01*
X-3923502Y18270264D01*
X-3923471Y18270257D01*
X-3768848Y18239500D01*
X-3611153Y18239500D01*
X-3611151Y18239500D01*
X-3456527Y18270257D01*
X-3456502Y18270263D01*
X-3456498Y18270264D01*
X-3359864Y18310291D01*
X-3337131Y18319707D01*
X-3277241Y18328520D01*
X-3266082Y18327395D01*
X-3266087Y18327337D01*
X-3256386Y18328378D01*
X-3193915Y18297086D01*
X-3158279Y18236987D01*
X-3154516Y18201901D01*
X-3154600Y18199560D01*
X-3175423Y18135122D01*
X-3179389Y18129187D01*
X-3179394Y18129179D01*
X-3239737Y17983497D01*
X-3260554Y17878844D01*
X-3270499Y17828846D01*
X-3270500Y17828844D01*
X-3270500Y17671155D01*
X-3270499Y17671153D01*
X-3267681Y17656986D01*
X-3267681Y17656985D01*
X-3261408Y17625448D01*
X-3239737Y17516503D01*
X-3239735Y17516498D01*
X-3179397Y17370827D01*
X-3179390Y17370814D01*
X-3093005Y17241532D01*
X-3091787Y17239708D01*
X-3091786Y17239707D01*
X-3091781Y17239701D01*
X-2980297Y17128217D01*
X-2980291Y17128212D01*
X-2980290Y17128211D01*
X-2929892Y17094536D01*
X-2849185Y17040609D01*
X-2849175Y17040603D01*
X-2849174Y17040603D01*
X-2849165Y17040598D01*
X-2703502Y16980264D01*
X-2703471Y16980257D01*
X-2548848Y16949500D01*
X-2391153Y16949500D01*
X-2391151Y16949500D01*
X-2236527Y16980257D01*
X-2236496Y16980264D01*
X-2090833Y17040598D01*
X-2090824Y17040603D01*
X-2090807Y17040613D01*
X-1959714Y17128207D01*
X-1959701Y17128217D01*
X-1954438Y17133481D01*
X-1926190Y17154626D01*
X-1916266Y17160045D01*
X-1847993Y17174897D01*
X-1782528Y17150481D01*
X-1740657Y17094547D01*
X-1739184Y17090598D01*
X-1738590Y17089006D01*
X-1730787Y17044011D01*
X-1731232Y17010971D01*
X-1730500Y17003918D01*
X-1730500Y16890971D01*
X-1730064Y16888966D01*
X-1699737Y16736503D01*
X-1699735Y16736498D01*
X-1639397Y16590827D01*
X-1639390Y16590814D01*
X-1553005Y16461532D01*
X-1551787Y16459708D01*
X-1551786Y16459707D01*
X-1551781Y16459701D01*
X-1440297Y16348217D01*
X-1440291Y16348212D01*
X-1440290Y16348211D01*
X-1309191Y16260613D01*
X-1309185Y16260609D01*
X-1309175Y16260603D01*
X-1309174Y16260603D01*
X-1309165Y16260598D01*
X-1163502Y16200264D01*
X-1163471Y16200257D01*
X-1008848Y16169500D01*
X-851153Y16169500D01*
X-851151Y16169500D01*
X-696527Y16200257D01*
X-696496Y16200264D01*
X-550833Y16260598D01*
X-550824Y16260603D01*
X-550807Y16260613D01*
X-419708Y16348211D01*
X-419707Y16348212D01*
X-419701Y16348217D01*
X-308217Y16459701D01*
X-308212Y16459707D01*
X-308211Y16459708D01*
X-220613Y16590807D01*
X-220603Y16590824D01*
X-220598Y16590833D01*
X-160264Y16736496D01*
X-160257Y16736527D01*
X-129500Y16891150D01*
X-129500Y17048848D01*
X-129499Y17048848D01*
X-160257Y17203471D01*
X-160264Y17203502D01*
X-220598Y17349165D01*
X-220603Y17349174D01*
X-220613Y17349191D01*
X-308211Y17480290D01*
X-308212Y17480291D01*
X-308217Y17480297D01*
X-419701Y17591781D01*
X-419707Y17591786D01*
X-419708Y17591787D01*
X-538490Y17671155D01*
X-550814Y17679390D01*
X-550827Y17679397D01*
X-651629Y17721150D01*
X9199499Y17721150D01*
X9230257Y17566527D01*
X9230264Y17566496D01*
X9290598Y17420833D01*
X9290603Y17420824D01*
X9290613Y17420807D01*
X9378211Y17289708D01*
X9378212Y17289707D01*
X9378217Y17289701D01*
X9489701Y17178217D01*
X9489707Y17178212D01*
X9489708Y17178211D01*
X9620807Y17090613D01*
X9620824Y17090603D01*
X9620833Y17090598D01*
X9766496Y17030264D01*
X9766527Y17030257D01*
X9921151Y16999500D01*
X10078846Y16999500D01*
X10078848Y16999500D01*
X10233471Y17030257D01*
X10233502Y17030264D01*
X10379165Y17090598D01*
X10379174Y17090603D01*
X10379175Y17090603D01*
X10379185Y17090609D01*
X10435454Y17128207D01*
X10510290Y17178211D01*
X10510291Y17178212D01*
X10510297Y17178217D01*
X10621781Y17289701D01*
X10621786Y17289707D01*
X10621787Y17289708D01*
X10661521Y17349174D01*
X10709390Y17420814D01*
X10709397Y17420827D01*
X10769735Y17566498D01*
X10769737Y17566503D01*
X10800499Y17721153D01*
X10800500Y17721155D01*
X10800500Y17878844D01*
X10800499Y17878846D01*
X10797148Y17895689D01*
X10796391Y17899503D01*
X10769742Y18033471D01*
X10769737Y18033497D01*
X10709394Y18179179D01*
X10621789Y18310289D01*
X10510289Y18421789D01*
X10379179Y18509394D01*
X10233497Y18569737D01*
X10189638Y18578460D01*
X10156523Y18585048D01*
X10156520Y18585048D01*
X10078845Y18600500D01*
X9921153Y18600500D01*
X9858573Y18588051D01*
X9827858Y18581941D01*
X9766503Y18569737D01*
X9766498Y18569735D01*
X9620827Y18509397D01*
X9620814Y18509390D01*
X9502395Y18430264D01*
X9489708Y18421787D01*
X9489707Y18421786D01*
X9489701Y18421781D01*
X9378217Y18310297D01*
X9378212Y18310291D01*
X9378211Y18310290D01*
X9290613Y18179191D01*
X9290603Y18179174D01*
X9290598Y18179165D01*
X9230264Y18033502D01*
X9230264Y18033501D01*
X9230261Y18033491D01*
X9230257Y18033471D01*
X9199500Y17878848D01*
X9199500Y17721150D01*
X9199499Y17721150D01*
X-651629Y17721150D01*
X-696498Y17739735D01*
X-696503Y17739737D01*
X-757858Y17751941D01*
X-773477Y17755048D01*
X-851153Y17770500D01*
X-851155Y17770500D01*
X-851158Y17770500D01*
X-1008842Y17770500D01*
X-1008845Y17770500D01*
X-1086520Y17755048D01*
X-1163497Y17739737D01*
X-1309179Y17679394D01*
X-1440289Y17591789D01*
X-1440291Y17591787D01*
X-1445549Y17586528D01*
X-1473796Y17565379D01*
X-1483733Y17559953D01*
X-1552004Y17545101D01*
X-1617469Y17569516D01*
X-1659339Y17625445D01*
X-1661412Y17631000D01*
X-1669215Y17675971D01*
X-1668774Y17709136D01*
X-1669500Y17716085D01*
X-1669500Y17828848D01*
X-1669499Y17828848D01*
X-1700257Y17983471D01*
X-1700264Y17983502D01*
X-1760598Y18129165D01*
X-1760603Y18129174D01*
X-1760611Y18129187D01*
X-1794005Y18179165D01*
X-1848211Y18260290D01*
X-1848212Y18260291D01*
X-1848217Y18260297D01*
X-1959701Y18371781D01*
X-1959707Y18371786D01*
X-1959708Y18371787D01*
X-2001183Y18399500D01*
X-2090814Y18459390D01*
X-2090827Y18459397D01*
X-2236498Y18519735D01*
X-2236503Y18519737D01*
X-2297858Y18531941D01*
X-2320761Y18536497D01*
X-2391153Y18550500D01*
X-2391155Y18550500D01*
X-2391158Y18550500D01*
X-2548842Y18550500D01*
X-2548845Y18550500D01*
X-2626520Y18535048D01*
X-2703497Y18519737D01*
X-2827267Y18468469D01*
X-2831779Y18466994D01*
X-2836329Y18466855D01*
X-2857061Y18461564D01*
X-2864929Y18460717D01*
X-2868304Y18460355D01*
X-2894519Y18465084D01*
X-2901617Y18464868D01*
X-2905179Y18467007D01*
X-2937064Y18472759D01*
X-2988202Y18520368D01*
X-3005484Y18588051D01*
X-3005401Y18590385D01*
X-2984588Y18654859D01*
X-2980603Y18660822D01*
X-2980602Y18660825D01*
X-2980600Y18660829D01*
X-2920264Y18806496D01*
X-2920257Y18806527D01*
X-2889500Y18961150D01*
X-2889500Y19118848D01*
X-2890097Y19124910D01*
X-2889496Y19124969D01*
X-2890933Y19151809D01*
X-2889539Y19167375D01*
X-2863953Y19232392D01*
X-2863951Y19232394D01*
X-2855594Y19243150D01*
X-2826568Y19270172D01*
X-2739717Y19328205D01*
X-2739707Y19328212D01*
X-2739701Y19328217D01*
X-2628217Y19439701D01*
X-2628212Y19439707D01*
X-2628211Y19439708D01*
X-2540613Y19570807D01*
X-2540603Y19570824D01*
X-2540598Y19570833D01*
X-2480264Y19716496D01*
X-2480257Y19716527D01*
X-2449500Y19871150D01*
X-2449500Y20028850D01*
X-2459602Y20079635D01*
X-2461492Y20114875D01*
X-2460099Y20130446D01*
X-2434519Y20195465D01*
X-2434513Y20195472D01*
X-2426159Y20206225D01*
X-2397135Y20233248D01*
X-2389713Y20238207D01*
X-2278211Y20349708D01*
X-2230475Y20421150D01*
X1799499Y20421150D01*
X1830257Y20266527D01*
X1830264Y20266496D01*
X1890598Y20120833D01*
X1890603Y20120824D01*
X1890613Y20120807D01*
X1978211Y19989708D01*
X1978212Y19989707D01*
X1978217Y19989701D01*
X2089701Y19878217D01*
X2089707Y19878212D01*
X2089708Y19878211D01*
X2220807Y19790613D01*
X2220824Y19790603D01*
X2220833Y19790598D01*
X2366496Y19730264D01*
X2366527Y19730257D01*
X2521151Y19699500D01*
X2678846Y19699500D01*
X2678848Y19699500D01*
X2833471Y19730257D01*
X2833502Y19730264D01*
X2979165Y19790598D01*
X2979174Y19790603D01*
X2979175Y19790603D01*
X2979185Y19790609D01*
X3003695Y19806986D01*
X3110290Y19878211D01*
X3110291Y19878212D01*
X3110297Y19878217D01*
X3221781Y19989701D01*
X3221786Y19989707D01*
X3221787Y19989708D01*
X3259283Y20045824D01*
X3309390Y20120814D01*
X3309397Y20120827D01*
X3369735Y20266498D01*
X3369737Y20266503D01*
X3400499Y20421153D01*
X3400500Y20421155D01*
X3400500Y20578844D01*
X3400499Y20578846D01*
X3392084Y20621150D01*
X6699499Y20621150D01*
X6730257Y20466527D01*
X6730264Y20466496D01*
X6790598Y20320833D01*
X6790603Y20320824D01*
X6790613Y20320807D01*
X6878211Y20189708D01*
X6878212Y20189707D01*
X6878217Y20189701D01*
X6989701Y20078217D01*
X6989707Y20078212D01*
X6989708Y20078211D01*
X7120807Y19990613D01*
X7120824Y19990603D01*
X7120833Y19990598D01*
X7266496Y19930264D01*
X7266527Y19930257D01*
X7421151Y19899500D01*
X7578846Y19899500D01*
X7578848Y19899500D01*
X7733471Y19930257D01*
X7733502Y19930264D01*
X7879165Y19990598D01*
X7879191Y19990612D01*
X7991783Y20065844D01*
X8023621Y20081076D01*
X8036619Y20085146D01*
X8106477Y20086394D01*
X8165920Y20049675D01*
X8194597Y19994255D01*
X8196425Y19986200D01*
X8199500Y19958757D01*
X8199500Y19821148D01*
X8225765Y19689108D01*
X8227455Y19678008D01*
X8231478Y19640115D01*
X8218981Y19571372D01*
X8171305Y19520300D01*
X8166332Y19517358D01*
X8164481Y19516264D01*
X8125702Y19501409D01*
X8121656Y19500599D01*
X8121504Y19500568D01*
X8121162Y19500500D01*
X8121158Y19500500D01*
X8121148Y19500498D01*
X8121147Y19500498D01*
X8091929Y19494686D01*
X7966503Y19469737D01*
X7966498Y19469735D01*
X7820827Y19409397D01*
X7820814Y19409390D01*
X7820807Y19409385D01*
X7689708Y19321787D01*
X7689707Y19321786D01*
X7689701Y19321781D01*
X7578217Y19210297D01*
X7578212Y19210291D01*
X7578211Y19210290D01*
X7490613Y19079191D01*
X7490603Y19079174D01*
X7490598Y19079165D01*
X7430264Y18933502D01*
X7430257Y18933471D01*
X7399500Y18778848D01*
X7399500Y18621150D01*
X7399499Y18621150D01*
X7430257Y18466527D01*
X7430264Y18466496D01*
X7490598Y18320833D01*
X7490603Y18320824D01*
X7490613Y18320807D01*
X7578211Y18189708D01*
X7578212Y18189707D01*
X7578217Y18189701D01*
X7689701Y18078217D01*
X7689707Y18078212D01*
X7689708Y18078211D01*
X7820807Y17990613D01*
X7820824Y17990603D01*
X7820833Y17990598D01*
X7966496Y17930264D01*
X7966527Y17930257D01*
X8121151Y17899500D01*
X8278846Y17899500D01*
X8278848Y17899500D01*
X8433471Y17930257D01*
X8433502Y17930264D01*
X8579162Y17990597D01*
X8579177Y17990604D01*
X8579183Y17990608D01*
X8710290Y18078211D01*
X8710291Y18078212D01*
X8710297Y18078217D01*
X8821781Y18189701D01*
X8821786Y18189707D01*
X8821787Y18189708D01*
X8868953Y18260297D01*
X8909390Y18320814D01*
X8909397Y18320827D01*
X8969735Y18466498D01*
X8969737Y18466503D01*
X8991957Y18578211D01*
X8997681Y18606985D01*
X8997681Y18606986D01*
X9000499Y18621153D01*
X9000500Y18621155D01*
X9000500Y18778844D01*
X9000499Y18778846D01*
X8992151Y18820814D01*
X8974563Y18909230D01*
X8972926Y18919858D01*
X8970697Y18940150D01*
X8970698Y18940151D01*
X8968577Y18959456D01*
X8980825Y19028242D01*
X9028315Y19079486D01*
X9035182Y19083582D01*
X9076010Y19098142D01*
X9075859Y19098905D01*
X9233471Y19130257D01*
X9233502Y19130264D01*
X9379165Y19190598D01*
X9379174Y19190603D01*
X9379175Y19190603D01*
X9379185Y19190609D01*
X9398684Y19203638D01*
X9510290Y19278211D01*
X9510291Y19278212D01*
X9510297Y19278217D01*
X9621781Y19389701D01*
X9621786Y19389707D01*
X9621787Y19389708D01*
X9651049Y19433502D01*
X9709390Y19520814D01*
X9709397Y19520827D01*
X9769735Y19666498D01*
X9769737Y19666503D01*
X9800499Y19821153D01*
X9800500Y19821155D01*
X9800500Y19978844D01*
X9800499Y19978846D01*
X9798159Y19990609D01*
X9779106Y20086394D01*
X9769739Y20133489D01*
X9769737Y20133492D01*
X9769737Y20133497D01*
X9709394Y20279179D01*
X9621789Y20410289D01*
X9510289Y20521789D01*
X9379179Y20609394D01*
X9233497Y20669737D01*
X9184162Y20679550D01*
X9156523Y20685048D01*
X9156520Y20685048D01*
X9078845Y20700500D01*
X8921153Y20700500D01*
X8843477Y20685048D01*
X8827858Y20681941D01*
X8766503Y20669737D01*
X8766498Y20669735D01*
X8620827Y20609397D01*
X8620814Y20609390D01*
X8508211Y20534150D01*
X8476372Y20518919D01*
X8471465Y20517382D01*
X8463372Y20514849D01*
X8393514Y20513606D01*
X8334073Y20550330D01*
X8305401Y20605750D01*
X8303571Y20613813D01*
X8300500Y20641240D01*
X8300500Y20779047D01*
X8300044Y20781165D01*
X8300038Y20781164D01*
X8269739Y20933489D01*
X8269737Y20933492D01*
X8269737Y20933497D01*
X8209394Y21079179D01*
X8121789Y21210289D01*
X8121788Y21210290D01*
X8121787Y21210292D01*
X8010292Y21321786D01*
X8010291Y21321787D01*
X8010289Y21321789D01*
X7879179Y21409394D01*
X7733497Y21469737D01*
X7689638Y21478460D01*
X7656523Y21485048D01*
X7656520Y21485048D01*
X7578845Y21500500D01*
X7421153Y21500500D01*
X7343477Y21485048D01*
X7327858Y21481941D01*
X7266503Y21469737D01*
X7266498Y21469735D01*
X7120827Y21409397D01*
X7120814Y21409390D01*
X7007235Y21333498D01*
X6989708Y21321787D01*
X6989707Y21321786D01*
X6989701Y21321781D01*
X6878217Y21210297D01*
X6878213Y21210292D01*
X6878210Y21210288D01*
X6827499Y21134394D01*
X6790613Y21079191D01*
X6790603Y21079174D01*
X6790598Y21079165D01*
X6730264Y20933502D01*
X6730257Y20933471D01*
X6699500Y20778848D01*
X6699500Y20621150D01*
X6699499Y20621150D01*
X3392084Y20621150D01*
X3369737Y20733497D01*
X3309394Y20879179D01*
X3277222Y20927327D01*
X3221787Y21010292D01*
X3110292Y21121786D01*
X3110291Y21121787D01*
X3110289Y21121789D01*
X2979179Y21209394D01*
X2833497Y21269737D01*
X2789638Y21278460D01*
X2756523Y21285048D01*
X2756520Y21285048D01*
X2678845Y21300500D01*
X2521153Y21300500D01*
X2443477Y21285048D01*
X2427858Y21281941D01*
X2366503Y21269737D01*
X2366498Y21269735D01*
X2220827Y21209397D01*
X2220814Y21209390D01*
X2108580Y21134397D01*
X2089708Y21121787D01*
X2089707Y21121786D01*
X2089701Y21121781D01*
X1978217Y21010297D01*
X1978213Y21010292D01*
X1978210Y21010288D01*
X1925940Y20932061D01*
X1890613Y20879191D01*
X1890603Y20879174D01*
X1890598Y20879165D01*
X1830264Y20733502D01*
X1830257Y20733471D01*
X1799500Y20578848D01*
X1799500Y20421150D01*
X1799499Y20421150D01*
X-2230475Y20421150D01*
X-2190613Y20480807D01*
X-2190604Y20480822D01*
X-2190596Y20480840D01*
X-2130267Y20626488D01*
X-2130259Y20626515D01*
X-2099500Y20781150D01*
X-2099500Y20886197D01*
X-2099500Y20938844D01*
X-2099499Y20938844D01*
X-2121146Y21047664D01*
X-2121665Y21051536D01*
X-2121020Y21055736D01*
X-2122271Y21079064D01*
X-2121034Y21092888D01*
X-2111657Y21116719D01*
X-2111062Y21120597D01*
X-2109384Y21122496D01*
X-2095452Y21157906D01*
X-2038787Y21198770D01*
X-2028403Y21202434D01*
X-1987143Y21209500D01*
X-1891151Y21209500D01*
X-1736527Y21240257D01*
X-1736496Y21240264D01*
X-1590833Y21300598D01*
X-1590824Y21300603D01*
X-1590807Y21300613D01*
X-1459708Y21388211D01*
X-1459707Y21388212D01*
X-1459701Y21388217D01*
X-1348217Y21499701D01*
X-1348212Y21499707D01*
X-1348211Y21499708D01*
X-1260613Y21630807D01*
X-1260603Y21630824D01*
X-1260598Y21630833D01*
X-1200264Y21776496D01*
X-1200257Y21776527D01*
X-1169500Y21931150D01*
X-1169500Y22088850D01*
X-1183143Y22157437D01*
X-1185033Y22192678D01*
X-1184025Y22203945D01*
X-1158445Y22268963D01*
X-1101774Y22309831D01*
X-1032004Y22313572D01*
X-1031999Y22313571D01*
X-1026257Y22312214D01*
X-984504Y22293704D01*
X-960573Y22277244D01*
X-952704Y22273097D01*
X-859185Y22210609D01*
X-859175Y22210603D01*
X-859174Y22210603D01*
X-859165Y22210598D01*
X-713502Y22150264D01*
X-713471Y22150257D01*
X-558848Y22119500D01*
X-558846Y22119500D01*
X-452621Y22119500D01*
X-417685Y22114477D01*
X-397551Y22108565D01*
X-345594Y22078050D01*
X-342232Y22074747D01*
X-340802Y22073343D01*
X-324593Y22053771D01*
X-281799Y21989724D01*
X-281786Y21989707D01*
X-281781Y21989701D01*
X-170297Y21878217D01*
X-170291Y21878212D01*
X-170290Y21878211D01*
X-83562Y21820261D01*
X-39185Y21790609D01*
X-39175Y21790603D01*
X-39174Y21790603D01*
X-39165Y21790598D01*
X106496Y21730264D01*
X106527Y21730257D01*
X261151Y21699500D01*
X418846Y21699500D01*
X418848Y21699500D01*
X573471Y21730257D01*
X573502Y21730264D01*
X719165Y21790598D01*
X719174Y21790603D01*
X719175Y21790603D01*
X719185Y21790609D01*
X763562Y21820261D01*
X850290Y21878211D01*
X850291Y21878212D01*
X850297Y21878217D01*
X961785Y21989705D01*
X961787Y21989708D01*
X961789Y21989710D01*
X1007224Y22057709D01*
X1030806Y22083962D01*
X1041456Y22092862D01*
X1105518Y22120748D01*
X1174488Y22109572D01*
X1181906Y22106023D01*
X1216071Y22081848D01*
X1329708Y21968211D01*
X1460807Y21880613D01*
X1460824Y21880603D01*
X1460833Y21880598D01*
X1606496Y21820264D01*
X1606527Y21820257D01*
X1761151Y21789500D01*
X1918846Y21789500D01*
X1918848Y21789500D01*
X2073471Y21820257D01*
X2073502Y21820264D01*
X2219165Y21880598D01*
X2219174Y21880603D01*
X2219175Y21880603D01*
X2219185Y21880609D01*
X2279055Y21920613D01*
X2350290Y21968211D01*
X2350291Y21968212D01*
X2350297Y21968217D01*
X2461781Y22079701D01*
X2461786Y22079707D01*
X2461787Y22079708D01*
X2492747Y22126042D01*
X2549390Y22210814D01*
X2549397Y22210827D01*
X2609735Y22356498D01*
X2609737Y22356503D01*
X2638509Y22501150D01*
X3379499Y22501150D01*
X3410257Y22346527D01*
X3410264Y22346496D01*
X3470598Y22200833D01*
X3470603Y22200824D01*
X3470613Y22200807D01*
X3558211Y22069708D01*
X3558212Y22069707D01*
X3558217Y22069701D01*
X3669701Y21958217D01*
X3669707Y21958212D01*
X3669708Y21958211D01*
X3800807Y21870613D01*
X3800824Y21870603D01*
X3800833Y21870598D01*
X3946496Y21810264D01*
X3946527Y21810257D01*
X4101151Y21779500D01*
X4258846Y21779500D01*
X4258848Y21779500D01*
X4413471Y21810257D01*
X4413502Y21810264D01*
X4559165Y21870598D01*
X4559174Y21870603D01*
X4559175Y21870603D01*
X4559185Y21870609D01*
X4570571Y21878217D01*
X4690290Y21958211D01*
X4690291Y21958212D01*
X4690297Y21958217D01*
X4801781Y22069701D01*
X4801786Y22069707D01*
X4801787Y22069708D01*
X4827751Y22108565D01*
X4889390Y22200814D01*
X4889397Y22200827D01*
X4949735Y22346498D01*
X4949737Y22346503D01*
X4974422Y22470603D01*
X4977681Y22486985D01*
X4977681Y22486986D01*
X4980499Y22501153D01*
X4980500Y22501155D01*
X4980500Y22658844D01*
X4980499Y22658846D01*
X4970554Y22708844D01*
X4949737Y22813497D01*
X4889394Y22959179D01*
X4801789Y23090289D01*
X4790928Y23101150D01*
X7449499Y23101150D01*
X7480257Y22946527D01*
X7480264Y22946496D01*
X7540598Y22800833D01*
X7540603Y22800824D01*
X7540613Y22800807D01*
X7628211Y22669708D01*
X7628212Y22669707D01*
X7628217Y22669701D01*
X7739701Y22558217D01*
X7739707Y22558212D01*
X7739708Y22558211D01*
X7870807Y22470613D01*
X7870824Y22470603D01*
X7870833Y22470598D01*
X8016496Y22410264D01*
X8016527Y22410257D01*
X8171151Y22379500D01*
X8328846Y22379500D01*
X8328848Y22379500D01*
X8483471Y22410257D01*
X8483502Y22410264D01*
X8629165Y22470598D01*
X8629174Y22470603D01*
X8629175Y22470603D01*
X8629185Y22470609D01*
X8656730Y22489014D01*
X8760290Y22558211D01*
X8760291Y22558212D01*
X8760297Y22558217D01*
X8871781Y22669701D01*
X8871786Y22669707D01*
X8871787Y22669708D01*
X8945305Y22779735D01*
X8959390Y22800814D01*
X8959397Y22800827D01*
X9019735Y22946498D01*
X9019737Y22946503D01*
X9050499Y23101153D01*
X9050500Y23101155D01*
X9050500Y23258844D01*
X9050499Y23258846D01*
X9048333Y23269737D01*
X9019737Y23413497D01*
X8959394Y23559179D01*
X8871789Y23690289D01*
X8760289Y23801789D01*
X8629179Y23889394D01*
X8628423Y23889707D01*
X8596166Y23903067D01*
X8596162Y23903069D01*
X8563671Y23916527D01*
X8483497Y23949737D01*
X8445183Y23957357D01*
X8406523Y23965048D01*
X8406520Y23965048D01*
X8328845Y23980500D01*
X8171153Y23980500D01*
X8100791Y23966503D01*
X8077858Y23961941D01*
X8016503Y23949737D01*
X8016498Y23949735D01*
X7870827Y23889397D01*
X7870814Y23889390D01*
X7759044Y23814707D01*
X7739708Y23801787D01*
X7739707Y23801786D01*
X7739701Y23801781D01*
X7628217Y23690297D01*
X7628212Y23690291D01*
X7628211Y23690290D01*
X7540613Y23559191D01*
X7540603Y23559174D01*
X7540598Y23559165D01*
X7480264Y23413502D01*
X7480264Y23413501D01*
X7480261Y23413491D01*
X7480257Y23413471D01*
X7449500Y23258848D01*
X7449500Y23101150D01*
X7449499Y23101150D01*
X4790928Y23101150D01*
X4770289Y23121789D01*
X4714826Y23177253D01*
X4690292Y23201786D01*
X4690289Y23201789D01*
X4559179Y23289394D01*
X4535029Y23299397D01*
X4484842Y23320185D01*
X4413497Y23349737D01*
X4336520Y23365048D01*
X4258845Y23380500D01*
X4101153Y23380500D01*
X4023477Y23365048D01*
X4007858Y23361941D01*
X3946503Y23349737D01*
X3946498Y23349735D01*
X3800827Y23289397D01*
X3800814Y23289390D01*
X3758558Y23261155D01*
X3669708Y23201787D01*
X3669707Y23201786D01*
X3669704Y23201784D01*
X3558217Y23090297D01*
X3558212Y23090291D01*
X3558211Y23090290D01*
X3470613Y22959191D01*
X3470603Y22959174D01*
X3470598Y22959165D01*
X3410264Y22813502D01*
X3410257Y22813471D01*
X3379500Y22658848D01*
X3379500Y22501150D01*
X3379499Y22501150D01*
X2638509Y22501150D01*
X2640499Y22511153D01*
X2640500Y22511155D01*
X2640500Y22668844D01*
X2640500Y22669023D01*
X2640074Y22670979D01*
X2632543Y22708844D01*
X2609737Y22823497D01*
X2549394Y22969179D01*
X2461789Y23100289D01*
X2350289Y23211789D01*
X2219179Y23299394D01*
X2073497Y23359737D01*
X2029638Y23368460D01*
X1996523Y23375048D01*
X1996520Y23375048D01*
X1918845Y23390500D01*
X1761153Y23390500D01*
X1683477Y23375048D01*
X1667858Y23371941D01*
X1606503Y23359737D01*
X1606498Y23359735D01*
X1460827Y23299397D01*
X1460814Y23299390D01*
X1416437Y23269738D01*
X1329708Y23211787D01*
X1329707Y23211786D01*
X1329701Y23211781D01*
X1218217Y23100297D01*
X1218215Y23100294D01*
X1218213Y23100292D01*
X1218210Y23100288D01*
X1172776Y23032291D01*
X1149196Y23006040D01*
X1138540Y22997134D01*
X1074481Y22969250D01*
X1005514Y22980424D01*
X998085Y22983979D01*
X963925Y23008152D01*
X961790Y23010286D01*
X961789Y23010289D01*
X850289Y23121789D01*
X822603Y23140288D01*
X719185Y23209390D01*
X719184Y23209390D01*
X719179Y23209394D01*
X573497Y23269737D01*
X526449Y23279094D01*
X503279Y23283704D01*
X503275Y23283704D01*
X496520Y23285048D01*
X418845Y23300500D01*
X418842Y23300500D01*
X307317Y23300500D01*
X302032Y23300953D01*
X297675Y23302648D01*
X277692Y23305520D01*
X257552Y23311434D01*
X205589Y23341954D01*
X200785Y23346673D01*
X184593Y23366228D01*
X168375Y23390500D01*
X141789Y23430289D01*
X30289Y23541789D01*
X-34820Y23585294D01*
X-100814Y23629390D01*
X-100827Y23629397D01*
X-246498Y23689735D01*
X-246503Y23689737D01*
X-314251Y23703213D01*
X-383044Y23716897D01*
X-405277Y23723533D01*
X-406654Y23724089D01*
X-406654Y23724090D01*
X-435638Y23735793D01*
X-480318Y23766660D01*
X-481015Y23767415D01*
X-493006Y23782636D01*
X-538211Y23850291D01*
X-649701Y23961781D01*
X-649707Y23961786D01*
X-649708Y23961787D01*
X-738037Y24020807D01*
X-780814Y24049390D01*
X-780827Y24049397D01*
X-926498Y24109735D01*
X-926503Y24109737D01*
X-987858Y24121941D01*
X-1003477Y24125048D01*
X-1081153Y24140500D01*
X-1081155Y24140500D01*
X-1081158Y24140500D01*
X-1238842Y24140500D01*
X-1238845Y24140500D01*
X-1316520Y24125048D01*
X-1393497Y24109737D01*
X-1539179Y24049394D01*
X-1670289Y23961789D01*
X-1781789Y23850289D01*
X-1869394Y23719179D01*
X-1929737Y23573497D01*
X-1960499Y23418846D01*
X-1960500Y23418844D01*
X-1960500Y23261155D01*
X-1960499Y23261153D01*
X-1957681Y23246986D01*
X-1957681Y23246985D01*
X-1936457Y23140288D01*
X-1929737Y23106503D01*
X-1929735Y23106498D01*
X-1888122Y23006035D01*
X-1884969Y22998422D01*
X-1876242Y22964234D01*
X-1874757Y22950428D01*
X-1887160Y22881672D01*
X-1934765Y22830535D01*
X-1939305Y22827841D01*
X-2002552Y22810500D01*
X-2048845Y22810500D01*
X-2126520Y22795048D01*
X-2203497Y22779737D01*
X-2349179Y22719394D01*
X-2480289Y22631789D01*
X-2591789Y22520289D01*
X-2612687Y22489011D01*
X-2636261Y22462762D01*
X-2644764Y22455657D01*
X-2708821Y22427771D01*
X-2777791Y22438944D01*
X-2829772Y22485632D01*
X-2847832Y22540268D01*
X-2849052Y22554575D01*
X-2849500Y22565111D01*
X-2849500Y22708848D01*
X-2849499Y22708848D01*
X-2880257Y22863471D01*
X-2880264Y22863502D01*
X-2940598Y23009165D01*
X-2940603Y23009174D01*
X-2940613Y23009191D01*
X-3028211Y23140290D01*
X-3028212Y23140291D01*
X-3028217Y23140297D01*
X-3139701Y23251781D01*
X-3139707Y23251786D01*
X-3139708Y23251787D01*
X-3195977Y23289385D01*
X-3270814Y23339390D01*
X-3270827Y23339397D01*
X-3416498Y23399735D01*
X-3416503Y23399737D01*
X-3477858Y23411941D01*
X-3493477Y23415048D01*
X-3571153Y23430500D01*
X-3571155Y23430500D01*
X-3571158Y23430500D01*
X-3728842Y23430500D01*
X-3728845Y23430500D01*
X-3806520Y23415048D01*
X-3883497Y23399737D01*
X-4029179Y23339394D01*
X-4160289Y23251789D01*
X-4271789Y23140289D01*
X-4359394Y23009179D01*
X-4419737Y22863497D01*
X-4432205Y22800814D01*
X-4436398Y22779737D01*
X-4450064Y22711032D01*
X-4450500Y22709025D01*
X-4450500Y22550971D01*
X-4450064Y22548966D01*
X-4419737Y22396503D01*
X-4419735Y22396498D01*
X-4359397Y22250827D01*
X-4359390Y22250814D01*
X-4332521Y22210602D01*
X-4271787Y22119708D01*
X-4271786Y22119707D01*
X-4271781Y22119701D01*
X-4160297Y22008217D01*
X-4160291Y22008212D01*
X-4160290Y22008211D01*
X-4044968Y21931155D01*
X-4029185Y21920609D01*
X-4029175Y21920603D01*
X-4029174Y21920603D01*
X-4029165Y21920598D01*
X-3883502Y21860264D01*
X-3883471Y21860257D01*
X-3728848Y21829500D01*
X-3571153Y21829500D01*
X-3571151Y21829500D01*
X-3416527Y21860257D01*
X-3416496Y21860264D01*
X-3270833Y21920598D01*
X-3270824Y21920603D01*
X-3270807Y21920613D01*
X-3139708Y22008211D01*
X-3139707Y22008212D01*
X-3139701Y22008217D01*
X-3028225Y22119693D01*
X-3028212Y22119707D01*
X-3028195Y22119730D01*
X-3007309Y22150989D01*
X-2983720Y22177249D01*
X-2975238Y22184337D01*
X-2911173Y22212220D01*
X-2842204Y22201041D01*
X-2790227Y22154348D01*
X-2772170Y22099671D01*
X-2771768Y22094934D01*
X-2771767Y22094934D01*
X-2770944Y22085229D01*
X-2770500Y22074747D01*
X-2770500Y21931153D01*
X-2768401Y21920603D01*
X-2749617Y21826175D01*
X-2747728Y21790941D01*
X-2748966Y21777108D01*
X-2774547Y21712093D01*
X-2831218Y21671227D01*
X-2839047Y21668464D01*
X-2841610Y21667561D01*
X-2882857Y21660500D01*
X-2978845Y21660500D01*
X-3056520Y21645048D01*
X-3133497Y21629737D01*
X-3279179Y21569394D01*
X-3410289Y21481789D01*
X-3521789Y21370289D01*
X-3609394Y21239179D01*
X-3669737Y21093497D01*
X-3700500Y20938842D01*
X-3700500Y20781158D01*
X-3690394Y20730357D01*
X-3688505Y20695122D01*
X-3689898Y20679548D01*
X-3715475Y20614537D01*
X-3723833Y20603777D01*
X-3752873Y20576743D01*
X-3760289Y20571789D01*
X-3871789Y20460289D01*
X-3959394Y20329179D01*
X-3959396Y20329172D01*
X-3959397Y20329172D01*
X-3962856Y20320821D01*
X-4019737Y20183497D01*
X-4045814Y20052401D01*
X-4050499Y20028846D01*
X-4050500Y20028844D01*
X-4050500Y19871155D01*
X-4049903Y19865093D01*
X-4050503Y19865033D01*
X-4049065Y19838208D01*
X-4050457Y19822640D01*
X-4076034Y19757620D01*
X-4084390Y19746862D01*
X-4113426Y19719827D01*
X-4200289Y19661789D01*
X-4311789Y19550289D01*
X-4399394Y19419179D01*
X-4459737Y19273497D01*
X-4489274Y19125005D01*
X-4490499Y19118846D01*
X-4490500Y19118844D01*
X-19055228Y19118844D01*
X-19055224Y19125005D01*
X-19055224Y19125008D01*
X-19055219Y19133356D01*
X-19055218Y19133356D01*
X-19054439Y20503844D01*
X-9500500Y20503844D01*
X-9500500Y20346155D01*
X-9500499Y20346153D01*
X-9500296Y20345135D01*
X-9500298Y20345042D01*
X-9500064Y20343966D01*
X-9469737Y20191503D01*
X-9469735Y20191498D01*
X-9409397Y20045827D01*
X-9409390Y20045814D01*
X-9358555Y19969735D01*
X-9321787Y19914708D01*
X-9321786Y19914707D01*
X-9321781Y19914701D01*
X-9210297Y19803217D01*
X-9210291Y19803212D01*
X-9210290Y19803211D01*
X-9101118Y19730264D01*
X-9079185Y19715609D01*
X-9079175Y19715603D01*
X-9079174Y19715603D01*
X-9079165Y19715598D01*
X-8933502Y19655264D01*
X-8933471Y19655257D01*
X-8778848Y19624500D01*
X-8621153Y19624500D01*
X-8621151Y19624500D01*
X-8466527Y19655257D01*
X-8466496Y19655264D01*
X-8320826Y19715602D01*
X-8320537Y19715743D01*
X-8319333Y19716220D01*
X-8317399Y19717022D01*
X-8317387Y19716993D01*
X-8303373Y19722556D01*
X-8284690Y19728404D01*
X-8214832Y19729645D01*
X-8214831Y19729644D01*
X-8207744Y19727699D01*
X-8152882Y19695803D01*
X-8097194Y19640115D01*
X-8060290Y19603211D01*
X-7965283Y19539729D01*
X-7929185Y19515609D01*
X-7929175Y19515603D01*
X-7929174Y19515603D01*
X-7929165Y19515598D01*
X-7783502Y19455264D01*
X-7783471Y19455257D01*
X-7628848Y19424500D01*
X-7471153Y19424500D01*
X-7471151Y19424500D01*
X-7316527Y19455257D01*
X-7316496Y19455264D01*
X-7170833Y19515598D01*
X-7170824Y19515603D01*
X-7170807Y19515613D01*
X-7039708Y19603211D01*
X-7039707Y19603212D01*
X-7039701Y19603217D01*
X-6928217Y19714701D01*
X-6928212Y19714707D01*
X-6928211Y19714708D01*
X-6840613Y19845807D01*
X-6840603Y19845824D01*
X-6840598Y19845833D01*
X-6780264Y19991496D01*
X-6780257Y19991527D01*
X-6749500Y20146150D01*
X-6749500Y20303848D01*
X-6749499Y20303848D01*
X-6780257Y20458471D01*
X-6780264Y20458502D01*
X-6840598Y20604165D01*
X-6840603Y20604174D01*
X-6840613Y20604191D01*
X-6928211Y20735290D01*
X-6928212Y20735291D01*
X-6928217Y20735297D01*
X-7039701Y20846781D01*
X-7039709Y20846788D01*
X-7151673Y20921600D01*
X-7170814Y20934390D01*
X-7170827Y20934397D01*
X-7316498Y20994735D01*
X-7316503Y20994737D01*
X-7377858Y21006941D01*
X-7471153Y21025500D01*
X-7471155Y21025500D01*
X-7471158Y21025500D01*
X-7628842Y21025500D01*
X-7628845Y21025500D01*
X-7628846Y21025500D01*
X-7644135Y21022458D01*
X-7705297Y21010292D01*
X-7783497Y20994737D01*
X-7871453Y20958304D01*
X-7934812Y20932061D01*
X-7934946Y20932385D01*
X-7946998Y20927327D01*
X-7965283Y20921599D01*
X-8035137Y20920344D01*
X-8042228Y20922288D01*
X-8097110Y20954189D01*
X-8189707Y21046786D01*
X-8189711Y21046789D01*
X-8320814Y21134390D01*
X-8320827Y21134397D01*
X-8466498Y21194735D01*
X-8466503Y21194737D01*
X-8540721Y21209500D01*
X-8580938Y21217500D01*
X-8621154Y21225500D01*
X-8621155Y21225500D01*
X-8621158Y21225500D01*
X-8778842Y21225500D01*
X-8778845Y21225500D01*
X-8778846Y21225500D01*
X-8794135Y21222458D01*
X-8855297Y21210292D01*
X-8933497Y21194737D01*
X-9079179Y21134394D01*
X-9210289Y21046789D01*
X-9321789Y20935289D01*
X-9409394Y20804179D01*
X-9469737Y20658497D01*
X-9499274Y20510005D01*
X-9500499Y20503846D01*
X-9500500Y20503844D01*
X-19054439Y20503844D01*
X-19054435Y20510005D01*
X-19054435Y20510008D01*
X-19054430Y20518356D01*
X-19054429Y20518356D01*
X-19052317Y24229025D01*
X-16000500Y24229025D01*
X-16000500Y24070971D01*
X-16000064Y24068966D01*
X-15969737Y23916503D01*
X-15969735Y23916498D01*
X-15909397Y23770827D01*
X-15909390Y23770814D01*
X-15823579Y23642390D01*
X-15821787Y23639708D01*
X-15821786Y23639707D01*
X-15821781Y23639701D01*
X-15710297Y23528217D01*
X-15710291Y23528212D01*
X-15710290Y23528211D01*
X-15704736Y23524500D01*
X-15579185Y23440609D01*
X-15579175Y23440603D01*
X-15579174Y23440603D01*
X-15579165Y23440598D01*
X-15433502Y23380264D01*
X-15433471Y23380257D01*
X-15278848Y23349500D01*
X-15121153Y23349500D01*
X-15121151Y23349500D01*
X-14966527Y23380257D01*
X-14966496Y23380264D01*
X-14820833Y23440598D01*
X-14820824Y23440603D01*
X-14820807Y23440613D01*
X-14689708Y23528211D01*
X-14689707Y23528212D01*
X-14689701Y23528217D01*
X-14578217Y23639701D01*
X-14578212Y23639707D01*
X-14578211Y23639708D01*
X-14490613Y23770807D01*
X-14490603Y23770824D01*
X-14490598Y23770833D01*
X-14430264Y23916496D01*
X-14430257Y23916527D01*
X-14399500Y24071150D01*
X-14399500Y24228842D01*
X-14399591Y24229583D01*
X-14400088Y24231798D01*
X-14414260Y24303050D01*
X-14416148Y24338294D01*
X-14415140Y24349556D01*
X-14389558Y24414574D01*
X-14332885Y24455439D01*
X-14263116Y24459177D01*
X-14255648Y24457413D01*
X-14215279Y24439840D01*
X-14140874Y24390124D01*
X-14104185Y24365609D01*
X-14104175Y24365603D01*
X-14104174Y24365603D01*
X-14104165Y24365598D01*
X-13958502Y24305264D01*
X-13958471Y24305257D01*
X-13803848Y24274500D01*
X-13646153Y24274500D01*
X-13646151Y24274500D01*
X-13491527Y24305257D01*
X-13491496Y24305264D01*
X-13345833Y24365598D01*
X-13345824Y24365603D01*
X-13345807Y24365613D01*
X-13288591Y24403844D01*
X-8650500Y24403844D01*
X-8650500Y24246155D01*
X-8650499Y24246153D01*
X-8650296Y24245135D01*
X-8650298Y24245042D01*
X-8650064Y24243966D01*
X-8619737Y24091503D01*
X-8619735Y24091498D01*
X-8559397Y23945827D01*
X-8559390Y23945814D01*
X-8539800Y23916496D01*
X-8471787Y23814708D01*
X-8471786Y23814707D01*
X-8471781Y23814701D01*
X-8360297Y23703217D01*
X-8360291Y23703212D01*
X-8340086Y23689711D01*
X-8229185Y23615609D01*
X-8229175Y23615603D01*
X-8229174Y23615603D01*
X-8229165Y23615598D01*
X-8083502Y23555264D01*
X-8083471Y23555257D01*
X-7928848Y23524500D01*
X-7771153Y23524500D01*
X-7771151Y23524500D01*
X-7616527Y23555257D01*
X-7616496Y23555264D01*
X-7470833Y23615598D01*
X-7470824Y23615603D01*
X-7470807Y23615613D01*
X-7339707Y23703212D01*
X-7339701Y23703217D01*
X-7228217Y23814701D01*
X-7228212Y23814707D01*
X-7228211Y23814708D01*
X-7140613Y23945807D01*
X-7140603Y23945824D01*
X-7140598Y23945833D01*
X-7080264Y24091496D01*
X-7080257Y24091527D01*
X-7049500Y24246150D01*
X-7049500Y24403848D01*
X-7049499Y24403848D01*
X-7080257Y24558471D01*
X-7080264Y24558502D01*
X-7140598Y24704165D01*
X-7140603Y24704174D01*
X-7140613Y24704191D01*
X-7228211Y24835290D01*
X-7228212Y24835291D01*
X-7228217Y24835297D01*
X-7339701Y24946781D01*
X-7339707Y24946786D01*
X-7339708Y24946787D01*
X-7380291Y24973904D01*
X-7470814Y25034390D01*
X-7470827Y25034397D01*
X-7616498Y25094735D01*
X-7616503Y25094737D01*
X-7690203Y25109397D01*
X-7730679Y25117448D01*
X-7749288Y25121150D01*
X10369499Y25121150D01*
X10400257Y24966527D01*
X10400264Y24966496D01*
X10460598Y24820833D01*
X10460603Y24820824D01*
X10460613Y24820807D01*
X10548211Y24689708D01*
X10548212Y24689707D01*
X10548217Y24689701D01*
X10659701Y24578217D01*
X10659707Y24578212D01*
X10659708Y24578211D01*
X10790807Y24490613D01*
X10790824Y24490603D01*
X10790833Y24490598D01*
X10936496Y24430264D01*
X10936527Y24430257D01*
X11091151Y24399500D01*
X11248846Y24399500D01*
X11248848Y24399500D01*
X11403471Y24430257D01*
X11403502Y24430264D01*
X11549165Y24490598D01*
X11549174Y24490603D01*
X11549175Y24490603D01*
X11549185Y24490609D01*
X11650786Y24558497D01*
X11680290Y24578211D01*
X11680291Y24578212D01*
X11680296Y24578216D01*
X11732049Y24629970D01*
X11760306Y24651123D01*
X11772487Y24657774D01*
X11840761Y24672625D01*
X11906222Y24648209D01*
X11915036Y24641611D01*
X11943828Y24611234D01*
X11958210Y24589709D01*
X11958213Y24589705D01*
X12069701Y24478217D01*
X12069707Y24478212D01*
X12069708Y24478211D01*
X12200807Y24390613D01*
X12200824Y24390603D01*
X12200833Y24390598D01*
X12346496Y24330264D01*
X12346527Y24330257D01*
X12501151Y24299500D01*
X12501153Y24299500D01*
X12574214Y24299500D01*
X12609156Y24294475D01*
X12612975Y24293353D01*
X12624156Y24290070D01*
X12682915Y24252309D01*
X12687727Y24246757D01*
X12715641Y24189735D01*
X12720257Y24166527D01*
X12720264Y24166496D01*
X12780598Y24020833D01*
X12780603Y24020824D01*
X12780613Y24020807D01*
X12868212Y23889708D01*
X12868217Y23889701D01*
X12979701Y23778217D01*
X12979707Y23778212D01*
X12979708Y23778211D01*
X13110807Y23690613D01*
X13110824Y23690603D01*
X13110833Y23690598D01*
X13256496Y23630264D01*
X13256527Y23630257D01*
X13411151Y23599500D01*
X13568846Y23599500D01*
X13568848Y23599500D01*
X13723471Y23630257D01*
X13723499Y23630263D01*
X13726491Y23631251D01*
X13752106Y23636788D01*
X13768022Y23638498D01*
X13836770Y23626093D01*
X13848949Y23619997D01*
X13881128Y23596793D01*
X13899710Y23578210D01*
X13899714Y23578207D01*
X14030807Y23490613D01*
X14030824Y23490603D01*
X14030833Y23490598D01*
X14176496Y23430264D01*
X14176527Y23430257D01*
X14331151Y23399500D01*
X14488846Y23399500D01*
X14488848Y23399500D01*
X14643471Y23430257D01*
X14643502Y23430264D01*
X14789165Y23490598D01*
X14789174Y23490603D01*
X14789175Y23490603D01*
X14789185Y23490609D01*
X14839906Y23524500D01*
X14920290Y23578211D01*
X14920291Y23578212D01*
X14920297Y23578217D01*
X15031781Y23689701D01*
X15031786Y23689707D01*
X15031787Y23689708D01*
X15040811Y23703213D01*
X15119390Y23820814D01*
X15119397Y23820827D01*
X15179735Y23966498D01*
X15179737Y23966503D01*
X15210499Y24121153D01*
X15210500Y24121155D01*
X15210500Y24278844D01*
X15210499Y24278846D01*
X15205245Y24305261D01*
X15179737Y24433497D01*
X15127959Y24558501D01*
X15119397Y24579172D01*
X15119396Y24579172D01*
X15119394Y24579179D01*
X15119392Y24579181D01*
X15118420Y24581529D01*
X15118418Y24581533D01*
X15114583Y24590791D01*
X15105698Y24599675D01*
X15031789Y24710289D01*
X14920289Y24821789D01*
X14789179Y24909394D01*
X14643497Y24969737D01*
X14599638Y24978460D01*
X14566523Y24985048D01*
X14566520Y24985048D01*
X14488845Y25000500D01*
X14331153Y25000500D01*
X14309312Y24996155D01*
X14237858Y24981941D01*
X14176503Y24969737D01*
X14171348Y24967601D01*
X14160373Y24965238D01*
X14156667Y24965510D01*
X14147526Y24963170D01*
X14131979Y24961499D01*
X14063231Y24973903D01*
X14051047Y24980001D01*
X14018870Y25003206D01*
X14000289Y25021789D01*
X13869179Y25109394D01*
X13723497Y25169737D01*
X13646520Y25185048D01*
X13568845Y25200500D01*
X13568842Y25200500D01*
X13489485Y25200500D01*
X13483208Y25201140D01*
X13478781Y25202944D01*
X13460852Y25205523D01*
X13445853Y25209927D01*
X13387077Y25247698D01*
X13382265Y25253251D01*
X13354359Y25310260D01*
X13352787Y25318161D01*
X13352784Y25318175D01*
X13351294Y25325663D01*
X13349737Y25333497D01*
X13289394Y25479179D01*
X13201789Y25610289D01*
X13090289Y25721789D01*
X12959179Y25809394D01*
X12813497Y25869737D01*
X12769638Y25878460D01*
X12736523Y25885048D01*
X12736520Y25885048D01*
X12658845Y25900500D01*
X12501153Y25900500D01*
X12423477Y25885048D01*
X12407858Y25881941D01*
X12346503Y25869737D01*
X12346498Y25869735D01*
X12200827Y25809397D01*
X12200814Y25809390D01*
X12071532Y25723005D01*
X12069708Y25721787D01*
X12069707Y25721786D01*
X12069702Y25721782D01*
X12017949Y25670028D01*
X11989694Y25648876D01*
X11977511Y25642224D01*
X11909237Y25627373D01*
X11843777Y25651789D01*
X11834954Y25658394D01*
X11806171Y25688762D01*
X11791789Y25710289D01*
X11680289Y25821789D01*
X11549179Y25909394D01*
X11403497Y25969737D01*
X11359638Y25978460D01*
X11326523Y25985048D01*
X11326520Y25985048D01*
X11248845Y26000500D01*
X11091153Y26000500D01*
X11035857Y25989500D01*
X10997858Y25981941D01*
X10936503Y25969737D01*
X10936498Y25969735D01*
X10790827Y25909397D01*
X10790814Y25909390D01*
X10694055Y25844737D01*
X10659708Y25821787D01*
X10659707Y25821786D01*
X10659701Y25821781D01*
X10548217Y25710297D01*
X10548212Y25710291D01*
X10548211Y25710290D01*
X10460613Y25579191D01*
X10460603Y25579174D01*
X10460598Y25579165D01*
X10400264Y25433502D01*
X10400257Y25433471D01*
X10369500Y25278848D01*
X10369500Y25121150D01*
X10369499Y25121150D01*
X-7749288Y25121150D01*
X-7771154Y25125500D01*
X-7771155Y25125500D01*
X-7771158Y25125500D01*
X-7928842Y25125500D01*
X-7928845Y25125500D01*
X-8006520Y25110048D01*
X-8083497Y25094737D01*
X-8229179Y25034394D01*
X-8360289Y24946789D01*
X-8471789Y24835289D01*
X-8559394Y24704179D01*
X-8559396Y24704172D01*
X-8559397Y24704172D01*
X-8571040Y24676063D01*
X-8606809Y24589709D01*
X-8619735Y24558501D01*
X-8619737Y24558497D01*
X-8645245Y24430261D01*
X-8650499Y24403846D01*
X-8650500Y24403844D01*
X-13288591Y24403844D01*
X-13214715Y24453207D01*
X-13214710Y24453210D01*
X-13214701Y24453218D01*
X-13170306Y24497614D01*
X-13161970Y24505949D01*
X-13161957Y24505964D01*
X-13103214Y24564705D01*
X-13103213Y24564707D01*
X-13103207Y24564715D01*
X-13015606Y24695818D01*
X-13015605Y24695819D01*
X-13015604Y24695822D01*
X-13007528Y24715319D01*
X-12989521Y24745667D01*
X-12979715Y24757836D01*
X-12922323Y24797686D01*
X-12922319Y24797687D01*
X-12915348Y24800007D01*
X-12852000Y24803969D01*
X-12703850Y24774500D01*
X-12546153Y24774500D01*
X-12546151Y24774500D01*
X-12391527Y24805257D01*
X-12391496Y24805264D01*
X-12245833Y24865598D01*
X-12245824Y24865603D01*
X-12245807Y24865613D01*
X-12114708Y24953211D01*
X-12114707Y24953212D01*
X-12114701Y24953217D01*
X-12003217Y25064701D01*
X-12003212Y25064707D01*
X-12003211Y25064708D01*
X-11915613Y25195807D01*
X-11915603Y25195824D01*
X-11915600Y25195830D01*
X-11859035Y25332391D01*
X-11856729Y25337963D01*
X-11856726Y25337965D01*
X-11856723Y25337976D01*
X-11855260Y25341507D01*
X-11824500Y25496150D01*
X-11824500Y25653848D01*
X-11824499Y25653848D01*
X-11855257Y25808471D01*
X-11855264Y25808502D01*
X-11915598Y25954165D01*
X-11915603Y25954174D01*
X-11915606Y25954179D01*
X-11915609Y25954185D01*
X-11966444Y26030264D01*
X-12003211Y26085290D01*
X-12003212Y26085291D01*
X-12003217Y26085297D01*
X-12114701Y26196781D01*
X-12114707Y26196786D01*
X-12114708Y26196787D01*
X-12116532Y26198005D01*
X-12245814Y26284390D01*
X-12245827Y26284397D01*
X-12391498Y26344735D01*
X-12391503Y26344737D01*
X-12452858Y26356941D01*
X-12468477Y26360048D01*
X-12546153Y26375500D01*
X-12546155Y26375500D01*
X-12546158Y26375500D01*
X-12703842Y26375500D01*
X-12703845Y26375500D01*
X-12781520Y26360048D01*
X-12858497Y26344737D01*
X-13004179Y26284394D01*
X-13135289Y26196789D01*
X-13246789Y26085289D01*
X-13334394Y25954179D01*
X-13342470Y25934680D01*
X-13360475Y25904333D01*
X-13370288Y25892156D01*
X-13427678Y25852311D01*
X-13434650Y25849991D01*
X-13497998Y25846029D01*
X-13548923Y25856158D01*
X-13646154Y25875500D01*
X-13646156Y25875500D01*
X-13646158Y25875500D01*
X-13803842Y25875500D01*
X-13803845Y25875500D01*
X-13803846Y25875500D01*
X-13819016Y25872482D01*
X-13879704Y25860410D01*
X-13958497Y25844737D01*
X-14104179Y25784394D01*
X-14235289Y25696789D01*
X-14346789Y25585289D01*
X-14434394Y25454179D01*
X-14494737Y25308497D01*
X-14525499Y25153846D01*
X-14525500Y25153844D01*
X-14525500Y24996155D01*
X-14525499Y24996153D01*
X-14513011Y24933368D01*
X-14510740Y24921955D01*
X-14508850Y24886717D01*
X-14509858Y24875444D01*
X-14535438Y24810429D01*
X-14592109Y24769561D01*
X-14661873Y24765819D01*
X-14669338Y24767583D01*
X-14709719Y24785158D01*
X-14731942Y24800007D01*
X-14820814Y24859390D01*
X-14820827Y24859397D01*
X-14966498Y24919735D01*
X-14966503Y24919737D01*
X-15035040Y24933370D01*
X-15078097Y24941935D01*
X-15121154Y24950500D01*
X-15121155Y24950500D01*
X-15121158Y24950500D01*
X-15278842Y24950500D01*
X-15278845Y24950500D01*
X-15356520Y24935048D01*
X-15433497Y24919737D01*
X-15470362Y24904467D01*
X-15564191Y24865602D01*
X-15579179Y24859394D01*
X-15710289Y24771789D01*
X-15821789Y24660289D01*
X-15909394Y24529179D01*
X-15969737Y24383497D01*
X-15973297Y24365598D01*
X-15999275Y24235003D01*
X-16000063Y24231038D01*
X-16000500Y24229025D01*
X-19052317Y24229025D01*
X-19052314Y24235005D01*
X-19052314Y24235008D01*
X-19052309Y24243356D01*
X-19052308Y24243356D01*
X-19050638Y27178844D01*
X-17275500Y27178844D01*
X-17275500Y27021155D01*
X-17275499Y27021153D01*
X-17275296Y27020135D01*
X-17275298Y27020042D01*
X-17275064Y27018966D01*
X-17244737Y26866503D01*
X-17244735Y26866498D01*
X-17184397Y26720827D01*
X-17184390Y26720814D01*
X-17117799Y26621155D01*
X-17096787Y26589708D01*
X-17096786Y26589707D01*
X-17096781Y26589701D01*
X-16985297Y26478217D01*
X-16985291Y26478212D01*
X-16985290Y26478211D01*
X-16967760Y26466498D01*
X-16854185Y26390609D01*
X-16854175Y26390603D01*
X-16854174Y26390603D01*
X-16854165Y26390598D01*
X-16708502Y26330264D01*
X-16708471Y26330257D01*
X-16553848Y26299500D01*
X-16396153Y26299500D01*
X-16396151Y26299500D01*
X-16241527Y26330257D01*
X-16241496Y26330264D01*
X-16095833Y26390598D01*
X-16095824Y26390603D01*
X-16095807Y26390613D01*
X-15964708Y26478211D01*
X-15964707Y26478212D01*
X-15964701Y26478217D01*
X-15853217Y26589701D01*
X-15853212Y26589707D01*
X-15853211Y26589708D01*
X-15765613Y26720807D01*
X-15765603Y26720824D01*
X-15765598Y26720833D01*
X-15705264Y26866496D01*
X-15705257Y26866527D01*
X-15674500Y27021150D01*
X-15674500Y27178848D01*
X-15674499Y27178848D01*
X-15705257Y27333471D01*
X-15705264Y27333502D01*
X-15765598Y27479165D01*
X-15765603Y27479174D01*
X-15765613Y27479191D01*
X-15853211Y27610290D01*
X-15853212Y27610291D01*
X-15853217Y27610297D01*
X-15964701Y27721781D01*
X-15964707Y27721786D01*
X-15964708Y27721787D01*
X-16036645Y27769854D01*
X-16095814Y27809390D01*
X-16095827Y27809397D01*
X-16241498Y27869735D01*
X-16241503Y27869737D01*
X-16302858Y27881941D01*
X-16318477Y27885048D01*
X-16396153Y27900500D01*
X-16396155Y27900500D01*
X-16396158Y27900500D01*
X-16553842Y27900500D01*
X-16553845Y27900500D01*
X-16631520Y27885048D01*
X-16708497Y27869737D01*
X-16854179Y27809394D01*
X-16985289Y27721789D01*
X-17096789Y27610289D01*
X-17184394Y27479179D01*
X-17184396Y27479172D01*
X-17184397Y27479172D01*
X-17186670Y27473684D01*
X-17244737Y27333497D01*
X-17269245Y27210288D01*
X-17275499Y27178846D01*
X-17275500Y27178844D01*
X-19050638Y27178844D01*
X-19050634Y27185005D01*
X-19050634Y27185008D01*
X-19050629Y27193356D01*
X-19050628Y27193356D01*
X-19049107Y29865501D01*
X-19044064Y29900434D01*
X-19038295Y29920039D01*
X-19007027Y29972708D01*
X-19001610Y29978126D01*
X-18981042Y29994716D01*
X-18734449Y30153464D01*
X-18732721Y30154556D01*
X-18731039Y30155600D01*
X-18729370Y30156618D01*
X-17752304Y30741937D01*
X-17750586Y30742948D01*
X-17748894Y30743925D01*
X-17747148Y30744914D01*
X-17326444Y30978844D01*
X-9030500Y30978844D01*
X-9030500Y30821155D01*
X-9030499Y30821153D01*
X-9030296Y30820136D01*
X-9030298Y30820045D01*
X-9030064Y30818966D01*
X-8999737Y30666503D01*
X-8999735Y30666498D01*
X-8939397Y30520827D01*
X-8939390Y30520814D01*
X-8925305Y30499735D01*
X-8851787Y30389708D01*
X-8851786Y30389707D01*
X-8851781Y30389701D01*
X-8740297Y30278217D01*
X-8740291Y30278212D01*
X-8740290Y30278211D01*
X-8660779Y30225083D01*
X-8609185Y30190609D01*
X-8609175Y30190603D01*
X-8609174Y30190603D01*
X-8609165Y30190598D01*
X-8463502Y30130264D01*
X-8463471Y30130257D01*
X-8308848Y30099500D01*
X-8151153Y30099500D01*
X-8151151Y30099500D01*
X-7996527Y30130257D01*
X-7996496Y30130264D01*
X-7850833Y30190598D01*
X-7850824Y30190603D01*
X-7850807Y30190613D01*
X-7719708Y30278211D01*
X-7719707Y30278212D01*
X-7719701Y30278217D01*
X-7608217Y30389701D01*
X-7608212Y30389707D01*
X-7608211Y30389708D01*
X-7520613Y30520807D01*
X-7520603Y30520824D01*
X-7520598Y30520833D01*
X-7460264Y30666496D01*
X-7460257Y30666527D01*
X-7429500Y30821150D01*
X-7429500Y30978848D01*
X-7429499Y30978848D01*
X-7460257Y31133471D01*
X-7460264Y31133502D01*
X-7520598Y31279165D01*
X-7520603Y31279174D01*
X-7520613Y31279191D01*
X-7608211Y31410290D01*
X-7608213Y31410292D01*
X-7686895Y31488974D01*
X-7708045Y31517228D01*
X-7714696Y31529409D01*
X-7729547Y31597683D01*
X-7705129Y31663146D01*
X-7705128Y31663147D01*
X-7701989Y31667340D01*
X-7650171Y31707590D01*
X-7630822Y31715603D01*
X-7630819Y31715605D01*
X-7499708Y31803211D01*
X-7499707Y31803212D01*
X-7499701Y31803217D01*
X-7388217Y31914701D01*
X-7388212Y31914707D01*
X-7388211Y31914708D01*
X-7300613Y32045807D01*
X-7300603Y32045824D01*
X-7300598Y32045833D01*
X-7240264Y32191496D01*
X-7240257Y32191527D01*
X-7209500Y32346153D01*
X-7209500Y32503848D01*
X-7209499Y32503848D01*
X-7240257Y32658471D01*
X-7240264Y32658502D01*
X-7300598Y32804165D01*
X-7300603Y32804174D01*
X-7300613Y32804191D01*
X-7388211Y32935290D01*
X-7388212Y32935291D01*
X-7388217Y32935297D01*
X-7499701Y33046781D01*
X-7499707Y33046786D01*
X-7499708Y33046787D01*
X-7581630Y33101526D01*
X-7630814Y33134390D01*
X-7630827Y33134397D01*
X-7776498Y33194735D01*
X-7776503Y33194737D01*
X-7837858Y33206941D01*
X-7853477Y33210048D01*
X-7931153Y33225500D01*
X-7931155Y33225500D01*
X-7931158Y33225500D01*
X-8088842Y33225500D01*
X-8088845Y33225500D01*
X-8166520Y33210048D01*
X-8243497Y33194737D01*
X-8389179Y33134394D01*
X-8520289Y33046789D01*
X-8631789Y32935289D01*
X-8719394Y32804179D01*
X-8779737Y32658497D01*
X-8779742Y32658471D01*
X-8799636Y32558458D01*
X-8810065Y32506027D01*
X-8810500Y32504026D01*
X-8810500Y32345971D01*
X-8810064Y32343966D01*
X-8779737Y32191503D01*
X-8779735Y32191498D01*
X-8719397Y32045827D01*
X-8719390Y32045814D01*
X-8631789Y31914711D01*
X-8631786Y31914707D01*
X-8553102Y31836023D01*
X-8531954Y31807772D01*
X-8529464Y31803211D01*
X-8525302Y31795589D01*
X-8510451Y31727315D01*
X-8534865Y31661857D01*
X-8538007Y31657660D01*
X-8589824Y31617410D01*
X-8609179Y31609394D01*
X-8740289Y31521789D01*
X-8851789Y31410289D01*
X-8939394Y31279179D01*
X-8999737Y31133497D01*
X-9007731Y31093307D01*
X-9030499Y30978846D01*
X-9030500Y30978844D01*
X-17326444Y30978844D01*
X-17120593Y31093306D01*
X-17120593Y31093307D01*
X-17105580Y31101655D01*
X-17105579Y31101655D01*
X-16751703Y31298425D01*
X-16749963Y31299374D01*
X-16748235Y31300299D01*
X-16746449Y31301237D01*
X-15733663Y31822364D01*
X-15731905Y31823251D01*
X-15730138Y31824125D01*
X-15728311Y31825010D01*
X-14699292Y32313183D01*
X-14697478Y32314026D01*
X-14695642Y32314861D01*
X-14693815Y32315674D01*
X-13649571Y32770417D01*
X-13647698Y32771214D01*
X-13645857Y32771980D01*
X-13644038Y32772720D01*
X-12585730Y33193528D01*
X-12583900Y33194239D01*
X-12582026Y33194950D01*
X-12580117Y33195657D01*
X-11508678Y33582158D01*
X-11506767Y33582830D01*
X-11504924Y33583461D01*
X-11503051Y33584085D01*
X-10419796Y33935804D01*
X-10417896Y33936404D01*
X-10415971Y33936995D01*
X-10414048Y33937569D01*
X-9323836Y34253065D01*
X-9319328Y34254278D01*
X-9314790Y34255408D01*
X-9310218Y34256455D01*
X-9037664Y34313471D01*
X-9030419Y34314763D01*
X-9023145Y34315839D01*
X-9015838Y34316699D01*
X-8742491Y34340682D01*
X-8735156Y34341108D01*
X-8729158Y34341277D01*
X-8727794Y34341315D01*
X-8720426Y34341305D01*
G37*
%TD.AperFunction*%
%TD*%
%TA.AperFunction,Conductor*%
%TO.N,GND*%
G36*
X24033938Y13330315D02*
G01*
X24076159Y13284637D01*
X24428559Y12628000D01*
X24430326Y12624581D01*
X24809155Y11862863D01*
X24809996Y11861138D01*
X24818760Y11842808D01*
X24838014Y11802540D01*
X24838019Y11802533D01*
X24841084Y11796124D01*
X24883839Y11706714D01*
X24883840Y11706713D01*
X24883842Y11706708D01*
X24883843Y11706708D01*
X25062078Y11412217D01*
X25062080Y11412213D01*
X25062084Y11412208D01*
X25268336Y11136639D01*
X25268345Y11136628D01*
X25500649Y10882607D01*
X25500656Y10882600D01*
X25756753Y10652599D01*
X25756758Y10652594D01*
X26034172Y10448832D01*
X26034183Y10448825D01*
X26330260Y10273253D01*
X26330267Y10273249D01*
X26642135Y10127570D01*
X26642140Y10127567D01*
X26642145Y10127566D01*
X26816843Y10066016D01*
X26966807Y10013181D01*
X27301136Y9931193D01*
X27641881Y9882401D01*
X27985785Y9867269D01*
X28329483Y9885946D01*
X28329509Y9885949D01*
X28626814Y9931656D01*
X28669729Y9938254D01*
X28669735Y9938255D01*
X28669737Y9938255D01*
X29003179Y10023682D01*
X29003194Y10023687D01*
X29096943Y10057802D01*
X29096943Y10057803D01*
X29102996Y10060006D01*
X29103010Y10060008D01*
X29177039Y10086952D01*
X29226843Y10105079D01*
X29226844Y10105080D01*
X29236351Y10108540D01*
X31022004Y10758465D01*
X31049157Y10768347D01*
X31056130Y10770653D01*
X31329713Y10852210D01*
X31344035Y10855569D01*
X31621713Y10903526D01*
X31636332Y10905165D01*
X31917727Y10919899D01*
X31932437Y10919796D01*
X32213609Y10901102D01*
X32228203Y10899257D01*
X32505177Y10847398D01*
X32519450Y10843838D01*
X32788335Y10759544D01*
X32802086Y10754319D01*
X33028359Y10652594D01*
X33059089Y10638779D01*
X33072124Y10631962D01*
X33313646Y10486794D01*
X33325783Y10478481D01*
X33548417Y10305730D01*
X33559483Y10296038D01*
X33760078Y10098151D01*
X33769919Y10087218D01*
X33945681Y9866955D01*
X33954151Y9854942D01*
X34086724Y9641017D01*
X34102591Y9615414D01*
X34109584Y9602473D01*
X34228611Y9347058D01*
X34234023Y9333378D01*
X34322803Y9063111D01*
X34325386Y9054117D01*
X34598059Y7948993D01*
X34598954Y7945096D01*
X34836407Y6829129D01*
X34837176Y6825204D01*
X35038515Y5702165D01*
X35039157Y5698218D01*
X35204175Y4569281D01*
X35204690Y4565314D01*
X35333218Y3431610D01*
X35333604Y3427630D01*
X35425503Y2290405D01*
X35425761Y2286414D01*
X35480940Y1146796D01*
X35481069Y1142799D01*
X35499468Y2000D01*
X35499468Y-2000D01*
X35481411Y-1121584D01*
X35460648Y-1188297D01*
X35407113Y-1233194D01*
X35371428Y-1242791D01*
X33906978Y-1409207D01*
X33892977Y-1410000D01*
X30251362Y-1410000D01*
X30184323Y-1390315D01*
X30163681Y-1373681D01*
X30036319Y-1246319D01*
X30002834Y-1184996D01*
X30000000Y-1158638D01*
X30000000Y1989999D01*
X30000000Y1990000D01*
X25831369Y4529649D01*
X29937501Y4529649D01*
X29937501Y4320346D01*
X29978330Y4115085D01*
X29978332Y4115077D01*
X30058424Y3921717D01*
X30174704Y3747691D01*
X30322694Y3599701D01*
X30496720Y3483421D01*
X30690080Y3403329D01*
X30690088Y3403327D01*
X30895349Y3362498D01*
X30895354Y3362498D01*
X31104652Y3362498D01*
X31309913Y3403327D01*
X31309921Y3403329D01*
X31503281Y3483421D01*
X31677307Y3599701D01*
X31825297Y3747691D01*
X31896897Y3854849D01*
X31950510Y3899655D01*
X32019834Y3908362D01*
X32082862Y3878208D01*
X32103102Y3854850D01*
X32174701Y3747695D01*
X32174704Y3747691D01*
X32322693Y3599702D01*
X32496719Y3483422D01*
X32690079Y3403330D01*
X32690087Y3403328D01*
X32895348Y3362499D01*
X32895353Y3362499D01*
X33104651Y3362499D01*
X33309912Y3403328D01*
X33309920Y3403330D01*
X33503280Y3483422D01*
X33677306Y3599702D01*
X33825296Y3747692D01*
X33941576Y3921718D01*
X34021668Y4115077D01*
X34021669Y4115079D01*
X34062500Y4320352D01*
X34062500Y4529646D01*
X34021669Y4734919D01*
X33941575Y4928281D01*
X33825298Y5102303D01*
X33677304Y5250297D01*
X33503282Y5366574D01*
X33499325Y5368213D01*
X33455672Y5386295D01*
X33309920Y5446668D01*
X33104649Y5487498D01*
X33104648Y5487499D01*
X33104647Y5487499D01*
X32895353Y5487499D01*
X32895352Y5487499D01*
X32895348Y5487498D01*
X32690080Y5446668D01*
X32621392Y5418216D01*
X32496719Y5366575D01*
X32322693Y5250295D01*
X32174703Y5102305D01*
X32174702Y5102303D01*
X32103101Y4995144D01*
X32049491Y4950340D01*
X31980166Y4941633D01*
X31917138Y4971787D01*
X31896900Y4995141D01*
X31825299Y5102302D01*
X31677305Y5250296D01*
X31503283Y5366573D01*
X31503278Y5366575D01*
X31455670Y5386295D01*
X31309921Y5446667D01*
X31104650Y5487497D01*
X31104649Y5487498D01*
X31104648Y5487498D01*
X30895354Y5487498D01*
X30895353Y5487498D01*
X30895349Y5487497D01*
X30690081Y5446667D01*
X30634661Y5423711D01*
X30496720Y5366574D01*
X30322694Y5250294D01*
X30174704Y5102304D01*
X30058424Y4928278D01*
X29978332Y4734918D01*
X29978330Y4734910D01*
X29937501Y4529649D01*
X25831369Y4529649D01*
X25105348Y4971962D01*
X12868993Y4970384D01*
X12801955Y4990059D01*
X12756193Y5042857D01*
X12746241Y5112014D01*
X12775258Y5175574D01*
X12781300Y5182064D01*
X12880518Y5281282D01*
X12880524Y5281290D01*
X12959573Y5418209D01*
X12959577Y5418216D01*
X13000500Y5570943D01*
X13000500Y5729057D01*
X12959577Y5881784D01*
X12880520Y6018716D01*
X12768716Y6130520D01*
X12684648Y6179056D01*
X13874500Y6179056D01*
X13874500Y6020943D01*
X13915423Y5868216D01*
X13915426Y5868209D01*
X13994475Y5731290D01*
X13994481Y5731282D01*
X14106282Y5619481D01*
X14106290Y5619475D01*
X14243209Y5540426D01*
X14243216Y5540423D01*
X14395943Y5499500D01*
X14554056Y5499500D01*
X14554057Y5499500D01*
X14706784Y5540423D01*
X14706786Y5540424D01*
X14706790Y5540426D01*
X14843709Y5619475D01*
X14843717Y5619481D01*
X14955518Y5731282D01*
X14955524Y5731290D01*
X15034573Y5868209D01*
X15034577Y5868216D01*
X15075500Y6020943D01*
X15075500Y6179057D01*
X15034577Y6331784D01*
X14955520Y6468716D01*
X14843716Y6580520D01*
X14706784Y6659577D01*
X14554057Y6700500D01*
X14395943Y6700500D01*
X14243216Y6659577D01*
X14243209Y6659573D01*
X14106290Y6580524D01*
X14106286Y6580521D01*
X14106284Y6580520D01*
X14106282Y6580518D01*
X13994481Y6468717D01*
X13994475Y6468709D01*
X13915426Y6331790D01*
X13915423Y6331784D01*
X13880246Y6200499D01*
X13874500Y6179056D01*
X12684648Y6179056D01*
X12631784Y6209577D01*
X12479057Y6250500D01*
X12320943Y6250500D01*
X12168216Y6209577D01*
X12168209Y6209573D01*
X12031290Y6130524D01*
X12031286Y6130521D01*
X12031284Y6130520D01*
X12031282Y6130518D01*
X11919481Y6018717D01*
X11919475Y6018709D01*
X11840426Y5881790D01*
X11840423Y5881785D01*
X11839700Y5879087D01*
X11835576Y5863698D01*
X11799213Y5804040D01*
X11736366Y5773511D01*
X11666990Y5781806D01*
X11613112Y5826291D01*
X11608427Y5833775D01*
X11530520Y5968716D01*
X11418716Y6080520D01*
X11281784Y6159577D01*
X11129057Y6200500D01*
X10970943Y6200500D01*
X10818216Y6159577D01*
X10818209Y6159573D01*
X10681290Y6080524D01*
X10681286Y6080521D01*
X10681284Y6080520D01*
X10681282Y6080518D01*
X10569481Y5968717D01*
X10569475Y5968709D01*
X10491584Y5833795D01*
X10490423Y5831784D01*
X10453632Y5694475D01*
X10449500Y5679056D01*
X10449500Y5520943D01*
X10490423Y5368216D01*
X10490426Y5368209D01*
X10569475Y5231290D01*
X10569481Y5231282D01*
X10619001Y5181762D01*
X10652485Y5120439D01*
X10647500Y5050747D01*
X10605629Y4994814D01*
X10540164Y4970398D01*
X10531353Y4970082D01*
X-4536678Y4968139D01*
X-4603718Y4987815D01*
X-4624362Y5004446D01*
X-5235499Y5615426D01*
X-5633496Y6013320D01*
X-5666989Y6074639D01*
X-5669826Y6100997D01*
X-5669846Y6254056D01*
X6899500Y6254056D01*
X6899500Y6095943D01*
X6940423Y5943216D01*
X6940426Y5943209D01*
X7019475Y5806290D01*
X7019481Y5806282D01*
X7131282Y5694481D01*
X7131290Y5694475D01*
X7268209Y5615426D01*
X7268216Y5615423D01*
X7420943Y5574500D01*
X7579056Y5574500D01*
X7579057Y5574500D01*
X7731784Y5615423D01*
X7731786Y5615424D01*
X7731790Y5615426D01*
X7868709Y5694475D01*
X7868717Y5694481D01*
X7980518Y5806282D01*
X7980524Y5806290D01*
X8059573Y5943209D01*
X8059577Y5943216D01*
X8100500Y6095943D01*
X8100500Y6254057D01*
X8059577Y6406784D01*
X7980520Y6543716D01*
X7868716Y6655520D01*
X7731784Y6734577D01*
X7579057Y6775500D01*
X7420943Y6775500D01*
X7268216Y6734577D01*
X7268209Y6734573D01*
X7131290Y6655524D01*
X7131286Y6655521D01*
X7131284Y6655520D01*
X7131282Y6655518D01*
X7019481Y6543717D01*
X7019475Y6543709D01*
X6948291Y6420412D01*
X6940423Y6406784D01*
X6901674Y6262168D01*
X6899500Y6254056D01*
X-5669846Y6254056D01*
X-5669847Y6262168D01*
X-5669917Y6804056D01*
X8349500Y6804056D01*
X8349500Y6645943D01*
X8390423Y6493216D01*
X8390426Y6493209D01*
X8469475Y6356290D01*
X8469481Y6356282D01*
X8581282Y6244481D01*
X8581290Y6244475D01*
X8718209Y6165426D01*
X8718216Y6165423D01*
X8870943Y6124500D01*
X9029056Y6124500D01*
X9029057Y6124500D01*
X9181784Y6165423D01*
X9181786Y6165424D01*
X9181790Y6165426D01*
X9318709Y6244475D01*
X9318717Y6244481D01*
X9430518Y6356282D01*
X9430524Y6356290D01*
X9509573Y6493209D01*
X9509577Y6493216D01*
X9550500Y6645943D01*
X9550500Y6804057D01*
X9509577Y6956784D01*
X9430520Y7093716D01*
X9318716Y7205520D01*
X9181784Y7284577D01*
X9029057Y7325500D01*
X8870943Y7325500D01*
X8718216Y7284577D01*
X8718209Y7284573D01*
X8581290Y7205524D01*
X8581286Y7205521D01*
X8581284Y7205520D01*
X8581282Y7205518D01*
X8469481Y7093717D01*
X8469475Y7093709D01*
X8390426Y6956790D01*
X8390423Y6956784D01*
X8355167Y6825204D01*
X8349500Y6804056D01*
X-5669917Y6804056D01*
X-5670175Y8798493D01*
X-5650499Y8865535D01*
X-5633853Y8886194D01*
X-5450977Y9069056D01*
X4759500Y9069056D01*
X4759500Y8910943D01*
X4800423Y8758216D01*
X4800426Y8758209D01*
X4879475Y8621290D01*
X4879481Y8621282D01*
X4991282Y8509481D01*
X4991290Y8509475D01*
X5128209Y8430426D01*
X5128216Y8430423D01*
X5280943Y8389500D01*
X5429223Y8389500D01*
X5496262Y8369815D01*
X5536609Y8327500D01*
X5563735Y8280518D01*
X5609479Y8201285D01*
X5609481Y8201282D01*
X5721282Y8089481D01*
X5721290Y8089475D01*
X5858209Y8010426D01*
X5858216Y8010423D01*
X6010943Y7969500D01*
X6135500Y7969500D01*
X6202539Y7949815D01*
X6248294Y7897011D01*
X6259500Y7845500D01*
X6259500Y7720943D01*
X6300423Y7568216D01*
X6300426Y7568209D01*
X6379475Y7431290D01*
X6379481Y7431282D01*
X6491282Y7319481D01*
X6491290Y7319475D01*
X6628209Y7240426D01*
X6628216Y7240423D01*
X6780943Y7199500D01*
X6939056Y7199500D01*
X6939057Y7199500D01*
X7091784Y7240423D01*
X7091786Y7240424D01*
X7091790Y7240426D01*
X7228709Y7319475D01*
X7228717Y7319481D01*
X7340518Y7431282D01*
X7340524Y7431290D01*
X7419573Y7568209D01*
X7419577Y7568216D01*
X7460500Y7720943D01*
X7460500Y7879057D01*
X7419577Y8031784D01*
X7340520Y8168716D01*
X7228716Y8280520D01*
X7091784Y8359577D01*
X6939057Y8400500D01*
X6814500Y8400500D01*
X6747461Y8420185D01*
X6701706Y8472989D01*
X6690500Y8524500D01*
X6690500Y8649055D01*
X6690500Y8649057D01*
X6649577Y8801784D01*
X6570520Y8938716D01*
X6458716Y9050520D01*
X6321784Y9129577D01*
X6169057Y9170500D01*
X6020777Y9170500D01*
X5953738Y9190185D01*
X5913390Y9232499D01*
X5840520Y9358716D01*
X5728716Y9470520D01*
X5591784Y9549577D01*
X5439057Y9590500D01*
X5280943Y9590500D01*
X5128216Y9549577D01*
X5128209Y9549573D01*
X4991290Y9470524D01*
X4991286Y9470521D01*
X4991284Y9470520D01*
X4991282Y9470518D01*
X4879481Y9358717D01*
X4879475Y9358709D01*
X4853722Y9314102D01*
X4800423Y9221784D01*
X4775717Y9129577D01*
X4759500Y9069056D01*
X-5450977Y9069056D01*
X-5355157Y9164869D01*
X-5355154Y9164870D01*
X-4514820Y10005143D01*
X-4453496Y10038626D01*
X-4427123Y10041459D01*
X15249998Y10038514D01*
X15250000Y10038515D01*
X18440550Y13312542D01*
X18501436Y13346816D01*
X18529356Y13350000D01*
X23966899Y13350000D01*
X24033938Y13330315D01*
G37*
%TD.AperFunction*%
%TD*%
%TA.AperFunction,Conductor*%
%TO.N,GND*%
G36*
X-15184323Y11080315D02*
G01*
X-15163681Y11063681D01*
X-14436319Y10336319D01*
X-14402834Y10274996D01*
X-14400000Y10248638D01*
X-14400000Y7951362D01*
X-14419685Y7884323D01*
X-14436319Y7863681D01*
X-14963681Y7336319D01*
X-15025004Y7302834D01*
X-15051362Y7300000D01*
X-24098638Y7300000D01*
X-24165677Y7319685D01*
X-24186319Y7336319D01*
X-24613681Y7763681D01*
X-24647166Y7825004D01*
X-24650000Y7851362D01*
X-24650000Y10348638D01*
X-24630315Y10415677D01*
X-24613681Y10436319D01*
X-23986319Y11063681D01*
X-23924996Y11097166D01*
X-23898638Y11100000D01*
X-15251362Y11100000D01*
X-15184323Y11080315D01*
G37*
%TD.AperFunction*%
%TD*%
%TA.AperFunction,Conductor*%
%TO.N,+48V*%
G36*
X24784474Y4395121D02*
G01*
X24816894Y4385748D01*
X24848620Y4371499D01*
X29327083Y1546002D01*
X29353949Y1523113D01*
X29367246Y1508024D01*
X29395269Y1452908D01*
X29397049Y1444888D01*
X29399995Y1418015D01*
X29399896Y-664701D01*
X29399860Y-1408488D01*
X29399850Y-1609826D01*
X29889823Y-2099845D01*
X33030813Y-2099996D01*
X33065743Y-2105019D01*
X33090989Y-2112433D01*
X33143727Y-2143727D01*
X34051073Y-3051073D01*
X34072223Y-3079325D01*
X34084831Y-3102414D01*
X34100000Y-3161843D01*
X34100000Y-5930808D01*
X34094976Y-5965745D01*
X34087564Y-5990986D01*
X34056269Y-6043730D01*
X33548926Y-6551073D01*
X33520675Y-6572222D01*
X33497587Y-6584830D01*
X33438157Y-6600000D01*
X29969192Y-6600000D01*
X29934256Y-6594977D01*
X29909014Y-6587565D01*
X29856269Y-6556269D01*
X29448926Y-6148926D01*
X29427774Y-6120670D01*
X29415167Y-6097581D01*
X29400000Y-6038156D01*
X29400000Y-5662500D01*
X29087500Y-5350000D01*
X28001270Y-5350000D01*
X27966334Y-5344977D01*
X27941092Y-5337565D01*
X27888347Y-5306269D01*
X27860292Y-5278213D01*
X27860288Y-5278210D01*
X27729185Y-5190609D01*
X27729172Y-5190602D01*
X27729165Y-5190598D01*
X27583502Y-5130264D01*
X27583471Y-5130257D01*
X27428847Y-5099500D01*
X27428845Y-5099500D01*
X27428842Y-5099500D01*
X27271158Y-5099500D01*
X27271155Y-5099500D01*
X27271151Y-5099500D01*
X27243377Y-5105024D01*
X27184261Y-5102385D01*
X27176059Y-5099977D01*
X27176056Y-5099976D01*
X27104589Y-5089701D01*
X27033638Y-5079500D01*
X27033636Y-5079500D01*
X21966360Y-5079500D01*
X21912311Y-5082397D01*
X21912310Y-5082397D01*
X21885977Y-5085229D01*
X21885950Y-5085232D01*
X21832562Y-5093884D01*
X21832551Y-5093886D01*
X21767483Y-5118155D01*
X21699961Y-5123591D01*
X21606616Y-5105024D01*
X21578845Y-5099500D01*
X21578844Y-5099500D01*
X21421153Y-5099500D01*
X21266527Y-5130257D01*
X21266496Y-5130264D01*
X21120833Y-5190598D01*
X21120824Y-5190603D01*
X21120807Y-5190613D01*
X20989708Y-5278211D01*
X20989707Y-5278212D01*
X20989701Y-5278217D01*
X20878217Y-5389701D01*
X20878212Y-5389707D01*
X20878211Y-5389708D01*
X20790613Y-5520807D01*
X20790603Y-5520824D01*
X20790598Y-5520833D01*
X20730264Y-5666496D01*
X20730257Y-5666527D01*
X20699500Y-5821150D01*
X20699500Y-5978850D01*
X20730259Y-6133486D01*
X20730260Y-6133488D01*
X20730262Y-6133493D01*
X20730263Y-6133497D01*
X20731432Y-6136319D01*
X20741687Y-6161077D01*
X20750414Y-6195272D01*
X20753226Y-6221425D01*
X20744499Y-6282131D01*
X20730263Y-6316500D01*
X20730262Y-6316503D01*
X20719648Y-6369862D01*
X20716242Y-6383113D01*
X20711364Y-6398511D01*
X20706728Y-6405813D01*
X20708781Y-6406664D01*
X20705472Y-6417110D01*
X20700218Y-6429780D01*
X20700214Y-6433710D01*
X20700214Y-6433712D01*
X20700195Y-6455133D01*
X20700044Y-6461147D01*
X20699748Y-6467131D01*
X20699596Y-6469190D01*
X20699500Y-6471149D01*
X20699500Y-6629498D01*
X20699501Y-6629544D01*
X20699881Y-6637369D01*
X20700027Y-6643493D01*
X20699995Y-6679721D01*
X20699606Y-7114142D01*
X20699600Y-7120653D01*
X20699500Y-7121158D01*
X20699500Y-7234608D01*
X20699500Y-7234719D01*
X20697976Y-8939988D01*
X20678231Y-9007010D01*
X20663464Y-9025713D01*
X18669698Y-11104307D01*
X18637617Y-11141166D01*
X18637591Y-11141197D01*
X18622804Y-11159944D01*
X18622794Y-11159958D01*
X18594432Y-11199725D01*
X18534663Y-11330597D01*
X18514976Y-11397642D01*
X18494500Y-11540061D01*
X18494500Y-13261806D01*
X18474815Y-13328845D01*
X18458181Y-13349487D01*
X18149487Y-13658181D01*
X18088164Y-13691666D01*
X18061806Y-13694500D01*
X13361516Y-13694500D01*
X13307467Y-13697397D01*
X13307466Y-13697397D01*
X13281133Y-13700229D01*
X13281106Y-13700232D01*
X13227710Y-13708885D01*
X13227708Y-13708885D01*
X13092903Y-13759166D01*
X13031578Y-13792651D01*
X12916396Y-13878876D01*
X12916384Y-13878886D01*
X12578892Y-14216379D01*
X12578855Y-14216418D01*
X12542728Y-14256636D01*
X12542718Y-14256648D01*
X12526076Y-14277299D01*
X12494433Y-14321181D01*
X12434663Y-14452055D01*
X12414976Y-14519100D01*
X12404509Y-14591903D01*
X12394871Y-14658942D01*
X12394500Y-14661519D01*
X12394500Y-15579879D01*
X12374815Y-15646918D01*
X12358181Y-15667560D01*
X12342560Y-15683181D01*
X12281237Y-15716666D01*
X12254879Y-15719500D01*
X11413860Y-15719500D01*
X11359811Y-15722397D01*
X11359810Y-15722397D01*
X11333477Y-15725229D01*
X11333450Y-15725232D01*
X11280054Y-15733885D01*
X11280052Y-15733885D01*
X11145247Y-15784166D01*
X11083922Y-15817651D01*
X10968740Y-15903876D01*
X10968728Y-15903886D01*
X10528892Y-16343723D01*
X10528855Y-16343762D01*
X10492728Y-16383980D01*
X10492718Y-16383992D01*
X10476076Y-16404643D01*
X10444433Y-16448525D01*
X10384663Y-16579399D01*
X10364976Y-16646444D01*
X10344500Y-16788863D01*
X10344500Y-18663223D01*
X10324815Y-18730262D01*
X10272011Y-18776017D01*
X10220595Y-18787223D01*
X9094721Y-18788089D01*
X9027667Y-18768456D01*
X8990900Y-18732037D01*
X8988175Y-18727877D01*
X8957347Y-18671420D01*
X8908067Y-18605590D01*
X8905945Y-18602350D01*
X8902500Y-18590988D01*
X8888053Y-18558585D01*
X8886753Y-18552050D01*
X8869737Y-18466503D01*
X8869735Y-18466498D01*
X8809397Y-18320827D01*
X8809390Y-18320814D01*
X8721789Y-18189711D01*
X8721786Y-18189707D01*
X8721781Y-18189701D01*
X8610297Y-18078217D01*
X8610291Y-18078212D01*
X8610290Y-18078211D01*
X8479191Y-17990613D01*
X8479190Y-17990612D01*
X8479185Y-17990609D01*
X8479172Y-17990602D01*
X8479165Y-17990598D01*
X8333502Y-17930264D01*
X8333471Y-17930257D01*
X8178847Y-17899500D01*
X8178845Y-17899500D01*
X8178842Y-17899500D01*
X8021158Y-17899500D01*
X8021155Y-17899500D01*
X8021151Y-17899500D01*
X8015098Y-17900097D01*
X8014971Y-17898814D01*
X7984311Y-17899628D01*
X7948643Y-17894500D01*
X7948638Y-17894500D01*
X4101362Y-17894500D01*
X4101360Y-17894500D01*
X4047313Y-17897397D01*
X4020965Y-17900230D01*
X4019297Y-17900455D01*
X4019244Y-17900065D01*
X3984968Y-17899434D01*
X3984903Y-17900097D01*
X3978847Y-17899500D01*
X3978845Y-17899500D01*
X3978842Y-17899500D01*
X3821153Y-17899500D01*
X3666527Y-17930257D01*
X3666496Y-17930264D01*
X3520833Y-17990598D01*
X3520824Y-17990603D01*
X3520807Y-17990613D01*
X3389708Y-18078211D01*
X3389707Y-18078212D01*
X3389701Y-18078217D01*
X3278217Y-18189701D01*
X3278212Y-18189707D01*
X3278211Y-18189708D01*
X3190613Y-18320807D01*
X3190603Y-18320824D01*
X3190598Y-18320833D01*
X3130264Y-18466496D01*
X3130257Y-18466527D01*
X3099500Y-18621150D01*
X3099500Y-18622956D01*
X3099175Y-18624449D01*
X3098903Y-18627213D01*
X3098580Y-18627181D01*
X3088293Y-18674469D01*
X3079678Y-18693332D01*
X3067351Y-18720324D01*
X3021594Y-18773126D01*
X2954653Y-18792809D01*
X-870405Y-18795748D01*
X-937459Y-18776115D01*
X-983255Y-18723346D01*
X-994500Y-18671748D01*
X-994500Y-14851359D01*
X-997397Y-14797311D01*
X-997397Y-14797310D01*
X-1000229Y-14770977D01*
X-1000232Y-14770950D01*
X-1008885Y-14717554D01*
X-1008885Y-14717552D01*
X-1059166Y-14582747D01*
X-1092651Y-14521422D01*
X-1178876Y-14406240D01*
X-1178886Y-14406228D01*
X-1806223Y-13778892D01*
X-1806262Y-13778855D01*
X-1846480Y-13742728D01*
X-1846492Y-13742718D01*
X-1867143Y-13726076D01*
X-1911025Y-13694433D01*
X-2041899Y-13634663D01*
X-2108944Y-13614976D01*
X-2203890Y-13601325D01*
X-2251362Y-13594500D01*
X-2251363Y-13594500D01*
X-7648640Y-13594500D01*
X-7702688Y-13597397D01*
X-7702689Y-13597397D01*
X-7729022Y-13600229D01*
X-7729049Y-13600232D01*
X-7782445Y-13608885D01*
X-7782447Y-13608885D01*
X-7914611Y-13658181D01*
X-7917257Y-13659168D01*
X-7958256Y-13681555D01*
X-7978577Y-13692651D01*
X-7978578Y-13692652D01*
X-7978580Y-13692653D01*
X-8093761Y-13778877D01*
X-8093765Y-13778881D01*
X-8093771Y-13778886D01*
X-8531263Y-14216379D01*
X-8671123Y-14356239D01*
X-8671137Y-14356255D01*
X-8671144Y-14356262D01*
X-8707271Y-14396480D01*
X-8707281Y-14396492D01*
X-8707288Y-14396500D01*
X-8723922Y-14417142D01*
X-8755567Y-14461026D01*
X-8815338Y-14591903D01*
X-8835023Y-14658942D01*
X-8835024Y-14658946D01*
X-8855500Y-14801362D01*
X-8855500Y-14801365D01*
X-8855500Y-18677981D01*
X-8875185Y-18745020D01*
X-8927989Y-18790775D01*
X-8979405Y-18801981D01*
X-10020405Y-18802781D01*
X-10087459Y-18783148D01*
X-10133255Y-18730379D01*
X-10144500Y-18678781D01*
X-10144500Y-11801361D01*
X-10147397Y-11747313D01*
X-10147397Y-11747312D01*
X-10150229Y-11720979D01*
X-10150232Y-11720952D01*
X-10158885Y-11667556D01*
X-10158885Y-11667554D01*
X-10209166Y-11532749D01*
X-10242651Y-11471424D01*
X-10328876Y-11356242D01*
X-10328886Y-11356230D01*
X-11206225Y-10478892D01*
X-11206264Y-10478855D01*
X-11246482Y-10442728D01*
X-11246494Y-10442718D01*
X-11267145Y-10426076D01*
X-11311027Y-10394433D01*
X-11441901Y-10334663D01*
X-11508946Y-10314976D01*
X-11603892Y-10301325D01*
X-11651364Y-10294500D01*
X-11651365Y-10294500D01*
X-20212012Y-10294500D01*
X-20279051Y-10274815D01*
X-20299854Y-10258020D01*
X-20355825Y-10201843D01*
X-20389197Y-10140458D01*
X-20391982Y-10113869D01*
X-20388442Y-9147221D01*
X-20391238Y-9092241D01*
X-20394068Y-9065461D01*
X-20394069Y-9065460D01*
X-20394089Y-9065334D01*
X-20402823Y-9011118D01*
X-20410782Y-8989779D01*
X-20453103Y-8876308D01*
X-20453106Y-8876301D01*
X-20485518Y-8816942D01*
X-20486288Y-8815468D01*
X-20486586Y-8814985D01*
X-20572811Y-8699803D01*
X-20572822Y-8699791D01*
X-20949914Y-8322700D01*
X-20990473Y-8286294D01*
X-21011247Y-8269580D01*
X-21011282Y-8269553D01*
X-21055481Y-8237756D01*
X-21055486Y-8237754D01*
X-21186449Y-8178177D01*
X-21251282Y-8159244D01*
X-21252911Y-8158734D01*
X-21253525Y-8158590D01*
X-21395961Y-8138327D01*
X-21395967Y-8138327D01*
X-21395968Y-8138327D01*
X-23605563Y-8141610D01*
X-25499509Y-8144424D01*
X-25499513Y-8144424D01*
X-25553185Y-8147362D01*
X-25579336Y-8150194D01*
X-25579342Y-8150195D01*
X-25579346Y-8150195D01*
X-25579349Y-8150196D01*
X-25588292Y-8151648D01*
X-25632369Y-8158808D01*
X-25767175Y-8209089D01*
X-25767180Y-8209091D01*
X-25808179Y-8231478D01*
X-25828500Y-8242574D01*
X-25828501Y-8242575D01*
X-25828503Y-8242576D01*
X-25935535Y-8322700D01*
X-25947229Y-8331454D01*
X-25947797Y-8330694D01*
X-25974811Y-8347374D01*
X-26079165Y-8390598D01*
X-26079172Y-8390602D01*
X-26079185Y-8390609D01*
X-26079190Y-8390612D01*
X-26079191Y-8390613D01*
X-26210290Y-8478211D01*
X-26210291Y-8478212D01*
X-26210297Y-8478217D01*
X-26321781Y-8589701D01*
X-26321786Y-8589707D01*
X-26321789Y-8589711D01*
X-26409390Y-8720814D01*
X-26409397Y-8720827D01*
X-26414645Y-8733497D01*
X-26459179Y-8841013D01*
X-26473162Y-8866087D01*
X-26505566Y-8911024D01*
X-26505567Y-8911026D01*
X-26565338Y-9041903D01*
X-26585023Y-9108942D01*
X-26585024Y-9108946D01*
X-26605500Y-9251362D01*
X-26605500Y-9251365D01*
X-26605500Y-9965303D01*
X-26625185Y-10032342D01*
X-26677989Y-10078097D01*
X-26747147Y-10088041D01*
X-26770705Y-10082257D01*
X-26966798Y-10013169D01*
X-27301130Y-9931182D01*
X-27641871Y-9882391D01*
X-27985785Y-9867260D01*
X-28329467Y-9885937D01*
X-28329502Y-9885942D01*
X-28669735Y-9938251D01*
X-29003150Y-10023672D01*
X-29003182Y-10023682D01*
X-29095497Y-10057276D01*
X-29095636Y-10057324D01*
X-30258468Y-10480560D01*
X-30679096Y-10633656D01*
X-31020023Y-10757743D01*
X-31027987Y-10760642D01*
X-31047470Y-10767733D01*
X-31050941Y-10768938D01*
X-31054418Y-10770088D01*
X-31057932Y-10771192D01*
X-31326201Y-10851163D01*
X-31333323Y-10853058D01*
X-31340485Y-10854737D01*
X-31347684Y-10856201D01*
X-31618097Y-10902902D01*
X-31625390Y-10903940D01*
X-31632707Y-10904760D01*
X-31640033Y-10905361D01*
X-31914064Y-10919709D01*
X-31921425Y-10919876D01*
X-31928778Y-10919824D01*
X-31936127Y-10919554D01*
X-32209951Y-10901348D01*
X-32217276Y-10900642D01*
X-32224570Y-10899720D01*
X-32231840Y-10898581D01*
X-32501574Y-10848077D01*
X-32508766Y-10846507D01*
X-32511488Y-10845829D01*
X-32515904Y-10844727D01*
X-32522971Y-10842739D01*
X-32784844Y-10760642D01*
X-32791798Y-10758233D01*
X-32793087Y-10757743D01*
X-32798668Y-10755621D01*
X-32805458Y-10752808D01*
X-33055732Y-10640292D01*
X-33062357Y-10637074D01*
X-33068892Y-10633656D01*
X-33075303Y-10630057D01*
X-33310503Y-10488687D01*
X-33316688Y-10484715D01*
X-33322755Y-10480560D01*
X-33328706Y-10476219D01*
X-33545502Y-10307996D01*
X-33551186Y-10303309D01*
X-33556721Y-10298461D01*
X-33562103Y-10293457D01*
X-33757461Y-10100737D01*
X-33762541Y-10095420D01*
X-33767462Y-10089953D01*
X-33772224Y-10084336D01*
X-33943390Y-9869828D01*
X-33947809Y-9863939D01*
X-33952035Y-9857945D01*
X-33956093Y-9851811D01*
X-34100659Y-9618531D01*
X-34104346Y-9612167D01*
X-34107836Y-9605709D01*
X-34111142Y-9599132D01*
X-34227053Y-9350400D01*
X-34229959Y-9343648D01*
X-34232668Y-9336802D01*
X-34235174Y-9329874D01*
X-34322070Y-9065334D01*
X-34323450Y-9060850D01*
X-34324736Y-9056370D01*
X-34325939Y-9051862D01*
X-34597826Y-7949930D01*
X-34598292Y-7947973D01*
X-34598728Y-7946074D01*
X-34599157Y-7944134D01*
X-34604704Y-7918066D01*
X-34606794Y-7904697D01*
X-34608146Y-7891287D01*
X-34608766Y-7877774D01*
X-34602518Y-7156567D01*
X-34602544Y-7121158D01*
X-34602574Y-7078848D01*
X1999499Y-7078848D01*
X2030257Y-7233471D01*
X2030264Y-7233502D01*
X2090598Y-7379165D01*
X2090603Y-7379174D01*
X2090613Y-7379191D01*
X2178211Y-7510290D01*
X2178212Y-7510291D01*
X2178217Y-7510297D01*
X2289701Y-7621781D01*
X2289707Y-7621786D01*
X2289711Y-7621789D01*
X2420814Y-7709390D01*
X2420827Y-7709397D01*
X2566498Y-7769735D01*
X2566503Y-7769737D01*
X2721153Y-7800499D01*
X2721156Y-7800500D01*
X2721158Y-7800500D01*
X2878844Y-7800500D01*
X2878845Y-7800499D01*
X3033497Y-7769737D01*
X3086079Y-7747956D01*
X3120273Y-7739229D01*
X3136466Y-7737487D01*
X3146424Y-7736417D01*
X3207132Y-7745144D01*
X3266503Y-7769737D01*
X3421153Y-7800499D01*
X3421156Y-7800500D01*
X3421158Y-7800500D01*
X3578844Y-7800500D01*
X3578845Y-7800499D01*
X3733497Y-7769737D01*
X3786079Y-7747956D01*
X3820273Y-7739229D01*
X3836466Y-7737487D01*
X3846424Y-7736417D01*
X3907132Y-7745144D01*
X3966503Y-7769737D01*
X4121153Y-7800499D01*
X4121156Y-7800500D01*
X4121158Y-7800500D01*
X4278844Y-7800500D01*
X4278845Y-7800499D01*
X4433497Y-7769737D01*
X4486079Y-7747956D01*
X4520273Y-7739229D01*
X4536466Y-7737487D01*
X4546424Y-7736417D01*
X4607132Y-7745144D01*
X4666503Y-7769737D01*
X4821153Y-7800499D01*
X4821156Y-7800500D01*
X4821158Y-7800500D01*
X4978844Y-7800500D01*
X4978845Y-7800499D01*
X5133497Y-7769737D01*
X5186079Y-7747956D01*
X5220273Y-7739229D01*
X5236466Y-7737487D01*
X5246424Y-7736417D01*
X5307132Y-7745144D01*
X5366503Y-7769737D01*
X5521153Y-7800499D01*
X5521156Y-7800500D01*
X5521158Y-7800500D01*
X5678844Y-7800500D01*
X5678845Y-7800499D01*
X5833497Y-7769737D01*
X5979179Y-7709394D01*
X6110289Y-7621789D01*
X6221789Y-7510289D01*
X6309394Y-7379179D01*
X6369737Y-7233497D01*
X6400500Y-7078842D01*
X6400500Y-6921158D01*
X6400500Y-6921155D01*
X6400499Y-6921153D01*
X6369737Y-6766503D01*
X6344650Y-6705939D01*
X6342483Y-6697575D01*
X6342628Y-6693043D01*
X6339228Y-6679721D01*
X6336417Y-6653568D01*
X6345145Y-6592864D01*
X6369737Y-6533497D01*
X6400500Y-6378842D01*
X6400500Y-6221158D01*
X6400500Y-6221155D01*
X6400499Y-6221153D01*
X6369737Y-6066503D01*
X6344650Y-6005939D01*
X6342483Y-5997575D01*
X6342628Y-5993043D01*
X6339229Y-5979726D01*
X6336417Y-5953574D01*
X6345145Y-5892864D01*
X6369737Y-5833497D01*
X6400500Y-5678842D01*
X6400500Y-5521158D01*
X6400500Y-5521155D01*
X6400500Y-5520973D01*
X6400065Y-5518972D01*
X6374353Y-5389711D01*
X6374352Y-5389708D01*
X6374351Y-5389701D01*
X6369737Y-5366503D01*
X6359822Y-5342567D01*
X6347857Y-5313679D01*
X6309402Y-5220840D01*
X6309399Y-5220833D01*
X6309397Y-5220827D01*
X6309390Y-5220814D01*
X6221789Y-5089711D01*
X6221786Y-5089707D01*
X6221781Y-5089701D01*
X6110297Y-4978217D01*
X6110291Y-4978212D01*
X6110290Y-4978211D01*
X5979191Y-4890613D01*
X5979190Y-4890612D01*
X5979185Y-4890609D01*
X5979172Y-4890602D01*
X5979165Y-4890598D01*
X5833502Y-4830264D01*
X5833471Y-4830257D01*
X5678847Y-4799500D01*
X5678845Y-4799500D01*
X5678842Y-4799500D01*
X5521158Y-4799500D01*
X5521155Y-4799500D01*
X5521150Y-4799500D01*
X5382464Y-4827086D01*
X5382452Y-4827089D01*
X5366511Y-4830260D01*
X5366506Y-4830262D01*
X5366504Y-4830262D01*
X5366503Y-4830263D01*
X5358992Y-4833373D01*
X5358988Y-4833375D01*
X5313919Y-4852042D01*
X5279722Y-4860770D01*
X5253571Y-4863581D01*
X5192869Y-4854853D01*
X5133498Y-4830262D01*
X5133488Y-4830259D01*
X4978849Y-4799500D01*
X4978845Y-4799500D01*
X4978842Y-4799500D01*
X4821158Y-4799500D01*
X4821155Y-4799500D01*
X4821150Y-4799500D01*
X4682464Y-4827086D01*
X4682452Y-4827089D01*
X4666511Y-4830260D01*
X4666506Y-4830262D01*
X4666504Y-4830262D01*
X4666503Y-4830263D01*
X4658992Y-4833373D01*
X4658988Y-4833375D01*
X4613919Y-4852042D01*
X4579722Y-4860770D01*
X4553571Y-4863581D01*
X4492869Y-4854853D01*
X4433498Y-4830262D01*
X4433488Y-4830259D01*
X4278849Y-4799500D01*
X4278845Y-4799500D01*
X4278842Y-4799500D01*
X4121158Y-4799500D01*
X4121155Y-4799500D01*
X4121150Y-4799500D01*
X3982464Y-4827086D01*
X3982452Y-4827089D01*
X3966511Y-4830260D01*
X3966506Y-4830262D01*
X3966504Y-4830262D01*
X3966503Y-4830263D01*
X3958992Y-4833373D01*
X3958988Y-4833375D01*
X3913919Y-4852042D01*
X3879722Y-4860770D01*
X3853571Y-4863581D01*
X3792869Y-4854853D01*
X3733498Y-4830262D01*
X3733488Y-4830259D01*
X3578849Y-4799500D01*
X3578845Y-4799500D01*
X3578842Y-4799500D01*
X3421158Y-4799500D01*
X3421155Y-4799500D01*
X3421150Y-4799500D01*
X3282464Y-4827086D01*
X3282452Y-4827089D01*
X3266511Y-4830260D01*
X3266506Y-4830262D01*
X3266504Y-4830262D01*
X3266503Y-4830263D01*
X3258992Y-4833373D01*
X3258988Y-4833375D01*
X3213919Y-4852042D01*
X3179722Y-4860770D01*
X3153571Y-4863581D01*
X3092869Y-4854853D01*
X3033498Y-4830262D01*
X3033488Y-4830259D01*
X2878849Y-4799500D01*
X2878845Y-4799500D01*
X2878842Y-4799500D01*
X2721158Y-4799500D01*
X2721155Y-4799500D01*
X2721153Y-4799500D01*
X2566527Y-4830257D01*
X2566496Y-4830264D01*
X2420833Y-4890598D01*
X2420824Y-4890603D01*
X2420807Y-4890613D01*
X2289708Y-4978211D01*
X2289707Y-4978212D01*
X2289701Y-4978217D01*
X2178217Y-5089701D01*
X2178212Y-5089707D01*
X2178211Y-5089708D01*
X2090613Y-5220807D01*
X2090603Y-5220824D01*
X2090598Y-5220833D01*
X2030264Y-5366496D01*
X2030257Y-5366527D01*
X1999500Y-5521150D01*
X1999500Y-5678850D01*
X2030259Y-5833487D01*
X2030262Y-5833496D01*
X2030263Y-5833497D01*
X2035732Y-5846701D01*
X2052042Y-5886078D01*
X2060770Y-5920277D01*
X2063581Y-5946429D01*
X2054854Y-6007130D01*
X2030260Y-6066509D01*
X2030258Y-6066516D01*
X1999500Y-6221148D01*
X1999500Y-6378850D01*
X2030259Y-6533490D01*
X2030261Y-6533493D01*
X2052041Y-6586076D01*
X2060770Y-6620276D01*
X2063581Y-6646429D01*
X2054854Y-6707130D01*
X2030260Y-6766509D01*
X2030258Y-6766516D01*
X1999500Y-6921148D01*
X1999500Y-6921153D01*
X1999500Y-7078846D01*
X1999500Y-7078848D01*
X1999499Y-7078848D01*
X-34602574Y-7078848D01*
X-34603701Y-5515155D01*
X-34603846Y-5313679D01*
X-34605224Y-3401165D01*
X-34600226Y-3366227D01*
X-34592834Y-3340985D01*
X-34561576Y-3288216D01*
X-34556871Y-3283505D01*
X-33901861Y-2627549D01*
X-33473926Y-2198996D01*
X-33445688Y-2177826D01*
X-33422622Y-2165209D01*
X-33363119Y-2150000D01*
X-28880000Y-2150000D01*
X-27601155Y-871155D01*
X-10825500Y-871155D01*
X-10825500Y-871158D01*
X-10825500Y-1028842D01*
X-10794737Y-1183497D01*
X-10794734Y-1183502D01*
X-10794734Y-1183505D01*
X-10772958Y-1236076D01*
X-10764229Y-1270273D01*
X-10761417Y-1296424D01*
X-10770146Y-1357135D01*
X-10794735Y-1416496D01*
X-10794738Y-1416506D01*
X-10796126Y-1423486D01*
X-10796128Y-1423496D01*
X-10825065Y-1568971D01*
X-10825500Y-1570973D01*
X-10825500Y-1571155D01*
X-10825500Y-1571158D01*
X-10825500Y-1728842D01*
X-10794737Y-1883497D01*
X-10794734Y-1883502D01*
X-10794734Y-1883505D01*
X-10772958Y-1936076D01*
X-10764229Y-1970273D01*
X-10761417Y-1996424D01*
X-10770144Y-2057132D01*
X-10794737Y-2116503D01*
X-10811146Y-2198997D01*
X-10819208Y-2239526D01*
X-10825064Y-2268966D01*
X-10825500Y-2270971D01*
X-10825500Y-2271155D01*
X-10825500Y-2271158D01*
X-10825500Y-2428842D01*
X-10794737Y-2583497D01*
X-10794734Y-2583502D01*
X-10794734Y-2583505D01*
X-10772958Y-2636076D01*
X-10764229Y-2670273D01*
X-10761417Y-2696424D01*
X-10770144Y-2757132D01*
X-10794737Y-2816503D01*
X-10803293Y-2859517D01*
X-10825064Y-2968966D01*
X-10825500Y-2970971D01*
X-10825500Y-2971155D01*
X-10825500Y-2971158D01*
X-10825500Y-3128842D01*
X-10794737Y-3283497D01*
X-10794734Y-3283502D01*
X-10794734Y-3283505D01*
X-10772958Y-3336076D01*
X-10764229Y-3370273D01*
X-10761417Y-3396424D01*
X-10770144Y-3457132D01*
X-10794737Y-3516503D01*
X-10805305Y-3569632D01*
X-10812639Y-3606501D01*
X-10825064Y-3668966D01*
X-10825500Y-3670971D01*
X-10825500Y-3671155D01*
X-10825500Y-3671158D01*
X-10825500Y-3828842D01*
X-10794737Y-3983497D01*
X-10734394Y-4129179D01*
X-10646789Y-4260289D01*
X-10535289Y-4371789D01*
X-10404179Y-4459394D01*
X-10258497Y-4519737D01*
X-10103845Y-4550499D01*
X-10103844Y-4550500D01*
X-10103842Y-4550500D01*
X-9946156Y-4550500D01*
X-9946153Y-4550499D01*
X-9940578Y-4549390D01*
X-9791503Y-4519737D01*
X-9708742Y-4485456D01*
X-9674548Y-4476729D01*
X-9648394Y-4473917D01*
X-9587681Y-4482647D01*
X-9558497Y-4494737D01*
X-9415814Y-4523118D01*
X-9407964Y-4525500D01*
X-9246156Y-4525500D01*
X-9246155Y-4525500D01*
X-9241252Y-4524704D01*
X-9238529Y-4523982D01*
X-9217176Y-4519735D01*
X-9091503Y-4494737D01*
X-9041240Y-4473917D01*
X-9026421Y-4467779D01*
X-8992225Y-4459051D01*
X-8969228Y-4456578D01*
X-8966073Y-4456239D01*
X-8905365Y-4464967D01*
X-8833497Y-4494737D01*
X-8678845Y-4525499D01*
X-8678844Y-4525500D01*
X-8678842Y-4525500D01*
X-8521156Y-4525500D01*
X-8521153Y-4525499D01*
X-8492176Y-4519735D01*
X-8366503Y-4494737D01*
X-8311101Y-4471789D01*
X-8220827Y-4434397D01*
X-8220814Y-4434390D01*
X-8089711Y-4346789D01*
X-8089707Y-4346786D01*
X-8089701Y-4346781D01*
X-7978217Y-4235297D01*
X-7978212Y-4235291D01*
X-7978211Y-4235290D01*
X-7890613Y-4104191D01*
X-7890603Y-4104174D01*
X-7890598Y-4104165D01*
X-7830264Y-3958502D01*
X-7830257Y-3958471D01*
X-7824365Y-3928848D01*
X8374499Y-3928848D01*
X8405257Y-4083471D01*
X8405264Y-4083502D01*
X8465598Y-4229165D01*
X8465603Y-4229174D01*
X8465613Y-4229191D01*
X8553211Y-4360290D01*
X8553212Y-4360291D01*
X8553217Y-4360297D01*
X8664701Y-4471781D01*
X8664707Y-4471786D01*
X8664711Y-4471789D01*
X8795814Y-4559390D01*
X8795827Y-4559397D01*
X8917363Y-4609738D01*
X8941503Y-4619737D01*
X8941505Y-4619737D01*
X8941510Y-4619739D01*
X9022146Y-4635778D01*
X9096153Y-4650499D01*
X9096156Y-4650500D01*
X9096158Y-4650500D01*
X9253844Y-4650500D01*
X9253845Y-4650499D01*
X9408497Y-4619737D01*
X9490652Y-4585706D01*
X9524844Y-4576980D01*
X9538698Y-4575490D01*
X9550996Y-4574168D01*
X9611701Y-4582895D01*
X9676503Y-4609737D01*
X9831153Y-4640499D01*
X9831156Y-4640500D01*
X9831158Y-4640500D01*
X9988844Y-4640500D01*
X9988845Y-4640499D01*
X10143497Y-4609737D01*
X10196079Y-4587956D01*
X10230273Y-4579229D01*
X10246466Y-4577487D01*
X10256424Y-4576417D01*
X10317132Y-4585144D01*
X10376503Y-4609737D01*
X10531153Y-4640499D01*
X10531156Y-4640500D01*
X10531158Y-4640500D01*
X10688844Y-4640500D01*
X10688845Y-4640499D01*
X10843497Y-4609737D01*
X10960001Y-4561480D01*
X10989172Y-4549397D01*
X10989172Y-4549396D01*
X10989179Y-4549394D01*
X10989185Y-4549389D01*
X10991539Y-4548415D01*
X10991539Y-4548414D01*
X11000792Y-4544582D01*
X11009677Y-4535698D01*
X11089071Y-4482648D01*
X11120289Y-4461789D01*
X11231789Y-4350289D01*
X11319394Y-4219179D01*
X11379737Y-4073497D01*
X11410500Y-3918842D01*
X11410500Y-3761158D01*
X11410500Y-3761155D01*
X11410499Y-3761153D01*
X11379739Y-3606511D01*
X11379736Y-3606501D01*
X11351826Y-3539119D01*
X11349691Y-3531026D01*
X11349817Y-3526437D01*
X11346300Y-3512655D01*
X11345899Y-3508922D01*
X11343488Y-3486502D01*
X11352216Y-3425795D01*
X11369737Y-3383497D01*
X11400500Y-3228842D01*
X11400500Y-3071158D01*
X11400500Y-3071155D01*
X11400499Y-3071153D01*
X11399013Y-3063681D01*
X11369737Y-2916503D01*
X11354576Y-2879903D01*
X11352298Y-2870414D01*
X11352509Y-2866189D01*
X11349584Y-2854732D01*
X11346771Y-2828569D01*
X11355500Y-2767867D01*
X11359946Y-2757134D01*
X11368062Y-2737540D01*
X11369604Y-2734162D01*
X11369735Y-2733499D01*
X11369737Y-2733497D01*
X11390812Y-2627549D01*
X11400500Y-2578844D01*
X11400500Y-2421080D01*
X11400362Y-2420464D01*
X11397056Y-2403842D01*
X11369737Y-2266503D01*
X11361284Y-2246097D01*
X11358944Y-2235655D01*
X11359197Y-2231762D01*
X11356655Y-2221804D01*
X11353842Y-2195641D01*
X11362571Y-2134940D01*
X11370205Y-2116510D01*
X11379737Y-2093497D01*
X11380133Y-2091509D01*
X11410499Y-1938846D01*
X11410500Y-1938844D01*
X11410500Y-1780971D01*
X11410064Y-1778966D01*
X11400094Y-1728844D01*
X11395122Y-1703850D01*
X11379737Y-1626503D01*
X11372829Y-1609825D01*
X11359170Y-1576849D01*
X11350442Y-1542655D01*
X11347630Y-1516505D01*
X11356358Y-1455794D01*
X11369737Y-1423497D01*
X11369738Y-1423490D01*
X11369740Y-1423486D01*
X11400499Y-1268846D01*
X11400500Y-1268844D01*
X11400500Y-1110971D01*
X11400064Y-1108966D01*
X11392261Y-1069737D01*
X11375796Y-986964D01*
X11369737Y-956503D01*
X11337569Y-878842D01*
X11309397Y-810827D01*
X11309390Y-810814D01*
X11221789Y-679711D01*
X11221786Y-679707D01*
X11221781Y-679701D01*
X11110297Y-568217D01*
X11110291Y-568212D01*
X11110290Y-568211D01*
X10979191Y-480613D01*
X10979190Y-480612D01*
X10979185Y-480609D01*
X10979172Y-480602D01*
X10979165Y-480598D01*
X10833502Y-420264D01*
X10833471Y-420257D01*
X10678847Y-389500D01*
X10678845Y-389500D01*
X10678842Y-389500D01*
X10521158Y-389500D01*
X10521155Y-389500D01*
X10521150Y-389500D01*
X10387323Y-416119D01*
X10387314Y-416121D01*
X10366511Y-420260D01*
X10366506Y-420262D01*
X10366504Y-420262D01*
X10366503Y-420263D01*
X10311016Y-443245D01*
X10308002Y-444317D01*
X10304160Y-444532D01*
X10279722Y-450770D01*
X10253571Y-453581D01*
X10192869Y-444853D01*
X10133498Y-420262D01*
X10133488Y-420259D01*
X9978849Y-389500D01*
X9978845Y-389500D01*
X9978842Y-389500D01*
X9821158Y-389500D01*
X9821155Y-389500D01*
X9821150Y-389500D01*
X9685677Y-416447D01*
X9685671Y-416448D01*
X9666511Y-420260D01*
X9666506Y-420262D01*
X9666504Y-420262D01*
X9666503Y-420263D01*
X9639248Y-431551D01*
X9639239Y-431555D01*
X9626061Y-437014D01*
X9619529Y-439719D01*
X9585333Y-448447D01*
X9559178Y-451259D01*
X9498471Y-442531D01*
X9408498Y-405263D01*
X9408471Y-405257D01*
X9253847Y-374500D01*
X9253845Y-374500D01*
X9253842Y-374500D01*
X9096158Y-374500D01*
X9096155Y-374500D01*
X9096153Y-374500D01*
X8941527Y-405257D01*
X8941496Y-405264D01*
X8795833Y-465598D01*
X8795824Y-465603D01*
X8795807Y-465613D01*
X8664708Y-553211D01*
X8664707Y-553212D01*
X8664701Y-553217D01*
X8553217Y-664701D01*
X8553215Y-664704D01*
X8553213Y-664707D01*
X8553210Y-664711D01*
X8543194Y-679701D01*
X8465613Y-795807D01*
X8465603Y-795824D01*
X8465598Y-795833D01*
X8405264Y-941496D01*
X8405257Y-941527D01*
X8374500Y-1096150D01*
X8374500Y-1253849D01*
X8405258Y-1408481D01*
X8405260Y-1408488D01*
X8405263Y-1408498D01*
X8405266Y-1408505D01*
X8421865Y-1448580D01*
X8430592Y-1482773D01*
X8433404Y-1508922D01*
X8424677Y-1569632D01*
X8405263Y-1616501D01*
X8405261Y-1616506D01*
X8405258Y-1616517D01*
X8374500Y-1771149D01*
X8374500Y-1928850D01*
X8405259Y-2083486D01*
X8405260Y-2083488D01*
X8405262Y-2083493D01*
X8405263Y-2083497D01*
X8409405Y-2093497D01*
X8416687Y-2111077D01*
X8425414Y-2145272D01*
X8428226Y-2171426D01*
X8419499Y-2232133D01*
X8405260Y-2266510D01*
X8405258Y-2266516D01*
X8374500Y-2421148D01*
X8374500Y-2578849D01*
X8405258Y-2733481D01*
X8405261Y-2733492D01*
X8405266Y-2733505D01*
X8421865Y-2773580D01*
X8430592Y-2807773D01*
X8433404Y-2833922D01*
X8424677Y-2894632D01*
X8405263Y-2941501D01*
X8405261Y-2941506D01*
X8405258Y-2941517D01*
X8374500Y-3096149D01*
X8374500Y-3253849D01*
X8405258Y-3408481D01*
X8405261Y-3408492D01*
X8405266Y-3408505D01*
X8421865Y-3448580D01*
X8430592Y-3482773D01*
X8433404Y-3508922D01*
X8424677Y-3569632D01*
X8405263Y-3616501D01*
X8405261Y-3616506D01*
X8405258Y-3616517D01*
X8374500Y-3771149D01*
X8374500Y-3771153D01*
X8374500Y-3928846D01*
X8374500Y-3928848D01*
X8374499Y-3928848D01*
X-7824365Y-3928848D01*
X-7799500Y-3803848D01*
X-7799500Y-3646148D01*
X-7830258Y-3491516D01*
X-7830260Y-3491509D01*
X-7830274Y-3491473D01*
X-7841220Y-3465051D01*
X-7841223Y-3465044D01*
X-7842935Y-3460911D01*
X-7852043Y-3438919D01*
X-7860769Y-3404727D01*
X-7863581Y-3378573D01*
X-7854853Y-3317865D01*
X-7830264Y-3258502D01*
X-7830258Y-3258485D01*
X-7799500Y-3103850D01*
X-7799500Y-2946148D01*
X-7830258Y-2791516D01*
X-7830260Y-2791509D01*
X-7830282Y-2791454D01*
X-7848507Y-2747456D01*
X-7848511Y-2747446D01*
X-7852045Y-2738912D01*
X-7860769Y-2704725D01*
X-7863581Y-2678570D01*
X-7854853Y-2617862D01*
X-7840618Y-2583497D01*
X-7830263Y-2558497D01*
X-7830262Y-2558496D01*
X-7830259Y-2558487D01*
X-7799500Y-2403850D01*
X-7799500Y-2246148D01*
X-7830258Y-2091516D01*
X-7830260Y-2091509D01*
X-7830282Y-2091454D01*
X-7852041Y-2038924D01*
X-7860770Y-2004726D01*
X-7863582Y-1978569D01*
X-7854853Y-1917862D01*
X-7840618Y-1883497D01*
X-7830263Y-1858497D01*
X-7830262Y-1858496D01*
X-7830259Y-1858487D01*
X-7799500Y-1703850D01*
X-7799500Y-1546148D01*
X-7830258Y-1391516D01*
X-7830260Y-1391509D01*
X-7830282Y-1391454D01*
X-7852041Y-1338924D01*
X-7860770Y-1304726D01*
X-7863582Y-1278569D01*
X-7854853Y-1217862D01*
X-7840618Y-1183497D01*
X-7830263Y-1158497D01*
X-7830262Y-1158496D01*
X-7830259Y-1158487D01*
X-7799500Y-1003850D01*
X-7799500Y-846150D01*
X-7799499Y-846150D01*
X-7830257Y-691527D01*
X-7830264Y-691496D01*
X-7890598Y-545833D01*
X-7890603Y-545824D01*
X-7890613Y-545807D01*
X-7978211Y-414708D01*
X-7978212Y-414707D01*
X-7978217Y-414701D01*
X-8089701Y-303217D01*
X-8089707Y-303212D01*
X-8089708Y-303211D01*
X-8220807Y-215613D01*
X-8220824Y-215603D01*
X-8220833Y-215598D01*
X-8366496Y-155264D01*
X-8366527Y-155257D01*
X-8521153Y-124500D01*
X-8521155Y-124500D01*
X-8521158Y-124500D01*
X-8678842Y-124500D01*
X-8678845Y-124500D01*
X-8678849Y-124500D01*
X-8833481Y-155258D01*
X-8833488Y-155260D01*
X-8833498Y-155263D01*
X-8833500Y-155264D01*
X-8898579Y-182220D01*
X-8932773Y-190947D01*
X-8958924Y-193759D01*
X-9019633Y-185031D01*
X-9091484Y-155269D01*
X-9091506Y-155261D01*
X-9091517Y-155258D01*
X-9246150Y-124500D01*
X-9246155Y-124500D01*
X-9246158Y-124500D01*
X-9403842Y-124500D01*
X-9403845Y-124500D01*
X-9403847Y-124500D01*
X-9558471Y-155257D01*
X-9558481Y-155259D01*
X-9558489Y-155261D01*
X-9558501Y-155264D01*
X-9641255Y-189541D01*
X-9675449Y-198268D01*
X-9701603Y-201080D01*
X-9762309Y-192353D01*
X-9791493Y-180265D01*
X-9791505Y-180261D01*
X-9791525Y-180257D01*
X-9946155Y-149500D01*
X-9946157Y-149500D01*
X-10103847Y-149500D01*
X-10258471Y-180257D01*
X-10258502Y-180264D01*
X-10404165Y-240598D01*
X-10404172Y-240602D01*
X-10404185Y-240609D01*
X-10404190Y-240612D01*
X-10404191Y-240613D01*
X-10535290Y-328211D01*
X-10535291Y-328212D01*
X-10535297Y-328217D01*
X-10646781Y-439701D01*
X-10646786Y-439707D01*
X-10646789Y-439711D01*
X-10734390Y-570814D01*
X-10734395Y-570824D01*
X-10734400Y-570833D01*
X-10779498Y-679711D01*
X-10784380Y-691498D01*
X-10794737Y-716503D01*
X-10813392Y-810288D01*
X-10825499Y-871153D01*
X-10825500Y-871155D01*
X-27601155Y-871155D01*
X-27350000Y-620000D01*
X-27350000Y478844D01*
X-1200500Y478844D01*
X-1200500Y321155D01*
X-1200499Y321153D01*
X-1200296Y320136D01*
X-1200298Y320045D01*
X-1200064Y318966D01*
X-1169739Y166511D01*
X-1169737Y166507D01*
X-1169737Y166503D01*
X-1167736Y161673D01*
X-1147957Y113922D01*
X-1139229Y79726D01*
X-1136417Y53574D01*
X-1145145Y-7134D01*
X-1169737Y-66503D01*
X-1186246Y-149500D01*
X-1187393Y-155264D01*
X-1200064Y-218966D01*
X-1200500Y-220971D01*
X-1200500Y-221155D01*
X-1200500Y-221158D01*
X-1200500Y-378842D01*
X-1169737Y-533497D01*
X-1123067Y-646166D01*
X-1115391Y-664701D01*
X-1115390Y-664704D01*
X-1109395Y-679176D01*
X-1109393Y-679181D01*
X-1084456Y-716502D01*
X-1021789Y-810289D01*
X-910289Y-921789D01*
X-779179Y-1009394D01*
X-633497Y-1069737D01*
X-478845Y-1100499D01*
X-478844Y-1100500D01*
X-478842Y-1100500D01*
X-321156Y-1100500D01*
X-321153Y-1100499D01*
X-166503Y-1069737D01*
X-113922Y-1047957D01*
X-79726Y-1039229D01*
X-57397Y-1036828D01*
X-53573Y-1036417D01*
X7135Y-1045145D01*
X66503Y-1069737D01*
X221153Y-1100499D01*
X221156Y-1100500D01*
X221158Y-1100500D01*
X378844Y-1100500D01*
X378845Y-1100499D01*
X533497Y-1069737D01*
X679179Y-1009394D01*
X687488Y-1003842D01*
X706291Y-991278D01*
X712754Y-986961D01*
X712865Y-986887D01*
X731596Y-974370D01*
X780792Y-941498D01*
X810289Y-921789D01*
X921789Y-810289D01*
X984456Y-716502D01*
X1009393Y-679181D01*
X1009395Y-679176D01*
X1015390Y-664704D01*
X1015391Y-664701D01*
X1023063Y-646174D01*
X1023069Y-646167D01*
X1023067Y-646167D01*
X1036736Y-613166D01*
X1069737Y-533497D01*
X1100500Y-378842D01*
X1100500Y-221158D01*
X1100500Y-221155D01*
X1100499Y-221153D01*
X1087393Y-155264D01*
X1069737Y-66503D01*
X1044650Y-5940D01*
X1042483Y2424D01*
X1042628Y6956D01*
X1039229Y20273D01*
X1036417Y46424D01*
X1045145Y107134D01*
X1067736Y161673D01*
X1069737Y166503D01*
X1100499Y321153D01*
X1100500Y321155D01*
X1100500Y478844D01*
X1100499Y478846D01*
X1069737Y633497D01*
X1009394Y779179D01*
X921789Y910289D01*
X810289Y1021789D01*
X679179Y1109394D01*
X533497Y1169737D01*
X489638Y1178460D01*
X456523Y1185048D01*
X456520Y1185048D01*
X378845Y1200500D01*
X221153Y1200500D01*
X178270Y1191969D01*
X127858Y1181941D01*
X66503Y1169737D01*
X8072Y1145533D01*
X2006Y1143719D01*
X-2775Y1143694D01*
X-20273Y1139229D01*
X-36466Y1137487D01*
X-46424Y1136417D01*
X-107132Y1145144D01*
X-166503Y1169737D01*
X-227858Y1181941D01*
X-243477Y1185048D01*
X-321153Y1200500D01*
X-321155Y1200500D01*
X-321158Y1200500D01*
X-478842Y1200500D01*
X-478845Y1200500D01*
X-556520Y1185048D01*
X-633497Y1169737D01*
X-779179Y1109394D01*
X-910289Y1021789D01*
X-1021789Y910289D01*
X-1109394Y779179D01*
X-1169737Y633497D01*
X-1200499Y478846D01*
X-1200500Y478844D01*
X-27350000Y478844D01*
X-27350000Y3072996D01*
X-27344976Y3107933D01*
X-27337564Y3133174D01*
X-27306269Y3185918D01*
X-26141114Y4351073D01*
X-26112863Y4372222D01*
X-26089775Y4384830D01*
X-26030345Y4400000D01*
X24750035Y4400000D01*
X24784474Y4395121D01*
G37*
%TD.AperFunction*%
%TD*%
%TA.AperFunction,Conductor*%
%TO.N,/CAN-*%
G36*
X-32009669Y5580497D02*
G01*
X-32002014Y5577086D01*
X-31873475Y5448547D01*
X-31870940Y5444753D01*
X-31869717Y5441803D01*
X-31869404Y5433700D01*
X-32199440Y4422479D01*
X-32266538Y4216893D01*
X-32268770Y4212917D01*
X-32269982Y4211502D01*
X-32277835Y4207459D01*
X-32279520Y4207310D01*
X-32283927Y4207765D01*
X-32992474Y4421805D01*
X-32996502Y4423952D01*
X-32999194Y4426156D01*
X-33002982Y4431826D01*
X-33217294Y5141271D01*
X-33217736Y5145818D01*
X-33217543Y5147748D01*
X-33213526Y5155458D01*
X-33212332Y5156484D01*
X-33208609Y5158640D01*
X-32017327Y5580009D01*
X-32012807Y5580663D01*
X-32009669Y5580497D01*
G37*
%TD.AperFunction*%
%TD*%
%TA.AperFunction,Conductor*%
%TO.N,/CAN-*%
G36*
X17904511Y14949115D02*
G01*
X18167021Y14839432D01*
X18173333Y14833080D01*
X18173566Y14824807D01*
X18012726Y14360438D01*
X18006780Y14353742D01*
X18001670Y14352567D01*
X17818011Y14352567D01*
X17809738Y14355994D01*
X17807103Y14360037D01*
X17626958Y14824565D01*
X17627161Y14833516D01*
X17633355Y14839590D01*
X17895489Y14949115D01*
X17904444Y14949142D01*
X17904511Y14949115D01*
G37*
%TD.AperFunction*%
%TD*%
%TA.AperFunction,Conductor*%
%TO.N,/CAN+*%
G36*
X18606627Y15348230D02*
G01*
X18864686Y15240407D01*
X18868472Y15237860D01*
X18869832Y15236492D01*
X18873233Y15228464D01*
X18873263Y15226875D01*
X18872548Y15222622D01*
X18703617Y14762420D01*
X18701238Y14758523D01*
X18699240Y14756355D01*
X18693158Y14752859D01*
X18693079Y14752841D01*
X18690559Y14752567D01*
X18510495Y14752567D01*
X18506022Y14753455D01*
X18503294Y14754585D01*
X18497909Y14759100D01*
X18497858Y14759180D01*
X18496748Y14761423D01*
X18327495Y15222500D01*
X18326789Y15227009D01*
X18326868Y15228939D01*
X18330438Y15236883D01*
X18331010Y15237434D01*
X18331580Y15237984D01*
X18335188Y15240356D01*
X18593342Y15348218D01*
X18597820Y15349122D01*
X18602083Y15349134D01*
X18606627Y15348230D01*
G37*
%TD.AperFunction*%
%TD*%
%TA.AperFunction,Conductor*%
%TO.N,/CAN+*%
G36*
X-30156030Y5693432D02*
G01*
X-30024929Y5562331D01*
X-30021502Y5554058D01*
X-30021692Y5551956D01*
X-30239732Y4360888D01*
X-30244592Y4353370D01*
X-30252373Y4351353D01*
X-30994467Y4423683D01*
X-31002368Y4427896D01*
X-31003656Y4429826D01*
X-31353570Y5086452D01*
X-31354437Y5095364D01*
X-31348747Y5102279D01*
X-31348504Y5102406D01*
X-30169562Y5695611D01*
X-30160631Y5696268D01*
X-30156030Y5693432D01*
G37*
%TD.AperFunction*%
%TD*%
M02*
