%TF.GenerationSoftware,KiCad,Pcbnew,10.0.0*%
%TF.CreationDate,2026-07-03T14:39:15-04:00*%
%TF.ProjectId,DashMotor48V,44617368-4d6f-4746-9f72-3438562e6b69,rev?*%
%TF.SameCoordinates,Original*%
%TF.FileFunction,Copper,L4,Inr*%
%TF.FilePolarity,Positive*%
%FSLAX46Y46*%
G04 Gerber Fmt 4.6, Leading zero omitted, Abs format (unit mm)*
G04 Created by KiCad (PCBNEW 10.0.0) date 2026-07-03 14:39:15*
%MOMM*%
%LPD*%
G01*
G04 APERTURE LIST*
G04 Aperture macros list*
%AMRoundRect*
0 Rectangle with rounded corners*
0 $1 Rounding radius*
0 $2 $3 $4 $5 $6 $7 $8 $9 X,Y pos of 4 corners*
0 Add a 4 corners polygon primitive as box body*
4,1,4,$2,$3,$4,$5,$6,$7,$8,$9,$2,$3,0*
0 Add four circle primitives for the rounded corners*
1,1,$1+$1,$2,$3*
1,1,$1+$1,$4,$5*
1,1,$1+$1,$6,$7*
1,1,$1+$1,$8,$9*
0 Add four rect primitives between the rounded corners*
20,1,$1+$1,$2,$3,$4,$5,0*
20,1,$1+$1,$4,$5,$6,$7,0*
20,1,$1+$1,$6,$7,$8,$9,0*
20,1,$1+$1,$8,$9,$2,$3,0*%
G04 Aperture macros list end*
%TA.AperFunction,ComponentPad*%
%ADD10R,1.700000X1.700000*%
%TD*%
%TA.AperFunction,ComponentPad*%
%ADD11C,1.700000*%
%TD*%
%TA.AperFunction,ComponentPad*%
%ADD12C,4.400000*%
%TD*%
%TA.AperFunction,ComponentPad*%
%ADD13C,0.550000*%
%TD*%
%TA.AperFunction,ComponentPad*%
%ADD14C,2.000000*%
%TD*%
%TA.AperFunction,ComponentPad*%
%ADD15RoundRect,0.325000X-2.925000X-2.925000X2.925000X-2.925000X2.925000X2.925000X-2.925000X2.925000X0*%
%TD*%
%TA.AperFunction,ComponentPad*%
%ADD16C,1.524000*%
%TD*%
%TA.AperFunction,ComponentPad*%
%ADD17C,2.700000*%
%TD*%
%TA.AperFunction,ComponentPad*%
%ADD18C,0.499999*%
%TD*%
%TA.AperFunction,ComponentPad*%
%ADD19C,0.300000*%
%TD*%
%TA.AperFunction,ViaPad*%
%ADD20C,0.600000*%
%TD*%
%TA.AperFunction,Conductor*%
%ADD21C,0.400000*%
%TD*%
%TA.AperFunction,Conductor*%
%ADD22C,0.200000*%
%TD*%
G04 APERTURE END LIST*
D10*
%TO.N,/VMOT_TEMP*%
%TO.C,J3*%
X-20550000Y19115000D03*
D11*
%TO.N,+3.3V*%
X-20550000Y16575000D03*
%TD*%
D12*
%TO.N,N/C*%
%TO.C,H7*%
X-23000000Y-23500000D03*
%TD*%
D13*
%TO.N,/PHASC*%
%TO.C,H3*%
X11550000Y-21050000D03*
X11550000Y-22980000D03*
X11550000Y-23490000D03*
X11550000Y-24000000D03*
X11550000Y-24510000D03*
X11550000Y-25020000D03*
X11550000Y-26950000D03*
X12000000Y-23235000D03*
X12000000Y-23745000D03*
X12000000Y-24255000D03*
X12000000Y-24765000D03*
D14*
X12350000Y-21850000D03*
X12350000Y-26150000D03*
D13*
X12450000Y-22980000D03*
X12450000Y-23490000D03*
X12450000Y-24000000D03*
X12450000Y-24510000D03*
X12450000Y-25020000D03*
X13480000Y-21050000D03*
X13480000Y-21950000D03*
X13480000Y-26050000D03*
X13480000Y-26950000D03*
X13735000Y-21500000D03*
X13735000Y-26500000D03*
X13990000Y-21050000D03*
X13990000Y-21950000D03*
X13990000Y-26050000D03*
X13990000Y-26950000D03*
X14245000Y-21500000D03*
X14245000Y-26500000D03*
X14500000Y-21050000D03*
X14500000Y-21950000D03*
D15*
X14500000Y-24000000D03*
D13*
X14500000Y-26050000D03*
X14500000Y-26950000D03*
X14755000Y-21500000D03*
X14755000Y-26500000D03*
X15010000Y-21050000D03*
X15010000Y-21950000D03*
X15010000Y-26050000D03*
X15010000Y-26950000D03*
X15265000Y-21500000D03*
X15265000Y-26500000D03*
X15520000Y-21050000D03*
X15520000Y-21950000D03*
X15520000Y-26050000D03*
X15520000Y-26950000D03*
X16550000Y-22980000D03*
X16550000Y-23490000D03*
X16550000Y-24000000D03*
X16550000Y-24510000D03*
X16550000Y-25020000D03*
D14*
X16650000Y-21850000D03*
X16650000Y-26150000D03*
D13*
X17000000Y-23235000D03*
X17000000Y-23745000D03*
X17000000Y-24255000D03*
X17000000Y-24765000D03*
X17450000Y-21050000D03*
X17450000Y-22980000D03*
X17450000Y-23490000D03*
X17450000Y-24000000D03*
X17450000Y-24510000D03*
X17450000Y-25020000D03*
X17450000Y-26950000D03*
%TD*%
D16*
%TO.N,/CAN-*%
%TO.C,CN3(OUT)1*%
X-33000000Y4425000D03*
%TO.N,/CAN+*%
X-31000000Y4424999D03*
D17*
%TO.N,GND*%
X-32000000Y574999D03*
%TO.N,+48V*%
X-32000000Y-4424999D03*
%TD*%
D18*
%TO.N,GND*%
%TO.C,U2*%
X-1774838Y6193898D03*
X-806102Y5225162D03*
X-1774838Y7806102D03*
X-968736Y7000000D03*
X0Y6031264D03*
X806102Y5225162D03*
X-806102Y8774838D03*
X0Y7968736D03*
X968736Y7000000D03*
X1774838Y6193898D03*
X806102Y8774838D03*
X1774838Y7806102D03*
%TD*%
D12*
%TO.N,N/C*%
%TO.C,H5*%
X-23000000Y23500000D03*
%TD*%
D13*
%TO.N,/PHASB*%
%TO.C,H2*%
X-2950000Y-21050000D03*
X-2950000Y-22980000D03*
X-2950000Y-23490000D03*
X-2950000Y-24000000D03*
X-2950000Y-24510000D03*
X-2950000Y-25020000D03*
X-2950000Y-26950000D03*
X-2500000Y-23235000D03*
X-2500000Y-23745000D03*
X-2500000Y-24255000D03*
X-2500000Y-24765000D03*
D14*
X-2150000Y-21850000D03*
X-2150000Y-26150000D03*
D13*
X-2050000Y-22980000D03*
X-2050000Y-23490000D03*
X-2050000Y-24000000D03*
X-2050000Y-24510000D03*
X-2050000Y-25020000D03*
X-1020000Y-21050000D03*
X-1020000Y-21950000D03*
X-1020000Y-26050000D03*
X-1020000Y-26950000D03*
X-765000Y-21500000D03*
X-765000Y-26500000D03*
X-510000Y-21050000D03*
X-510000Y-21950000D03*
X-510000Y-26050000D03*
X-510000Y-26950000D03*
X-255000Y-21500000D03*
X-255000Y-26500000D03*
X0Y-21050000D03*
X0Y-21950000D03*
D15*
X0Y-24000000D03*
D13*
X0Y-26050000D03*
X0Y-26950000D03*
X255000Y-21500000D03*
X255000Y-26500000D03*
X510000Y-21050000D03*
X510000Y-21950000D03*
X510000Y-26050000D03*
X510000Y-26950000D03*
X765000Y-21500000D03*
X765000Y-26500000D03*
X1020000Y-21050000D03*
X1020000Y-21950000D03*
X1020000Y-26050000D03*
X1020000Y-26950000D03*
X2050000Y-22980000D03*
X2050000Y-23490000D03*
X2050000Y-24000000D03*
X2050000Y-24510000D03*
X2050000Y-25020000D03*
D14*
X2150000Y-21850000D03*
X2150000Y-26150000D03*
D13*
X2500000Y-23235000D03*
X2500000Y-23745000D03*
X2500000Y-24255000D03*
X2500000Y-24765000D03*
X2950000Y-21050000D03*
X2950000Y-22980000D03*
X2950000Y-23490000D03*
X2950000Y-24000000D03*
X2950000Y-24510000D03*
X2950000Y-25020000D03*
X2950000Y-26950000D03*
%TD*%
D12*
%TO.N,N/C*%
%TO.C,H4*%
X23000000Y23500000D03*
%TD*%
%TO.N,N/C*%
%TO.C,H6*%
X23000000Y-23500000D03*
%TD*%
D16*
%TO.N,/CAN-*%
%TO.C,CN3(OUT)2*%
X31000001Y4424998D03*
%TO.N,/CAN+*%
X33000000Y4424999D03*
D17*
%TO.N,GND*%
X32000000Y575000D03*
%TO.N,+48V*%
X32000000Y-4425000D03*
%TD*%
D13*
%TO.N,/PHASA*%
%TO.C,H1*%
X-17450000Y-21050000D03*
X-17450000Y-22980000D03*
X-17450000Y-23490000D03*
X-17450000Y-24000000D03*
X-17450000Y-24510000D03*
X-17450000Y-25020000D03*
X-17450000Y-26950000D03*
X-17000000Y-23235000D03*
X-17000000Y-23745000D03*
X-17000000Y-24255000D03*
X-17000000Y-24765000D03*
D14*
X-16650000Y-21850000D03*
X-16650000Y-26150000D03*
D13*
X-16550000Y-22980000D03*
X-16550000Y-23490000D03*
X-16550000Y-24000000D03*
X-16550000Y-24510000D03*
X-16550000Y-25020000D03*
X-15520000Y-21050000D03*
X-15520000Y-21950000D03*
X-15520000Y-26050000D03*
X-15520000Y-26950000D03*
X-15265000Y-21500000D03*
X-15265000Y-26500000D03*
X-15010000Y-21050000D03*
X-15010000Y-21950000D03*
X-15010000Y-26050000D03*
X-15010000Y-26950000D03*
X-14755000Y-21500000D03*
X-14755000Y-26500000D03*
X-14500000Y-21050000D03*
X-14500000Y-21950000D03*
D15*
X-14500000Y-24000000D03*
D13*
X-14500000Y-26050000D03*
X-14500000Y-26950000D03*
X-14245000Y-21500000D03*
X-14245000Y-26500000D03*
X-13990000Y-21050000D03*
X-13990000Y-21950000D03*
X-13990000Y-26050000D03*
X-13990000Y-26950000D03*
X-13735000Y-21500000D03*
X-13735000Y-26500000D03*
X-13480000Y-21050000D03*
X-13480000Y-21950000D03*
X-13480000Y-26050000D03*
X-13480000Y-26950000D03*
X-12450000Y-22980000D03*
X-12450000Y-23490000D03*
X-12450000Y-24000000D03*
X-12450000Y-24510000D03*
X-12450000Y-25020000D03*
D14*
X-12350000Y-21850000D03*
X-12350000Y-26150000D03*
D13*
X-12000000Y-23235000D03*
X-12000000Y-23745000D03*
X-12000000Y-24255000D03*
X-12000000Y-24765000D03*
X-11550000Y-21050000D03*
X-11550000Y-22980000D03*
X-11550000Y-23490000D03*
X-11550000Y-24000000D03*
X-11550000Y-24510000D03*
X-11550000Y-25020000D03*
X-11550000Y-26950000D03*
%TD*%
D19*
%TO.N,GND*%
%TO.C,VR1*%
X-21400000Y8500000D03*
X-20100000Y8500000D03*
X-18800000Y8500000D03*
X-17500000Y8500000D03*
X-21400000Y9800000D03*
X-20100000Y9800000D03*
X-18800000Y9800000D03*
X-17500000Y9800000D03*
%TD*%
D20*
%TO.N,+3.3V*%
X14475000Y6100000D03*
X13875000Y16500000D03*
X14575000Y17200000D03*
X15300000Y17200000D03*
X-910000Y15450000D03*
X14575000Y16500000D03*
X13875000Y17200000D03*
X-14700000Y20400000D03*
X15300000Y16500000D03*
X-3530000Y15450000D03*
X-14700000Y21100000D03*
X-5605000Y26770000D03*
X4580000Y26830000D03*
X8250000Y24740000D03*
X-9650000Y24325000D03*
%TO.N,GND*%
X18200000Y9200000D03*
X-8010000Y32425000D03*
X18200000Y11800000D03*
X-22050000Y8500000D03*
X-10025000Y-3050000D03*
X-10025000Y-3750000D03*
X-23450000Y8500000D03*
X19500000Y7250000D03*
X30400000Y-200000D03*
X18200000Y12450000D03*
X-32000000Y-800000D03*
X-8600000Y-2325000D03*
X-31200000Y2000000D03*
X20150000Y10500000D03*
X20800000Y12450000D03*
X-22050000Y7850000D03*
X1070000Y26790000D03*
X-33600000Y2000000D03*
X33600000Y500000D03*
X-10025000Y-950000D03*
X31200000Y-900000D03*
X18850000Y7250000D03*
X20150000Y8550000D03*
X4200000Y-5600000D03*
X-8230000Y30900000D03*
X18850000Y11150000D03*
X32000000Y-900000D03*
X19500000Y11800000D03*
X-8600000Y-1625000D03*
X18850000Y9200000D03*
X10610000Y-1860000D03*
X18200000Y7900000D03*
X-33600000Y600000D03*
X9900000Y-3150000D03*
X10600000Y-1190000D03*
X3500000Y-5600000D03*
X-31200000Y-800000D03*
X-18150000Y10450000D03*
X20150000Y7250000D03*
X-23450000Y7850000D03*
X20800000Y7250000D03*
X-8600000Y-925000D03*
X31200000Y1900000D03*
X18850000Y12450000D03*
X9175000Y-3850000D03*
X15225000Y19200000D03*
X2600000Y20500000D03*
X4200000Y-6300000D03*
X3040000Y26800000D03*
X-22750000Y9150000D03*
X-20750000Y7850000D03*
X-10025000Y-2350000D03*
X-9325000Y-925000D03*
X-33600000Y-100000D03*
X32800000Y-900000D03*
X20800000Y11800000D03*
X2800000Y-7000000D03*
X-20750000Y9800000D03*
X20150000Y6600000D03*
X30400000Y1200000D03*
X-400000Y400000D03*
X9175000Y-1175000D03*
X20800000Y7900000D03*
X-23450000Y9150000D03*
X8250000Y23180000D03*
X20150000Y11150000D03*
X-21400000Y7850000D03*
X10600000Y-3150000D03*
X-18100000Y8500000D03*
X300000Y400000D03*
X18200000Y10500000D03*
X-9325000Y-3725000D03*
X19500000Y6600000D03*
X3500000Y-6300000D03*
X33600000Y1900000D03*
X33600000Y1200000D03*
X-19450000Y8500000D03*
X7500000Y20700000D03*
X-20100000Y10450000D03*
X-18150000Y9150000D03*
X-20750000Y10450000D03*
X-30400000Y600000D03*
X-10025000Y-1650000D03*
X20800000Y9850000D03*
X19500000Y10500000D03*
X19500000Y11150000D03*
X-9325000Y-2325000D03*
X-16800000Y8500000D03*
X30400000Y-900000D03*
X20150000Y7900000D03*
X9175000Y-3175000D03*
X-930000Y16970000D03*
X-16800000Y9150000D03*
X0Y7000000D03*
X18200000Y11150000D03*
X33600000Y-900000D03*
X18850000Y8550000D03*
X20150000Y12450000D03*
X-24150000Y9150000D03*
X-8600000Y-3725000D03*
X8450000Y7600000D03*
X-30400000Y-100000D03*
X19500000Y9200000D03*
X-18100000Y7850000D03*
X-18800000Y7850000D03*
X-18150000Y9800000D03*
X5600000Y-6300000D03*
X-18800000Y9150000D03*
X2800000Y-6300000D03*
X10600000Y-2500000D03*
X-16800000Y9800000D03*
X20800000Y9200000D03*
X-17500000Y9150000D03*
X30400000Y1900000D03*
X9910000Y-1860000D03*
X-17500000Y7850000D03*
X-32800000Y-800000D03*
X-8600000Y-3025000D03*
X-33600000Y-800000D03*
X20150000Y11800000D03*
X-400000Y-300000D03*
X10000000Y26900000D03*
X300000Y-300000D03*
X18850000Y6600000D03*
X-20100000Y7850000D03*
X-23450000Y9850000D03*
X18850000Y11800000D03*
X-19450000Y9150000D03*
X20800000Y6600000D03*
X20800000Y10500000D03*
X20800000Y11150000D03*
X32000000Y1900000D03*
X19500000Y8550000D03*
X-9325000Y-1625000D03*
X4900000Y-6300000D03*
X-33600000Y1300000D03*
X-20100000Y9150000D03*
X3500000Y-7000000D03*
X-18800000Y10450000D03*
X-16475000Y27100000D03*
X-7850000Y24325000D03*
X-20750000Y9150000D03*
X4900000Y-5600000D03*
X20150000Y9850000D03*
X19500000Y7900000D03*
X18850000Y7900000D03*
X-30400000Y2000000D03*
X19500000Y9850000D03*
X5600000Y-5600000D03*
X18850000Y9850000D03*
X-16800000Y7850000D03*
X-17500000Y10450000D03*
X9175000Y-2500000D03*
X-19450000Y10450000D03*
X32800000Y1900000D03*
X-22750000Y7850000D03*
X-16800000Y10450000D03*
X-30400000Y-800000D03*
X-19450000Y9800000D03*
X18200000Y7250000D03*
X5600000Y-7000000D03*
X18200000Y8550000D03*
X-32000000Y2000000D03*
X20150000Y9200000D03*
X-19450000Y7850000D03*
X2800000Y-5600000D03*
X-22050000Y9850000D03*
X-22750000Y8500000D03*
X9900000Y-1190000D03*
X19500000Y12450000D03*
X-22750000Y9850000D03*
X4900000Y-7000000D03*
X-24150000Y7850000D03*
X18200000Y9850000D03*
X18200000Y6600000D03*
X12950000Y13250000D03*
X-21400000Y9150000D03*
X33600000Y-200000D03*
X-21400000Y10450000D03*
X20800000Y8550000D03*
X-24150000Y8500000D03*
X9900000Y-2500000D03*
X10610000Y-3840000D03*
X-9325000Y-3025000D03*
X9175000Y-1850000D03*
X-20750000Y8500000D03*
X-30400000Y1300000D03*
X-32800000Y2000000D03*
X9910000Y-3840000D03*
X-24150000Y9850000D03*
X4200000Y-7000000D03*
X18850000Y10500000D03*
X30400000Y500000D03*
X-22050000Y9150000D03*
%TO.N,/VMOT_TEMP*%
X-6670000Y29730000D03*
%TO.N,/PHASA*%
X-15700000Y-14500000D03*
X-11800000Y-11900000D03*
X-13100000Y-12550000D03*
X-17650000Y-14500000D03*
X-22900000Y-9800000D03*
X-11800000Y-13200000D03*
X-16350000Y-11900000D03*
X-22200000Y-9100000D03*
X-15050000Y-11250000D03*
X-11800000Y-14500000D03*
X-14400000Y-13200000D03*
X-17000000Y-12550000D03*
X-17000000Y-13200000D03*
X-21500000Y-9800000D03*
X-25000000Y-9800000D03*
X-14400000Y-11250000D03*
X-12450000Y-11900000D03*
X-15700000Y-13200000D03*
X-13100000Y-14500000D03*
X-13100000Y-11900000D03*
X-11800000Y-11250000D03*
X-14400000Y-12550000D03*
X-23600000Y-9800000D03*
X-25000000Y-9100000D03*
X-12450000Y-13850000D03*
X-17000000Y-13850000D03*
X-15050000Y-13200000D03*
X-15050000Y-14500000D03*
X-15050000Y-12550000D03*
X-15050000Y-11900000D03*
X-22200000Y-9800000D03*
X-17650000Y-13850000D03*
X-25700000Y-9100000D03*
X-17650000Y-12550000D03*
X-13100000Y-13200000D03*
X-15700000Y-11900000D03*
X-13750000Y-13850000D03*
X-23600000Y-9100000D03*
X-13750000Y-11250000D03*
X-16350000Y-14500000D03*
X-17000000Y-11900000D03*
X-13750000Y-14500000D03*
X-13750000Y-13200000D03*
X-17000000Y-11250000D03*
X-17650000Y-11900000D03*
X-11800000Y-12550000D03*
X-16350000Y-13200000D03*
X-14400000Y-14500000D03*
X-12450000Y-13200000D03*
X-14400000Y-13850000D03*
X-24300000Y-9800000D03*
X-16350000Y-11250000D03*
X-16350000Y-12550000D03*
X-15700000Y-13850000D03*
X-13750000Y-12550000D03*
X-17000000Y-14500000D03*
X-14400000Y-11900000D03*
X-12450000Y-14500000D03*
X-12450000Y-11250000D03*
X-25700000Y-9800000D03*
X-17650000Y-13200000D03*
X-13100000Y-13850000D03*
X-12450000Y-12550000D03*
X-13100000Y-11250000D03*
X-11800000Y-13850000D03*
X-17650000Y-11250000D03*
X-15050000Y-13850000D03*
X-21500000Y-9100000D03*
X-15700000Y-11250000D03*
X-22900000Y-9100000D03*
X-15700000Y-12550000D03*
X-24300000Y-9100000D03*
X-13750000Y-11900000D03*
X-16350000Y-13850000D03*
%TO.N,+48V*%
X-23600000Y-5350000D03*
X14900000Y-11950000D03*
X19700000Y750000D03*
X-26850000Y-5350000D03*
X-22300000Y-2750000D03*
X2050000Y-13350000D03*
X21000000Y2700000D03*
X15550000Y-10000000D03*
X-22950000Y-4050000D03*
X14900000Y-10650000D03*
X16850000Y-9350000D03*
X-19800000Y300000D03*
X21000000Y750000D03*
X16850000Y-8700000D03*
X-24900000Y-4050000D03*
X-21650000Y-2750000D03*
X30400000Y-3800000D03*
X-30400000Y-5200000D03*
X2700000Y-15950000D03*
X4650000Y-15950000D03*
X-32800000Y-3100000D03*
X17500000Y-11300000D03*
X-26850000Y-6000000D03*
X-24250000Y-4700000D03*
X-24250000Y-5350000D03*
X-23600000Y-3400000D03*
X19700000Y1400000D03*
X19050000Y3350000D03*
X22300000Y2050000D03*
X-19000000Y3100000D03*
X21000000Y1400000D03*
X21650000Y4000000D03*
X-22950000Y-3400000D03*
X-19800000Y1700000D03*
X-33600000Y-3800000D03*
X20350000Y4000000D03*
X21650000Y2700000D03*
X33600000Y-5200000D03*
X-25550000Y-2750000D03*
X12950000Y-10650000D03*
X33600000Y-3100000D03*
X12300000Y-10650000D03*
X14250000Y-10000000D03*
X21650000Y2050000D03*
X-21650000Y-4700000D03*
X-19000000Y3800000D03*
X-27500000Y-5350000D03*
X33600000Y-4500000D03*
X17500000Y-8700000D03*
X11650000Y-11950000D03*
X4650000Y-15300000D03*
X2050000Y-12700000D03*
X-26200000Y-3400000D03*
X-30400000Y-3100000D03*
X-22950000Y-4700000D03*
X19050000Y1400000D03*
X-24900000Y-4700000D03*
X-24250000Y-4050000D03*
X-30400000Y-3800000D03*
X-30400000Y-4500000D03*
X3350000Y-13350000D03*
X12300000Y-8700000D03*
X14250000Y-11300000D03*
X-33600000Y-3100000D03*
X14900000Y-10000000D03*
X4000000Y-13350000D03*
X-24900000Y-2750000D03*
X-22300000Y-3400000D03*
X22300000Y1400000D03*
X6600000Y-14650000D03*
X12300000Y-11950000D03*
X19050000Y2050000D03*
X-21650000Y-6000000D03*
X12950000Y-11950000D03*
X22300000Y750000D03*
X19050000Y4000000D03*
X-30400000Y-5900000D03*
X2700000Y-12700000D03*
X2700000Y-13350000D03*
X7900000Y-15950000D03*
X-33600000Y-4500000D03*
X21650000Y750000D03*
X5300000Y-12700000D03*
X7250000Y-15300000D03*
X31200000Y-3100000D03*
X-19000000Y2400000D03*
X3350000Y-14000000D03*
X31200000Y-5900000D03*
X20350000Y2050000D03*
X-26200000Y-4700000D03*
X13600000Y-10650000D03*
X16850000Y-11300000D03*
X-19000000Y1000000D03*
X20350000Y3350000D03*
X7250000Y-14650000D03*
X7900000Y-15300000D03*
X32800000Y-5900000D03*
X-32800000Y-5900000D03*
X-31200000Y-3100000D03*
X-25550000Y-6000000D03*
X5950000Y-13350000D03*
X11650000Y-11300000D03*
X14900000Y-9350000D03*
X-26850000Y-3400000D03*
X2700000Y-15300000D03*
X-26850000Y-2750000D03*
X5300000Y-13350000D03*
X16850000Y-11950000D03*
X5950000Y-14000000D03*
X-25550000Y-4700000D03*
X15550000Y-11950000D03*
X7900000Y-14650000D03*
X7900000Y-13350000D03*
X3350000Y-15300000D03*
X-21650000Y-3400000D03*
X-25550000Y-3400000D03*
X-27500000Y-2750000D03*
X-24250000Y-6000000D03*
X13600000Y-8700000D03*
X4000000Y-15300000D03*
X16200000Y-11300000D03*
X-24900000Y-6000000D03*
X22300000Y2700000D03*
X-26200000Y-2750000D03*
X17500000Y-10650000D03*
X4650000Y-12700000D03*
X17500000Y-11950000D03*
X32000000Y-5900000D03*
X-33600000Y-5200000D03*
X-22950000Y-2750000D03*
X14900000Y-8700000D03*
X16200000Y-11950000D03*
X12950000Y-10000000D03*
X4650000Y-14000000D03*
X15550000Y-10650000D03*
X-22950000Y-6000000D03*
X-22300000Y-4050000D03*
X14250000Y-8700000D03*
X6600000Y-14000000D03*
X-21650000Y-4050000D03*
X7900000Y-12700000D03*
X5950000Y-15300000D03*
X2050000Y-14650000D03*
X5300000Y-14650000D03*
X-23600000Y-4700000D03*
X21650000Y1400000D03*
X-26850000Y-4050000D03*
X-22950000Y-5350000D03*
X-23600000Y-6000000D03*
X-24250000Y-3400000D03*
X-25550000Y-4050000D03*
X5300000Y-14000000D03*
X-23600000Y-2750000D03*
X6600000Y-15300000D03*
X14900000Y-11300000D03*
X-22300000Y-4700000D03*
X4000000Y-14000000D03*
X20350000Y750000D03*
X-21650000Y-5350000D03*
X22300000Y4000000D03*
X-24900000Y-3400000D03*
X-27500000Y-3400000D03*
X-19000000Y300000D03*
X-19800000Y3800000D03*
X3350000Y-12700000D03*
X30400000Y-5200000D03*
X-22300000Y-6000000D03*
X11650000Y-8700000D03*
X13600000Y-11950000D03*
X21000000Y4000000D03*
X4000000Y-15950000D03*
X32800000Y-3100000D03*
X6600000Y-12700000D03*
X16200000Y-8700000D03*
X14250000Y-11950000D03*
X30400000Y-3100000D03*
X16850000Y-10000000D03*
X-26200000Y-5350000D03*
X4000000Y-12700000D03*
X13600000Y-10000000D03*
X5950000Y-14650000D03*
X17500000Y-9350000D03*
X12950000Y-8700000D03*
X12300000Y-10000000D03*
X-33600000Y-5900000D03*
X4650000Y-14650000D03*
X19700000Y3350000D03*
X-31200000Y-5900000D03*
X15550000Y-11300000D03*
X15550000Y-9350000D03*
X21000000Y2050000D03*
X20350000Y1400000D03*
X15550000Y-8700000D03*
X21650000Y3350000D03*
X7900000Y-14000000D03*
X-27500000Y-6000000D03*
X2050000Y-15300000D03*
X22300000Y3350000D03*
X14250000Y-9350000D03*
X17500000Y-10000000D03*
X19050000Y2700000D03*
X12950000Y-9350000D03*
X19700000Y4000000D03*
X32000000Y-3100000D03*
X4000000Y-14650000D03*
X2700000Y-14650000D03*
X-26200000Y-4050000D03*
X-25550000Y-5350000D03*
X19700000Y2700000D03*
X-26200000Y-6000000D03*
X16200000Y-9350000D03*
X-23600000Y-4050000D03*
X6600000Y-15950000D03*
X16200000Y-10000000D03*
X4650000Y-13350000D03*
X12300000Y-9350000D03*
X5950000Y-15950000D03*
X12950000Y-11300000D03*
X5300000Y-15950000D03*
X16850000Y-10650000D03*
X3350000Y-15950000D03*
X-32000000Y-3100000D03*
X14250000Y-10650000D03*
X-19800000Y1000000D03*
X33600000Y-5900000D03*
X20350000Y2700000D03*
X5950000Y-12700000D03*
X-22300000Y-5350000D03*
X5300000Y-15300000D03*
X12300000Y-11300000D03*
X6600000Y-13350000D03*
X21000000Y3350000D03*
X-26850000Y-4700000D03*
X-19800000Y3100000D03*
X13600000Y-11300000D03*
X-24250000Y-2750000D03*
X7250000Y-14000000D03*
X-19000000Y1700000D03*
X7250000Y-13350000D03*
X33600000Y-3800000D03*
X16200000Y-10650000D03*
X7250000Y-15950000D03*
X11650000Y-10650000D03*
X30400000Y-4500000D03*
X2050000Y-15950000D03*
X13600000Y-9350000D03*
X3350000Y-14650000D03*
X30400000Y-5900000D03*
X-24900000Y-5350000D03*
X2700000Y-14000000D03*
X2050000Y-14000000D03*
X-27500000Y-4050000D03*
X-32000000Y-5900000D03*
X-19800000Y2400000D03*
X7250000Y-12700000D03*
X-27500000Y-4700000D03*
X11650000Y-9350000D03*
X19050000Y750000D03*
X19700000Y2050000D03*
X11650000Y-10000000D03*
%TO.N,/PHASC*%
X26700000Y-5900000D03*
X21500000Y-6550000D03*
X23450000Y-5900000D03*
X26700000Y-7850000D03*
X26050000Y-6550000D03*
X25400000Y-6550000D03*
X17000000Y-14700000D03*
X22150000Y-7850000D03*
X14200000Y-14700000D03*
X22150000Y-9150000D03*
X23450000Y-9150000D03*
X24750000Y-5900000D03*
X22150000Y-7200000D03*
X24750000Y-8500000D03*
X25400000Y-7850000D03*
X26050000Y-8500000D03*
X24100000Y-7200000D03*
X14900000Y-15400000D03*
X23450000Y-7850000D03*
X22150000Y-5900000D03*
X24750000Y-7200000D03*
X24100000Y-7850000D03*
X24100000Y-8500000D03*
X16300000Y-14700000D03*
X14200000Y-15400000D03*
X26050000Y-7200000D03*
X24100000Y-9150000D03*
X27350000Y-7850000D03*
X26050000Y-9150000D03*
X13500000Y-15400000D03*
X26700000Y-6550000D03*
X14900000Y-14700000D03*
X26700000Y-8500000D03*
X15600000Y-14700000D03*
X21500000Y-9150000D03*
X22800000Y-9150000D03*
X23450000Y-7200000D03*
X24750000Y-6550000D03*
X24100000Y-5900000D03*
X17700000Y-15400000D03*
X26050000Y-7850000D03*
X21500000Y-7200000D03*
X21500000Y-5900000D03*
X27350000Y-9150000D03*
X27350000Y-7200000D03*
X24100000Y-6550000D03*
X27350000Y-6550000D03*
X24750000Y-9150000D03*
X27350000Y-8500000D03*
X23450000Y-8500000D03*
X22800000Y-8500000D03*
X22150000Y-8500000D03*
X26050000Y-5900000D03*
X22800000Y-7850000D03*
X25400000Y-9150000D03*
X16300000Y-15400000D03*
X13500000Y-14700000D03*
X17700000Y-14700000D03*
X17000000Y-15400000D03*
X22150000Y-6550000D03*
X21500000Y-8500000D03*
X22800000Y-6550000D03*
X24750000Y-7850000D03*
X26700000Y-7200000D03*
X25400000Y-8500000D03*
X15600000Y-15400000D03*
X25400000Y-7200000D03*
X26700000Y-9150000D03*
X25400000Y-5900000D03*
X23450000Y-6550000D03*
X21500000Y-7850000D03*
X22800000Y-5900000D03*
X27350000Y-5900000D03*
X22800000Y-7200000D03*
%TO.N,/VBAT*%
X-27100000Y9199700D03*
X-12700000Y16105000D03*
X-14175000Y16100000D03*
X-3650000Y22630000D03*
%TO.N,/CAN-*%
X17900000Y14950000D03*
%TO.N,/CAN+*%
X18600000Y15350000D03*
%TO.N,+5V*%
X16490000Y21100000D03*
X17200000Y21100000D03*
X21025000Y19850000D03*
%TO.N,+12V*%
X-11100000Y7320000D03*
X-11100000Y8000000D03*
X-10420000Y7320000D03*
X-10430000Y8000000D03*
%TO.N,/PHASB*%
X-7250000Y-16650000D03*
X-7900000Y-16000000D03*
X-5300000Y-15350000D03*
X-2700000Y-17300000D03*
X-5950000Y-16000000D03*
X-4000000Y-17300000D03*
X-2050000Y-16000000D03*
X6700000Y-18700000D03*
X-5950000Y-18600000D03*
X-6600000Y-16650000D03*
X-5300000Y-16000000D03*
X6700000Y-19400000D03*
X-7900000Y-17950000D03*
X4600000Y-19400000D03*
X3900000Y-19400000D03*
X-3350000Y-17950000D03*
X-2050000Y-16650000D03*
X-5300000Y-18600000D03*
X-6600000Y-15350000D03*
X-5950000Y-16650000D03*
X-7900000Y-16650000D03*
X8100000Y-19400000D03*
X-4000000Y-16650000D03*
X4600000Y-18700000D03*
X-4650000Y-16000000D03*
X-7250000Y-15350000D03*
X-7900000Y-17300000D03*
X-3350000Y-15350000D03*
X5300000Y-18700000D03*
X-2700000Y-16650000D03*
X-4000000Y-18600000D03*
X-2700000Y-15350000D03*
X7400000Y-18700000D03*
X-4000000Y-15350000D03*
X-5300000Y-16650000D03*
X-6600000Y-17300000D03*
X-6600000Y-16000000D03*
X-7250000Y-17950000D03*
X7400000Y-19400000D03*
X-2050000Y-17950000D03*
X8100000Y-18700000D03*
X5300000Y-19400000D03*
X-7250000Y-18600000D03*
X-5300000Y-17300000D03*
X-2050000Y-18600000D03*
X-5950000Y-15350000D03*
X-6600000Y-18600000D03*
X-4650000Y-15350000D03*
X-3350000Y-18600000D03*
X-4000000Y-16000000D03*
X-4650000Y-17300000D03*
X-7250000Y-17300000D03*
X-5950000Y-17950000D03*
X6000000Y-19400000D03*
X-3350000Y-16000000D03*
X3900000Y-18700000D03*
X6000000Y-18700000D03*
X-3350000Y-16650000D03*
X-7900000Y-15350000D03*
X-4650000Y-16650000D03*
X-2700000Y-16000000D03*
X-2050000Y-15350000D03*
X-2050000Y-17300000D03*
X-4000000Y-17950000D03*
X-2700000Y-18600000D03*
X-2700000Y-17950000D03*
X-7900000Y-18600000D03*
X-4650000Y-18600000D03*
X-5300000Y-17950000D03*
X-6600000Y-17950000D03*
X-4650000Y-17950000D03*
X-5950000Y-17300000D03*
X-3350000Y-17300000D03*
X-7250000Y-16000000D03*
%TO.N,/I_C*%
X6860000Y7800000D03*
X340000Y22500000D03*
%TO.N,/I_B*%
X-480000Y22920000D03*
X6090000Y8570000D03*
%TO.N,/I_A*%
X5360000Y8990000D03*
X-1160000Y23340000D03*
%TO.N,/SPI-MISO*%
X-2900000Y20860000D03*
X4650000Y11800000D03*
%TO.N,/SPI-MOSI*%
X3775000Y11775000D03*
X-3250000Y19950000D03*
%TO.N,/SPI-SCK*%
X-7550000Y20225000D03*
X2925000Y11750000D03*
%TO.N,/SPI-NSS-DRV*%
X2150000Y11775000D03*
X-8700000Y20425000D03*
%TO.N,Net-(U1-PH0-OSC_IN)*%
X4180000Y22580000D03*
%TO.N,Net-(U1-PH1-OSC_OUT)*%
X1840000Y22590000D03*
%TO.N,/NRST*%
X-1970000Y22010000D03*
X-12625000Y25575000D03*
%TO.N,Net-(U1-VDDA{slash}VREF+)*%
X-2150000Y26700000D03*
%TO.N,/TMS*%
X-13725000Y25075000D03*
X-3690000Y19040000D03*
%TO.N,/TCK*%
X-2470000Y17750000D03*
X-15200000Y24150000D03*
%TO.N,/CS*%
X7510000Y15790000D03*
X7500000Y6175000D03*
%TO.N,/SCK*%
X11960000Y16020000D03*
X12400000Y5650000D03*
X14410000Y24200000D03*
%TO.N,/MISO*%
X10000000Y17800000D03*
X11050000Y5600000D03*
X13490000Y24400000D03*
%TO.N,/MOSI*%
X8950000Y6725000D03*
X12580000Y25100000D03*
X8200000Y18700000D03*
%TO.N,/AUX_CS*%
X11170000Y25200000D03*
X9000000Y19900000D03*
%TD*%
%TO.N,+3.3V*%
D21*
X14475000Y6100000D02*
X14525000Y6150000D01*
%TO.N,/VBAT*%
X-14175000Y16100000D02*
X-12705000Y16100000D01*
X-3650000Y22550000D02*
X-3650000Y22630000D01*
X-12705000Y16100000D02*
X-12700000Y16105000D01*
X-8200000Y18000000D02*
X-3650000Y22550000D01*
X-14175000Y16100000D02*
X-14175000Y15900000D01*
X-12237396Y16105000D02*
X-10342396Y18000000D01*
X-14175000Y15900000D02*
X-15675000Y14400000D01*
X-10342396Y18000000D02*
X-8200000Y18000000D01*
X-21350000Y14400000D02*
X-26550300Y9199700D01*
X-12700000Y16105000D02*
X-12237396Y16105000D01*
X-15675000Y14400000D02*
X-21350000Y14400000D01*
X-26550300Y9199700D02*
X-27100000Y9199700D01*
%TO.N,/I_C*%
D22*
X340000Y20760000D02*
X6860000Y14240000D01*
X340000Y22500000D02*
X340000Y20760000D01*
X6860000Y14240000D02*
X6860000Y7800000D01*
%TO.N,/I_B*%
X6090000Y8570000D02*
X6090000Y13935000D01*
X-480000Y20505000D02*
X-480000Y22920000D01*
X6090000Y13935000D02*
X-480000Y20505000D01*
%TO.N,/I_A*%
X5360000Y13640000D02*
X-1160000Y20160000D01*
X5360000Y8990000D02*
X5360000Y13640000D01*
X-1160000Y20160000D02*
X-1160000Y23340000D01*
%TO.N,/SPI-MISO*%
X-2900000Y20800000D02*
X4650000Y13250000D01*
X-2900000Y20860000D02*
X-2900000Y20800000D01*
X4650000Y13250000D02*
X4650000Y11800000D01*
%TO.N,/SPI-MOSI*%
X3775000Y13125000D02*
X-3050000Y19950000D01*
X3775000Y11775000D02*
X3775000Y13125000D01*
X-3050000Y19950000D02*
X-3250000Y19950000D01*
%TO.N,/CS*%
X7525000Y15775000D02*
X7510000Y15790000D01*
X7500000Y6175000D02*
X7525000Y6200000D01*
X7525000Y6200000D02*
X7525000Y15775000D01*
%TO.N,/SCK*%
X14410000Y24200000D02*
X14410000Y19310000D01*
X14410000Y19310000D02*
X11960000Y16860000D01*
X11960000Y16000000D02*
X11960000Y16020000D01*
X11960000Y16860000D02*
X11960000Y16020000D01*
X12400000Y15560000D02*
X11960000Y16000000D01*
X12400000Y5650000D02*
X12400000Y15560000D01*
%TO.N,/MISO*%
X13490000Y20215000D02*
X11075000Y17800000D01*
X13490000Y24400000D02*
X13490000Y20215000D01*
X11050000Y16750000D02*
X10000000Y17800000D01*
X11050000Y5600000D02*
X11050000Y16750000D01*
X11075000Y17800000D02*
X10000000Y17800000D01*
%TO.N,/MOSI*%
X12580000Y20600000D02*
X10680000Y18700000D01*
X10680000Y18700000D02*
X8800000Y18700000D01*
X9300000Y18200000D02*
X8800000Y18700000D01*
X9300000Y7075000D02*
X9300000Y18200000D01*
X12580000Y25100000D02*
X12580000Y20600000D01*
X8950000Y6725000D02*
X9300000Y7075000D01*
X8800000Y18700000D02*
X8200000Y18700000D01*
%TO.N,/AUX_CS*%
X11170000Y20280000D02*
X10790000Y19900000D01*
X10790000Y19900000D02*
X9000000Y19900000D01*
X11170000Y25200000D02*
X11170000Y20280000D01*
%TD*%
%TA.AperFunction,Conductor*%
%TO.N,/PHASA*%
G36*
X-21328151Y-8663411D02*
G01*
X-21307359Y-8680140D01*
X-20930255Y-9057244D01*
X-20896772Y-9118565D01*
X-20893939Y-9145375D01*
X-20898438Y-10373438D01*
X-20473435Y-10800000D01*
X-11651364Y-10800000D01*
X-11584325Y-10819685D01*
X-11563683Y-10836319D01*
X-10686319Y-11713683D01*
X-10652834Y-11775006D01*
X-10650000Y-11801364D01*
X-10650000Y-26698638D01*
X-10669685Y-26765677D01*
X-10686319Y-26786319D01*
X-11363681Y-27463681D01*
X-11425004Y-27497166D01*
X-11451362Y-27500000D01*
X-18098638Y-27500000D01*
X-18165677Y-27480315D01*
X-18186319Y-27463681D01*
X-18200000Y-27450000D01*
X-22463283Y-27450000D01*
X-22530322Y-27430315D01*
X-22543260Y-27420761D01*
X-23137461Y-26919260D01*
X-23175997Y-26860979D01*
X-23176905Y-26791115D01*
X-23139898Y-26731851D01*
X-23076726Y-26702002D01*
X-23057484Y-26700500D01*
X-22820261Y-26700500D01*
X-22820260Y-26700499D01*
X-22463052Y-26660252D01*
X-22112592Y-26580262D01*
X-22112580Y-26580258D01*
X-22028119Y-26550703D01*
X-21773292Y-26461536D01*
X-21449418Y-26305566D01*
X-21145044Y-26114315D01*
X-20863997Y-25890188D01*
X-20609812Y-25636003D01*
X-20385685Y-25354956D01*
X-20194434Y-25050582D01*
X-20194432Y-25050579D01*
X-20038465Y-24726711D01*
X-19919741Y-24387419D01*
X-19919737Y-24387407D01*
X-19839748Y-24036951D01*
X-19839746Y-24036935D01*
X-19799500Y-23679740D01*
X-19799500Y-23320259D01*
X-19839746Y-22963064D01*
X-19839748Y-22963048D01*
X-19919737Y-22612592D01*
X-19919741Y-22612580D01*
X-20038465Y-22273288D01*
X-20194432Y-21949420D01*
X-20385684Y-21645045D01*
X-20609811Y-21363997D01*
X-20863997Y-21109811D01*
X-21145045Y-20885684D01*
X-21449420Y-20694432D01*
X-21773288Y-20538465D01*
X-22112580Y-20419741D01*
X-22112592Y-20419737D01*
X-22463048Y-20339748D01*
X-22463064Y-20339746D01*
X-22820259Y-20299500D01*
X-22820264Y-20299500D01*
X-23077216Y-20299500D01*
X-23144255Y-20279815D01*
X-23190010Y-20227011D01*
X-23199954Y-20157853D01*
X-23170929Y-20094297D01*
X-23165856Y-20088788D01*
X-22941641Y-19859590D01*
X-22726225Y-19591096D01*
X-22633868Y-19449479D01*
X-22538193Y-19302774D01*
X-22538187Y-19302764D01*
X-22401138Y-19039280D01*
X-22379342Y-18997377D01*
X-22379339Y-18997370D01*
X-22379337Y-18997366D01*
X-22251221Y-18677882D01*
X-22155063Y-18347363D01*
X-22155061Y-18347357D01*
X-22091788Y-18008987D01*
X-22091787Y-18008981D01*
X-22062016Y-17666062D01*
X-22066029Y-17321842D01*
X-22103788Y-16979701D01*
X-22122827Y-16889570D01*
X-22174932Y-16642898D01*
X-22174932Y-16642896D01*
X-22278769Y-16314710D01*
X-22414307Y-15998277D01*
X-22414311Y-15998269D01*
X-22580219Y-15696693D01*
X-22580237Y-15696665D01*
X-22637083Y-15613779D01*
X-22637084Y-15613780D01*
X-22640302Y-15609088D01*
X-22640306Y-15609079D01*
X-22667628Y-15569245D01*
X-22677033Y-15555533D01*
X-22678106Y-15553942D01*
X-23148375Y-14844986D01*
X-23150453Y-14841745D01*
X-23597977Y-14119362D01*
X-23599953Y-14116059D01*
X-24024837Y-13380139D01*
X-24026710Y-13376776D01*
X-24428564Y-12627989D01*
X-24430331Y-12624570D01*
X-24809164Y-11862842D01*
X-24810006Y-11861115D01*
X-24813807Y-11853164D01*
X-24838011Y-11802541D01*
X-24838018Y-11802532D01*
X-24840902Y-11796500D01*
X-24840902Y-11796499D01*
X-24883833Y-11706717D01*
X-24883838Y-11706708D01*
X-25062057Y-11412237D01*
X-25062070Y-11412218D01*
X-25268329Y-11136635D01*
X-25268345Y-11136617D01*
X-25500623Y-10882618D01*
X-25500632Y-10882610D01*
X-25511848Y-10872537D01*
X-25746132Y-10662122D01*
X-25756734Y-10652600D01*
X-26034175Y-10448816D01*
X-26039249Y-10445808D01*
X-26086871Y-10394681D01*
X-26100000Y-10339151D01*
X-26100000Y-9251362D01*
X-26080315Y-9184323D01*
X-26063681Y-9163681D01*
X-25586242Y-8686242D01*
X-25524919Y-8652757D01*
X-25498752Y-8649923D01*
X-21395217Y-8643826D01*
X-21328151Y-8663411D01*
G37*
%TD.AperFunction*%
%TD*%
%TA.AperFunction,Conductor*%
%TO.N,/PHASB*%
G36*
X-2184323Y-14119685D02*
G01*
X-2163681Y-14136319D01*
X-1536319Y-14763681D01*
X-1502834Y-14825004D01*
X-1500000Y-14851362D01*
X-1500000Y-19450002D01*
X-900002Y-20050000D01*
X2937500Y-20050000D01*
X3500000Y-19487500D01*
X3500000Y-19001362D01*
X3519685Y-18934323D01*
X3536319Y-18913681D01*
X4013681Y-18436319D01*
X4075004Y-18402834D01*
X4101362Y-18400000D01*
X7948638Y-18400000D01*
X8015677Y-18419685D01*
X8036319Y-18436319D01*
X8513681Y-18913681D01*
X8547166Y-18975004D01*
X8550000Y-19001362D01*
X8550000Y-26648638D01*
X8530315Y-26715677D01*
X8513681Y-26736319D01*
X7786319Y-27463681D01*
X7724996Y-27497166D01*
X7698638Y-27500000D01*
X3223633Y-27500000D01*
X3196915Y-27497087D01*
X2989572Y-27451337D01*
X2989560Y-27451335D01*
X2647773Y-27410500D01*
X2647774Y-27410500D01*
X2513928Y-27407735D01*
X2303611Y-27403391D01*
X2303608Y-27403391D01*
X2303600Y-27403391D01*
X2203972Y-27411133D01*
X2203973Y-27411134D01*
X2197711Y-27411620D01*
X2197707Y-27411620D01*
X2167716Y-27413951D01*
X2144787Y-27415734D01*
X2132954Y-27416654D01*
X2131036Y-27416788D01*
X1281946Y-27469573D01*
X1278101Y-27469752D01*
X428747Y-27496128D01*
X424898Y-27496188D01*
X-424896Y-27496188D01*
X-428745Y-27496128D01*
X-1278099Y-27469752D01*
X-1281944Y-27469573D01*
X-2131034Y-27416788D01*
X-2132948Y-27416654D01*
X-2167475Y-27413970D01*
X-2197705Y-27411620D01*
X-2197709Y-27411620D01*
X-2203971Y-27411134D01*
X-2203971Y-27411133D01*
X-2303598Y-27403391D01*
X-2303606Y-27403391D01*
X-2303609Y-27403391D01*
X-2526297Y-27407990D01*
X-2647770Y-27410500D01*
X-2989561Y-27451334D01*
X-3196916Y-27497087D01*
X-3223634Y-27500000D01*
X-7298638Y-27500000D01*
X-7365677Y-27480315D01*
X-7386319Y-27463681D01*
X-8313681Y-26536319D01*
X-8347166Y-26474996D01*
X-8350000Y-26448638D01*
X-8350000Y-14801362D01*
X-8330315Y-14734323D01*
X-8313681Y-14713681D01*
X-7736319Y-14136319D01*
X-7674996Y-14102834D01*
X-7648638Y-14100000D01*
X-2251362Y-14100000D01*
X-2184323Y-14119685D01*
G37*
%TD.AperFunction*%
%TD*%
%TA.AperFunction,Conductor*%
%TO.N,/PHASC*%
G36*
X27100677Y-5604685D02*
G01*
X27121319Y-5621319D01*
X27663681Y-6163681D01*
X27697166Y-6225004D01*
X27700000Y-6251362D01*
X27700000Y-9766536D01*
X27680315Y-9833575D01*
X27627511Y-9879330D01*
X27593578Y-9889284D01*
X27301067Y-9931172D01*
X26966754Y-10013158D01*
X26642093Y-10127548D01*
X26330207Y-10273241D01*
X26330202Y-10273243D01*
X26034131Y-10448819D01*
X26034130Y-10448819D01*
X25756713Y-10652593D01*
X25756709Y-10652596D01*
X25756707Y-10652598D01*
X25500610Y-10882610D01*
X25464001Y-10922643D01*
X25268313Y-11136636D01*
X25268311Y-11136638D01*
X25062054Y-11412227D01*
X24883841Y-11706702D01*
X24883829Y-11706725D01*
X24838485Y-11801554D01*
X24838016Y-11802536D01*
X24838014Y-11802540D01*
X24832339Y-11814410D01*
X24809998Y-11861135D01*
X24809155Y-11862863D01*
X24430326Y-12624581D01*
X24428559Y-12628000D01*
X24026710Y-13376774D01*
X24024837Y-13380137D01*
X23599952Y-14116058D01*
X23597976Y-14119361D01*
X23150444Y-14841760D01*
X23148366Y-14845001D01*
X22678127Y-15553914D01*
X22677054Y-15555505D01*
X22669921Y-15565904D01*
X22640307Y-15609080D01*
X22640303Y-15609089D01*
X22636423Y-15614747D01*
X22636421Y-15614748D01*
X22580238Y-15696665D01*
X22580230Y-15696678D01*
X22414307Y-15998282D01*
X22278774Y-16314701D01*
X22278771Y-16314711D01*
X22174933Y-16642897D01*
X22103789Y-16979702D01*
X22066030Y-17321844D01*
X22062018Y-17666063D01*
X22091789Y-18008984D01*
X22091790Y-18008990D01*
X22155063Y-18347360D01*
X22155065Y-18347366D01*
X22251223Y-18677881D01*
X22379343Y-18997375D01*
X22379350Y-18997389D01*
X22538193Y-19302771D01*
X22538194Y-19302773D01*
X22661496Y-19491840D01*
X22726229Y-19591099D01*
X22772719Y-19649044D01*
X22799318Y-19713649D01*
X22800000Y-19726641D01*
X22800000Y-20190969D01*
X22780315Y-20258008D01*
X22727511Y-20303763D01*
X22689884Y-20314189D01*
X22463064Y-20339746D01*
X22463048Y-20339748D01*
X22112592Y-20419737D01*
X22112580Y-20419741D01*
X21773288Y-20538465D01*
X21449420Y-20694432D01*
X21145045Y-20885684D01*
X20863997Y-21109811D01*
X20609811Y-21363997D01*
X20385684Y-21645045D01*
X20194432Y-21949420D01*
X20038465Y-22273288D01*
X19919741Y-22612580D01*
X19919737Y-22612592D01*
X19839748Y-22963048D01*
X19839746Y-22963064D01*
X19799500Y-23320259D01*
X19799500Y-23679740D01*
X19839746Y-24036935D01*
X19839748Y-24036951D01*
X19919737Y-24387407D01*
X19919741Y-24387419D01*
X20038465Y-24726711D01*
X20194432Y-25050579D01*
X20194434Y-25050582D01*
X20385685Y-25354956D01*
X20609812Y-25636003D01*
X20863997Y-25890188D01*
X21145044Y-26114315D01*
X21449418Y-26305566D01*
X21773292Y-26461536D01*
X22028119Y-26550703D01*
X22112580Y-26580258D01*
X22112592Y-26580262D01*
X22463052Y-26660252D01*
X22463056Y-26660252D01*
X22463065Y-26660254D01*
X22545732Y-26669568D01*
X22610146Y-26696634D01*
X22649701Y-26754229D01*
X22651839Y-26824066D01*
X22619530Y-26880469D01*
X22036319Y-27463681D01*
X21974996Y-27497166D01*
X21948638Y-27500000D01*
X18050000Y-27500000D01*
X11761362Y-27500000D01*
X11694323Y-27480315D01*
X11673681Y-27463681D01*
X10886319Y-26676319D01*
X10852834Y-26614996D01*
X10850000Y-26588638D01*
X10850000Y-16788862D01*
X10869685Y-16721823D01*
X10886319Y-16701181D01*
X11326181Y-16261319D01*
X11387504Y-16227834D01*
X11413862Y-16225000D01*
X12515625Y-16225000D01*
X12900000Y-15840625D01*
X12900000Y-14661518D01*
X12919685Y-14594479D01*
X12936319Y-14573837D01*
X13273837Y-14236319D01*
X13335160Y-14202834D01*
X13361518Y-14200000D01*
X18322552Y-14200000D01*
X19000000Y-13522552D01*
X19000000Y-11540060D01*
X19019685Y-11473021D01*
X19034509Y-11454227D01*
X21350026Y-9040195D01*
X21350012Y-6201351D01*
X21369696Y-6134312D01*
X21386327Y-6113674D01*
X21878681Y-5621318D01*
X21940004Y-5587834D01*
X21966362Y-5585000D01*
X27033638Y-5585000D01*
X27100677Y-5604685D01*
G37*
%TD.AperFunction*%
%TD*%
%TA.AperFunction,Conductor*%
%TO.N,+48V*%
G36*
X24784474Y4395121D02*
G01*
X24816894Y4385748D01*
X24848620Y4371499D01*
X29327083Y1546002D01*
X29353949Y1523113D01*
X29367246Y1508024D01*
X29395269Y1452908D01*
X29397049Y1444888D01*
X29399995Y1418015D01*
X29399896Y-664701D01*
X29399860Y-1408488D01*
X29399850Y-1609826D01*
X29889823Y-2099845D01*
X33030813Y-2099996D01*
X33065743Y-2105019D01*
X33090989Y-2112433D01*
X33143727Y-2143727D01*
X34051073Y-3051073D01*
X34072223Y-3079325D01*
X34084831Y-3102414D01*
X34100000Y-3161843D01*
X34100000Y-5930808D01*
X34094976Y-5965745D01*
X34087564Y-5990986D01*
X34056269Y-6043730D01*
X33548926Y-6551073D01*
X33520675Y-6572222D01*
X33497587Y-6584830D01*
X33438157Y-6600000D01*
X29969192Y-6600000D01*
X29934256Y-6594977D01*
X29909014Y-6587565D01*
X29856269Y-6556269D01*
X29448926Y-6148926D01*
X29427774Y-6120670D01*
X29415167Y-6097581D01*
X29400000Y-6038156D01*
X29400000Y-5662500D01*
X29087500Y-5350000D01*
X28001270Y-5350000D01*
X27966334Y-5344977D01*
X27941092Y-5337565D01*
X27888347Y-5306269D01*
X27860292Y-5278213D01*
X27860288Y-5278210D01*
X27729185Y-5190609D01*
X27729172Y-5190602D01*
X27729165Y-5190598D01*
X27583502Y-5130264D01*
X27583471Y-5130257D01*
X27428847Y-5099500D01*
X27428845Y-5099500D01*
X27428842Y-5099500D01*
X27271158Y-5099500D01*
X27271155Y-5099500D01*
X27271151Y-5099500D01*
X27243377Y-5105024D01*
X27184261Y-5102385D01*
X27176059Y-5099977D01*
X27176056Y-5099976D01*
X27104589Y-5089701D01*
X27033638Y-5079500D01*
X27033636Y-5079500D01*
X21966360Y-5079500D01*
X21912311Y-5082397D01*
X21912310Y-5082397D01*
X21885977Y-5085229D01*
X21885950Y-5085232D01*
X21832562Y-5093884D01*
X21832551Y-5093886D01*
X21767483Y-5118155D01*
X21699961Y-5123591D01*
X21606616Y-5105024D01*
X21578845Y-5099500D01*
X21578844Y-5099500D01*
X21421153Y-5099500D01*
X21266527Y-5130257D01*
X21266496Y-5130264D01*
X21120833Y-5190598D01*
X21120824Y-5190603D01*
X21120807Y-5190613D01*
X20989708Y-5278211D01*
X20989707Y-5278212D01*
X20989701Y-5278217D01*
X20878217Y-5389701D01*
X20878212Y-5389707D01*
X20878211Y-5389708D01*
X20790613Y-5520807D01*
X20790603Y-5520824D01*
X20790598Y-5520833D01*
X20730264Y-5666496D01*
X20730257Y-5666527D01*
X20699500Y-5821150D01*
X20699500Y-5978850D01*
X20730259Y-6133486D01*
X20730260Y-6133488D01*
X20730262Y-6133493D01*
X20730263Y-6133497D01*
X20731432Y-6136319D01*
X20741687Y-6161077D01*
X20750414Y-6195272D01*
X20753226Y-6221425D01*
X20744499Y-6282131D01*
X20730263Y-6316500D01*
X20730262Y-6316503D01*
X20719648Y-6369862D01*
X20716242Y-6383113D01*
X20711364Y-6398511D01*
X20706728Y-6405813D01*
X20708781Y-6406664D01*
X20705472Y-6417110D01*
X20700218Y-6429780D01*
X20700214Y-6433710D01*
X20700214Y-6433712D01*
X20700195Y-6455133D01*
X20700044Y-6461147D01*
X20699748Y-6467131D01*
X20699596Y-6469190D01*
X20699500Y-6471149D01*
X20699500Y-6629498D01*
X20699501Y-6629544D01*
X20699881Y-6637369D01*
X20700027Y-6643493D01*
X20699995Y-6679721D01*
X20699606Y-7114142D01*
X20699600Y-7120653D01*
X20699500Y-7121158D01*
X20699500Y-7234608D01*
X20699500Y-7234719D01*
X20697976Y-8939988D01*
X20678231Y-9007010D01*
X20663464Y-9025713D01*
X18669698Y-11104307D01*
X18637617Y-11141166D01*
X18637591Y-11141197D01*
X18622804Y-11159944D01*
X18622794Y-11159958D01*
X18594432Y-11199725D01*
X18534663Y-11330597D01*
X18514976Y-11397642D01*
X18494500Y-11540061D01*
X18494500Y-13261806D01*
X18474815Y-13328845D01*
X18458181Y-13349487D01*
X18149487Y-13658181D01*
X18088164Y-13691666D01*
X18061806Y-13694500D01*
X13361516Y-13694500D01*
X13307467Y-13697397D01*
X13307466Y-13697397D01*
X13281133Y-13700229D01*
X13281106Y-13700232D01*
X13227710Y-13708885D01*
X13227708Y-13708885D01*
X13092903Y-13759166D01*
X13031578Y-13792651D01*
X12916396Y-13878876D01*
X12916384Y-13878886D01*
X12578892Y-14216379D01*
X12578855Y-14216418D01*
X12542728Y-14256636D01*
X12542718Y-14256648D01*
X12526076Y-14277299D01*
X12494433Y-14321181D01*
X12434663Y-14452055D01*
X12414976Y-14519100D01*
X12404509Y-14591903D01*
X12394871Y-14658942D01*
X12394500Y-14661519D01*
X12394500Y-15579879D01*
X12374815Y-15646918D01*
X12358181Y-15667560D01*
X12342560Y-15683181D01*
X12281237Y-15716666D01*
X12254879Y-15719500D01*
X11413860Y-15719500D01*
X11359811Y-15722397D01*
X11359810Y-15722397D01*
X11333477Y-15725229D01*
X11333450Y-15725232D01*
X11280054Y-15733885D01*
X11280052Y-15733885D01*
X11145247Y-15784166D01*
X11083922Y-15817651D01*
X10968740Y-15903876D01*
X10968728Y-15903886D01*
X10528892Y-16343723D01*
X10528855Y-16343762D01*
X10492728Y-16383980D01*
X10492718Y-16383992D01*
X10476076Y-16404643D01*
X10444433Y-16448525D01*
X10384663Y-16579399D01*
X10364976Y-16646444D01*
X10344500Y-16788863D01*
X10344500Y-18663223D01*
X10324815Y-18730262D01*
X10272011Y-18776017D01*
X10220595Y-18787223D01*
X9094721Y-18788089D01*
X9027667Y-18768456D01*
X8990900Y-18732037D01*
X8988175Y-18727877D01*
X8957347Y-18671420D01*
X8908067Y-18605590D01*
X8905945Y-18602350D01*
X8902500Y-18590988D01*
X8888053Y-18558585D01*
X8886753Y-18552050D01*
X8869737Y-18466503D01*
X8869735Y-18466498D01*
X8809397Y-18320827D01*
X8809390Y-18320814D01*
X8721789Y-18189711D01*
X8721786Y-18189707D01*
X8721781Y-18189701D01*
X8610297Y-18078217D01*
X8610291Y-18078212D01*
X8610290Y-18078211D01*
X8479191Y-17990613D01*
X8479190Y-17990612D01*
X8479185Y-17990609D01*
X8479172Y-17990602D01*
X8479165Y-17990598D01*
X8333502Y-17930264D01*
X8333471Y-17930257D01*
X8178847Y-17899500D01*
X8178845Y-17899500D01*
X8178842Y-17899500D01*
X8021158Y-17899500D01*
X8021155Y-17899500D01*
X8021151Y-17899500D01*
X8015098Y-17900097D01*
X8014971Y-17898814D01*
X7984311Y-17899628D01*
X7948643Y-17894500D01*
X7948638Y-17894500D01*
X4101362Y-17894500D01*
X4101360Y-17894500D01*
X4047313Y-17897397D01*
X4020965Y-17900230D01*
X4019297Y-17900455D01*
X4019244Y-17900065D01*
X3984968Y-17899434D01*
X3984903Y-17900097D01*
X3978847Y-17899500D01*
X3978845Y-17899500D01*
X3978842Y-17899500D01*
X3821153Y-17899500D01*
X3666527Y-17930257D01*
X3666496Y-17930264D01*
X3520833Y-17990598D01*
X3520824Y-17990603D01*
X3520807Y-17990613D01*
X3389708Y-18078211D01*
X3389707Y-18078212D01*
X3389701Y-18078217D01*
X3278217Y-18189701D01*
X3278212Y-18189707D01*
X3278211Y-18189708D01*
X3190613Y-18320807D01*
X3190603Y-18320824D01*
X3190598Y-18320833D01*
X3130264Y-18466496D01*
X3130257Y-18466527D01*
X3099500Y-18621150D01*
X3099500Y-18622956D01*
X3099175Y-18624449D01*
X3098903Y-18627213D01*
X3098580Y-18627181D01*
X3088293Y-18674469D01*
X3079678Y-18693332D01*
X3067351Y-18720324D01*
X3021594Y-18773126D01*
X2954653Y-18792809D01*
X-870405Y-18795748D01*
X-937459Y-18776115D01*
X-983255Y-18723346D01*
X-994500Y-18671748D01*
X-994500Y-14851359D01*
X-997397Y-14797311D01*
X-997397Y-14797310D01*
X-1000229Y-14770977D01*
X-1000232Y-14770950D01*
X-1008885Y-14717554D01*
X-1008885Y-14717552D01*
X-1059166Y-14582747D01*
X-1092651Y-14521422D01*
X-1178876Y-14406240D01*
X-1178886Y-14406228D01*
X-1806223Y-13778892D01*
X-1806262Y-13778855D01*
X-1846480Y-13742728D01*
X-1846492Y-13742718D01*
X-1867143Y-13726076D01*
X-1911025Y-13694433D01*
X-2041899Y-13634663D01*
X-2108944Y-13614976D01*
X-2203890Y-13601325D01*
X-2251362Y-13594500D01*
X-2251363Y-13594500D01*
X-7648640Y-13594500D01*
X-7702688Y-13597397D01*
X-7702689Y-13597397D01*
X-7729022Y-13600229D01*
X-7729049Y-13600232D01*
X-7782445Y-13608885D01*
X-7782447Y-13608885D01*
X-7914611Y-13658181D01*
X-7917257Y-13659168D01*
X-7958256Y-13681555D01*
X-7978577Y-13692651D01*
X-7978578Y-13692652D01*
X-7978580Y-13692653D01*
X-8093761Y-13778877D01*
X-8093765Y-13778881D01*
X-8093771Y-13778886D01*
X-8531263Y-14216379D01*
X-8671123Y-14356239D01*
X-8671137Y-14356255D01*
X-8671144Y-14356262D01*
X-8707271Y-14396480D01*
X-8707281Y-14396492D01*
X-8707288Y-14396500D01*
X-8723922Y-14417142D01*
X-8755567Y-14461026D01*
X-8815338Y-14591903D01*
X-8835023Y-14658942D01*
X-8835024Y-14658946D01*
X-8855500Y-14801362D01*
X-8855500Y-14801365D01*
X-8855500Y-18677981D01*
X-8875185Y-18745020D01*
X-8927989Y-18790775D01*
X-8979405Y-18801981D01*
X-10020405Y-18802781D01*
X-10087459Y-18783148D01*
X-10133255Y-18730379D01*
X-10144500Y-18678781D01*
X-10144500Y-11801361D01*
X-10147397Y-11747313D01*
X-10147397Y-11747312D01*
X-10150229Y-11720979D01*
X-10150232Y-11720952D01*
X-10158885Y-11667556D01*
X-10158885Y-11667554D01*
X-10209166Y-11532749D01*
X-10242651Y-11471424D01*
X-10328876Y-11356242D01*
X-10328886Y-11356230D01*
X-11206225Y-10478892D01*
X-11206264Y-10478855D01*
X-11246482Y-10442728D01*
X-11246494Y-10442718D01*
X-11267145Y-10426076D01*
X-11311027Y-10394433D01*
X-11441901Y-10334663D01*
X-11508946Y-10314976D01*
X-11603892Y-10301325D01*
X-11651364Y-10294500D01*
X-11651365Y-10294500D01*
X-20212012Y-10294500D01*
X-20279051Y-10274815D01*
X-20299854Y-10258020D01*
X-20355825Y-10201843D01*
X-20389197Y-10140458D01*
X-20391982Y-10113869D01*
X-20388442Y-9147221D01*
X-20391238Y-9092241D01*
X-20394068Y-9065461D01*
X-20394069Y-9065460D01*
X-20394089Y-9065334D01*
X-20402823Y-9011118D01*
X-20410782Y-8989779D01*
X-20453103Y-8876308D01*
X-20453106Y-8876301D01*
X-20485518Y-8816942D01*
X-20486288Y-8815468D01*
X-20486586Y-8814985D01*
X-20572811Y-8699803D01*
X-20572822Y-8699791D01*
X-20949914Y-8322700D01*
X-20990473Y-8286294D01*
X-21011247Y-8269580D01*
X-21011282Y-8269553D01*
X-21055481Y-8237756D01*
X-21055486Y-8237754D01*
X-21186449Y-8178177D01*
X-21251282Y-8159244D01*
X-21252911Y-8158734D01*
X-21253525Y-8158590D01*
X-21395961Y-8138327D01*
X-21395967Y-8138327D01*
X-21395968Y-8138327D01*
X-23605563Y-8141610D01*
X-25499509Y-8144424D01*
X-25499513Y-8144424D01*
X-25553185Y-8147362D01*
X-25579336Y-8150194D01*
X-25579342Y-8150195D01*
X-25579346Y-8150195D01*
X-25579349Y-8150196D01*
X-25588292Y-8151648D01*
X-25632369Y-8158808D01*
X-25767175Y-8209089D01*
X-25767180Y-8209091D01*
X-25808179Y-8231478D01*
X-25828500Y-8242574D01*
X-25828501Y-8242575D01*
X-25828503Y-8242576D01*
X-25935535Y-8322700D01*
X-25947229Y-8331454D01*
X-25947797Y-8330694D01*
X-25974811Y-8347374D01*
X-26079165Y-8390598D01*
X-26079172Y-8390602D01*
X-26079185Y-8390609D01*
X-26079190Y-8390612D01*
X-26079191Y-8390613D01*
X-26210290Y-8478211D01*
X-26210291Y-8478212D01*
X-26210297Y-8478217D01*
X-26321781Y-8589701D01*
X-26321786Y-8589707D01*
X-26321789Y-8589711D01*
X-26409390Y-8720814D01*
X-26409397Y-8720827D01*
X-26414645Y-8733497D01*
X-26459179Y-8841013D01*
X-26473162Y-8866087D01*
X-26505566Y-8911024D01*
X-26505567Y-8911026D01*
X-26565338Y-9041903D01*
X-26585023Y-9108942D01*
X-26585024Y-9108946D01*
X-26605500Y-9251362D01*
X-26605500Y-9251365D01*
X-26605500Y-9965303D01*
X-26625185Y-10032342D01*
X-26677989Y-10078097D01*
X-26747147Y-10088041D01*
X-26770705Y-10082257D01*
X-26966798Y-10013169D01*
X-27301130Y-9931182D01*
X-27641871Y-9882391D01*
X-27985785Y-9867260D01*
X-28329467Y-9885937D01*
X-28329502Y-9885942D01*
X-28669735Y-9938251D01*
X-29003150Y-10023672D01*
X-29003182Y-10023682D01*
X-29095497Y-10057276D01*
X-29095636Y-10057324D01*
X-30258468Y-10480560D01*
X-30679096Y-10633656D01*
X-31020023Y-10757743D01*
X-31027987Y-10760642D01*
X-31047470Y-10767733D01*
X-31050941Y-10768938D01*
X-31054418Y-10770088D01*
X-31057932Y-10771192D01*
X-31326201Y-10851163D01*
X-31333323Y-10853058D01*
X-31340485Y-10854737D01*
X-31347684Y-10856201D01*
X-31618097Y-10902902D01*
X-31625390Y-10903940D01*
X-31632707Y-10904760D01*
X-31640033Y-10905361D01*
X-31914064Y-10919709D01*
X-31921425Y-10919876D01*
X-31928778Y-10919824D01*
X-31936127Y-10919554D01*
X-32209951Y-10901348D01*
X-32217276Y-10900642D01*
X-32224570Y-10899720D01*
X-32231840Y-10898581D01*
X-32501574Y-10848077D01*
X-32508766Y-10846507D01*
X-32511488Y-10845829D01*
X-32515904Y-10844727D01*
X-32522971Y-10842739D01*
X-32784844Y-10760642D01*
X-32791798Y-10758233D01*
X-32793087Y-10757743D01*
X-32798668Y-10755621D01*
X-32805458Y-10752808D01*
X-33055732Y-10640292D01*
X-33062357Y-10637074D01*
X-33068892Y-10633656D01*
X-33075303Y-10630057D01*
X-33310503Y-10488687D01*
X-33316688Y-10484715D01*
X-33322755Y-10480560D01*
X-33328706Y-10476219D01*
X-33545502Y-10307996D01*
X-33551186Y-10303309D01*
X-33556721Y-10298461D01*
X-33562103Y-10293457D01*
X-33757461Y-10100737D01*
X-33762541Y-10095420D01*
X-33767462Y-10089953D01*
X-33772224Y-10084336D01*
X-33943390Y-9869828D01*
X-33947809Y-9863939D01*
X-33952035Y-9857945D01*
X-33956093Y-9851811D01*
X-34100659Y-9618531D01*
X-34104346Y-9612167D01*
X-34107836Y-9605709D01*
X-34111142Y-9599132D01*
X-34227053Y-9350400D01*
X-34229959Y-9343648D01*
X-34232668Y-9336802D01*
X-34235174Y-9329874D01*
X-34322070Y-9065334D01*
X-34323450Y-9060850D01*
X-34324736Y-9056370D01*
X-34325939Y-9051862D01*
X-34597826Y-7949930D01*
X-34598292Y-7947973D01*
X-34598728Y-7946074D01*
X-34599157Y-7944134D01*
X-34604704Y-7918066D01*
X-34606794Y-7904697D01*
X-34608146Y-7891287D01*
X-34608766Y-7877774D01*
X-34602518Y-7156567D01*
X-34602544Y-7121158D01*
X-34602574Y-7078848D01*
X1999499Y-7078848D01*
X2030257Y-7233471D01*
X2030264Y-7233502D01*
X2090598Y-7379165D01*
X2090603Y-7379174D01*
X2090613Y-7379191D01*
X2178211Y-7510290D01*
X2178212Y-7510291D01*
X2178217Y-7510297D01*
X2289701Y-7621781D01*
X2289707Y-7621786D01*
X2289711Y-7621789D01*
X2420814Y-7709390D01*
X2420827Y-7709397D01*
X2566498Y-7769735D01*
X2566503Y-7769737D01*
X2721153Y-7800499D01*
X2721156Y-7800500D01*
X2721158Y-7800500D01*
X2878844Y-7800500D01*
X2878845Y-7800499D01*
X3033497Y-7769737D01*
X3086079Y-7747956D01*
X3120273Y-7739229D01*
X3136466Y-7737487D01*
X3146424Y-7736417D01*
X3207132Y-7745144D01*
X3266503Y-7769737D01*
X3421153Y-7800499D01*
X3421156Y-7800500D01*
X3421158Y-7800500D01*
X3578844Y-7800500D01*
X3578845Y-7800499D01*
X3733497Y-7769737D01*
X3786079Y-7747956D01*
X3820273Y-7739229D01*
X3836466Y-7737487D01*
X3846424Y-7736417D01*
X3907132Y-7745144D01*
X3966503Y-7769737D01*
X4121153Y-7800499D01*
X4121156Y-7800500D01*
X4121158Y-7800500D01*
X4278844Y-7800500D01*
X4278845Y-7800499D01*
X4433497Y-7769737D01*
X4486079Y-7747956D01*
X4520273Y-7739229D01*
X4536466Y-7737487D01*
X4546424Y-7736417D01*
X4607132Y-7745144D01*
X4666503Y-7769737D01*
X4821153Y-7800499D01*
X4821156Y-7800500D01*
X4821158Y-7800500D01*
X4978844Y-7800500D01*
X4978845Y-7800499D01*
X5133497Y-7769737D01*
X5186079Y-7747956D01*
X5220273Y-7739229D01*
X5236466Y-7737487D01*
X5246424Y-7736417D01*
X5307132Y-7745144D01*
X5366503Y-7769737D01*
X5521153Y-7800499D01*
X5521156Y-7800500D01*
X5521158Y-7800500D01*
X5678844Y-7800500D01*
X5678845Y-7800499D01*
X5833497Y-7769737D01*
X5979179Y-7709394D01*
X6110289Y-7621789D01*
X6221789Y-7510289D01*
X6309394Y-7379179D01*
X6369737Y-7233497D01*
X6400500Y-7078842D01*
X6400500Y-6921158D01*
X6400500Y-6921155D01*
X6400499Y-6921153D01*
X6369737Y-6766503D01*
X6344650Y-6705939D01*
X6342483Y-6697575D01*
X6342628Y-6693043D01*
X6339228Y-6679721D01*
X6336417Y-6653568D01*
X6345145Y-6592864D01*
X6369737Y-6533497D01*
X6400500Y-6378842D01*
X6400500Y-6221158D01*
X6400500Y-6221155D01*
X6400499Y-6221153D01*
X6369737Y-6066503D01*
X6344650Y-6005939D01*
X6342483Y-5997575D01*
X6342628Y-5993043D01*
X6339229Y-5979726D01*
X6336417Y-5953574D01*
X6345145Y-5892864D01*
X6369737Y-5833497D01*
X6400500Y-5678842D01*
X6400500Y-5521158D01*
X6400500Y-5521155D01*
X6400500Y-5520973D01*
X6400065Y-5518972D01*
X6374353Y-5389711D01*
X6374352Y-5389708D01*
X6374351Y-5389701D01*
X6369737Y-5366503D01*
X6359822Y-5342567D01*
X6347857Y-5313679D01*
X6309402Y-5220840D01*
X6309399Y-5220833D01*
X6309397Y-5220827D01*
X6309390Y-5220814D01*
X6221789Y-5089711D01*
X6221786Y-5089707D01*
X6221781Y-5089701D01*
X6110297Y-4978217D01*
X6110291Y-4978212D01*
X6110290Y-4978211D01*
X5979191Y-4890613D01*
X5979190Y-4890612D01*
X5979185Y-4890609D01*
X5979172Y-4890602D01*
X5979165Y-4890598D01*
X5833502Y-4830264D01*
X5833471Y-4830257D01*
X5678847Y-4799500D01*
X5678845Y-4799500D01*
X5678842Y-4799500D01*
X5521158Y-4799500D01*
X5521155Y-4799500D01*
X5521150Y-4799500D01*
X5382464Y-4827086D01*
X5382452Y-4827089D01*
X5366511Y-4830260D01*
X5366506Y-4830262D01*
X5366504Y-4830262D01*
X5366503Y-4830263D01*
X5358992Y-4833373D01*
X5358988Y-4833375D01*
X5313919Y-4852042D01*
X5279722Y-4860770D01*
X5253571Y-4863581D01*
X5192869Y-4854853D01*
X5133498Y-4830262D01*
X5133488Y-4830259D01*
X4978849Y-4799500D01*
X4978845Y-4799500D01*
X4978842Y-4799500D01*
X4821158Y-4799500D01*
X4821155Y-4799500D01*
X4821150Y-4799500D01*
X4682464Y-4827086D01*
X4682452Y-4827089D01*
X4666511Y-4830260D01*
X4666506Y-4830262D01*
X4666504Y-4830262D01*
X4666503Y-4830263D01*
X4658992Y-4833373D01*
X4658988Y-4833375D01*
X4613919Y-4852042D01*
X4579722Y-4860770D01*
X4553571Y-4863581D01*
X4492869Y-4854853D01*
X4433498Y-4830262D01*
X4433488Y-4830259D01*
X4278849Y-4799500D01*
X4278845Y-4799500D01*
X4278842Y-4799500D01*
X4121158Y-4799500D01*
X4121155Y-4799500D01*
X4121150Y-4799500D01*
X3982464Y-4827086D01*
X3982452Y-4827089D01*
X3966511Y-4830260D01*
X3966506Y-4830262D01*
X3966504Y-4830262D01*
X3966503Y-4830263D01*
X3958992Y-4833373D01*
X3958988Y-4833375D01*
X3913919Y-4852042D01*
X3879722Y-4860770D01*
X3853571Y-4863581D01*
X3792869Y-4854853D01*
X3733498Y-4830262D01*
X3733488Y-4830259D01*
X3578849Y-4799500D01*
X3578845Y-4799500D01*
X3578842Y-4799500D01*
X3421158Y-4799500D01*
X3421155Y-4799500D01*
X3421150Y-4799500D01*
X3282464Y-4827086D01*
X3282452Y-4827089D01*
X3266511Y-4830260D01*
X3266506Y-4830262D01*
X3266504Y-4830262D01*
X3266503Y-4830263D01*
X3258992Y-4833373D01*
X3258988Y-4833375D01*
X3213919Y-4852042D01*
X3179722Y-4860770D01*
X3153571Y-4863581D01*
X3092869Y-4854853D01*
X3033498Y-4830262D01*
X3033488Y-4830259D01*
X2878849Y-4799500D01*
X2878845Y-4799500D01*
X2878842Y-4799500D01*
X2721158Y-4799500D01*
X2721155Y-4799500D01*
X2721153Y-4799500D01*
X2566527Y-4830257D01*
X2566496Y-4830264D01*
X2420833Y-4890598D01*
X2420824Y-4890603D01*
X2420807Y-4890613D01*
X2289708Y-4978211D01*
X2289707Y-4978212D01*
X2289701Y-4978217D01*
X2178217Y-5089701D01*
X2178212Y-5089707D01*
X2178211Y-5089708D01*
X2090613Y-5220807D01*
X2090603Y-5220824D01*
X2090598Y-5220833D01*
X2030264Y-5366496D01*
X2030257Y-5366527D01*
X1999500Y-5521150D01*
X1999500Y-5678850D01*
X2030259Y-5833487D01*
X2030262Y-5833496D01*
X2030263Y-5833497D01*
X2035732Y-5846701D01*
X2052042Y-5886078D01*
X2060770Y-5920277D01*
X2063581Y-5946429D01*
X2054854Y-6007130D01*
X2030260Y-6066509D01*
X2030258Y-6066516D01*
X1999500Y-6221148D01*
X1999500Y-6378850D01*
X2030259Y-6533490D01*
X2030261Y-6533493D01*
X2052041Y-6586076D01*
X2060770Y-6620276D01*
X2063581Y-6646429D01*
X2054854Y-6707130D01*
X2030260Y-6766509D01*
X2030258Y-6766516D01*
X1999500Y-6921148D01*
X1999500Y-6921153D01*
X1999500Y-7078846D01*
X1999500Y-7078848D01*
X1999499Y-7078848D01*
X-34602574Y-7078848D01*
X-34603701Y-5515155D01*
X-34603846Y-5313679D01*
X-34605224Y-3401165D01*
X-34600226Y-3366227D01*
X-34592834Y-3340985D01*
X-34561576Y-3288216D01*
X-34556871Y-3283505D01*
X-33901861Y-2627549D01*
X-33473926Y-2198996D01*
X-33445688Y-2177826D01*
X-33422622Y-2165209D01*
X-33363119Y-2150000D01*
X-28880000Y-2150000D01*
X-27601155Y-871155D01*
X-10825500Y-871155D01*
X-10825500Y-871158D01*
X-10825500Y-1028842D01*
X-10794737Y-1183497D01*
X-10794734Y-1183502D01*
X-10794734Y-1183505D01*
X-10772958Y-1236076D01*
X-10764229Y-1270273D01*
X-10761417Y-1296424D01*
X-10770146Y-1357135D01*
X-10794735Y-1416496D01*
X-10794738Y-1416506D01*
X-10796126Y-1423486D01*
X-10796128Y-1423496D01*
X-10825065Y-1568971D01*
X-10825500Y-1570973D01*
X-10825500Y-1571155D01*
X-10825500Y-1571158D01*
X-10825500Y-1728842D01*
X-10794737Y-1883497D01*
X-10794734Y-1883502D01*
X-10794734Y-1883505D01*
X-10772958Y-1936076D01*
X-10764229Y-1970273D01*
X-10761417Y-1996424D01*
X-10770144Y-2057132D01*
X-10794737Y-2116503D01*
X-10811146Y-2198997D01*
X-10819208Y-2239526D01*
X-10825064Y-2268966D01*
X-10825500Y-2270971D01*
X-10825500Y-2271155D01*
X-10825500Y-2271158D01*
X-10825500Y-2428842D01*
X-10794737Y-2583497D01*
X-10794734Y-2583502D01*
X-10794734Y-2583505D01*
X-10772958Y-2636076D01*
X-10764229Y-2670273D01*
X-10761417Y-2696424D01*
X-10770144Y-2757132D01*
X-10794737Y-2816503D01*
X-10803293Y-2859517D01*
X-10825064Y-2968966D01*
X-10825500Y-2970971D01*
X-10825500Y-2971155D01*
X-10825500Y-2971158D01*
X-10825500Y-3128842D01*
X-10794737Y-3283497D01*
X-10794734Y-3283502D01*
X-10794734Y-3283505D01*
X-10772958Y-3336076D01*
X-10764229Y-3370273D01*
X-10761417Y-3396424D01*
X-10770144Y-3457132D01*
X-10794737Y-3516503D01*
X-10805305Y-3569632D01*
X-10812639Y-3606501D01*
X-10825064Y-3668966D01*
X-10825500Y-3670971D01*
X-10825500Y-3671155D01*
X-10825500Y-3671158D01*
X-10825500Y-3828842D01*
X-10794737Y-3983497D01*
X-10734394Y-4129179D01*
X-10646789Y-4260289D01*
X-10535289Y-4371789D01*
X-10404179Y-4459394D01*
X-10258497Y-4519737D01*
X-10103845Y-4550499D01*
X-10103844Y-4550500D01*
X-10103842Y-4550500D01*
X-9946156Y-4550500D01*
X-9946153Y-4550499D01*
X-9940578Y-4549390D01*
X-9791503Y-4519737D01*
X-9708742Y-4485456D01*
X-9674548Y-4476729D01*
X-9648394Y-4473917D01*
X-9587681Y-4482647D01*
X-9558497Y-4494737D01*
X-9415814Y-4523118D01*
X-9407964Y-4525500D01*
X-9246156Y-4525500D01*
X-9246155Y-4525500D01*
X-9241252Y-4524704D01*
X-9238529Y-4523982D01*
X-9217176Y-4519735D01*
X-9091503Y-4494737D01*
X-9041240Y-4473917D01*
X-9026421Y-4467779D01*
X-8992225Y-4459051D01*
X-8969228Y-4456578D01*
X-8966073Y-4456239D01*
X-8905365Y-4464967D01*
X-8833497Y-4494737D01*
X-8678845Y-4525499D01*
X-8678844Y-4525500D01*
X-8678842Y-4525500D01*
X-8521156Y-4525500D01*
X-8521153Y-4525499D01*
X-8492176Y-4519735D01*
X-8366503Y-4494737D01*
X-8311101Y-4471789D01*
X-8220827Y-4434397D01*
X-8220814Y-4434390D01*
X-8089711Y-4346789D01*
X-8089707Y-4346786D01*
X-8089701Y-4346781D01*
X-7978217Y-4235297D01*
X-7978212Y-4235291D01*
X-7978211Y-4235290D01*
X-7890613Y-4104191D01*
X-7890603Y-4104174D01*
X-7890598Y-4104165D01*
X-7830264Y-3958502D01*
X-7830257Y-3958471D01*
X-7824365Y-3928848D01*
X8374499Y-3928848D01*
X8405257Y-4083471D01*
X8405264Y-4083502D01*
X8465598Y-4229165D01*
X8465603Y-4229174D01*
X8465613Y-4229191D01*
X8553211Y-4360290D01*
X8553212Y-4360291D01*
X8553217Y-4360297D01*
X8664701Y-4471781D01*
X8664707Y-4471786D01*
X8664711Y-4471789D01*
X8795814Y-4559390D01*
X8795827Y-4559397D01*
X8917363Y-4609738D01*
X8941503Y-4619737D01*
X8941505Y-4619737D01*
X8941510Y-4619739D01*
X9022146Y-4635778D01*
X9096153Y-4650499D01*
X9096156Y-4650500D01*
X9096158Y-4650500D01*
X9253844Y-4650500D01*
X9253845Y-4650499D01*
X9408497Y-4619737D01*
X9490652Y-4585706D01*
X9524844Y-4576980D01*
X9538698Y-4575490D01*
X9550996Y-4574168D01*
X9611701Y-4582895D01*
X9676503Y-4609737D01*
X9831153Y-4640499D01*
X9831156Y-4640500D01*
X9831158Y-4640500D01*
X9988844Y-4640500D01*
X9988845Y-4640499D01*
X10143497Y-4609737D01*
X10196079Y-4587956D01*
X10230273Y-4579229D01*
X10246466Y-4577487D01*
X10256424Y-4576417D01*
X10317132Y-4585144D01*
X10376503Y-4609737D01*
X10531153Y-4640499D01*
X10531156Y-4640500D01*
X10531158Y-4640500D01*
X10688844Y-4640500D01*
X10688845Y-4640499D01*
X10843497Y-4609737D01*
X10960001Y-4561480D01*
X10989172Y-4549397D01*
X10989172Y-4549396D01*
X10989179Y-4549394D01*
X10989185Y-4549389D01*
X10991539Y-4548415D01*
X10991539Y-4548414D01*
X11000792Y-4544582D01*
X11009677Y-4535698D01*
X11089071Y-4482648D01*
X11120289Y-4461789D01*
X11231789Y-4350289D01*
X11319394Y-4219179D01*
X11379737Y-4073497D01*
X11410500Y-3918842D01*
X11410500Y-3761158D01*
X11410500Y-3761155D01*
X11410499Y-3761153D01*
X11379739Y-3606511D01*
X11379736Y-3606501D01*
X11351826Y-3539119D01*
X11349691Y-3531026D01*
X11349817Y-3526437D01*
X11346300Y-3512655D01*
X11345899Y-3508922D01*
X11343488Y-3486502D01*
X11352216Y-3425795D01*
X11369737Y-3383497D01*
X11400500Y-3228842D01*
X11400500Y-3071158D01*
X11400500Y-3071155D01*
X11400499Y-3071153D01*
X11399013Y-3063681D01*
X11369737Y-2916503D01*
X11354576Y-2879903D01*
X11352298Y-2870414D01*
X11352509Y-2866189D01*
X11349584Y-2854732D01*
X11346771Y-2828569D01*
X11355500Y-2767867D01*
X11359946Y-2757134D01*
X11368062Y-2737540D01*
X11369604Y-2734162D01*
X11369735Y-2733499D01*
X11369737Y-2733497D01*
X11390812Y-2627549D01*
X11400500Y-2578844D01*
X11400500Y-2421080D01*
X11400362Y-2420464D01*
X11397056Y-2403842D01*
X11369737Y-2266503D01*
X11361284Y-2246097D01*
X11358944Y-2235655D01*
X11359197Y-2231762D01*
X11356655Y-2221804D01*
X11353842Y-2195641D01*
X11362571Y-2134940D01*
X11370205Y-2116510D01*
X11379737Y-2093497D01*
X11380133Y-2091509D01*
X11410499Y-1938846D01*
X11410500Y-1938844D01*
X11410500Y-1780971D01*
X11410064Y-1778966D01*
X11400094Y-1728844D01*
X11395122Y-1703850D01*
X11379737Y-1626503D01*
X11372829Y-1609825D01*
X11359170Y-1576849D01*
X11350442Y-1542655D01*
X11347630Y-1516505D01*
X11356358Y-1455794D01*
X11369737Y-1423497D01*
X11369738Y-1423490D01*
X11369740Y-1423486D01*
X11400499Y-1268846D01*
X11400500Y-1268844D01*
X11400500Y-1110971D01*
X11400064Y-1108966D01*
X11392261Y-1069737D01*
X11375796Y-986964D01*
X11369737Y-956503D01*
X11337569Y-878842D01*
X11309397Y-810827D01*
X11309390Y-810814D01*
X11221789Y-679711D01*
X11221786Y-679707D01*
X11221781Y-679701D01*
X11110297Y-568217D01*
X11110291Y-568212D01*
X11110290Y-568211D01*
X10979191Y-480613D01*
X10979190Y-480612D01*
X10979185Y-480609D01*
X10979172Y-480602D01*
X10979165Y-480598D01*
X10833502Y-420264D01*
X10833471Y-420257D01*
X10678847Y-389500D01*
X10678845Y-389500D01*
X10678842Y-389500D01*
X10521158Y-389500D01*
X10521155Y-389500D01*
X10521150Y-389500D01*
X10387323Y-416119D01*
X10387314Y-416121D01*
X10366511Y-420260D01*
X10366506Y-420262D01*
X10366504Y-420262D01*
X10366503Y-420263D01*
X10311016Y-443245D01*
X10308002Y-444317D01*
X10304160Y-444532D01*
X10279722Y-450770D01*
X10253571Y-453581D01*
X10192869Y-444853D01*
X10133498Y-420262D01*
X10133488Y-420259D01*
X9978849Y-389500D01*
X9978845Y-389500D01*
X9978842Y-389500D01*
X9821158Y-389500D01*
X9821155Y-389500D01*
X9821150Y-389500D01*
X9685677Y-416447D01*
X9685671Y-416448D01*
X9666511Y-420260D01*
X9666506Y-420262D01*
X9666504Y-420262D01*
X9666503Y-420263D01*
X9639248Y-431551D01*
X9639239Y-431555D01*
X9626061Y-437014D01*
X9619529Y-439719D01*
X9585333Y-448447D01*
X9559178Y-451259D01*
X9498471Y-442531D01*
X9408498Y-405263D01*
X9408471Y-405257D01*
X9253847Y-374500D01*
X9253845Y-374500D01*
X9253842Y-374500D01*
X9096158Y-374500D01*
X9096155Y-374500D01*
X9096153Y-374500D01*
X8941527Y-405257D01*
X8941496Y-405264D01*
X8795833Y-465598D01*
X8795824Y-465603D01*
X8795807Y-465613D01*
X8664708Y-553211D01*
X8664707Y-553212D01*
X8664701Y-553217D01*
X8553217Y-664701D01*
X8553215Y-664704D01*
X8553213Y-664707D01*
X8553210Y-664711D01*
X8543194Y-679701D01*
X8465613Y-795807D01*
X8465603Y-795824D01*
X8465598Y-795833D01*
X8405264Y-941496D01*
X8405257Y-941527D01*
X8374500Y-1096150D01*
X8374500Y-1253849D01*
X8405258Y-1408481D01*
X8405260Y-1408488D01*
X8405263Y-1408498D01*
X8405266Y-1408505D01*
X8421865Y-1448580D01*
X8430592Y-1482773D01*
X8433404Y-1508922D01*
X8424677Y-1569632D01*
X8405263Y-1616501D01*
X8405261Y-1616506D01*
X8405258Y-1616517D01*
X8374500Y-1771149D01*
X8374500Y-1928850D01*
X8405259Y-2083486D01*
X8405260Y-2083488D01*
X8405262Y-2083493D01*
X8405263Y-2083497D01*
X8409405Y-2093497D01*
X8416687Y-2111077D01*
X8425414Y-2145272D01*
X8428226Y-2171426D01*
X8419499Y-2232133D01*
X8405260Y-2266510D01*
X8405258Y-2266516D01*
X8374500Y-2421148D01*
X8374500Y-2578849D01*
X8405258Y-2733481D01*
X8405261Y-2733492D01*
X8405266Y-2733505D01*
X8421865Y-2773580D01*
X8430592Y-2807773D01*
X8433404Y-2833922D01*
X8424677Y-2894632D01*
X8405263Y-2941501D01*
X8405261Y-2941506D01*
X8405258Y-2941517D01*
X8374500Y-3096149D01*
X8374500Y-3253849D01*
X8405258Y-3408481D01*
X8405261Y-3408492D01*
X8405266Y-3408505D01*
X8421865Y-3448580D01*
X8430592Y-3482773D01*
X8433404Y-3508922D01*
X8424677Y-3569632D01*
X8405263Y-3616501D01*
X8405261Y-3616506D01*
X8405258Y-3616517D01*
X8374500Y-3771149D01*
X8374500Y-3771153D01*
X8374500Y-3928846D01*
X8374500Y-3928848D01*
X8374499Y-3928848D01*
X-7824365Y-3928848D01*
X-7799500Y-3803848D01*
X-7799500Y-3646148D01*
X-7830258Y-3491516D01*
X-7830260Y-3491509D01*
X-7830274Y-3491473D01*
X-7841220Y-3465051D01*
X-7841223Y-3465044D01*
X-7842935Y-3460911D01*
X-7852043Y-3438919D01*
X-7860769Y-3404727D01*
X-7863581Y-3378573D01*
X-7854853Y-3317865D01*
X-7830264Y-3258502D01*
X-7830258Y-3258485D01*
X-7799500Y-3103850D01*
X-7799500Y-2946148D01*
X-7830258Y-2791516D01*
X-7830260Y-2791509D01*
X-7830282Y-2791454D01*
X-7848507Y-2747456D01*
X-7848511Y-2747446D01*
X-7852045Y-2738912D01*
X-7860769Y-2704725D01*
X-7863581Y-2678570D01*
X-7854853Y-2617862D01*
X-7840618Y-2583497D01*
X-7830263Y-2558497D01*
X-7830262Y-2558496D01*
X-7830259Y-2558487D01*
X-7799500Y-2403850D01*
X-7799500Y-2246148D01*
X-7830258Y-2091516D01*
X-7830260Y-2091509D01*
X-7830282Y-2091454D01*
X-7852041Y-2038924D01*
X-7860770Y-2004726D01*
X-7863582Y-1978569D01*
X-7854853Y-1917862D01*
X-7840618Y-1883497D01*
X-7830263Y-1858497D01*
X-7830262Y-1858496D01*
X-7830259Y-1858487D01*
X-7799500Y-1703850D01*
X-7799500Y-1546148D01*
X-7830258Y-1391516D01*
X-7830260Y-1391509D01*
X-7830282Y-1391454D01*
X-7852041Y-1338924D01*
X-7860770Y-1304726D01*
X-7863582Y-1278569D01*
X-7854853Y-1217862D01*
X-7840618Y-1183497D01*
X-7830263Y-1158497D01*
X-7830262Y-1158496D01*
X-7830259Y-1158487D01*
X-7799500Y-1003850D01*
X-7799500Y-846150D01*
X-7799499Y-846150D01*
X-7830257Y-691527D01*
X-7830264Y-691496D01*
X-7890598Y-545833D01*
X-7890603Y-545824D01*
X-7890613Y-545807D01*
X-7978211Y-414708D01*
X-7978212Y-414707D01*
X-7978217Y-414701D01*
X-8089701Y-303217D01*
X-8089707Y-303212D01*
X-8089708Y-303211D01*
X-8220807Y-215613D01*
X-8220824Y-215603D01*
X-8220833Y-215598D01*
X-8366496Y-155264D01*
X-8366527Y-155257D01*
X-8521153Y-124500D01*
X-8521155Y-124500D01*
X-8521158Y-124500D01*
X-8678842Y-124500D01*
X-8678845Y-124500D01*
X-8678849Y-124500D01*
X-8833481Y-155258D01*
X-8833488Y-155260D01*
X-8833498Y-155263D01*
X-8833500Y-155264D01*
X-8898579Y-182220D01*
X-8932773Y-190947D01*
X-8958924Y-193759D01*
X-9019633Y-185031D01*
X-9091484Y-155269D01*
X-9091506Y-155261D01*
X-9091517Y-155258D01*
X-9246150Y-124500D01*
X-9246155Y-124500D01*
X-9246158Y-124500D01*
X-9403842Y-124500D01*
X-9403845Y-124500D01*
X-9403847Y-124500D01*
X-9558471Y-155257D01*
X-9558481Y-155259D01*
X-9558489Y-155261D01*
X-9558501Y-155264D01*
X-9641255Y-189541D01*
X-9675449Y-198268D01*
X-9701603Y-201080D01*
X-9762309Y-192353D01*
X-9791493Y-180265D01*
X-9791505Y-180261D01*
X-9791525Y-180257D01*
X-9946155Y-149500D01*
X-9946157Y-149500D01*
X-10103847Y-149500D01*
X-10258471Y-180257D01*
X-10258502Y-180264D01*
X-10404165Y-240598D01*
X-10404172Y-240602D01*
X-10404185Y-240609D01*
X-10404190Y-240612D01*
X-10404191Y-240613D01*
X-10535290Y-328211D01*
X-10535291Y-328212D01*
X-10535297Y-328217D01*
X-10646781Y-439701D01*
X-10646786Y-439707D01*
X-10646789Y-439711D01*
X-10734390Y-570814D01*
X-10734395Y-570824D01*
X-10734400Y-570833D01*
X-10779498Y-679711D01*
X-10784380Y-691498D01*
X-10794737Y-716503D01*
X-10813392Y-810288D01*
X-10825499Y-871153D01*
X-10825500Y-871155D01*
X-27601155Y-871155D01*
X-27350000Y-620000D01*
X-27350000Y478844D01*
X-1200500Y478844D01*
X-1200500Y321155D01*
X-1200499Y321153D01*
X-1200296Y320136D01*
X-1200298Y320045D01*
X-1200064Y318966D01*
X-1169739Y166511D01*
X-1169737Y166507D01*
X-1169737Y166503D01*
X-1167736Y161673D01*
X-1147957Y113922D01*
X-1139229Y79726D01*
X-1136417Y53574D01*
X-1145145Y-7134D01*
X-1169737Y-66503D01*
X-1186246Y-149500D01*
X-1187393Y-155264D01*
X-1200064Y-218966D01*
X-1200500Y-220971D01*
X-1200500Y-221155D01*
X-1200500Y-221158D01*
X-1200500Y-378842D01*
X-1169737Y-533497D01*
X-1123067Y-646166D01*
X-1115391Y-664701D01*
X-1115390Y-664704D01*
X-1109395Y-679176D01*
X-1109393Y-679181D01*
X-1084456Y-716502D01*
X-1021789Y-810289D01*
X-910289Y-921789D01*
X-779179Y-1009394D01*
X-633497Y-1069737D01*
X-478845Y-1100499D01*
X-478844Y-1100500D01*
X-478842Y-1100500D01*
X-321156Y-1100500D01*
X-321153Y-1100499D01*
X-166503Y-1069737D01*
X-113922Y-1047957D01*
X-79726Y-1039229D01*
X-57397Y-1036828D01*
X-53573Y-1036417D01*
X7135Y-1045145D01*
X66503Y-1069737D01*
X221153Y-1100499D01*
X221156Y-1100500D01*
X221158Y-1100500D01*
X378844Y-1100500D01*
X378845Y-1100499D01*
X533497Y-1069737D01*
X679179Y-1009394D01*
X687488Y-1003842D01*
X706291Y-991278D01*
X712754Y-986961D01*
X712865Y-986887D01*
X731596Y-974370D01*
X780792Y-941498D01*
X810289Y-921789D01*
X921789Y-810289D01*
X984456Y-716502D01*
X1009393Y-679181D01*
X1009395Y-679176D01*
X1015390Y-664704D01*
X1015391Y-664701D01*
X1023063Y-646174D01*
X1023069Y-646167D01*
X1023067Y-646167D01*
X1036736Y-613166D01*
X1069737Y-533497D01*
X1100500Y-378842D01*
X1100500Y-221158D01*
X1100500Y-221155D01*
X1100499Y-221153D01*
X1087393Y-155264D01*
X1069737Y-66503D01*
X1044650Y-5940D01*
X1042483Y2424D01*
X1042628Y6956D01*
X1039229Y20273D01*
X1036417Y46424D01*
X1045145Y107134D01*
X1067736Y161673D01*
X1069737Y166503D01*
X1100499Y321153D01*
X1100500Y321155D01*
X1100500Y478844D01*
X1100499Y478846D01*
X1069737Y633497D01*
X1009394Y779179D01*
X921789Y910289D01*
X810289Y1021789D01*
X679179Y1109394D01*
X533497Y1169737D01*
X489638Y1178460D01*
X456523Y1185048D01*
X456520Y1185048D01*
X378845Y1200500D01*
X221153Y1200500D01*
X178270Y1191969D01*
X127858Y1181941D01*
X66503Y1169737D01*
X8072Y1145533D01*
X2006Y1143719D01*
X-2775Y1143694D01*
X-20273Y1139229D01*
X-36466Y1137487D01*
X-46424Y1136417D01*
X-107132Y1145144D01*
X-166503Y1169737D01*
X-227858Y1181941D01*
X-243477Y1185048D01*
X-321153Y1200500D01*
X-321155Y1200500D01*
X-321158Y1200500D01*
X-478842Y1200500D01*
X-478845Y1200500D01*
X-556520Y1185048D01*
X-633497Y1169737D01*
X-779179Y1109394D01*
X-910289Y1021789D01*
X-1021789Y910289D01*
X-1109394Y779179D01*
X-1169737Y633497D01*
X-1200499Y478846D01*
X-1200500Y478844D01*
X-27350000Y478844D01*
X-27350000Y3072996D01*
X-27344976Y3107933D01*
X-27337564Y3133174D01*
X-27306269Y3185918D01*
X-26144546Y4347641D01*
X-26083223Y4381126D01*
X-26056957Y4383960D01*
X-4358659Y4400000D01*
X24750035Y4400000D01*
X24784474Y4395121D01*
G37*
%TD.AperFunction*%
%TD*%
%TA.AperFunction,Conductor*%
%TO.N,GND*%
G36*
X-565003Y13240048D02*
G01*
X-530072Y13235009D01*
X-503937Y13227322D01*
X-445177Y13189521D01*
X-433121Y13163090D01*
X4748261Y8389079D01*
X4770657Y8361533D01*
X4783749Y8339643D01*
X4801330Y8275996D01*
X4801330Y5709208D01*
X4796306Y5674271D01*
X4788894Y5649030D01*
X4757599Y5596286D01*
X4121934Y4960621D01*
X4093681Y4939470D01*
X4070575Y4926853D01*
X4011242Y4911687D01*
X-26612262Y4889052D01*
X-28300739Y3198075D01*
X-28299222Y1147759D01*
X-28299221Y1146796D01*
X-28298573Y271512D01*
X-28303570Y236574D01*
X-28310961Y211333D01*
X-28342250Y158531D01*
X-28502664Y-2000D01*
X-29809916Y-1310218D01*
X-29810717Y-1311020D01*
X-29838964Y-1332181D01*
X-29862041Y-1344793D01*
X-29921508Y-1359983D01*
X-35334645Y-1359983D01*
X-35369587Y-1354958D01*
X-35373406Y-1353836D01*
X-35384587Y-1350553D01*
X-35443347Y-1312791D01*
X-35445577Y-1310218D01*
X-35472364Y-1258297D01*
X-35473537Y-1253472D01*
X-35476901Y-1230176D01*
X-35480891Y-1147761D01*
X-35480972Y-1145742D01*
X-35481034Y-1143810D01*
X-35481082Y-1141833D01*
X-35499450Y-2992D01*
X-35499466Y-992D01*
X-35499466Y992D01*
X-35499450Y2992D01*
X-35481082Y1141836D01*
X-35481034Y1143826D01*
X-35480972Y1145752D01*
X-35480891Y1147759D01*
X-35425807Y2285402D01*
X-35425694Y2287402D01*
X-35425563Y2289429D01*
X-35425418Y2291420D01*
X-35333683Y3426626D01*
X-35333503Y3428645D01*
X-35333309Y3430639D01*
X-35333103Y3432600D01*
X-35208731Y4529647D01*
X-34062500Y4529647D01*
X-34062500Y4320353D01*
X-34021669Y4115080D01*
X-34021668Y4115078D01*
X-33987177Y4031809D01*
X-33987167Y4031787D01*
X-33987166Y4031784D01*
X-33941576Y3921719D01*
X-33941570Y3921711D01*
X-33941569Y3921708D01*
X-33825299Y3747697D01*
X-33825293Y3747689D01*
X-33677309Y3599705D01*
X-33677301Y3599699D01*
X-33503281Y3483423D01*
X-33503278Y3483421D01*
X-33309921Y3403331D01*
X-33309894Y3403325D01*
X-33104653Y3362500D01*
X-32895348Y3362500D01*
X-32895346Y3362500D01*
X-32690104Y3403325D01*
X-32690077Y3403331D01*
X-32496720Y3483421D01*
X-32496717Y3483423D01*
X-32322697Y3599699D01*
X-32322689Y3599705D01*
X-32174705Y3747689D01*
X-32174702Y3747694D01*
X-32113007Y3840028D01*
X-32089419Y3866287D01*
X-32078770Y3875186D01*
X-32014705Y3903070D01*
X-31945736Y3891891D01*
X-31945732Y3891889D01*
X-31941007Y3889628D01*
X-31891429Y3846666D01*
X-31825294Y3747689D01*
X-31677309Y3599704D01*
X-31677301Y3599698D01*
X-31503281Y3483422D01*
X-31503278Y3483420D01*
X-31309921Y3403330D01*
X-31309894Y3403324D01*
X-31104653Y3362499D01*
X-30895348Y3362499D01*
X-30895346Y3362499D01*
X-30690104Y3403324D01*
X-30690077Y3403330D01*
X-30496720Y3483420D01*
X-30496717Y3483422D01*
X-30322697Y3599698D01*
X-30322689Y3599704D01*
X-30174705Y3747688D01*
X-30174699Y3747696D01*
X-30058423Y3921716D01*
X-30058421Y3921719D01*
X-29978331Y4115076D01*
X-29978325Y4115103D01*
X-29937500Y4320344D01*
X-29937500Y4529652D01*
X-29937499Y4529652D01*
X-29978325Y4734893D01*
X-29978331Y4734920D01*
X-30058421Y4928277D01*
X-30058423Y4928280D01*
X-30174699Y5102300D01*
X-30174705Y5102308D01*
X-30322689Y5250292D01*
X-30322697Y5250298D01*
X-30496717Y5366574D01*
X-30496720Y5366576D01*
X-30593398Y5406621D01*
X-30593399Y5406621D01*
X-30690080Y5446668D01*
X-30892378Y5486907D01*
X-30894612Y5487408D01*
X-30895350Y5487499D01*
X-30895352Y5487499D01*
X-30895353Y5487499D01*
X-31104647Y5487499D01*
X-31104648Y5487499D01*
X-31108768Y5487499D01*
X-31116617Y5485117D01*
X-31309920Y5446668D01*
X-31474964Y5378303D01*
X-31502615Y5366850D01*
X-31503244Y5366593D01*
X-31503275Y5366577D01*
X-31503277Y5366576D01*
X-31503282Y5366574D01*
X-31677304Y5250297D01*
X-31825298Y5102303D01*
X-31886995Y5009964D01*
X-31910575Y4983713D01*
X-31921227Y4974811D01*
X-31985288Y4946928D01*
X-32054247Y4958099D01*
X-32058974Y4960360D01*
X-32108570Y5003331D01*
X-32174699Y5102300D01*
X-32174701Y5102303D01*
X-32174704Y5102307D01*
X-32174705Y5102309D01*
X-32322689Y5250293D01*
X-32322697Y5250299D01*
X-32496717Y5366575D01*
X-32496720Y5366577D01*
X-32593398Y5406622D01*
X-32593399Y5406622D01*
X-32690080Y5446669D01*
X-32892378Y5486908D01*
X-32894612Y5487409D01*
X-32895350Y5487500D01*
X-32895352Y5487500D01*
X-32895353Y5487500D01*
X-33104647Y5487500D01*
X-33104648Y5487500D01*
X-33108768Y5487500D01*
X-33116617Y5485118D01*
X-33309920Y5446669D01*
X-33474964Y5378304D01*
X-33503277Y5366577D01*
X-33503282Y5366575D01*
X-33677304Y5250298D01*
X-33825298Y5102304D01*
X-33941575Y4928282D01*
X-34021669Y4734920D01*
X-34062500Y4529647D01*
X-35208731Y4529647D01*
X-35206457Y4549707D01*
X-35204799Y4564332D01*
X-35204553Y4566351D01*
X-35204297Y4568320D01*
X-35204028Y4570268D01*
X-35039305Y5697191D01*
X-35038995Y5699195D01*
X-35038662Y5701239D01*
X-35038330Y5703182D01*
X-34837344Y6824253D01*
X-34836978Y6826206D01*
X-34836608Y6828095D01*
X-34836205Y6830067D01*
X-34599161Y7944112D01*
X-34598722Y7946093D01*
X-34598272Y7948050D01*
X-34597816Y7949966D01*
X-34565965Y8079057D01*
X-11700500Y8079057D01*
X-11700500Y7920943D01*
X-11659577Y7768216D01*
X-11659576Y7768215D01*
X-11659173Y7767323D01*
X-11657587Y7764770D01*
X-11641804Y7737434D01*
X-11628691Y7704677D01*
X-11624254Y7686387D01*
X-11625780Y7622222D01*
X-11628718Y7612217D01*
X-11640303Y7585166D01*
X-11659577Y7551784D01*
X-11700500Y7399057D01*
X-11700500Y7240943D01*
X-11659577Y7088216D01*
X-11659573Y7088209D01*
X-11580524Y6951290D01*
X-11580518Y6951282D01*
X-11580514Y6951278D01*
X-11580513Y6951276D01*
X-11468722Y6839485D01*
X-11468720Y6839484D01*
X-11468717Y6839481D01*
X-11468709Y6839475D01*
X-11442343Y6824253D01*
X-11331810Y6760437D01*
X-11331783Y6760422D01*
X-11219979Y6730464D01*
X-11179057Y6719500D01*
X-11179056Y6719500D01*
X-11020943Y6719500D01*
X-10868229Y6760419D01*
X-10868212Y6760424D01*
X-10837436Y6778192D01*
X-10804672Y6791307D01*
X-10786385Y6795743D01*
X-10722213Y6794214D01*
X-10712219Y6791279D01*
X-10685163Y6779693D01*
X-10652672Y6760936D01*
X-10651848Y6760450D01*
X-10651779Y6760421D01*
X-10543143Y6731312D01*
X-10499057Y6719500D01*
X-10499056Y6719500D01*
X-10340943Y6719500D01*
X-10188218Y6760422D01*
X-10188211Y6760424D01*
X-10188210Y6760425D01*
X-10188200Y6760430D01*
X-10051298Y6839470D01*
X-10051294Y6839472D01*
X-10051290Y6839475D01*
X-10051282Y6839481D01*
X-10051281Y6839481D01*
X-10051278Y6839484D01*
X-10051276Y6839485D01*
X-9939485Y6951276D01*
X-9939484Y6951278D01*
X-9939481Y6951282D01*
X-9939475Y6951290D01*
X-9939470Y6951298D01*
X-9860430Y7088200D01*
X-9860425Y7088210D01*
X-9860424Y7088211D01*
X-9860422Y7088218D01*
X-9819500Y7240943D01*
X-9819500Y7399057D01*
X-9856676Y7537807D01*
X-9856680Y7537816D01*
X-9860423Y7551783D01*
X-9860423Y7551784D01*
X-9860424Y7551786D01*
X-9885027Y7594402D01*
X-9886671Y7597682D01*
X-9887405Y7601748D01*
X-9896309Y7623988D01*
X-9900745Y7642274D01*
X-9899217Y7706441D01*
X-9896284Y7716430D01*
X-9884696Y7743492D01*
X-9870424Y7768212D01*
X-9870422Y7768218D01*
X-9829500Y7920943D01*
X-9829500Y8079055D01*
X-9829501Y8079057D01*
X-9870423Y8231783D01*
X-9870423Y8231784D01*
X-9870424Y8231787D01*
X-9870425Y8231788D01*
X-9870430Y8231798D01*
X-9949470Y8368700D01*
X-9949475Y8368709D01*
X-9949481Y8368717D01*
X-10061282Y8480518D01*
X-10061284Y8480520D01*
X-10061286Y8480521D01*
X-10061290Y8480524D01*
X-10062938Y8481475D01*
X-10063125Y8481636D01*
X-10064475Y8482363D01*
X-10198209Y8559573D01*
X-10198216Y8559577D01*
X-10350943Y8600500D01*
X-10350945Y8600500D01*
X-10509055Y8600500D01*
X-10509057Y8600500D01*
X-10661784Y8559577D01*
X-10687560Y8544694D01*
X-10720321Y8531578D01*
X-10738614Y8527140D01*
X-10802783Y8528669D01*
X-10812778Y8531604D01*
X-10839835Y8543192D01*
X-10868212Y8559575D01*
X-10868213Y8559575D01*
X-10868216Y8559577D01*
X-11020943Y8600500D01*
X-11020945Y8600500D01*
X-11179055Y8600500D01*
X-11179057Y8600500D01*
X-11331784Y8559577D01*
X-11468716Y8480520D01*
X-11580520Y8368716D01*
X-11659577Y8231784D01*
X-11700500Y8079057D01*
X-34565965Y8079057D01*
X-34325939Y9051861D01*
X-34324736Y9056370D01*
X-34323450Y9060850D01*
X-34322070Y9065334D01*
X-34235174Y9329874D01*
X-34232668Y9336802D01*
X-34229959Y9343648D01*
X-34227053Y9350400D01*
X-34111143Y9599129D01*
X-34107842Y9605697D01*
X-34104351Y9612158D01*
X-34100659Y9618531D01*
X-33956087Y9851821D01*
X-33952020Y9857968D01*
X-33947802Y9863949D01*
X-33943392Y9869825D01*
X-33772223Y10084337D01*
X-33767469Y10089945D01*
X-33762549Y10095412D01*
X-33757461Y10100738D01*
X-33562103Y10293458D01*
X-33556721Y10298462D01*
X-33551186Y10303310D01*
X-33545502Y10307997D01*
X-33328706Y10476220D01*
X-33322755Y10480561D01*
X-33316688Y10484716D01*
X-33310503Y10488688D01*
X-33075303Y10630058D01*
X-33068892Y10633657D01*
X-33062357Y10637075D01*
X-33055732Y10640293D01*
X-32805458Y10752809D01*
X-32798668Y10755622D01*
X-32791797Y10758234D01*
X-32784844Y10760643D01*
X-32522972Y10842740D01*
X-32515889Y10844732D01*
X-32508765Y10846509D01*
X-32501575Y10848077D01*
X-32231840Y10898582D01*
X-32224570Y10899721D01*
X-32217276Y10900643D01*
X-32209951Y10901349D01*
X-31936127Y10919555D01*
X-31928778Y10919825D01*
X-31921425Y10919877D01*
X-31914064Y10919710D01*
X-31640033Y10905362D01*
X-31632707Y10904761D01*
X-31625390Y10903941D01*
X-31618097Y10902903D01*
X-31347684Y10856202D01*
X-31340485Y10854738D01*
X-31333323Y10853059D01*
X-31326201Y10851164D01*
X-31057939Y10771195D01*
X-31054441Y10770096D01*
X-31050928Y10768934D01*
X-31047461Y10767730D01*
X-31027452Y10760446D01*
X-31027452Y10760447D01*
X-31013311Y10755300D01*
X-31013309Y10755299D01*
X-30965213Y10737792D01*
X-30965210Y10737792D01*
X-29095636Y10057324D01*
X-29095497Y10057276D01*
X-29003182Y10023682D01*
X-29003150Y10023672D01*
X-28669734Y9938251D01*
X-28669735Y9938251D01*
X-28329502Y9885942D01*
X-28329467Y9885937D01*
X-27988171Y9867390D01*
X-27965226Y9863970D01*
X-27947179Y9859522D01*
X-27886800Y9824368D01*
X-27886632Y9824190D01*
X-27886627Y9824185D01*
X-27886380Y9823923D01*
X-27856051Y9767890D01*
X-27853663Y9757972D01*
X-27850218Y9728970D01*
X-27850000Y8540017D01*
X-27849999Y8540015D01*
X-27550000Y8140017D01*
X-26700000Y8140017D01*
X-26430867Y8316869D01*
X-25999998Y8599999D01*
X-21598971Y13198826D01*
X-21571188Y13220593D01*
X-21548792Y13233469D01*
X-21486929Y13249969D01*
X-565003Y13240048D01*
G37*
%TD.AperFunction*%
%TD*%
%TA.AperFunction,Conductor*%
%TO.N,+3.3V*%
G36*
X18822487Y17944976D02*
G01*
X18847734Y17937562D01*
X18900454Y17906290D01*
X19251309Y17555620D01*
X19272466Y17527374D01*
X19285082Y17504285D01*
X19300267Y17444893D01*
X19300727Y16578538D01*
X19295723Y16543602D01*
X19288325Y16518356D01*
X19257058Y16465593D01*
X19017381Y16225660D01*
X18989139Y16204495D01*
X18966057Y16191875D01*
X18906638Y16176675D01*
X16439070Y16175366D01*
X15483293Y15220905D01*
X15483293Y15220904D01*
X15478279Y12593438D01*
X15465198Y5738745D01*
X15460107Y5703815D01*
X15455674Y5688826D01*
X15417784Y5630122D01*
X15417778Y5630116D01*
X15416406Y5628932D01*
X15361528Y5601594D01*
X15353963Y5599963D01*
X15327600Y5597179D01*
X13934973Y5599836D01*
X13900061Y5604925D01*
X13874838Y5612384D01*
X13822116Y5643822D01*
X13383107Y6084978D01*
X13362030Y6113280D01*
X13355952Y6124474D01*
X13349485Y6136390D01*
X13334465Y6195914D01*
X13353088Y12472875D01*
X13358214Y12507794D01*
X13364213Y12528003D01*
X13394742Y12579729D01*
X13399346Y12584403D01*
X13418784Y12600478D01*
X13446365Y12618907D01*
X13460294Y12628214D01*
X13571781Y12739701D01*
X13571786Y12739707D01*
X13571787Y12739708D01*
X13659385Y12870807D01*
X13659390Y12870814D01*
X13659397Y12870827D01*
X13719735Y13016498D01*
X13719737Y13016503D01*
X13750499Y13171153D01*
X13750500Y13171155D01*
X13750500Y13328844D01*
X13750499Y13328846D01*
X13719737Y13483497D01*
X13659394Y13629179D01*
X13571789Y13760289D01*
X13460289Y13871789D01*
X13427571Y13893649D01*
X13401313Y13917235D01*
X13387923Y13933257D01*
X13361635Y13987683D01*
X13360240Y13994433D01*
X13357678Y14019885D01*
X13361241Y15220667D01*
X13367118Y17201791D01*
X13372244Y17236709D01*
X13379420Y17260884D01*
X13415808Y17318184D01*
X14076426Y17906726D01*
X14105852Y17926214D01*
X14130906Y17938075D01*
X14183964Y17950000D01*
X18787549Y17950000D01*
X18822487Y17944976D01*
G37*
%TD.AperFunction*%
%TD*%
%TA.AperFunction,Conductor*%
%TO.N,GND*%
G36*
X21479175Y13825708D02*
G01*
X23932995Y13446554D01*
X23935151Y13445541D01*
X23937523Y13445768D01*
X23966606Y13430775D01*
X23996243Y13416863D01*
X23998169Y13414504D01*
X23999626Y13413754D01*
X24011291Y13398441D01*
X24021445Y13386012D01*
X24024843Y13380127D01*
X24024984Y13379544D01*
X24428544Y12628027D01*
X24430326Y12624581D01*
X24809155Y11862863D01*
X24809998Y11861135D01*
X24838014Y11802540D01*
X24838015Y11802537D01*
X24841070Y11796150D01*
X24841084Y11796124D01*
X24883839Y11706714D01*
X24883840Y11706713D01*
X24883842Y11706708D01*
X24883843Y11706708D01*
X25062078Y11412217D01*
X25062080Y11412213D01*
X25062084Y11412208D01*
X25268336Y11136639D01*
X25268345Y11136628D01*
X25500649Y10882607D01*
X25500656Y10882600D01*
X25756753Y10652599D01*
X25756758Y10652594D01*
X26034172Y10448832D01*
X26034183Y10448825D01*
X26330260Y10273253D01*
X26330267Y10273249D01*
X26642135Y10127570D01*
X26642140Y10127567D01*
X26642145Y10127566D01*
X26816843Y10066016D01*
X26966807Y10013181D01*
X27301136Y9931193D01*
X27641881Y9882401D01*
X27985785Y9867269D01*
X28329483Y9885946D01*
X28329509Y9885949D01*
X28626814Y9931656D01*
X28669729Y9938254D01*
X28669735Y9938255D01*
X28669737Y9938255D01*
X29003179Y10023682D01*
X29003194Y10023687D01*
X29096943Y10057802D01*
X29096943Y10057803D01*
X29102996Y10060006D01*
X29103010Y10060008D01*
X29177039Y10086952D01*
X29226843Y10105079D01*
X29226844Y10105080D01*
X29236351Y10108540D01*
X31022004Y10758465D01*
X31049157Y10768347D01*
X31056130Y10770653D01*
X31329713Y10852210D01*
X31344035Y10855569D01*
X31621713Y10903526D01*
X31636332Y10905165D01*
X31917727Y10919899D01*
X31932437Y10919796D01*
X32213609Y10901102D01*
X32228203Y10899257D01*
X32505177Y10847398D01*
X32519450Y10843838D01*
X32788335Y10759544D01*
X32802086Y10754319D01*
X33028359Y10652594D01*
X33059089Y10638779D01*
X33072124Y10631962D01*
X33313646Y10486794D01*
X33325783Y10478481D01*
X33548417Y10305730D01*
X33559483Y10296038D01*
X33760078Y10098151D01*
X33769919Y10087218D01*
X33945681Y9866955D01*
X33954151Y9854942D01*
X34086724Y9641017D01*
X34102591Y9615414D01*
X34109584Y9602473D01*
X34228611Y9347058D01*
X34234023Y9333378D01*
X34322803Y9063111D01*
X34325386Y9054117D01*
X34598059Y7948993D01*
X34598954Y7945096D01*
X34836407Y6829129D01*
X34837176Y6825204D01*
X35038515Y5702165D01*
X35039157Y5698218D01*
X35204175Y4569281D01*
X35204690Y4565314D01*
X35333218Y3431610D01*
X35333604Y3427630D01*
X35425503Y2290405D01*
X35425761Y2286414D01*
X35480940Y1146796D01*
X35481069Y1142799D01*
X35499468Y2000D01*
X35499468Y-2000D01*
X35489815Y-600498D01*
X35469052Y-667211D01*
X35415517Y-712108D01*
X35414581Y-712513D01*
X33886190Y-1366022D01*
X33837440Y-1376007D01*
X30214200Y-1376007D01*
X30147161Y-1356322D01*
X30126519Y-1339688D01*
X29999157Y-1212326D01*
X29965672Y-1151003D01*
X29962838Y-1124645D01*
X29962838Y2023993D01*
X25922251Y4429186D01*
X25753479Y4529649D01*
X29937501Y4529649D01*
X29937501Y4320346D01*
X29978330Y4115085D01*
X29978332Y4115077D01*
X30058424Y3921717D01*
X30174704Y3747691D01*
X30322694Y3599701D01*
X30496720Y3483421D01*
X30690080Y3403329D01*
X30690088Y3403327D01*
X30895349Y3362498D01*
X30895354Y3362498D01*
X31104652Y3362498D01*
X31309913Y3403327D01*
X31309921Y3403329D01*
X31503281Y3483421D01*
X31677307Y3599701D01*
X31825297Y3747691D01*
X31896897Y3854849D01*
X31950510Y3899655D01*
X32019834Y3908362D01*
X32082862Y3878208D01*
X32103102Y3854850D01*
X32174701Y3747695D01*
X32174704Y3747691D01*
X32322693Y3599702D01*
X32496719Y3483422D01*
X32690079Y3403330D01*
X32690087Y3403328D01*
X32895348Y3362499D01*
X32895353Y3362499D01*
X33104651Y3362499D01*
X33309912Y3403328D01*
X33309920Y3403330D01*
X33503280Y3483422D01*
X33677306Y3599702D01*
X33825296Y3747692D01*
X33941576Y3921718D01*
X34021668Y4115077D01*
X34021669Y4115079D01*
X34062500Y4320352D01*
X34062500Y4529646D01*
X34021669Y4734919D01*
X33941575Y4928281D01*
X33825298Y5102303D01*
X33677304Y5250297D01*
X33503282Y5366574D01*
X33309920Y5446668D01*
X33104649Y5487498D01*
X33104648Y5487499D01*
X33104647Y5487499D01*
X32895353Y5487499D01*
X32895352Y5487499D01*
X32895348Y5487498D01*
X32690080Y5446668D01*
X32593399Y5406621D01*
X32496719Y5366575D01*
X32322693Y5250295D01*
X32174703Y5102305D01*
X32174702Y5102303D01*
X32103101Y4995144D01*
X32049491Y4950340D01*
X31980166Y4941633D01*
X31917138Y4971787D01*
X31896900Y4995141D01*
X31825299Y5102302D01*
X31677305Y5250296D01*
X31503283Y5366573D01*
X31503278Y5366575D01*
X31474965Y5378302D01*
X31309921Y5446667D01*
X31104650Y5487497D01*
X31104649Y5487498D01*
X31104648Y5487498D01*
X30895354Y5487498D01*
X30895353Y5487498D01*
X30895349Y5487497D01*
X30690081Y5446667D01*
X30593400Y5406620D01*
X30496720Y5366574D01*
X30322694Y5250294D01*
X30174704Y5102304D01*
X30058424Y4928278D01*
X29978332Y4734918D01*
X29978330Y4734910D01*
X29937501Y4529649D01*
X25753479Y4529649D01*
X24526531Y5259999D01*
X24526529Y5260000D01*
X17223084Y5260000D01*
X17156045Y5279685D01*
X17139486Y5292418D01*
X16240402Y6113120D01*
X16204160Y6172855D01*
X16200000Y6204702D01*
X16200000Y13344557D01*
X16219685Y13411596D01*
X16241317Y13436967D01*
X16639717Y13793431D01*
X16702803Y13823463D01*
X16722344Y13825021D01*
X21460184Y13827162D01*
X21479175Y13825708D01*
G37*
%TD.AperFunction*%
%TD*%
%TA.AperFunction,Conductor*%
%TO.N,/VBAT*%
G36*
X-14123862Y16395342D02*
G01*
X-13587255Y16301690D01*
X-13579695Y16296892D01*
X-13577567Y16290164D01*
X-13577567Y15909835D01*
X-13580994Y15901562D01*
X-13587254Y15898309D01*
X-14123864Y15804657D01*
X-14132602Y15806611D01*
X-14137400Y15814171D01*
X-14137469Y15814618D01*
X-14175788Y16098435D01*
X-14175788Y16101565D01*
X-14137469Y16385381D01*
X-14132966Y16393122D01*
X-14124309Y16395411D01*
X-14123862Y16395342D01*
G37*
%TD.AperFunction*%
%TD*%
%TA.AperFunction,Conductor*%
%TO.N,/VBAT*%
G36*
X-12742467Y16398341D02*
G01*
X-12737603Y16390822D01*
X-12737520Y16390301D01*
X-12699211Y16106565D01*
X-12699211Y16103437D01*
X-12737545Y15819511D01*
X-12742047Y15811773D01*
X-12750704Y15809484D01*
X-12751050Y15809536D01*
X-12847993Y15825586D01*
X-13287644Y15898379D01*
X-13295246Y15903111D01*
X-13297433Y15909922D01*
X-13297433Y16290251D01*
X-13294006Y16298524D01*
X-13287844Y16301759D01*
X-12751222Y16400219D01*
X-12742467Y16398341D01*
G37*
%TD.AperFunction*%
%TD*%
%TA.AperFunction,Conductor*%
%TO.N,/VBAT*%
G36*
X-3917596Y22740876D02*
G01*
X-3652231Y22631913D01*
X-3647369Y22628182D01*
X-3474047Y22400753D01*
X-3471758Y22392096D01*
X-3475710Y22384801D01*
X-3879498Y22036526D01*
X-3888001Y22033719D01*
X-3895413Y22037114D01*
X-4164295Y22305996D01*
X-4167722Y22314269D01*
X-4166218Y22320007D01*
X-3932236Y22735791D01*
X-3925193Y22741320D01*
X-3917596Y22740876D01*
G37*
%TD.AperFunction*%
%TD*%
%TA.AperFunction,Conductor*%
%TO.N,/VBAT*%
G36*
X-14440681Y16210090D02*
G01*
X-14175754Y16101307D01*
X-14173045Y16099743D01*
X-13946771Y15924926D01*
X-13942319Y15917156D01*
X-13944665Y15908514D01*
X-13945045Y15908048D01*
X-14322602Y15470853D01*
X-14330601Y15466833D01*
X-14339102Y15469647D01*
X-14339728Y15470229D01*
X-14608506Y15739007D01*
X-14611933Y15747280D01*
X-14611300Y15751078D01*
X-14456192Y16203065D01*
X-14450265Y16209778D01*
X-14441327Y16210334D01*
X-14440681Y16210090D01*
G37*
%TD.AperFunction*%
%TD*%
%TA.AperFunction,Conductor*%
%TO.N,/VBAT*%
G36*
X-12648980Y16400525D02*
G01*
X-12287216Y16342360D01*
X-12280800Y16339081D01*
X-12013239Y16071520D01*
X-12009812Y16063247D01*
X-12013239Y16054974D01*
X-12017210Y16052366D01*
X-12574524Y15832054D01*
X-12583475Y15832200D01*
X-12589619Y15838424D01*
X-12699486Y16101371D01*
X-12700287Y16107433D01*
X-12662434Y16390524D01*
X-12657941Y16398270D01*
X-12649286Y16400570D01*
X-12648980Y16400525D01*
G37*
%TD.AperFunction*%
%TD*%
%TA.AperFunction,Conductor*%
%TO.N,/I_C*%
G36*
X346627Y22498230D02*
G01*
X604686Y22390407D01*
X608472Y22387860D01*
X609832Y22386492D01*
X613233Y22378464D01*
X613263Y22376875D01*
X612548Y22372622D01*
X443617Y21912420D01*
X441238Y21908523D01*
X439240Y21906355D01*
X433158Y21902859D01*
X433079Y21902841D01*
X430559Y21902567D01*
X250495Y21902567D01*
X246022Y21903455D01*
X243294Y21904585D01*
X237909Y21909100D01*
X237858Y21909180D01*
X236748Y21911423D01*
X67495Y22372500D01*
X66789Y22377009D01*
X66868Y22378939D01*
X70438Y22386883D01*
X71010Y22387434D01*
X71580Y22387984D01*
X75188Y22390356D01*
X333342Y22498218D01*
X337820Y22499122D01*
X342083Y22499134D01*
X346627Y22498230D01*
G37*
%TD.AperFunction*%
%TD*%
%TA.AperFunction,Conductor*%
%TO.N,/I_C*%
G36*
X6960105Y8394006D02*
G01*
X6962815Y8389765D01*
X7133305Y7925316D01*
X7132939Y7916368D01*
X7126833Y7910488D01*
X6864509Y7800883D01*
X6855556Y7800857D01*
X6593164Y7910489D01*
X6586854Y7916840D01*
X6586694Y7925316D01*
X6757185Y8389765D01*
X6763252Y8396350D01*
X6768168Y8397433D01*
X6951832Y8397433D01*
X6960105Y8394006D01*
G37*
%TD.AperFunction*%
%TD*%
%TA.AperFunction,Conductor*%
%TO.N,/I_B*%
G36*
X6183981Y9166542D02*
G01*
X6186706Y9165414D01*
X6192092Y9160896D01*
X6192136Y9160827D01*
X6192565Y9158400D01*
X6193210Y9158637D01*
X6362502Y8697501D01*
X6363209Y8692990D01*
X6363130Y8691060D01*
X6359557Y8683112D01*
X6358414Y8682011D01*
X6354808Y8679642D01*
X6096656Y8571780D01*
X6092182Y8570876D01*
X6087917Y8570863D01*
X6083380Y8571765D01*
X5825308Y8679592D01*
X5821523Y8682140D01*
X5820162Y8683509D01*
X5816765Y8691534D01*
X5816735Y8693123D01*
X5817450Y8697376D01*
X5817496Y8697501D01*
X5986383Y9157581D01*
X5988761Y9161476D01*
X5990759Y9163644D01*
X5996732Y9167115D01*
X5996810Y9167133D01*
X5999441Y9167433D01*
X6179505Y9167433D01*
X6183981Y9166542D01*
G37*
%TD.AperFunction*%
%TD*%
%TA.AperFunction,Conductor*%
%TO.N,/I_B*%
G36*
X-475489Y22919115D02*
G01*
X-213166Y22809511D01*
X-206854Y22803159D01*
X-206694Y22794684D01*
X-377185Y22330235D01*
X-383253Y22323650D01*
X-388168Y22322567D01*
X-571832Y22322567D01*
X-580105Y22325994D01*
X-582815Y22330235D01*
X-753305Y22794683D01*
X-752939Y22803631D01*
X-746833Y22809511D01*
X-484511Y22919115D01*
X-475556Y22919142D01*
X-475489Y22919115D01*
G37*
%TD.AperFunction*%
%TD*%
%TA.AperFunction,Conductor*%
%TO.N,/I_A*%
G36*
X5460105Y9584006D02*
G01*
X5462815Y9579765D01*
X5633305Y9115316D01*
X5632939Y9106368D01*
X5626833Y9100488D01*
X5364509Y8990883D01*
X5355556Y8990857D01*
X5093164Y9100489D01*
X5086854Y9106840D01*
X5086694Y9115316D01*
X5257185Y9579765D01*
X5263252Y9586350D01*
X5268168Y9587433D01*
X5451832Y9587433D01*
X5460105Y9584006D01*
G37*
%TD.AperFunction*%
%TD*%
%TA.AperFunction,Conductor*%
%TO.N,/I_A*%
G36*
X-1153372Y23338230D02*
G01*
X-895312Y23230407D01*
X-891526Y23227860D01*
X-890166Y23226492D01*
X-886765Y23218464D01*
X-886738Y23217008D01*
X-886735Y23216876D01*
X-887449Y23212625D01*
X-1056383Y22752419D01*
X-1058756Y22748529D01*
X-1060761Y22746353D01*
X-1066957Y22742833D01*
X-1066997Y22742825D01*
X-1067040Y22742816D01*
X-1069443Y22742567D01*
X-1249505Y22742567D01*
X-1253981Y22743457D01*
X-1256704Y22744585D01*
X-1262092Y22749103D01*
X-1262136Y22749172D01*
X-1263254Y22751431D01*
X-1432502Y23212497D01*
X-1433209Y23217008D01*
X-1433130Y23218938D01*
X-1429557Y23226886D01*
X-1428414Y23227987D01*
X-1424808Y23230356D01*
X-1166657Y23338218D01*
X-1162179Y23339122D01*
X-1157916Y23339134D01*
X-1153372Y23338230D01*
G37*
%TD.AperFunction*%
%TD*%
%TA.AperFunction,Conductor*%
%TO.N,/SPI-MISO*%
G36*
X-2629903Y20970203D02*
G01*
X-2621640Y20966753D01*
X-2620507Y20965613D01*
X-2619236Y20962518D01*
X-2618982Y20962614D01*
X-2440914Y20488122D01*
X-2440175Y20483605D01*
X-2440283Y20480500D01*
X-2443702Y20472637D01*
X-2570961Y20345378D01*
X-2574750Y20342846D01*
X-2577243Y20341813D01*
X-2584685Y20341307D01*
X-2585156Y20341430D01*
X-2587922Y20342549D01*
X-2903313Y20520078D01*
X-3003765Y20576622D01*
X-3007229Y20579594D01*
X-3008585Y20581322D01*
X-3011061Y20589224D01*
X-3010990Y20590446D01*
X-3010133Y20594211D01*
X-2903446Y20854031D01*
X-2900922Y20857834D01*
X-2897919Y20860856D01*
X-2894064Y20863432D01*
X-2636161Y20969331D01*
X-2631684Y20970208D01*
X-2629903Y20970203D01*
G37*
%TD.AperFunction*%
%TD*%
%TA.AperFunction,Conductor*%
%TO.N,/SPI-MISO*%
G36*
X4743981Y12396542D02*
G01*
X4746706Y12395414D01*
X4752092Y12390896D01*
X4752136Y12390827D01*
X4752565Y12388400D01*
X4753210Y12388637D01*
X4922502Y11927501D01*
X4923209Y11922990D01*
X4923130Y11921060D01*
X4919557Y11913112D01*
X4918414Y11912011D01*
X4914808Y11909642D01*
X4656656Y11801780D01*
X4652182Y11800876D01*
X4647917Y11800863D01*
X4643380Y11801765D01*
X4385308Y11909592D01*
X4381523Y11912140D01*
X4380162Y11913509D01*
X4376765Y11921534D01*
X4376735Y11923123D01*
X4377450Y11927376D01*
X4377496Y11927501D01*
X4546383Y12387581D01*
X4548761Y12391476D01*
X4550759Y12393644D01*
X4556732Y12397115D01*
X4556810Y12397133D01*
X4559441Y12397433D01*
X4739505Y12397433D01*
X4743981Y12396542D01*
G37*
%TD.AperFunction*%
%TD*%
%TA.AperFunction,Conductor*%
%TO.N,/SPI-MOSI*%
G36*
X-3004848Y20123766D02*
G01*
X-2688637Y19731642D01*
X-2686113Y19723053D01*
X-2689472Y19716028D01*
X-2819281Y19586219D01*
X-2827553Y19582793D01*
X-2829305Y19582925D01*
X-2851062Y19586220D01*
X-3277842Y19650853D01*
X-3285509Y19655480D01*
X-3287694Y19663918D01*
X-3251332Y19945860D01*
X-3246875Y19953626D01*
X-3246820Y19953669D01*
X-3021047Y20125728D01*
X-3012390Y20128017D01*
X-3004848Y20123766D01*
G37*
%TD.AperFunction*%
%TD*%
%TA.AperFunction,Conductor*%
%TO.N,/SPI-MOSI*%
G36*
X3875105Y12369006D02*
G01*
X3877815Y12364765D01*
X4048305Y11900316D01*
X4047939Y11891368D01*
X4041833Y11885488D01*
X3779509Y11775883D01*
X3770556Y11775857D01*
X3508164Y11885489D01*
X3501854Y11891840D01*
X3501694Y11900316D01*
X3672185Y12364765D01*
X3678252Y12371350D01*
X3683168Y12372433D01*
X3866832Y12372433D01*
X3875105Y12369006D01*
G37*
%TD.AperFunction*%
%TD*%
%TA.AperFunction,Conductor*%
%TO.N,/CS*%
G36*
X7624694Y6769006D02*
G01*
X7627580Y6764251D01*
X7773950Y6299998D01*
X7773169Y6291077D01*
X7767302Y6285684D01*
X7504509Y6175883D01*
X7495556Y6175857D01*
X7233638Y6285291D01*
X7227328Y6291642D01*
X7227354Y6300593D01*
X7421992Y6765253D01*
X7428349Y6771560D01*
X7432783Y6772433D01*
X7616421Y6772433D01*
X7624694Y6769006D01*
G37*
%TD.AperFunction*%
%TD*%
%TA.AperFunction,Conductor*%
%TO.N,/CS*%
G36*
X7514511Y15789115D02*
G01*
X7777115Y15679393D01*
X7783427Y15673041D01*
X7783695Y15664871D01*
X7627679Y15200541D01*
X7621795Y15193790D01*
X7616588Y15192567D01*
X7432935Y15192567D01*
X7424662Y15195994D01*
X7422065Y15199939D01*
X7383762Y15296136D01*
X7237091Y15664508D01*
X7237214Y15673460D01*
X7243449Y15679629D01*
X7505489Y15789115D01*
X7514444Y15789142D01*
X7514511Y15789115D01*
G37*
%TD.AperFunction*%
%TD*%
%TA.AperFunction,Conductor*%
%TO.N,/SCK*%
G36*
X14414511Y24199115D02*
G01*
X14676833Y24089511D01*
X14683145Y24083159D01*
X14683305Y24074683D01*
X14512815Y23610235D01*
X14506748Y23603650D01*
X14501832Y23602567D01*
X14318168Y23602567D01*
X14309895Y23605994D01*
X14307185Y23610235D01*
X14136694Y24074684D01*
X14137060Y24083630D01*
X14143166Y24089511D01*
X14405489Y24199115D01*
X14414444Y24199142D01*
X14414511Y24199115D01*
G37*
%TD.AperFunction*%
%TD*%
%TA.AperFunction,Conductor*%
%TO.N,/SCK*%
G36*
X12060105Y16614006D02*
G01*
X12062815Y16609765D01*
X12233305Y16145316D01*
X12232939Y16136368D01*
X12226833Y16130488D01*
X11964509Y16020883D01*
X11955556Y16020857D01*
X11693164Y16130489D01*
X11686854Y16136840D01*
X11686694Y16145316D01*
X11857185Y16609765D01*
X11863252Y16616350D01*
X11868168Y16617433D01*
X12051832Y16617433D01*
X12060105Y16614006D01*
G37*
%TD.AperFunction*%
%TD*%
%TA.AperFunction,Conductor*%
%TO.N,/SCK*%
G36*
X12235492Y16130414D02*
G01*
X12241721Y16124260D01*
X12440005Y15665556D01*
X12440142Y15656603D01*
X12437538Y15652641D01*
X12307676Y15522779D01*
X12299403Y15519352D01*
X12294213Y15520565D01*
X11854968Y15737998D01*
X11849076Y15744738D01*
X11849338Y15752926D01*
X11957436Y16016184D01*
X11963748Y16022536D01*
X11963815Y16022563D01*
X12226537Y16130441D01*
X12235492Y16130414D01*
G37*
%TD.AperFunction*%
%TD*%
%TA.AperFunction,Conductor*%
%TO.N,/SCK*%
G36*
X12493981Y6246542D02*
G01*
X12496706Y6245414D01*
X12502092Y6240896D01*
X12502136Y6240827D01*
X12502565Y6238400D01*
X12503210Y6238637D01*
X12672502Y5777501D01*
X12673209Y5772990D01*
X12673130Y5771060D01*
X12669557Y5763112D01*
X12668414Y5762011D01*
X12664808Y5759642D01*
X12406656Y5651780D01*
X12402182Y5650876D01*
X12397917Y5650863D01*
X12393380Y5651765D01*
X12135308Y5759592D01*
X12131523Y5762140D01*
X12130162Y5763509D01*
X12126765Y5771534D01*
X12126735Y5773123D01*
X12127450Y5777376D01*
X12127496Y5777501D01*
X12296383Y6237581D01*
X12298761Y6241476D01*
X12300759Y6243644D01*
X12306732Y6247115D01*
X12306810Y6247133D01*
X12309441Y6247433D01*
X12489505Y6247433D01*
X12493981Y6246542D01*
G37*
%TD.AperFunction*%
%TD*%
%TA.AperFunction,Conductor*%
%TO.N,/MISO*%
G36*
X13496627Y24398230D02*
G01*
X13754686Y24290407D01*
X13758472Y24287860D01*
X13759832Y24286492D01*
X13763233Y24278464D01*
X13763263Y24276875D01*
X13762548Y24272622D01*
X13593617Y23812420D01*
X13591238Y23808523D01*
X13589240Y23806355D01*
X13583158Y23802859D01*
X13583079Y23802841D01*
X13580559Y23802567D01*
X13400495Y23802567D01*
X13396022Y23803455D01*
X13393294Y23804585D01*
X13387909Y23809100D01*
X13387858Y23809180D01*
X13386748Y23811423D01*
X13217495Y24272500D01*
X13216789Y24277009D01*
X13216868Y24278939D01*
X13220438Y24286883D01*
X13221010Y24287434D01*
X13221580Y24287984D01*
X13225188Y24290356D01*
X13483342Y24398218D01*
X13487820Y24399122D01*
X13492083Y24399134D01*
X13496627Y24398230D01*
G37*
%TD.AperFunction*%
%TD*%
%TA.AperFunction,Conductor*%
%TO.N,/MISO*%
G36*
X10275762Y17910525D02*
G01*
X10281868Y17904644D01*
X10489727Y17455674D01*
X10490093Y17446727D01*
X10487383Y17442486D01*
X10357513Y17312616D01*
X10349240Y17309189D01*
X10344329Y17310271D01*
X9895353Y17518133D01*
X9889287Y17524716D01*
X9889447Y17533192D01*
X9997436Y17796184D01*
X10003748Y17802536D01*
X10003815Y17802563D01*
X10266807Y17910552D01*
X10275762Y17910525D01*
G37*
%TD.AperFunction*%
%TD*%
%TA.AperFunction,Conductor*%
%TO.N,/MISO*%
G36*
X11150105Y6194006D02*
G01*
X11152815Y6189765D01*
X11323305Y5725316D01*
X11322939Y5716368D01*
X11316833Y5710488D01*
X11054509Y5600883D01*
X11045556Y5600857D01*
X10783164Y5710489D01*
X10776854Y5716840D01*
X10776694Y5725316D01*
X10947185Y6189765D01*
X10953252Y6196350D01*
X10958168Y6197433D01*
X11141832Y6197433D01*
X11150105Y6194006D01*
G37*
%TD.AperFunction*%
%TD*%
%TA.AperFunction,Conductor*%
%TO.N,/MISO*%
G36*
X10589765Y17902814D02*
G01*
X10596350Y17896747D01*
X10597433Y17891831D01*
X10597433Y17708168D01*
X10594006Y17699895D01*
X10589765Y17697185D01*
X10125315Y17526694D01*
X10116368Y17527060D01*
X10110489Y17533164D01*
X10000883Y17795490D01*
X10000857Y17804444D01*
X10000862Y17804457D01*
X10110488Y18066833D01*
X10116840Y18073145D01*
X10125316Y18073305D01*
X10589765Y17902814D01*
G37*
%TD.AperFunction*%
%TD*%
%TA.AperFunction,Conductor*%
%TO.N,/MOSI*%
G36*
X12584511Y25099115D02*
G01*
X12846833Y24989511D01*
X12853145Y24983159D01*
X12853305Y24974683D01*
X12682815Y24510235D01*
X12676748Y24503650D01*
X12671832Y24502567D01*
X12488168Y24502567D01*
X12479895Y24505994D01*
X12477185Y24510235D01*
X12306694Y24974684D01*
X12307060Y24983630D01*
X12313166Y24989511D01*
X12575489Y25099115D01*
X12584444Y25099142D01*
X12584511Y25099115D01*
G37*
%TD.AperFunction*%
%TD*%
%TA.AperFunction,Conductor*%
%TO.N,/MOSI*%
G36*
X9392477Y7174031D02*
G01*
X9395904Y7165758D01*
X9395396Y7162348D01*
X9230910Y6622490D01*
X9225221Y6615575D01*
X9216308Y6614708D01*
X9215274Y6615077D01*
X9197220Y6622490D01*
X8954507Y6722148D01*
X8948160Y6728456D01*
X8839413Y6991944D01*
X8839424Y7000898D01*
X8845161Y7006953D01*
X9197598Y7176304D01*
X9202665Y7177458D01*
X9384204Y7177458D01*
X9392477Y7174031D01*
G37*
%TD.AperFunction*%
%TD*%
%TA.AperFunction,Conductor*%
%TO.N,/MOSI*%
G36*
X8789765Y18802814D02*
G01*
X8796350Y18796747D01*
X8797433Y18791831D01*
X8797433Y18608168D01*
X8794006Y18599895D01*
X8789765Y18597185D01*
X8325315Y18426694D01*
X8316368Y18427060D01*
X8310489Y18433164D01*
X8200883Y18695490D01*
X8200857Y18704444D01*
X8200862Y18704457D01*
X8310488Y18966833D01*
X8316840Y18973145D01*
X8325316Y18973305D01*
X8789765Y18802814D01*
G37*
%TD.AperFunction*%
%TD*%
%TA.AperFunction,Conductor*%
%TO.N,/AUX_CS*%
G36*
X9127376Y20172548D02*
G01*
X9587579Y20003616D01*
X9591476Y20001237D01*
X9593644Y19999239D01*
X9597115Y19993266D01*
X9597133Y19993188D01*
X9597433Y19990557D01*
X9597433Y19810495D01*
X9596542Y19806017D01*
X9595414Y19803294D01*
X9590897Y19797908D01*
X9590822Y19797860D01*
X9588572Y19796747D01*
X9127500Y19627496D01*
X9122990Y19626789D01*
X9121058Y19626868D01*
X9113114Y19630437D01*
X9112012Y19631581D01*
X9109646Y19635181D01*
X9001779Y19893344D01*
X9000876Y19897817D01*
X9000863Y19902082D01*
X9001766Y19906621D01*
X9109591Y20164686D01*
X9112138Y20168472D01*
X9113506Y20169832D01*
X9121534Y20173233D01*
X9123123Y20173263D01*
X9127376Y20172548D01*
G37*
%TD.AperFunction*%
%TD*%
%TA.AperFunction,Conductor*%
%TO.N,/AUX_CS*%
G36*
X11176627Y25198230D02*
G01*
X11434686Y25090407D01*
X11438472Y25087860D01*
X11439832Y25086492D01*
X11443233Y25078464D01*
X11443263Y25076875D01*
X11442548Y25072622D01*
X11273617Y24612420D01*
X11271238Y24608523D01*
X11269240Y24606355D01*
X11263158Y24602859D01*
X11263079Y24602841D01*
X11260559Y24602567D01*
X11080495Y24602567D01*
X11076022Y24603455D01*
X11073294Y24604585D01*
X11067909Y24609100D01*
X11067858Y24609180D01*
X11066748Y24611423D01*
X10897495Y25072500D01*
X10896789Y25077009D01*
X10896868Y25078939D01*
X10900438Y25086883D01*
X10901010Y25087434D01*
X10901580Y25087984D01*
X10905188Y25090356D01*
X11163342Y25198218D01*
X11167820Y25199122D01*
X11172083Y25199134D01*
X11176627Y25198230D01*
G37*
%TD.AperFunction*%
%TD*%
M02*
