%TF.GenerationSoftware,KiCad,Pcbnew,10.0.0*%
%TF.CreationDate,2026-05-01T21:13:12-04:00*%
%TF.ProjectId,DashMotor48V,44617368-4d6f-4746-9f72-3438562e6b69,rev?*%
%TF.SameCoordinates,Original*%
%TF.FileFunction,Paste,Bot*%
%TF.FilePolarity,Positive*%
%FSLAX46Y46*%
G04 Gerber Fmt 4.6, Leading zero omitted, Abs format (unit mm)*
G04 Created by KiCad (PCBNEW 10.0.0) date 2026-05-01 21:13:12*
%MOMM*%
%LPD*%
G01*
G04 APERTURE LIST*
G04 Aperture macros list*
%AMRoundRect*
0 Rectangle with rounded corners*
0 $1 Rounding radius*
0 $2 $3 $4 $5 $6 $7 $8 $9 X,Y pos of 4 corners*
0 Add a 4 corners polygon primitive as box body*
4,1,4,$2,$3,$4,$5,$6,$7,$8,$9,$2,$3,0*
0 Add four circle primitives for the rounded corners*
1,1,$1+$1,$2,$3*
1,1,$1+$1,$4,$5*
1,1,$1+$1,$6,$7*
1,1,$1+$1,$8,$9*
0 Add four rect primitives between the rounded corners*
20,1,$1+$1,$2,$3,$4,$5,0*
20,1,$1+$1,$4,$5,$6,$7,0*
20,1,$1+$1,$6,$7,$8,$9,0*
20,1,$1+$1,$8,$9,$2,$3,0*%
G04 Aperture macros list end*
%ADD10C,0.010000*%
%ADD11R,4.000000X1.500000*%
%ADD12R,2.720000X1.530000*%
%ADD13R,0.711200X0.228600*%
%ADD14R,1.530000X2.720000*%
%ADD15R,0.600000X0.540000*%
%ADD16RoundRect,0.108750X-0.356250X0.326250X-0.356250X-0.326250X0.356250X-0.326250X0.356250X0.326250X0*%
%ADD17R,1.000000X0.970000*%
%ADD18R,1.000000X1.100000*%
%ADD19RoundRect,0.108750X0.356250X-0.326250X0.356250X0.326250X-0.356250X0.326250X-0.356250X-0.326250X0*%
%ADD20R,0.228600X0.711200*%
%ADD21RoundRect,0.150000X-0.450000X-0.760000X0.450000X-0.760000X0.450000X0.760000X-0.450000X0.760000X0*%
%ADD22RoundRect,0.108750X-0.326250X-0.356250X0.326250X-0.356250X0.326250X0.356250X-0.326250X0.356250X0*%
%ADD23R,0.920000X1.380000*%
%ADD24R,0.400000X1.900000*%
%ADD25R,1.380000X1.820000*%
%ADD26R,0.660400X0.508000*%
%ADD27R,2.220000X1.240000*%
%ADD28R,0.930000X0.790000*%
%ADD29R,1.470000X1.110000*%
%ADD30R,0.812800X0.254000*%
%ADD31R,0.254000X0.812800*%
%ADD32R,1.701800X1.701800*%
%ADD33RoundRect,0.015000X0.285000X-0.760000X0.285000X0.760000X-0.285000X0.760000X-0.285000X-0.760000X0*%
%ADD34R,0.540000X0.600000*%
%ADD35R,1.240000X2.220000*%
G04 APERTURE END LIST*
D10*
%TO.C,VR1*%
X-17750000Y7795000D02*
X-21150000Y7795000D01*
X-21150000Y10505000D01*
X-17750000Y10505000D01*
X-17750000Y7795000D01*
G36*
X-17750000Y7795000D02*
G01*
X-21150000Y7795000D01*
X-21150000Y10505000D01*
X-17750000Y10505000D01*
X-17750000Y7795000D01*
G37*
%TD*%
D11*
%TO.C,L1*%
X-10450000Y13250000D03*
X-10450000Y9650000D03*
%TD*%
D12*
%TO.C,C6*%
X-6800000Y-6359000D03*
X-6800000Y-9041000D03*
%TD*%
D13*
%TO.C,U5*%
X8900200Y10400001D03*
X8900200Y9900000D03*
X8900200Y9400000D03*
X8900200Y8899999D03*
X7300000Y8899999D03*
X7300000Y9400000D03*
X7300000Y9900000D03*
X7300000Y10400001D03*
%TD*%
D14*
%TO.C,C11*%
X-16859000Y3500000D03*
X-19541000Y3500000D03*
%TD*%
%TO.C,C19*%
X-16859000Y0D03*
X-19541000Y0D03*
%TD*%
D15*
%TO.C,R10*%
X7350000Y12622000D03*
X7350000Y11758000D03*
%TD*%
D16*
%TO.C,C54*%
X3000000Y-1620000D03*
X3000000Y-3180000D03*
%TD*%
D12*
%TO.C,C9*%
X-17000000Y-6359000D03*
X-17000000Y-9041000D03*
%TD*%
D17*
%TO.C,FL1*%
X-3650000Y26770000D03*
X-2180000Y26770000D03*
%TD*%
D14*
%TO.C,C8*%
X-16859000Y-3500000D03*
X-19541000Y-3500000D03*
%TD*%
D12*
%TO.C,C5*%
X-10200000Y-6359000D03*
X-10200000Y-9041000D03*
%TD*%
%TO.C,C2*%
X0Y-6359000D03*
X0Y-9041000D03*
%TD*%
D18*
%TO.C,C43*%
X-14050000Y11650000D03*
X-14050000Y9950000D03*
%TD*%
D19*
%TO.C,C48*%
X-910000Y15450000D03*
X-910000Y17010000D03*
%TD*%
D20*
%TO.C,U6*%
X15149999Y14800900D03*
X15650000Y14800900D03*
X16150000Y14800900D03*
X16650001Y14800900D03*
X16650001Y13200700D03*
X16150000Y13200700D03*
X15650000Y13200700D03*
X15149999Y13200700D03*
%TD*%
D21*
%TO.C,C37*%
X-24660000Y3400000D03*
X-21740000Y3400000D03*
%TD*%
D12*
%TO.C,C12*%
X10200000Y-6359000D03*
X10200000Y-9041000D03*
%TD*%
D22*
%TO.C,C52*%
X17200000Y21100000D03*
X18760000Y21100000D03*
%TD*%
D12*
%TO.C,C4*%
X-13600000Y-6359000D03*
X-13600000Y-9041000D03*
%TD*%
D23*
%TO.C,R13*%
X-24910000Y6375000D03*
X-23000000Y6375000D03*
%TD*%
D14*
%TO.C,C14*%
X24341000Y0D03*
X21659000Y0D03*
%TD*%
D24*
%TO.C,Y1*%
X4217500Y22570000D03*
X3017500Y22570000D03*
X1817500Y22570000D03*
%TD*%
D25*
%TO.C,C39*%
X-15619000Y7300000D03*
X-12881000Y7300000D03*
%TD*%
D14*
%TO.C,C40*%
X16891000Y10100000D03*
X14209000Y10100000D03*
%TD*%
D12*
%TO.C,C3*%
X3400000Y-6359000D03*
X3400000Y-9041000D03*
%TD*%
D26*
%TO.C,R3*%
X771200Y15450000D03*
X1888800Y15450000D03*
%TD*%
D27*
%TO.C,L2*%
X11650000Y7460001D03*
X11650000Y9639999D03*
%TD*%
D14*
%TO.C,C15*%
X16859000Y3500000D03*
X19541000Y3500000D03*
%TD*%
D28*
%TO.C,R14*%
X-23010000Y10140000D03*
X-23010000Y11780000D03*
%TD*%
D29*
%TO.C,C30*%
X5000000Y-3100000D03*
X5000000Y-1300000D03*
%TD*%
D28*
%TO.C,R15*%
X-15750000Y11130000D03*
X-15750000Y12770000D03*
%TD*%
D12*
%TO.C,C21*%
X-10300000Y4709000D03*
X-10300000Y7391000D03*
%TD*%
D30*
%TO.C,U4*%
X-1447800Y-750001D03*
X-1447800Y-250000D03*
X-1447800Y250000D03*
X-1447800Y750001D03*
D31*
X-750001Y1447800D03*
X-250000Y1447800D03*
X250000Y1447800D03*
X750001Y1447800D03*
D30*
X1447800Y750001D03*
X1447800Y250000D03*
X1447800Y-250000D03*
X1447800Y-750001D03*
D31*
X750001Y-1447800D03*
X250000Y-1447800D03*
X-250000Y-1447800D03*
X-750001Y-1447800D03*
D32*
X0Y0D03*
%TD*%
D12*
%TO.C,C13*%
X13600000Y-6359000D03*
X13600000Y-9041000D03*
%TD*%
D19*
%TO.C,C53*%
X13700000Y17640000D03*
X13700000Y19200000D03*
%TD*%
D15*
%TO.C,R11*%
X8550000Y12622000D03*
X8550000Y11758000D03*
%TD*%
%TO.C,R12*%
X13900000Y14100000D03*
X13900000Y13236000D03*
%TD*%
D14*
%TO.C,C10*%
X-24341000Y0D03*
X-21659000Y0D03*
%TD*%
D33*
%TO.C,VR1*%
X-17545000Y6450000D03*
X-18815000Y6450000D03*
X-20085000Y6450000D03*
X-21355000Y6450000D03*
X-21355000Y11850000D03*
X-20085000Y11850000D03*
X-18815000Y11850000D03*
X-17545000Y11850000D03*
%TD*%
D14*
%TO.C,C18*%
X16859000Y-3500000D03*
X19541000Y-3500000D03*
%TD*%
D12*
%TO.C,C41*%
X16100000Y19300000D03*
X16100000Y16618000D03*
%TD*%
D28*
%TO.C,R9*%
X-4400000Y10040000D03*
X-4400000Y11680000D03*
%TD*%
D22*
%TO.C,C24*%
X-460000Y26800000D03*
X1100000Y26800000D03*
%TD*%
D34*
%TO.C,C42*%
X-7032000Y11650000D03*
X-6168000Y11650000D03*
%TD*%
D22*
%TO.C,C38*%
X-18960000Y14000000D03*
X-17400000Y14000000D03*
%TD*%
D12*
%TO.C,C16*%
X17000000Y-6359000D03*
X17000000Y-9041000D03*
%TD*%
D35*
%TO.C,L3*%
X20900000Y17000000D03*
X18720000Y17000000D03*
%TD*%
D14*
%TO.C,C17*%
X16859000Y0D03*
X19541000Y0D03*
%TD*%
D12*
%TO.C,C1*%
X-3400000Y-6359000D03*
X-3400000Y-9041000D03*
%TD*%
%TO.C,C7*%
X6800000Y-6359000D03*
X6800000Y-9041000D03*
%TD*%
M02*
