%TF.GenerationSoftware,KiCad,Pcbnew,10.0.0*%
%TF.CreationDate,2026-05-01T21:13:12-04:00*%
%TF.ProjectId,DashMotor48V,44617368-4d6f-4746-9f72-3438562e6b69,rev?*%
%TF.SameCoordinates,Original*%
%TF.FileFunction,Soldermask,Top*%
%TF.FilePolarity,Negative*%
%FSLAX46Y46*%
G04 Gerber Fmt 4.6, Leading zero omitted, Abs format (unit mm)*
G04 Created by KiCad (PCBNEW 10.0.0) date 2026-05-01 21:13:12*
%MOMM*%
%LPD*%
G01*
G04 APERTURE LIST*
G04 Aperture macros list*
%AMRoundRect*
0 Rectangle with rounded corners*
0 $1 Rounding radius*
0 $2 $3 $4 $5 $6 $7 $8 $9 X,Y pos of 4 corners*
0 Add a 4 corners polygon primitive as box body*
4,1,4,$2,$3,$4,$5,$6,$7,$8,$9,$2,$3,0*
0 Add four circle primitives for the rounded corners*
1,1,$1+$1,$2,$3*
1,1,$1+$1,$4,$5*
1,1,$1+$1,$6,$7*
1,1,$1+$1,$8,$9*
0 Add four rect primitives between the rounded corners*
20,1,$1+$1,$2,$3,$4,$5,0*
20,1,$1+$1,$4,$5,$6,$7,0*
20,1,$1+$1,$6,$7,$8,$9,0*
20,1,$1+$1,$8,$9,$2,$3,0*%
%AMHorizOval*
0 Thick line with rounded ends*
0 $1 width*
0 $2 $3 position (X,Y) of the first rounded end (center of the circle)*
0 $4 $5 position (X,Y) of the second rounded end (center of the circle)*
0 Add line between two ends*
20,1,$1,$2,$3,$4,$5,0*
0 Add two circle primitives to create the rounded ends*
1,1,$1,$2,$3*
1,1,$1,$4,$5*%
%AMRotRect*
0 Rectangle, with rotation*
0 The origin of the aperture is its center*
0 $1 length*
0 $2 width*
0 $3 Rotation angle, in degrees counterclockwise*
0 Add horizontal line*
21,1,$1,$2,0,0,$3*%
%AMFreePoly0*
4,1,14,0.240000,-2.550000,-0.240000,-2.550000,-0.890000,-2.550000,-0.890000,-1.450000,-0.240000,-1.450000,-0.240000,-0.550000,-0.890000,-0.550000,-0.890000,0.550000,-0.240000,0.550000,-0.240000,1.450000,-0.890000,1.450000,-0.890000,2.550000,0.240000,2.550000,0.240000,-2.550000,0.240000,-2.550000,$1*%
%AMFreePoly1*
4,1,21,3.715000,2.450000,2.615000,2.450000,2.615000,1.550000,3.715000,1.550000,3.715000,0.450000,2.615000,0.450000,2.615000,-0.450000,3.715000,-0.450000,3.715000,-1.550000,2.615000,-1.550000,2.615000,-2.450000,3.715000,-2.450000,3.715000,-3.550000,2.615000,-3.550000,2.615000,-3.450000,-2.615000,-3.450000,-2.615000,3.450000,2.615000,3.450000,2.615000,3.550000,3.715000,3.550000,
3.715000,2.450000,3.715000,2.450000,$1*%
G04 Aperture macros list end*
%ADD10RoundRect,0.134250X0.402750X0.432750X-0.402750X0.432750X-0.402750X-0.432750X0.402750X-0.432750X0*%
%ADD11RoundRect,0.102000X-0.280000X-0.300000X0.280000X-0.300000X0.280000X0.300000X-0.280000X0.300000X0*%
%ADD12RoundRect,0.275000X-0.275000X0.290000X-0.275000X-0.290000X0.275000X-0.290000X0.275000X0.290000X0*%
%ADD13FreePoly0,270.000000*%
%ADD14FreePoly1,270.000000*%
%ADD15RoundRect,0.175500X0.836500X-0.526500X0.836500X0.526500X-0.836500X0.526500X-0.836500X-0.526500X0*%
%ADD16RoundRect,0.275000X0.275000X-0.290000X0.275000X0.290000X-0.275000X0.290000X-0.275000X-0.290000X0*%
%ADD17FreePoly0,90.000000*%
%ADD18FreePoly1,90.000000*%
%ADD19R,1.346200X3.251200*%
%ADD20R,1.700000X1.700000*%
%ADD21C,1.700000*%
%ADD22C,4.400000*%
%ADD23C,1.000000*%
%ADD24RoundRect,0.102000X0.300000X-0.280000X0.300000X0.280000X-0.300000X0.280000X-0.300000X-0.280000X0*%
%ADD25R,1.650000X4.500000*%
%ADD26RoundRect,0.102000X0.465000X-0.405000X0.465000X0.405000X-0.465000X0.405000X-0.465000X-0.405000X0*%
%ADD27RoundRect,0.325000X-2.925000X-2.925000X2.925000X-2.925000X2.925000X2.925000X-2.925000X2.925000X0*%
%ADD28RoundRect,0.102000X0.335000X-0.300000X0.335000X0.300000X-0.335000X0.300000X-0.335000X-0.300000X0*%
%ADD29R,0.812800X0.762000*%
%ADD30RoundRect,0.134250X-0.402750X-0.432750X0.402750X-0.432750X0.402750X0.432750X-0.402750X0.432750X0*%
%ADD31RoundRect,0.102000X-0.550000X-0.500000X0.550000X-0.500000X0.550000X0.500000X-0.550000X0.500000X0*%
%ADD32C,1.524000*%
%ADD33C,2.700000*%
%ADD34RoundRect,0.134250X-0.432750X0.402750X-0.432750X-0.402750X0.432750X-0.402750X0.432750X0.402750X0*%
%ADD35R,0.304800X0.863600*%
%ADD36R,2.413000X1.600200*%
%ADD37HorizOval,0.230000X0.130814X0.130814X-0.130814X-0.130814X0*%
%ADD38HorizOval,0.230000X-0.130814X0.130814X0.130814X-0.130814X0*%
%ADD39C,0.499999*%
%ADD40RotRect,4.150000X4.150000X45.000000*%
%ADD41RotRect,0.660400X1.549400X330.000000*%
%ADD42RotRect,1.295400X1.905000X330.000000*%
%ADD43RoundRect,0.102000X-0.735000X0.555000X-0.735000X-0.555000X0.735000X-0.555000X0.735000X0.555000X0*%
%ADD44RoundRect,0.134250X0.432750X-0.402750X0.432750X0.402750X-0.432750X0.402750X-0.432750X-0.402750X0*%
%ADD45RoundRect,0.102000X-0.300000X0.270000X-0.300000X-0.270000X0.300000X-0.270000X0.300000X0.270000X0*%
%ADD46RoundRect,0.102000X0.500000X-0.550000X0.500000X0.550000X-0.500000X0.550000X-0.500000X-0.550000X0*%
%ADD47RoundRect,0.102000X-0.150000X0.750000X-0.150000X-0.750000X0.150000X-0.750000X0.150000X0.750000X0*%
%ADD48RoundRect,0.102000X-0.750000X0.150000X-0.750000X-0.150000X0.750000X-0.150000X0.750000X0.150000X0*%
%ADD49R,0.660400X0.508000*%
%ADD50RotRect,0.660400X1.549400X30.000000*%
%ADD51RotRect,1.295400X1.905000X30.000000*%
%ADD52RoundRect,0.102000X0.555000X0.735000X-0.555000X0.735000X-0.555000X-0.735000X0.555000X-0.735000X0*%
%ADD53C,0.504000*%
G04 APERTURE END LIST*
D10*
%TO.C,C47*%
X4600000Y26800000D03*
X3040000Y26800000D03*
%TD*%
D11*
%TO.C,R5*%
X-7820000Y31220000D03*
X-6950000Y31220000D03*
%TD*%
D12*
%TO.C,Q2*%
X-11500000Y-7065000D03*
D13*
X-15500000Y-7390000D03*
D14*
X-14500000Y-11785000D03*
%TD*%
D15*
%TO.C,C20*%
X-12000000Y2540000D03*
X-12000000Y5460000D03*
%TD*%
D10*
%TO.C,C56*%
X-6440000Y29500000D03*
X-8000000Y29500000D03*
%TD*%
D16*
%TO.C,Q5*%
X11500000Y-14935000D03*
D17*
X15500000Y-14610000D03*
D18*
X14500000Y-10215000D03*
%TD*%
D19*
%TO.C,R18*%
X10218700Y-2500000D03*
X15781300Y-2500000D03*
%TD*%
D20*
%TO.C,J3*%
X-20550000Y19115000D03*
D21*
X-20550000Y16575000D03*
%TD*%
D22*
%TO.C,H7*%
X-23000000Y-23500000D03*
%TD*%
D23*
%TO.C,TP7*%
X-9600000Y18950000D03*
%TD*%
D24*
%TO.C,R2*%
X-14175000Y15230000D03*
X-14175000Y16100000D03*
%TD*%
D25*
%TO.C,CC1*%
X-19000000Y2500000D03*
X-19000000Y11500000D03*
%TD*%
D26*
%TO.C,D1*%
X-17190000Y16615000D03*
X-17190000Y14995000D03*
%TD*%
D27*
%TO.C,H3*%
X14500000Y-24000000D03*
%TD*%
D23*
%TO.C,TP6*%
X12550000Y20900000D03*
%TD*%
D28*
%TO.C,C26*%
X-8280000Y15213000D03*
X-8280000Y16087000D03*
%TD*%
D29*
%TO.C,R6*%
X-27100000Y7650300D03*
X-27100000Y9199700D03*
%TD*%
D30*
%TO.C,C50*%
X9070000Y10550000D03*
X10630000Y10550000D03*
%TD*%
D31*
%TO.C,C23*%
X-8030000Y7330000D03*
X-6330000Y7330000D03*
%TD*%
D32*
%TO.C,CN3(OUT)1*%
X-33000000Y4425000D03*
X-31000000Y4424999D03*
D33*
X-32000000Y574999D03*
X-32000000Y-4424999D03*
%TD*%
D34*
%TO.C,C57*%
X8250000Y24740000D03*
X8250000Y23180000D03*
%TD*%
D23*
%TO.C,TP10*%
X-11850000Y20000000D03*
%TD*%
%TO.C,TP9*%
X-9600000Y23000000D03*
%TD*%
D35*
%TO.C,U3*%
X18600000Y19571600D03*
X17950002Y19571600D03*
X17300000Y19571600D03*
X16650002Y19571600D03*
X16650002Y16828400D03*
X17300000Y16828400D03*
X17950002Y16828400D03*
X18600000Y16828400D03*
D36*
X17625001Y18200000D03*
%TD*%
D37*
%TO.C,U2*%
X-3641600Y6540382D03*
X-3288047Y6186829D03*
X-2934492Y5833275D03*
X-2580940Y5479722D03*
X-2227386Y5126168D03*
X-1873832Y4772614D03*
X-1520280Y4419062D03*
X-1166725Y4065508D03*
X-813173Y3711955D03*
X-459618Y3358400D03*
D38*
X459618Y3358400D03*
X813171Y3711953D03*
X1166725Y4065508D03*
X1520278Y4419060D03*
X1873832Y4772614D03*
X2227386Y5126168D03*
X2580938Y5479720D03*
X2934492Y5833275D03*
X3288045Y6186827D03*
X3641600Y6540382D03*
D37*
X3641600Y7459618D03*
X3288045Y7813173D03*
X2934492Y8166725D03*
X2580938Y8520280D03*
X2227386Y8873832D03*
X1873832Y9227386D03*
X1520278Y9580940D03*
X1166725Y9934492D03*
X813171Y10288047D03*
X459618Y10641600D03*
D38*
X-459618Y10641600D03*
X-813173Y10288045D03*
X-1166725Y9934492D03*
X-1520280Y9580938D03*
X-1873832Y9227386D03*
X-2227386Y8873832D03*
X-2580940Y8520278D03*
X-2934492Y8166725D03*
X-3288047Y7813171D03*
X-3641600Y7459618D03*
D39*
X-1774838Y6193898D03*
X-806102Y5225162D03*
X-1774838Y7806102D03*
X-968736Y7000000D03*
X0Y6031264D03*
X806102Y5225162D03*
D40*
X0Y7000000D03*
D39*
X-806102Y8774838D03*
X0Y7968736D03*
X968736Y7000000D03*
X1774838Y6193898D03*
X806102Y8774838D03*
X1774838Y7806102D03*
%TD*%
D41*
%TO.C,J2*%
X12691125Y28268858D03*
X13557148Y27768859D03*
X14423174Y27268859D03*
X15289200Y26768858D03*
X16155226Y26268858D03*
X17021252Y25768858D03*
X17887275Y25268859D03*
D42*
X12827789Y31105573D03*
X20275610Y26805571D03*
%TD*%
D19*
%TO.C,R16*%
X-9218700Y-2500000D03*
X-14781300Y-2500000D03*
%TD*%
D22*
%TO.C,H5*%
X-23000000Y23500000D03*
%TD*%
D43*
%TO.C,C29*%
X-6008000Y11167000D03*
X-6008000Y9367000D03*
%TD*%
D23*
%TO.C,TP8*%
X-11850000Y22225000D03*
%TD*%
D27*
%TO.C,H2*%
X0Y-24000000D03*
%TD*%
D25*
%TO.C,CC2*%
X19000000Y2500000D03*
X19000000Y11500000D03*
%TD*%
D44*
%TO.C,C51*%
X-11100000Y7920000D03*
X-11100000Y9480000D03*
%TD*%
D45*
%TO.C,R7*%
X-17190000Y18914000D03*
X-17190000Y18050000D03*
%TD*%
D22*
%TO.C,H4*%
X23000000Y23500000D03*
%TD*%
%TO.C,H6*%
X23000000Y-23500000D03*
%TD*%
D32*
%TO.C,CN3(OUT)2*%
X31000001Y4424998D03*
X33000000Y4424999D03*
D33*
X32000000Y575000D03*
X32000000Y-4425000D03*
%TD*%
D19*
%TO.C,R17*%
X3096700Y-6844200D03*
X-2465900Y-6844200D03*
%TD*%
D23*
%TO.C,TP3*%
X21025000Y19850000D03*
%TD*%
D16*
%TO.C,Q1*%
X-27500000Y-9235000D03*
D17*
X-23500000Y-8910000D03*
D18*
X-24500000Y-4515000D03*
%TD*%
D46*
%TO.C,D2*%
X-15590000Y14900000D03*
X-15590000Y16600000D03*
%TD*%
D47*
%TO.C,U1*%
X3850000Y24900000D03*
X3350000Y24900000D03*
X2850000Y24900000D03*
X2350000Y24900000D03*
X1850000Y24900000D03*
X1350000Y24900000D03*
X850000Y24900000D03*
X350000Y24900000D03*
X-150000Y24900000D03*
X-650000Y24900000D03*
X-1150000Y24900000D03*
X-1650000Y24900000D03*
X-2150000Y24900000D03*
X-2650000Y24900000D03*
X-3150000Y24900000D03*
X-3650000Y24900000D03*
D48*
X-5600000Y22950000D03*
X-5600000Y22450000D03*
X-5600000Y21950000D03*
X-5600000Y21450000D03*
X-5600000Y20950000D03*
X-5600000Y20450000D03*
X-5600000Y19950000D03*
X-5600000Y19450000D03*
X-5600000Y18950000D03*
X-5600000Y18450000D03*
X-5600000Y17950000D03*
X-5600000Y17450000D03*
X-5600000Y16950000D03*
X-5600000Y16450000D03*
X-5600000Y15950000D03*
X-5600000Y15450000D03*
D47*
X-3650000Y13500000D03*
X-3150000Y13500000D03*
X-2650000Y13500000D03*
X-2150000Y13500000D03*
X-1650000Y13500000D03*
X-1150000Y13500000D03*
X-650000Y13500000D03*
X-150000Y13500000D03*
X350000Y13500000D03*
X850000Y13500000D03*
X1350000Y13500000D03*
X1850000Y13500000D03*
X2350000Y13500000D03*
X2850000Y13500000D03*
X3350000Y13500000D03*
X3850000Y13500000D03*
D48*
X5800000Y15450000D03*
X5800000Y15950000D03*
X5800000Y16450000D03*
X5800000Y16950000D03*
X5800000Y17450000D03*
X5800000Y17950000D03*
X5800000Y18450000D03*
X5800000Y18950000D03*
X5800000Y19450000D03*
X5800000Y19950000D03*
X5800000Y20450000D03*
X5800000Y20950000D03*
X5800000Y21450000D03*
X5800000Y21950000D03*
X5800000Y22450000D03*
X5800000Y22950000D03*
%TD*%
D23*
%TO.C,TP4*%
X-14700000Y22900000D03*
%TD*%
D12*
%TO.C,Q4*%
X-2000000Y-11065000D03*
D13*
X-6000000Y-11390000D03*
D14*
X-5000000Y-15785000D03*
%TD*%
D16*
%TO.C,Q3*%
X2000000Y-18935000D03*
D17*
X6000000Y-18610000D03*
D18*
X5000000Y-14215000D03*
%TD*%
D45*
%TO.C,R8*%
X-15590000Y18950000D03*
X-15590000Y18086000D03*
%TD*%
D43*
%TO.C,C28*%
X-8008000Y11167000D03*
X-8008000Y9367000D03*
%TD*%
D49*
%TO.C,R4*%
X6180000Y10660000D03*
X5062400Y10660000D03*
%TD*%
D27*
%TO.C,H1*%
X-14500000Y-24000000D03*
%TD*%
D50*
%TO.C,J1*%
X-17887275Y25268859D03*
X-17021252Y25768858D03*
X-16155226Y26268858D03*
X-15289200Y26768858D03*
X-14423174Y27268859D03*
X-13557148Y27768859D03*
X-12691125Y28268858D03*
D51*
X-20275610Y26805571D03*
X-12827789Y31105573D03*
%TD*%
D34*
%TO.C,C55*%
X-12700000Y16105000D03*
X-12700000Y14545000D03*
%TD*%
D23*
%TO.C,TP12*%
X6800000Y6175000D03*
%TD*%
D12*
%TO.C,Q6*%
X27500000Y-1365000D03*
D13*
X23500000Y-1690000D03*
D14*
X24500000Y-6085000D03*
%TD*%
D30*
%TO.C,C49*%
X9070000Y11975000D03*
X10630000Y11975000D03*
%TD*%
D52*
%TO.C,C22*%
X-9700000Y25600000D03*
X-11500000Y25600000D03*
%TD*%
D23*
%TO.C,TP5*%
X14825000Y21975000D03*
%TD*%
D53*
%TO.C,VR1*%
X-21400000Y8500000D03*
X-20100000Y8500000D03*
X-18800000Y8500000D03*
X-17500000Y8500000D03*
X-21400000Y9800000D03*
X-20100000Y9800000D03*
X-18800000Y9800000D03*
X-17500000Y9800000D03*
%TD*%
M02*
