%TF.GenerationSoftware,KiCad,Pcbnew,10.0.0*%
%TF.CreationDate,2026-05-01T21:13:12-04:00*%
%TF.ProjectId,DashMotor48V,44617368-4d6f-4746-9f72-3438562e6b69,rev?*%
%TF.SameCoordinates,Original*%
%TF.FileFunction,Legend,Bot*%
%TF.FilePolarity,Positive*%
%FSLAX46Y46*%
G04 Gerber Fmt 4.6, Leading zero omitted, Abs format (unit mm)*
G04 Created by KiCad (PCBNEW 10.0.0) date 2026-05-01 21:13:12*
%MOMM*%
%LPD*%
G01*
G04 APERTURE LIST*
%ADD10C,0.100000*%
%ADD11C,0.508000*%
%ADD12C,0.127000*%
%ADD13C,0.152400*%
%ADD14C,0.200000*%
%ADD15C,0.000000*%
G04 APERTURE END LIST*
D10*
X-2489199Y-1077628D02*
X-2489199Y-934771D01*
X-2632056Y-991914D02*
X-2489199Y-934771D01*
X-2489199Y-934771D02*
X-2346342Y-991914D01*
X-2574913Y-820485D02*
X-2489199Y-934771D01*
X-2489199Y-934771D02*
X-2403485Y-820485D01*
%TO.C,J2*%
D11*
X11599911Y26718911D02*
G75*
G02*
X10837911Y26718911I-381000J0D01*
G01*
X10837911Y26718911D02*
G75*
G02*
X11599911Y26718911I381000J0D01*
G01*
%TO.C,J1*%
X-16900089Y23218911D02*
G75*
G02*
X-17662089Y23218911I-381000J0D01*
G01*
X-17662089Y23218911D02*
G75*
G02*
X-16900089Y23218911I381000J0D01*
G01*
%TO.C,L1*%
D12*
X-12950000Y13950000D02*
X-12950000Y8950000D01*
X-12950000Y13950000D02*
X-12770000Y13950000D01*
X-12950000Y8950000D02*
X-12770000Y8950000D01*
X-7950000Y13950000D02*
X-8130000Y13950000D01*
X-7950000Y13950000D02*
X-7950000Y8950000D01*
X-7950000Y8950000D02*
X-8130000Y8950000D01*
%TO.C,C6*%
X-8150000Y-7440000D02*
X-8150000Y-7960000D01*
X-5450000Y-7440000D02*
X-5450000Y-7960000D01*
%TO.C,U5*%
D13*
X7325400Y10881900D02*
X8874800Y10881900D01*
X8874800Y8418100D02*
X7325400Y8418100D01*
X9908200Y10400000D02*
G75*
G02*
X9705000Y10400000I-101600J0D01*
G01*
X9705000Y10400000D02*
G75*
G02*
X9908200Y10400000I101600J0D01*
G01*
%TO.C,C11*%
D12*
X-17940000Y4850000D02*
X-18460000Y4850000D01*
X-17940000Y2150000D02*
X-18460000Y2150000D01*
%TO.C,C19*%
X-17940000Y1350000D02*
X-18460000Y1350000D01*
X-17940000Y-1350000D02*
X-18460000Y-1350000D01*
%TO.C,C9*%
X-18350000Y-7440000D02*
X-18350000Y-7960000D01*
X-15650000Y-7440000D02*
X-15650000Y-7960000D01*
%TO.C,C8*%
X-17940000Y-2150000D02*
X-18460000Y-2150000D01*
X-17940000Y-4850000D02*
X-18460000Y-4850000D01*
%TO.C,C5*%
X-11550000Y-7440000D02*
X-11550000Y-7960000D01*
X-8850000Y-7440000D02*
X-8850000Y-7960000D01*
%TO.C,C2*%
X-1350000Y-7440000D02*
X-1350000Y-7960000D01*
X1350000Y-7440000D02*
X1350000Y-7960000D01*
%TO.C,U6*%
D13*
X14668100Y13226100D02*
X14668100Y14775500D01*
X17131900Y14775500D02*
X17131900Y13226100D01*
X15251600Y15707300D02*
G75*
G02*
X15048400Y15707300I-101600J0D01*
G01*
X15048400Y15707300D02*
G75*
G02*
X15251600Y15707300I101600J0D01*
G01*
%TO.C,C37*%
D12*
X-23740000Y4200000D02*
X-22660000Y4200000D01*
X-23740000Y2600000D02*
X-22660000Y2600000D01*
%TO.C,C12*%
X8850000Y-7440000D02*
X8850000Y-7960000D01*
X11550000Y-7440000D02*
X11550000Y-7960000D01*
%TO.C,C4*%
X-14950000Y-7440000D02*
X-14950000Y-7960000D01*
X-12250000Y-7440000D02*
X-12250000Y-7960000D01*
%TO.C,R13*%
X-24125000Y7055000D02*
X-23785000Y7055000D01*
X-24125000Y5695000D02*
X-23785000Y5695000D01*
%TO.C,C14*%
X23260000Y1350000D02*
X22740000Y1350000D01*
X23260000Y-1350000D02*
X22740000Y-1350000D01*
%TO.C,Y1*%
X1297500Y23220000D02*
X1297500Y21920000D01*
X4737500Y23220000D02*
X4737500Y21920000D01*
D14*
X5337500Y22570000D02*
G75*
G02*
X5137500Y22570000I-100000J0D01*
G01*
X5137500Y22570000D02*
G75*
G02*
X5337500Y22570000I100000J0D01*
G01*
%TO.C,C39*%
D12*
X-14610000Y8200000D02*
X-13890000Y8200000D01*
X-14610000Y6400000D02*
X-13890000Y6400000D01*
%TO.C,C40*%
X15810000Y11450000D02*
X15290000Y11450000D01*
X15810000Y8750000D02*
X15290000Y8750000D01*
%TO.C,C3*%
X2050000Y-7440000D02*
X2050000Y-7960000D01*
X4750000Y-7440000D02*
X4750000Y-7960000D01*
%TO.C,L2*%
X10550001Y8400000D02*
X10550001Y8700000D01*
X12749999Y8400000D02*
X12749999Y8700000D01*
%TO.C,C15*%
X17940000Y4850000D02*
X18460000Y4850000D01*
X17940000Y2150000D02*
X18460000Y2150000D01*
%TO.C,R14*%
X-23460000Y10850000D02*
X-23460000Y11070000D01*
X-22560000Y10850000D02*
X-22560000Y11070000D01*
%TO.C,R15*%
X-16200000Y11840000D02*
X-16200000Y12060000D01*
X-15300000Y11840000D02*
X-15300000Y12060000D01*
%TO.C,C21*%
X-11650000Y5790000D02*
X-11650000Y6310000D01*
X-8950000Y5790000D02*
X-8950000Y6310000D01*
%TO.C,U4*%
D13*
X-1676400Y1676400D02*
X-1209741Y1676400D01*
X-1676400Y1209741D02*
X-1676400Y1676400D01*
X-1676400Y-1676400D02*
X-1676400Y-1209741D01*
X-1209741Y-1676400D02*
X-1676400Y-1676400D01*
X1209741Y1676400D02*
X1676400Y1676400D01*
X1676400Y1676400D02*
X1676400Y1209741D01*
X1676400Y-1209741D02*
X1676400Y-1676400D01*
X1676400Y-1676400D02*
X1209741Y-1676400D01*
D15*
G36*
X2362200Y59499D02*
G01*
X2108200Y59499D01*
X2108200Y440500D01*
X2362200Y440500D01*
X2362200Y59499D01*
G37*
%TO.C,C13*%
D12*
X12250000Y-7440000D02*
X12250000Y-7960000D01*
X14950000Y-7440000D02*
X14950000Y-7960000D01*
%TO.C,C10*%
X-23260000Y1350000D02*
X-22740000Y1350000D01*
X-23260000Y-1350000D02*
X-22740000Y-1350000D01*
%TO.C,VR1*%
X-21975000Y7200000D02*
X-21975000Y11100000D01*
X-16925000Y7200000D02*
X-16925000Y11100000D01*
D14*
X-17445000Y5080000D02*
G75*
G02*
X-17645000Y5080000I-100000J0D01*
G01*
X-17645000Y5080000D02*
G75*
G02*
X-17445000Y5080000I100000J0D01*
G01*
%TO.C,C18*%
D12*
X17940000Y-2150000D02*
X18460000Y-2150000D01*
X17940000Y-4850000D02*
X18460000Y-4850000D01*
%TO.C,C41*%
X14750000Y18219000D02*
X14750000Y17699000D01*
X17450000Y18219000D02*
X17450000Y17699000D01*
%TO.C,R9*%
X-4850000Y10750000D02*
X-4850000Y10970000D01*
X-3950000Y10750000D02*
X-3950000Y10970000D01*
%TO.C,C16*%
X15650000Y-7440000D02*
X15650000Y-7960000D01*
X18350000Y-7440000D02*
X18350000Y-7960000D01*
%TO.C,L3*%
X19960000Y18100000D02*
X19660000Y18100000D01*
X19960000Y15900000D02*
X19660000Y15900000D01*
%TO.C,C17*%
X17940000Y1350000D02*
X18460000Y1350000D01*
X17940000Y-1350000D02*
X18460000Y-1350000D01*
%TO.C,C1*%
X-4750000Y-7440000D02*
X-4750000Y-7960000D01*
X-2050000Y-7440000D02*
X-2050000Y-7960000D01*
%TO.C,C7*%
X5450000Y-7440000D02*
X5450000Y-7960000D01*
X8150000Y-7440000D02*
X8150000Y-7960000D01*
%TD*%
M02*
